<?xml version="1.0" encoding="UTF-8"?> <svg xmlns="http://www.w3.org/2000/svg" viewBox="0 0 200 200"><title>main-stage-logo-nov</title><path d="M56.48,24.79H74v77.05H62.48V43.32L54.1,101.91H42.49L34,42.56v59.35H23.8V24.79H41.49l7.38,56.06Z" style="fill:#fff"></path><path d="M105.69,24.72l11.15,77.19H105.15l-1.54-12.07H91.31l-1.46,12.07H78.93L90,24.72Zm-8.3,15.61-4.77,39h9.61Z" style="fill:#fff"></path><path d="M133.6,24.79v77.05H121.76V24.79Z" style="fill:#fff"></path><path d="M176.2,101.91H163.36L151.28,50.09l.08,13.53v38.29H140.75V24.79h13.84l11.07,47.6-.07-12.92V24.79H176.2Z" style="fill:#fff"></path><path d="M48.25,140.59a13.32,13.32,0,0,1,4.46,4.76,13.86,13.86,0,0,1,1.23,6.39v10.45c0,8-4,11.92-12,11.92H37.64c-7.92,0-11.91-3.92-11.91-11.84V148.66h9.61v13.22c0,2.47,1.23,3.7,3.76,3.7h1.31c2.54,0,3.77-1.23,3.77-3.7v-8.76a6.14,6.14,0,0,0-2.77-5.23l-10-7.23A14,14,0,0,1,27,135.9a13.73,13.73,0,0,1-1.23-6.31v-8.84c0-8,4-11.92,12-11.92h4.15c7.92,0,11.92,3.92,11.92,11.84v11.69H44.1v-11.3q0-3.69-3.69-3.69H39.18q-3.69,0-3.69,3.69v7.15a6,6,0,0,0,2.77,5.23Z" style="fill:#fff"></path><path d="M75.32,173.57H65.4V118.14H56.56v-8.92h27.6v8.92H75.32Z" style="fill:#fff"></path><path d="M104.84,109.14l9.31,64.43h-9.77l-1.3-10.15H92.85l-1.23,10.15H82.47l9.23-64.43Zm-6.92,13.07-4,32.52h8Z" style="fill:#fff"></path><path d="M137.21,146.89h-5.15v-8.46h14.76v23.69c0,8-4,11.91-12,11.91H129.6c-8,0-12-4-12-11.91V120.6c0-8,4-11.92,12-11.92h5.15c7.92,0,11.92,3.92,11.92,11.84V130.9H137v-9.84c0-2.54-1.23-3.77-3.69-3.77h-2c-2.53,0-3.76,1.23-3.76,3.77v40.59c0,2.54,1.23,3.77,3.76,3.77h2.23c2.54,0,3.77-1.23,3.77-3.77V146.89Z" style="fill:#fff"></path><path d="M152.44,109.22h22v8.92H162.36v18.22H174v8.92H162.36v19.37h12.3v8.92H152.51V109.22Z" style="fill:#fff"></path></svg> 