<?xml version="1.0" encoding="UTF-8"?> <svg xmlns="http://www.w3.org/2000/svg" viewBox="0 0 200 200"><title>dance-arena-logo-nov-01</title><polygon points="36.66 122.23 36.66 131.92 54.52 141.81 72.39 131.92 72.39 112.13 54.93 102.54 54.93 111.73 64.11 116.77 64.11 127.27 54.52 132.63 44.53 127.07 54.12 121.82 54.12 112.64 36.66 122.23" style="fill:#fff"></polygon><path d="M8.39,116.77,18,111.52l9.59,5.25v10.6L18,132.62l-9.59-5.25Zm27.46,15.15V97l-8.28-4.55v15.15L18,102.34,0,112.13v19.79l17.87,9.89Z" style="fill:#fff"></path><polyline points="108.94 131.92 108.94 112.13 91.07 102.34 73.2 112.13 73.2 131.92 81.58 136.46 81.58 116.77 91.07 111.42 100.66 116.77 100.66 136.46" style="fill:#fff"></polyline><polygon points="109.85 112.13 109.85 131.92 127.72 141.81 145.59 131.92 145.59 122.73 127.72 132.63 118.13 127.27 118.13 116.77 127.72 111.42 136.8 116.57 145.18 111.93 127.72 102.34 109.85 112.13" style="fill:#fff"></polygon><polygon points="182.13 121.82 182.13 112.13 164.26 102.34 146.39 112.13 146.39 131.92 163.86 141.51 163.86 132.32 154.67 127.27 154.67 116.77 164.26 111.42 174.26 116.98 164.67 122.23 164.67 131.41 182.13 121.82" style="fill:#fff"></polygon><polygon points="17.88 155.54 17.88 165.13 35.85 175.03 53.72 165.13 53.72 145.45 36.25 135.75 36.25 144.94 45.34 149.99 45.34 160.59 35.85 165.84 25.85 160.39 35.44 155.04 35.44 145.85 17.88 155.54" style="fill:#fff"></polygon><polygon points="164.26 155.54 164.26 165.13 182.13 175.03 200 165.13 200 145.45 182.54 135.75 182.54 144.94 191.72 149.99 191.72 160.59 182.13 165.84 172.14 160.39 181.73 155.04 181.73 145.85 164.26 155.54" style="fill:#fff"></polygon><polygon points="126.81 155.04 126.81 145.45 108.94 135.55 91.07 145.45 91.07 165.13 108.54 174.83 108.54 165.64 99.45 160.59 99.45 149.99 108.94 144.74 118.93 150.29 109.34 155.54 109.34 164.73 126.81 155.04" style="fill:#fff"></polygon><polygon points="163.46 145.45 145.59 135.55 127.72 145.45 127.72 165.13 136 169.78 136 149.99 145.59 144.74 155.08 149.99 155.08 169.78 163.46 165.13 163.46 145.45" style="fill:#fff"></polygon><polygon points="54.52 145.45 54.52 165.13 62.8 169.78 62.8 149.99 72.39 144.74 81.58 149.79 89.86 145.14 72.39 135.55 54.52 145.45" style="fill:#fff"></polygon><path d="M131.25,51.86A7.17,7.17,0,0,0,125,55.29a7.49,7.49,0,0,0-11.41-1.41V52.77a.48.48,0,0,0-.5-.51h-1.62a.48.48,0,0,0-.5.51V69.83a.47.47,0,0,0,.5.5h1.72a.47.47,0,0,0,.5-.5V59.73a5,5,0,1,1,9.9,0v10.1a.47.47,0,0,0,.5.5h1.72a.47.47,0,0,0,.5-.5V59.73a4.83,4.83,0,0,1,5-5.15,4.75,4.75,0,0,1,4.95,5.05v10.2a.47.47,0,0,0,.5.5h1.72a.47.47,0,0,0,.5-.5V59.63A7.39,7.39,0,0,0,131.25,51.86Z" style="fill:#fff"></path><path d="M152.65,67.61l-.3-.31c-.1-.1-.3,0-.4,0a5.66,5.66,0,0,1-2.43.61c-1.91,0-2.62-.81-2.62-3.33V54.79h5.25a.48.48,0,0,0,.5-.51V52.87a.48.48,0,0,0-.5-.51H146.9V47.82a.52.52,0,0,0-.2-.4c-.1-.11-.31-.21-.41-.11l-1.61.21a.54.54,0,0,0-.51.5v4.44h-3a.48.48,0,0,0-.5.51v1.41a.48.48,0,0,0,.5.51h3v9.79c0,4,1.72,6.06,5.35,6.06a8.07,8.07,0,0,0,3.44-.91.53.53,0,0,0,.3-.71Z" style="fill:#fff"></path><path d="M163,59.83l-.6-.1c-2.43-.4-4.45-.91-4.55-2.52a1.87,1.87,0,0,1,.51-1.31c.7-.81,2.22-1.22,3.93-1.22h.11a7,7,0,0,1,4.94,1.62.62.62,0,0,0,.81,0l1-1.11a.62.62,0,0,0,0-.81A9.36,9.36,0,0,0,162.45,52h-.1c-2.53,0-4.65.71-5.86,2a4.48,4.48,0,0,0-1.31,3.33c0,3.94,3.93,4.64,7.06,5.15s5.15,1,5,2.83c-.1,2.42-3.33,2.72-4.74,2.72a7,7,0,0,1-5.76-2.62.53.53,0,0,0-.4-.21c-.2,0-.3,0-.41.11l-1.21,1.11a.62.62,0,0,0-.1.7c1.52,2.32,4.44,3.64,7.88,3.64,1.71,0,7.37-.41,7.57-5.25C170.22,61,166,60.34,163,59.83Z" style="fill:#fff"></path><path d="M70.27,36.51A1.23,1.23,0,0,0,69,37.62a1.62,1.62,0,0,0,.3.91,1.28,1.28,0,0,0,.81.4h.1a1.28,1.28,0,0,0,1.21-1.11,1.61,1.61,0,0,0-.3-.9A1.2,1.2,0,0,0,70.27,36.51Z" style="fill:#fff"></path><path d="M66.44,79.52h-.1a1.31,1.31,0,0,0-1.22,1.11,1.66,1.66,0,0,0,.31.91,1.24,1.24,0,0,0,.81.4h.1a1.29,1.29,0,0,0,1.21-1.11A1.25,1.25,0,0,0,66.44,79.52Z" style="fill:#fff"></path><path d="M74.11,37.22A1.25,1.25,0,0,0,72.6,38a1.35,1.35,0,0,0,.1.9,1.32,1.32,0,0,0,.7.61h.31a1.18,1.18,0,0,0,1.11-.91A1,1,0,0,0,74.11,37.22Z" style="fill:#fff"></path><path d="M62.9,78.81h-.3a1.19,1.19,0,0,0-1.11.91,1.43,1.43,0,0,0,.1.91,1.38,1.38,0,0,0,.71.61h.3a1.18,1.18,0,0,0,1.11-.91A1.26,1.26,0,0,0,62.9,78.81Z" style="fill:#fff"></path><path d="M77.85,38.53a1,1,0,0,0-.51-.1,1.24,1.24,0,0,0-1.11.71,1.42,1.42,0,0,0,0,.91,1.32,1.32,0,0,0,.61.7.9.9,0,0,0,.5.1,1.21,1.21,0,0,0,.51-2.32Z" style="fill:#fff"></path><path d="M59.57,77.6a.9.9,0,0,0-.5-.1,1.22,1.22,0,0,0-1.11.71,1.42,1.42,0,0,0,0,.91,1.34,1.34,0,0,0,.6.7.94.94,0,0,0,.51.1,1.24,1.24,0,0,0,1.11-.7,1.42,1.42,0,0,0,0-.91A1.34,1.34,0,0,0,59.57,77.6Z" style="fill:#fff"></path><path d="M79.66,40.85A1.28,1.28,0,0,0,80,42.57a1.45,1.45,0,0,0,.7.2,1.24,1.24,0,0,0,1-.5,1.28,1.28,0,0,0-.3-1.72A1.26,1.26,0,0,0,79.66,40.85Z" style="fill:#fff"></path><path d="M55.84,75.68a1.4,1.4,0,0,0-1,.51,1,1,0,0,0-.2.91,1.37,1.37,0,0,0,.5.8,1.36,1.36,0,0,0,.71.21,1.44,1.44,0,0,0,1-.51,1,1,0,0,0,.2-.91,1.34,1.34,0,0,0-.51-.8A.92.92,0,0,0,55.84,75.68Z" style="fill:#fff"></path><path d="M82.69,43.07a1.18,1.18,0,0,0-.3.81A1,1,0,0,0,83.5,45a1.18,1.18,0,0,0,.81-.3,1.16,1.16,0,0,0,.3-.81,1.18,1.18,0,0,0-.3-.81A1.24,1.24,0,0,0,82.69,43.07Z" style="fill:#fff"></path><path d="M52.1,73.56a1.18,1.18,0,0,0-.3.81,1,1,0,0,0,1.11,1.11,1.16,1.16,0,0,0,.81-2A1.39,1.39,0,0,0,52.1,73.56Z" style="fill:#fff"></path><path d="M85.92,48a1.9,1.9,0,0,0,.71-.2,1.4,1.4,0,0,0,.5-.81,1,1,0,0,0-.2-.91,1.24,1.24,0,0,0-1-.5,2,2,0,0,0-.71.2,1.17,1.17,0,0,0-.3,1.62A1.11,1.11,0,0,0,85.92,48Z" style="fill:#fff"></path><path d="M50.49,70.33a1.85,1.85,0,0,0-.71.2,1.21,1.21,0,0,0-.51.81,1,1,0,0,0,.21.91,1.24,1.24,0,0,0,1,.51,1.71,1.71,0,0,0,.7-.21,1.11,1.11,0,0,0,.51-.8,1,1,0,0,0-.2-.91A1.25,1.25,0,0,0,50.49,70.33Z" style="fill:#fff"></path><path d="M86.63,49.64a1.42,1.42,0,0,0,0,.91,1.23,1.23,0,0,0,1.11.7.9.9,0,0,0,.5-.1,1.31,1.31,0,0,0,.61-1.61,1.24,1.24,0,0,0-1.11-.71,1,1,0,0,0-.51.1A4.05,4.05,0,0,0,86.63,49.64Z" style="fill:#fff"></path><path d="M49.78,67.81a1.25,1.25,0,0,0-1.11-.71,1,1,0,0,0-.51.1,1.07,1.07,0,0,0-.6.71,1.42,1.42,0,0,0,0,.91,1.24,1.24,0,0,0,1.11.71.83.83,0,0,0,.5-.11A1.31,1.31,0,0,0,49.78,67.81Z" style="fill:#fff"></path><path d="M87.94,54a1.19,1.19,0,0,0,1.11.91h.3a1.16,1.16,0,0,0,.81-1.42,1.18,1.18,0,0,0-1.11-.91h-.3A1.08,1.08,0,0,0,87.94,54Z" style="fill:#fff"></path><path d="M48.57,64.48a1.18,1.18,0,0,0-1.11-.91h-.31a1.15,1.15,0,0,0-.8,1.41,1.17,1.17,0,0,0,1.11.91h.3A1.23,1.23,0,0,0,48.57,64.48Z" style="fill:#fff"></path><path d="M89.66,56.1a1.23,1.23,0,0,0-1.11,1.31,1.28,1.28,0,0,0,1.21,1.11h.1a1.28,1.28,0,0,0,.81-.4,1.25,1.25,0,0,0,.3-.91,1.31,1.31,0,0,0-1.31-1.11Z" style="fill:#fff"></path><path d="M46.85,62.26a1.27,1.27,0,0,0,.81-.41,1.4,1.4,0,0,0,.3-.91,1.29,1.29,0,0,0-1.21-1.11h-.1a1.27,1.27,0,0,0-.81.41,1.4,1.4,0,0,0-.3.91,1.25,1.25,0,0,0,1.31,1.11Z" style="fill:#fff"></path><path d="M89.86,59.93A1.22,1.22,0,0,0,88.55,61a1.62,1.62,0,0,0,.3.91,1.2,1.2,0,0,0,.81.41h.1A1.3,1.3,0,0,0,91,61.25a1.62,1.62,0,0,0-.3-.91A1,1,0,0,0,89.86,59.93Z" style="fill:#fff"></path><path d="M46.65,58.42h0A1.3,1.3,0,0,0,48,57.31a1.64,1.64,0,0,0-.3-.91,1.26,1.26,0,0,0-.81-.4,1.22,1.22,0,0,0-1.31,1.11A1.12,1.12,0,0,0,46.65,58.42Z" style="fill:#fff"></path><path d="M89.35,63.67h-.3a1.18,1.18,0,0,0-1.11.91,1.45,1.45,0,0,0,.1.91,1.36,1.36,0,0,0,.71.6h.3a1.24,1.24,0,0,0,.3-2.42Z" style="fill:#fff"></path><path d="M47.05,54.68h.31a1.18,1.18,0,0,0,1.11-.9,1.43,1.43,0,0,0-.1-.91,1.38,1.38,0,0,0-.71-.61h-.3a1.18,1.18,0,0,0-1.11.91A1.16,1.16,0,0,0,47.05,54.68Z" style="fill:#fff"></path><path d="M88.24,67.2a.9.9,0,0,0-.5-.1,1.24,1.24,0,0,0-1.11.71,1.22,1.22,0,0,0,.6,1.61.88.88,0,0,0,.51.11,1.25,1.25,0,0,0,1.11-.71A1.22,1.22,0,0,0,88.24,67.2Z" style="fill:#fff"></path><path d="M48.16,51.15a1,1,0,0,0,.51.1,1.24,1.24,0,0,0,1.11-.7,1.22,1.22,0,0,0-.61-1.62.9.9,0,0,0-.5-.1,1.22,1.22,0,0,0-1.11.71A1.31,1.31,0,0,0,48.16,51.15Z" style="fill:#fff"></path><path d="M85.92,70.43a1.42,1.42,0,0,0-1,.51,1,1,0,0,0-.2.91,1.43,1.43,0,0,0,.5.81,1.52,1.52,0,0,0,.71.2,1.22,1.22,0,0,0,1-.51,1.13,1.13,0,0,0-.3-1.61A.83.83,0,0,0,85.92,70.43Z" style="fill:#fff"></path><path d="M50.59,45.6a1.39,1.39,0,0,0-1,.5,1.28,1.28,0,0,0,.3,1.72,1.45,1.45,0,0,0,.71.2,1.43,1.43,0,0,0,1-.5,1.15,1.15,0,0,0-.31-1.62A1.08,1.08,0,0,0,50.59,45.6Z" style="fill:#fff"></path><path d="M82.59,73.56a1.28,1.28,0,0,0-.4.81,1.16,1.16,0,0,0,.3.81,1.23,1.23,0,0,0,1.61,0,1.16,1.16,0,0,0,0-1.72C83.9,73.16,83.09,73.16,82.59,73.56Z" style="fill:#fff"></path><path d="M52.1,43.07a1.18,1.18,0,0,0-.3.81A1,1,0,0,0,52.91,45a1.16,1.16,0,0,0,.81-2A1.15,1.15,0,0,0,52.1,43.07Z" style="fill:#fff"></path><path d="M80.57,75.68a1.8,1.8,0,0,0-.71.21,1.37,1.37,0,0,0-.5.8,1,1,0,0,0,.2.91,1.26,1.26,0,0,0,1,.51,1.75,1.75,0,0,0,.71-.21,1.22,1.22,0,0,0-.71-2.22Z" style="fill:#fff"></path><path d="M55.84,40.25a1.85,1.85,0,0,0-.71.2,1.15,1.15,0,0,0-.3,1.61,1.22,1.22,0,0,0,1,.51,1.85,1.85,0,0,0,.7-.2,1.13,1.13,0,0,0,.51-.81,1,1,0,0,0-.2-.91A1.58,1.58,0,0,0,55.84,40.25Z" style="fill:#fff"></path><path d="M77.34,77.6a.9.9,0,0,0-.5.1,1.06,1.06,0,0,0-.61.71,1.42,1.42,0,0,0,0,.91,1.25,1.25,0,0,0,1.11.71.88.88,0,0,0,.51-.11,1.22,1.22,0,0,0,.6-1.61A1.17,1.17,0,0,0,77.34,77.6Z" style="fill:#fff"></path><path d="M59.17,38.43a1,1,0,0,0-.51.1,1.05,1.05,0,0,0-.6.71,1.42,1.42,0,0,0,0,.91,1.23,1.23,0,0,0,1.11.7.9.9,0,0,0,.5-.1,1.31,1.31,0,0,0,.61-1.61A1.52,1.52,0,0,0,59.17,38.43Z" style="fill:#fff"></path><path d="M73.5,78.91a1.34,1.34,0,0,0-.7.51,1,1,0,0,0-.1.91,1.18,1.18,0,0,0,1.11.91h.3a1.22,1.22,0,0,0,.81-1.52A1.12,1.12,0,0,0,73.5,78.91Z" style="fill:#fff"></path><path d="M62.4,37.22a1.21,1.21,0,0,0-.81,1.51,1.18,1.18,0,0,0,1.11.91H63a1.05,1.05,0,0,0,.71-.6,1,1,0,0,0,.1-.91A1.1,1.1,0,0,0,62.4,37.22Z" style="fill:#fff"></path><path d="M70,79.52a1.31,1.31,0,0,0-1.11,1.31,1.29,1.29,0,0,0,1.21,1.11h.1a1.2,1.2,0,0,0,1.11-1.31A1.16,1.16,0,0,0,70,79.52Z" style="fill:#fff"></path><path d="M66.24,36.51a1.32,1.32,0,0,0-1.12,1.31,1.3,1.3,0,0,0,1.22,1.11h.1a1.31,1.31,0,0,0,1.11-1.31A1.12,1.12,0,0,0,66.24,36.51Z" style="fill:#fff"></path><path d="M68.15,41.36h0a1.23,1.23,0,0,0,1.21-1.21,1.21,1.21,0,1,0-1.21,1.21Zm0-.31Z" style="fill:#fff"></path><path d="M68.25,77A1.23,1.23,0,0,0,67,78.21a1.17,1.17,0,0,0,1.21,1.21h0a1.17,1.17,0,0,0,1.22-1.21A1.12,1.12,0,0,0,68.25,77Zm.11,2.12Z" style="fill:#fff"></path><path d="M71.28,41.66h.2a1.2,1.2,0,0,0,1.22-1,1,1,0,0,0-.21-.91,1.37,1.37,0,0,0-.8-.5,1.19,1.19,0,0,0-1.42,1A1.24,1.24,0,0,0,71.28,41.66Z" style="fill:#fff"></path><path d="M65.23,76.69a1.27,1.27,0,0,0-1.42,1,1,1,0,0,0,.2.91,1.45,1.45,0,0,0,.81.51H65a1.22,1.22,0,0,0,1.22-1A1.41,1.41,0,0,0,65.23,76.69Z" style="fill:#fff"></path><path d="M74.21,42.47c.1,0,.3.1.4.1a1.1,1.1,0,0,0,1.12-.81A1.37,1.37,0,0,0,75,40.15a1.2,1.2,0,0,0-1.52.7,1.42,1.42,0,0,0,0,.91A2.53,2.53,0,0,0,74.21,42.47Z" style="fill:#fff"></path><path d="M62.2,76a1.36,1.36,0,0,0-1.62.7,1.42,1.42,0,0,0,0,.91,1.09,1.09,0,0,0,.71.61c.1,0,.3.1.4.1a1.09,1.09,0,0,0,1.11-.81A1,1,0,0,0,62.2,76Z" style="fill:#fff"></path><path d="M77,43.68a1.42,1.42,0,0,0,.6.2,1.39,1.39,0,0,0,1.11-.6,1.27,1.27,0,1,0-2.22-1.22A1.18,1.18,0,0,0,77,43.68Z" style="fill:#fff"></path><path d="M59.37,74.67a1.33,1.33,0,0,0-1.72.51,2,2,0,0,0-.1.81,1.07,1.07,0,0,0,.61.7,1.19,1.19,0,0,0,1.72-.4,1,1,0,0,0,.1-.91A1.11,1.11,0,0,0,59.37,74.67Z" style="fill:#fff"></path><path d="M80.37,45.8a1.29,1.29,0,0,0,.91-.4,1.44,1.44,0,0,0,.3-.91,1.24,1.24,0,0,0-.4-.81,1.27,1.27,0,0,0-1.72.2,1.42,1.42,0,0,0-.3.91,1.26,1.26,0,0,0,.4.81A2.41,2.41,0,0,0,80.37,45.8Z" style="fill:#fff"></path><path d="M55.13,73.06a1.4,1.4,0,0,0-.3.91,1.28,1.28,0,0,0,.4.81,1.16,1.16,0,0,0,.81.3,1.26,1.26,0,0,0,.91-.41,1.17,1.17,0,0,0-.2-1.71A1.05,1.05,0,0,0,55.13,73.06Z" style="fill:#fff"></path><path d="M81.78,47.72a1.1,1.1,0,0,0,.91.4,1.16,1.16,0,0,0,.81-.3A1.22,1.22,0,0,0,81.88,46,1.37,1.37,0,0,0,81.78,47.72Z" style="fill:#fff"></path><path d="M54.63,70.74a1.16,1.16,0,0,0-1.72-.1.84.84,0,0,0-.4.7,1.62,1.62,0,0,0,.3.91,1.1,1.1,0,0,0,.91.41,1.14,1.14,0,0,0,.8-.31,1.2,1.2,0,0,0,.41-.81A1.14,1.14,0,0,0,54.63,70.74Z" style="fill:#fff"></path><path d="M83.5,49.23a1.43,1.43,0,0,0,.1.91,1.11,1.11,0,0,0,1,.61,1.42,1.42,0,0,0,.6-.2,1.25,1.25,0,0,0-1.31-2.13C83.8,48.73,83.6,48.93,83.5,49.23Z" style="fill:#fff"></path><path d="M53,69.12a1.45,1.45,0,0,0-.1-.91,1.19,1.19,0,0,0-1.72-.4,1.33,1.33,0,0,0-.6.71,1.41,1.41,0,0,0,.1.9A1.15,1.15,0,0,0,51.8,70a1.42,1.42,0,0,0,.6-.2A1.34,1.34,0,0,0,53,69.12Z" style="fill:#fff"></path><path d="M85,52.06A1.42,1.42,0,0,0,85,53a1.19,1.19,0,0,0,1.11.81.58.58,0,0,0,.41-.11,1.34,1.34,0,0,0,.7-.6.92.92,0,0,0,0-.91,1.31,1.31,0,0,0-1.61-.71A.93.93,0,0,0,85,52.06Z" style="fill:#fff"></path><path d="M51.5,65.39a1.32,1.32,0,0,0-1.62-.71,1.26,1.26,0,0,0,.4,2.42.61.61,0,0,0,.41-.1A1.24,1.24,0,0,0,51.5,65.39Z" style="fill:#fff"></path><path d="M85.92,55.09a1.5,1.5,0,0,0-.2.91,1.21,1.21,0,0,0,1.21,1h.2a1.38,1.38,0,0,0,.81-.51,1,1,0,0,0,.2-.91,1.26,1.26,0,0,0-1.41-1A1.41,1.41,0,0,0,85.92,55.09Z" style="fill:#fff"></path><path d="M49.68,63.77a1.43,1.43,0,0,0,.81-.5,1,1,0,0,0,.2-.91,1.26,1.26,0,0,0-1.42-1,1.37,1.37,0,0,0-.8.5,1,1,0,0,0-.2.91,1.19,1.19,0,0,0,1.21,1Z" style="fill:#fff"></path><path d="M87.23,57.92a1.22,1.22,0,0,0-.9.4,1.24,1.24,0,0,0-.41.91,1.17,1.17,0,0,0,1.21,1.21h0a1.17,1.17,0,0,0,1.21-1.21A1.07,1.07,0,0,0,87.23,57.92Z" style="fill:#fff"></path><path d="M49.17,60.54h0a1.24,1.24,0,0,0,1.22-1.21,1.17,1.17,0,0,0-1.22-1.21,1.22,1.22,0,0,0-.9.4,1.26,1.26,0,0,0-.41.91A1.53,1.53,0,0,0,49.17,60.54Z" style="fill:#fff"></path><path d="M87.23,61.15a1.18,1.18,0,0,0-1.41,1,1,1,0,0,0,.2.9,1.36,1.36,0,0,0,.81.51H87a1.2,1.2,0,0,0,1.21-1A1.38,1.38,0,0,0,87.23,61.15Z" style="fill:#fff"></path><path d="M49.27,57.21h.21a1.21,1.21,0,0,0,1.21-1,1,1,0,0,0-.2-.91,1.43,1.43,0,0,0-.81-.5,1.17,1.17,0,0,0-1.41,1A1.29,1.29,0,0,0,49.27,57.21Z" style="fill:#fff"></path><path d="M86.53,64.48a1.25,1.25,0,1,0-.91,2.32c.1,0,.3.1.4.1a1.28,1.28,0,0,0,.51-2.42Z" style="fill:#fff"></path><path d="M49.88,53.88c.1,0,.3.1.4.1a1.1,1.1,0,0,0,1.11-.81,1.19,1.19,0,0,0-.7-1.51,1.19,1.19,0,1,0-.81,2.22Z" style="fill:#fff"></path><path d="M85.32,67.61a1.32,1.32,0,0,0-1.72.5,1,1,0,0,0-.1.91,1.07,1.07,0,0,0,.6.71,1.51,1.51,0,0,0,.61.2,1.38,1.38,0,0,0,1.11-.61A1.26,1.26,0,0,0,85.32,67.61Z" style="fill:#fff"></path><path d="M51.09,50.85a1.46,1.46,0,0,0,.61.2,1.38,1.38,0,0,0,1.11-.61,1.32,1.32,0,0,0-.51-1.71,1.39,1.39,0,0,0-1.71.4A1.32,1.32,0,0,0,51.09,50.85Z" style="fill:#fff"></path><path d="M81.88,70.53a1.44,1.44,0,0,0-.3.91,1.24,1.24,0,0,0,.4.81,1.18,1.18,0,0,0,.81.3,1.27,1.27,0,0,0,.91-.4,1.18,1.18,0,0,0-.2-1.72A1.15,1.15,0,0,0,81.88,70.53Z" style="fill:#fff"></path><path d="M53.62,48.22a1.27,1.27,0,0,0,.9-.4,1.22,1.22,0,1,0-1.91-1.52,1.17,1.17,0,0,0,.2,1.72A1.89,1.89,0,0,0,53.62,48.22Z" style="fill:#fff"></path><path d="M79.76,72.76a1.16,1.16,0,0,0-.1,1.71,1.09,1.09,0,0,0,.91.41,1.12,1.12,0,0,0,.81-.31,1.23,1.23,0,0,0,.4-.8,1.62,1.62,0,0,0-.3-.91A1.35,1.35,0,0,0,79.76,72.76Z" style="fill:#fff"></path><path d="M55.94,45.9a1.18,1.18,0,0,0,.81-.3,1.26,1.26,0,0,0,.4-.81,1.64,1.64,0,0,0-.3-.91A1.22,1.22,0,0,0,55,45.5,1.27,1.27,0,0,0,55.94,45.9Z" style="fill:#fff"></path><path d="M77.24,74.57a1.42,1.42,0,0,0-.61.71,1.44,1.44,0,0,0,.1.91,1.18,1.18,0,0,0,1.12.6,1.42,1.42,0,0,0,.6-.2,1.17,1.17,0,0,0,.4-1.71A1.36,1.36,0,0,0,77.24,74.57Z" style="fill:#fff"></path><path d="M58.66,44a1.42,1.42,0,0,0,.61-.2A1.25,1.25,0,0,0,58,41.66a1.31,1.31,0,0,0-.61.71,1.45,1.45,0,0,0,.1.91A1.33,1.33,0,0,0,58.66,44Z" style="fill:#fff"></path><path d="M74.41,75.89a1.34,1.34,0,0,0-.7.6,1.42,1.42,0,0,0,0,.91,1.18,1.18,0,0,0,1.11.81.6.6,0,0,0,.4-.1,1.28,1.28,0,0,0,.71-1.62A1.25,1.25,0,0,0,74.41,75.89Z" style="fill:#fff"></path><path d="M61.59,42.57a.64.64,0,0,0,.41-.1,1,1,0,0,0,.7-.61,1.42,1.42,0,0,0,0-.91,1.19,1.19,0,0,0-1.61-.7,1.27,1.27,0,0,0-.71,1.61A1.53,1.53,0,0,0,61.59,42.57Z" style="fill:#fff"></path><path d="M71.38,76.69a1.25,1.25,0,0,0-1,1.42,1.22,1.22,0,0,0,1.22,1h.2a1.45,1.45,0,0,0,.81-.51,1,1,0,0,0,.2-.91A1.2,1.2,0,0,0,71.38,76.69Z" style="fill:#fff"></path><path d="M64.82,41.66H65a1.23,1.23,0,1,0-.4-2.42,1.18,1.18,0,0,0-1,1.41A1.2,1.2,0,0,0,64.82,41.66Z" style="fill:#fff"></path><circle cx="68.25" cy="35.4" r="1.11" style="fill:#fff"></circle><circle cx="68.25" cy="82.95" r="1.11" style="fill:#fff"></circle><path d="M71.18,35.6a1.13,1.13,0,1,1,.91,1.32A1.15,1.15,0,0,1,71.18,35.6Z" style="fill:#fff"></path><circle cx="64.05" cy="82.57" r="1.11" style="fill:#fff"></circle><circle cx="76.32" cy="36.86" r="1.11" style="fill:#fff"></circle><circle cx="60.1" cy="81.55" r="1.11" style="fill:#fff"></circle><circle cx="80.12" cy="38.65" r="1.11" style="fill:#fff"></circle><circle cx="56.3" cy="79.75" r="1.11" style="fill:#fff"></circle><circle cx="83.49" cy="40.96" r="1.11" style="fill:#fff"></circle><circle cx="52.92" cy="77.43" r="1.11" style="fill:#fff"></circle><circle cx="86.42" cy="43.89" r="1.11" style="fill:#fff"></circle><circle cx="49.99" cy="74.49" r="1.11" style="fill:#fff"></circle><circle cx="88.86" cy="47.29" r="1.11" style="fill:#fff"></circle><circle cx="47.64" cy="71.03" r="1.11" style="fill:#fff"></circle><path d="M90.16,49.94A1.18,1.18,0,1,1,91,52.16a1.23,1.23,0,0,1-1.51-.71A1.19,1.19,0,0,1,90.16,49.94Z" style="fill:#fff"></path><circle cx="45.84" cy="67.32" r="1.11" style="fill:#fff"></circle><circle cx="91.68" cy="55.09" r="1.11" style="fill:#fff"></circle><path d="M91.58,52.56a1.13,1.13,0,1,1-.91,1.32A1.15,1.15,0,0,1,91.58,52.56Z" style="fill:#fff"></path><circle cx="44.83" cy="63.26" r="1.11" style="fill:#fff"></circle><circle cx="91.98" cy="59.23" r="1.11" style="fill:#fff"></circle><path d="M44.43,58a1.11,1.11,0,1,1-1.11,1.11A1.12,1.12,0,0,1,44.43,58Z" style="fill:#fff"></path><circle cx="91.61" cy="63.26" r="1.11" style="fill:#fff"></circle><circle cx="44.85" cy="55.04" r="1.11" style="fill:#fff"></circle><circle cx="90.56" cy="67.31" r="1.11" style="fill:#fff"></circle><circle cx="97.46" cy="67.59" r="1.11" style="fill:#fff"></circle><circle cx="99.1" cy="64.5" r="1.11" style="fill:#fff"></circle><circle cx="100.75" cy="66.95" r="1.11" style="fill:#fff"></circle><circle cx="89.16" cy="80.41" r="1.11" style="fill:#fff"></circle><circle cx="92.36" cy="78.26" r="1.11" style="fill:#fff"></circle><circle cx="81.64" cy="85.21" r="1.11" style="fill:#fff"></circle><circle cx="69.25" cy="88.41" r="1.11" style="fill:#fff"></circle><circle cx="62.55" cy="90.22" r="1.11" style="fill:#fff"></circle><circle cx="45.44" cy="83.83" r="1.11" style="fill:#fff"></circle><circle cx="83.81" cy="89.15" r="1.11" style="fill:#fff"></circle><circle cx="91.06" cy="85.41" r="1.11" style="fill:#fff"></circle><circle cx="95.07" cy="78.04" r="1.11" style="fill:#fff"></circle><circle cx="66.91" cy="25.05" r="1.11" transform="translate(-0.42 1.15) rotate(-0.98)" style="fill:#fff"></circle><circle cx="47.28" cy="31.45" r="1.11" transform="translate(-0.53 0.81) rotate(-0.98)" style="fill:#fff"></circle><circle cx="52.93" cy="30.58" r="1.11" transform="translate(-0.51 0.91) rotate(-0.98)" style="fill:#fff"></circle><circle cx="79.38" cy="28.93" r="1.11" transform="translate(-0.48 1.36) rotate(-0.98)" style="fill:#fff"></circle><path d="M97.13,39.14a1.18,1.18,0,0,1-.81,2.22,1.2,1.2,0,0,1-.71-1.52A1.24,1.24,0,0,1,97.13,39.14Z" style="fill:#fff"></path><circle cx="98.48" cy="48.48" r="1.11" style="fill:#fff"></circle><circle cx="87.03" cy="34.55" r="1.11" transform="translate(-0.14 0.36) rotate(-0.24)" style="fill:#fff"></circle><circle cx="87.56" cy="30.75" r="1.11" transform="translate(-0.51 1.5) rotate(-0.98)" style="fill:#fff"></circle><circle cx="84.72" cy="85.15" r="1.11" style="fill:#fff"></circle><circle cx="95.83" cy="73.57" r="1.11" style="fill:#fff"></circle><path d="M100.46,59.93a1.19,1.19,0,1,1-1.52.71A1.26,1.26,0,0,1,100.46,59.93Z" style="fill:#fff"></path><circle cx="99.86" cy="56.28" r="1.11" style="fill:#fff"></circle><circle cx="95.61" cy="47.99" r="1.11" style="fill:#fff"></circle><circle cx="34.28" cy="51.75" r="1.11" style="fill:#fff"></circle><circle cx="52.08" cy="86.4" r="1.11" style="fill:#fff"></circle><circle cx="55.35" cy="88.73" r="1.11" style="fill:#fff"></circle><circle cx="45.87" cy="51.09" r="1.11" style="fill:#fff"></circle><path d="M43.92,47.92a1.18,1.18,0,1,1-1.51.71A1.2,1.2,0,0,1,43.92,47.92Z" style="fill:#fff"></path><path d="M38.57,47.82a1.18,1.18,0,1,1-1.51.71A1.24,1.24,0,0,1,38.57,47.82Z" style="fill:#fff"></path><circle cx="40.7" cy="46.07" r="1.11" style="fill:#fff"></circle><circle cx="38.23" cy="41.67" r="1.11" style="fill:#fff"></circle><circle cx="43.46" cy="52.63" r="1.11" style="fill:#fff"></circle><circle cx="40.32" cy="55.03" r="1.11" style="fill:#fff"></circle><circle cx="41.05" cy="57.78" r="1.11" style="fill:#fff"></circle><circle cx="88.8" cy="71.02" r="1.11" style="fill:#fff"></circle><circle cx="47.66" cy="47.29" r="1.11" style="fill:#fff"></circle><path d="M46.75,46.3a1.18,1.18,0,0,1-1.21,2,1.22,1.22,0,0,1-.4-1.61A1.23,1.23,0,0,1,46.75,46.3Z" style="fill:#fff"></path><circle cx="46.59" cy="44.49" r="1.11" style="fill:#fff"></circle><circle cx="43.52" cy="45.41" r="1.11" style="fill:#fff"></circle><circle cx="86.44" cy="74.47" r="1.11" style="fill:#fff"></circle><circle cx="49.98" cy="43.91" r="1.11" style="fill:#fff"></circle><circle cx="49.75" cy="41.27" r="1.11" style="fill:#fff"></circle><circle cx="47.35" cy="41.83" r="1.11" style="fill:#fff"></circle><path d="M84.41,76.69a1.15,1.15,0,1,1-1.62-.1A1.06,1.06,0,0,1,84.41,76.69Z" style="fill:#fff"></path><circle cx="52.91" cy="40.98" r="1.11" style="fill:#fff"></circle><circle cx="80.05" cy="79.75" r="1.11" style="fill:#fff"></circle><circle cx="81.48" cy="80.24" r="1.11" style="fill:#fff"></circle><circle cx="56.36" cy="38.63" r="1.11" style="fill:#fff"></circle><path d="M77.44,81.14a1.18,1.18,0,1,1-1.51-.71A1.2,1.2,0,0,1,77.44,81.14Z" style="fill:#fff"></path><circle cx="60.07" cy="36.82" r="1.11" style="fill:#fff"></circle><path d="M73.5,82.35a1.13,1.13,0,0,1-.9,1.31,1.13,1.13,0,1,1,.9-1.31Z" style="fill:#fff"></path><path d="M71.69,84.37a1.15,1.15,0,0,1-.91,1.31,1.13,1.13,0,1,1,.91-1.31Z" style="fill:#fff"></path><circle cx="72.59" cy="86.59" r="1.11" style="fill:#fff"></circle><circle cx="74.82" cy="88.31" r="1.11" style="fill:#fff"></circle><circle cx="79.96" cy="87.49" r="1.11" style="fill:#fff"></circle><circle cx="33.12" cy="61.25" r="1.11" transform="matrix(0.01, -1, 1, 0.01, -28.4, 93.86)" style="fill:#fff"></circle><circle cx="33.11" cy="67.61" r="1.11" transform="translate(-34.77 100.16) rotate(-89.53)" style="fill:#fff"></circle><circle cx="69.05" cy="92.45" r="1.11" style="fill:#fff"></circle><circle cx="92.48" cy="33.09" r="1.11" transform="translate(-0.27 0.77) rotate(-0.47)" style="fill:#fff"></circle><circle cx="36.85" cy="35.92" r="1.11" style="fill:#fff"></circle><circle cx="40.69" cy="35.7" r="1.11" style="fill:#fff"></circle><circle cx="44.73" cy="31.46" r="1.11" transform="translate(-0.26 0.37) rotate(-0.48)" style="fill:#fff"></circle><circle cx="68.15" cy="86.09" r="1.11" style="fill:#fff"></circle><circle cx="65.52" cy="84.77" r="1.11" style="fill:#fff"></circle><circle cx="62.3" cy="85.49" r="1.11" style="fill:#fff"></circle><circle cx="60.18" cy="84.07" r="1.11" style="fill:#fff"></circle><circle cx="57.35" cy="83.86" r="1.11" style="fill:#fff"></circle><circle cx="54.23" cy="85.07" r="1.11" style="fill:#fff"></circle><path d="M59,87.09a1.14,1.14,0,0,1-.91,1.31,1.13,1.13,0,0,1-.41-2.22A1.15,1.15,0,0,1,59,87.09Z" style="fill:#fff"></path><circle cx="46.44" cy="80.74" r="1.11" style="fill:#fff"></circle><circle cx="44.73" cy="39.34" r="1.11" style="fill:#fff"></circle><circle cx="51.6" cy="33.48" r="1.11" transform="translate(-0.07 0.11) rotate(-0.12)" style="fill:#fff"></circle><circle cx="56.23" cy="31.86" r="1.11" transform="translate(-0.26 0.47) rotate(-0.48)" style="fill:#fff"></circle><path d="M58,26.31a1.13,1.13,0,1,1-2.22.41,1.13,1.13,0,0,1,.9-1.31C57.25,25.2,57.76,25.61,58,26.31Z" style="fill:#fff"></path><path d="M102.38,53.27a1.13,1.13,0,1,1-1.32-.91A1.08,1.08,0,0,1,102.38,53.27Z" style="fill:#fff"></path><circle cx="62.3" cy="28.34" r="1.11" transform="translate(-0.23 0.52) rotate(-0.48)" style="fill:#fff"></circle><circle cx="67.55" cy="29.54" r="1.11" transform="translate(-0.24 0.56) rotate(-0.48)" style="fill:#fff"></circle><circle cx="71.89" cy="29.76" r="1.11" transform="translate(-0.24 0.6) rotate(-0.48)" style="fill:#fff"></circle><path d="M75.42,26.52a1.13,1.13,0,1,1-1.31-.91A1.14,1.14,0,0,1,75.42,26.52Z" style="fill:#fff"></path><circle cx="56.96" cy="81.53" r="1.11" style="fill:#fff"></circle><circle cx="53.52" cy="81.73" r="1.11" style="fill:#fff"></circle><circle cx="50.78" cy="82.64" r="1.11" style="fill:#fff"></circle><circle cx="51.7" cy="79.62" r="1.11" style="fill:#fff"></circle><circle cx="49.58" cy="77.09" r="1.11" style="fill:#fff"></circle><circle cx="46.45" cy="76.2" r="1.11" style="fill:#fff"></circle><circle cx="46.75" cy="73.36" r="1.11" style="fill:#fff"></circle><path d="M46.25,69.73A1.15,1.15,0,0,1,45.34,71a1.13,1.13,0,0,1-.41-2.22C45.54,68.62,46,69.12,46.25,69.73Z" style="fill:#fff"></path><circle cx="43.53" cy="72.66" r="1.11" style="fill:#fff"></circle><path d="M44,67.3a1.13,1.13,0,1,1-1.32-.9A1.15,1.15,0,0,1,44,67.3Z" style="fill:#fff"></path><circle cx="38.56" cy="67.61" r="1.11" style="fill:#fff"></circle><path d="M40.49,71.54a1.13,1.13,0,1,1-1.31-.9A1.13,1.13,0,0,1,40.49,71.54Z" style="fill:#fff"></path><path d="M44.23,75a1.15,1.15,0,0,1-.91,1.31A1.13,1.13,0,1,1,44.23,75Z" style="fill:#fff"></path><circle cx="39.08" cy="76.99" r="1.11" style="fill:#fff"></circle><circle cx="42.2" cy="64.78" r="1.11" style="fill:#fff"></circle><circle cx="42.3" cy="61.35" r="1.11" style="fill:#fff"></circle><circle cx="38.37" cy="61.94" r="1.11" style="fill:#fff"></circle><path d="M36.45,57.41a1.13,1.13,0,0,1-2.22.4,1.15,1.15,0,0,1,.91-1.31A1.07,1.07,0,0,1,36.45,57.41Z" style="fill:#fff"></path><path d="M65.93,88.4a1.13,1.13,0,1,1-1.31-.9A1.06,1.06,0,0,1,65.93,88.4Z" style="fill:#fff"></path><circle cx="74.21" cy="84.66" r="1.11" style="fill:#fff"></circle><circle cx="77.65" cy="84.36" r="1.11" style="fill:#fff"></circle><circle cx="80.07" cy="82.96" r="1.11" style="fill:#fff"></circle><path d="M84.91,82.55a1.13,1.13,0,1,1-1.31-.91A1.14,1.14,0,0,1,84.91,82.55Z" style="fill:#fff"></path><path d="M86.63,79.52a1.13,1.13,0,1,1-1.31-.91A1.13,1.13,0,0,1,86.63,79.52Z" style="fill:#fff"></path><path d="M89.35,77.7a1.13,1.13,0,1,1-2.22.41A1.16,1.16,0,0,1,88,76.79,1.14,1.14,0,0,1,89.35,77.7Z" style="fill:#fff"></path><path d="M90.57,74.27a1.13,1.13,0,1,1-1.32-.91A1.14,1.14,0,0,1,90.57,74.27Z" style="fill:#fff"></path><circle cx="92.38" cy="73.67" r="1.11" style="fill:#fff"></circle><path d="M92.58,70.74a1.13,1.13,0,0,1-.9,1.31,1.13,1.13,0,1,1,.9-1.31Z" style="fill:#fff"></path><circle cx="93.1" cy="68.52" r="1.11" style="fill:#fff"></circle><circle cx="93.79" cy="65.6" r="1.11" style="fill:#fff"></circle><path d="M96,70.74a1.15,1.15,0,0,1-.91,1.31A1.13,1.13,0,1,1,96,70.74Z" style="fill:#fff"></path><circle cx="93.9" cy="61.75" r="1.11" style="fill:#fff"></circle><path d="M96.82,63.57a1.13,1.13,0,0,1-.9,1.31,1.13,1.13,0,1,1-.41-2.22A1.07,1.07,0,0,1,96.82,63.57Z" style="fill:#fff"></path><circle cx="94.09" cy="57.3" r="1.11" style="fill:#fff"></circle><circle cx="95.71" cy="59.83" r="1.11" style="fill:#fff"></circle><circle cx="98.04" cy="58.53" r="1.11" style="fill:#fff"></circle><circle cx="97.03" cy="55.79" r="1.11" style="fill:#fff"></circle><circle cx="94.61" cy="53.48" r="1.11" style="fill:#fff"></circle><path d="M94.4,50.24a1.13,1.13,0,1,1-1.31-.91A1.2,1.2,0,0,1,94.4,50.24Z" style="fill:#fff"></path><path d="M97.94,51.15a1.13,1.13,0,1,1-1.32-.91A1,1,0,0,1,97.94,51.15Z" style="fill:#fff"></path><circle cx="91.47" cy="48.22" r="1.11" style="fill:#fff"></circle><circle cx="90.26" cy="45.39" r="1.11" style="fill:#fff"></circle><circle cx="93.38" cy="45.59" r="1.11" style="fill:#fff"></circle><circle cx="92.07" cy="42.87" r="1.11" style="fill:#fff"></circle><circle cx="88.96" cy="43.07" r="1.11" style="fill:#fff"></circle><path d="M87.84,40.45a1.13,1.13,0,1,1-1.31-.91A1.14,1.14,0,0,1,87.84,40.45Z" style="fill:#fff"></path><path d="M90.57,38.13a1.13,1.13,0,1,1-1.32-.91A1.08,1.08,0,0,1,90.57,38.13Z" style="fill:#fff"></path><circle cx="93.89" cy="38.74" r="1.11" style="fill:#fff"></circle><circle cx="84.71" cy="38.53" r="1.11" style="fill:#fff"></circle><circle cx="82.09" cy="36.51" r="1.11" style="fill:#fff"></circle><path d="M79.36,34.8a1.13,1.13,0,1,1-1.31-.91A1.14,1.14,0,0,1,79.36,34.8Z" style="fill:#fff"></path><circle cx="80.77" cy="33.09" r="1.11" transform="translate(-0.27 0.67) rotate(-0.47)" style="fill:#fff"></circle><path d="M78,30.05a1.13,1.13,0,1,1-1.32-.91A1.14,1.14,0,0,1,78,30.05Z" style="fill:#fff"></path><circle cx="75.53" cy="33.38" r="1.11" transform="translate(-0.07 0.16) rotate(-0.12)" style="fill:#fff"></circle><circle cx="71.79" cy="32.99" r="1.11" transform="translate(-0.07 0.16) rotate(-0.12)" style="fill:#fff"></circle><circle cx="84.71" cy="35.6" r="1.11" style="fill:#fff"></circle><circle cx="69.87" cy="31.47" r="1.11" transform="translate(-0.26 0.58) rotate(-0.48)" style="fill:#fff"></circle><circle cx="66.95" cy="32.68" r="1.11" transform="translate(-0.07 0.14) rotate(-0.12)" style="fill:#fff"></circle><path d="M65.83,34a1.13,1.13,0,1,1-1.31-.91A1.07,1.07,0,0,1,65.83,34Z" style="fill:#fff"></path><circle cx="64.91" cy="30.46" r="1.11" transform="translate(-0.25 0.54) rotate(-0.48)" style="fill:#fff"></circle><circle cx="59.98" cy="32.27" r="1.11" transform="translate(-0.27 0.5) rotate(-0.48)" style="fill:#fff"></circle><circle cx="61.48" cy="34.6" r="1.11" transform="translate(-0.07 0.13) rotate(-0.12)" style="fill:#fff"></circle><circle cx="57.45" cy="34.6" r="1.11" transform="translate(-0.07 0.12) rotate(-0.12)" style="fill:#fff"></circle><circle cx="54.42" cy="33.79" r="1.11" transform="translate(-0.07 0.12) rotate(-0.12)" style="fill:#fff"></circle><circle cx="53.93" cy="36.82" r="1.11" style="fill:#fff"></circle><circle cx="50.99" cy="38.63" r="1.11" style="fill:#fff"></circle><path d="M49.88,38.33a1.13,1.13,0,1,1-1.31-.91A1.14,1.14,0,0,1,49.88,38.33Z" style="fill:#fff"></path><circle cx="49.48" cy="35.6" r="1.11" style="fill:#fff"></circle><circle cx="46.24" cy="35.2" r="1.11" style="fill:#fff"></circle><circle cx="64.12" cy="35.8" r="1.11" style="fill:#fff"></circle></svg> 