<?xml version="1.0" encoding="UTF-8"?> <svg xmlns="http://www.w3.org/2000/svg" viewBox="0 0 200 200"><title>addiko-fusion-stage-nov</title><path d="M3.76,146V107H27.13v9.86H15.85v4.52H27.13v9.85H15.85V146Zm8.31-34a2.42,2.42,0,0,0-.68-1.71,2.22,2.22,0,0,0-1.7-.71A2.42,2.42,0,0,0,7.27,112,2.21,2.21,0,0,0,8,113.63a2.42,2.42,0,0,0,1.71.68,2.25,2.25,0,0,0,1.7-.68A2.29,2.29,0,0,0,12.07,112Zm-2.35,8.12a2.28,2.28,0,0,0,1.7-.68,2.42,2.42,0,0,0,.68-1.73,2.46,2.46,0,0,0-.68-1.71,2.24,2.24,0,0,0-1.7-.71,2.44,2.44,0,0,0-2.43,2.42A2.27,2.27,0,0,0,8,119.4,2.38,2.38,0,0,0,9.72,120.08Zm0,5.76a2.2,2.2,0,0,0,1.7-.71,2.46,2.46,0,0,0,.68-1.7A2.24,2.24,0,0,0,10,121.07H9.74a2.46,2.46,0,0,0-1.7.68,2.2,2.2,0,0,0-.72,1.7,2.43,2.43,0,0,0,2.42,2.42Zm2.35,3.35a2.4,2.4,0,0,0-.68-1.7,2.2,2.2,0,0,0-1.7-.72,2.44,2.44,0,0,0-2.42,2.42A2.23,2.23,0,0,0,8,130.86a2.38,2.38,0,0,0,1.71.68,2.25,2.25,0,0,0,1.7-.68A2.31,2.31,0,0,0,12.07,129.19Zm-2.35,8.12a2.28,2.28,0,0,0,1.7-.68,2.41,2.41,0,0,0,.68-1.73,2.44,2.44,0,0,0-.68-1.7,2.2,2.2,0,0,0-1.7-.72,2.45,2.45,0,0,0-2.43,2.42A2.26,2.26,0,0,0,8,136.63,2.38,2.38,0,0,0,9.72,137.31Zm0,5.76a2.19,2.19,0,0,0,1.7-.71,2.46,2.46,0,0,0,.68-1.7,2.35,2.35,0,0,0-.68-1.68,2.31,2.31,0,0,0-1.7-.68A2.42,2.42,0,0,0,8,139a2.22,2.22,0,0,0-.72,1.68,2.45,2.45,0,0,0,2.43,2.41ZM17.9,112a2.35,2.35,0,0,0-.68-1.7,2.38,2.38,0,0,0-1.71-.72,2.27,2.27,0,0,0-1.73.72,2.35,2.35,0,0,0-.68,1.7,2.23,2.23,0,0,0,.68,1.67,2.34,2.34,0,0,0,1.73.68,2.38,2.38,0,0,0,1.71-.68A2.21,2.21,0,0,0,17.9,112Zm0,14.32a2.22,2.22,0,0,0-.68-1.67,2.42,2.42,0,0,0-1.71-.68,2.34,2.34,0,0,0-1.73.68,2.23,2.23,0,0,0-.68,1.67,2.35,2.35,0,0,0,.68,1.7,2.29,2.29,0,0,0,1.73.68,2.43,2.43,0,0,0,2.42-2.42ZM23.6,112a2.46,2.46,0,0,0-2.42-2.42,2.2,2.2,0,0,0-1.67.72,2.39,2.39,0,0,0,1.63,4.06h0a2.42,2.42,0,0,0,1.71-.68A2.21,2.21,0,0,0,23.6,112Zm0,14.32a2.19,2.19,0,0,0-.72-1.67,2.39,2.39,0,0,0-4.06,1.63v0a2.4,2.4,0,0,0,.68,1.7,2.23,2.23,0,0,0,1.67.68,2.44,2.44,0,0,0,2.42-2.42Z" style="fill:#fff"></path><path d="M50.93,107H63v24.61A16.61,16.61,0,0,1,61.81,138a13.13,13.13,0,0,1-3.25,4.74,14.17,14.17,0,0,1-5.12,3,20.69,20.69,0,0,1-6.76,1,21,21,0,0,1-6.77-1,14,14,0,0,1-5.14-3A13.13,13.13,0,0,1,31.52,138a16.63,16.63,0,0,1-1.16-6.35V107H42.44v23.55a6.78,6.78,0,0,0,1,4.06,3.79,3.79,0,0,0,3.26,1.24A3.93,3.93,0,0,0,50,134.61a6.7,6.7,0,0,0,1-4.06Zm-12.52,5A2.43,2.43,0,0,0,36,109.54a2.24,2.24,0,0,0-1.67.71,2.37,2.37,0,0,0-.67,1.71,2.22,2.22,0,0,0,.67,1.67,2.29,2.29,0,0,0,1.67.68,2.42,2.42,0,0,0,1.71-.68A2.24,2.24,0,0,0,38.41,112Zm0,5.7A2.43,2.43,0,0,0,36,115.24a2.22,2.22,0,0,0-1.67.72,2.35,2.35,0,0,0-.67,1.7,2.3,2.3,0,0,0,.67,1.73,2.25,2.25,0,0,0,1.67.68,2.38,2.38,0,0,0,1.71-.68A2.29,2.29,0,0,0,38.41,117.66Zm0,5.77a2.2,2.2,0,0,0-.68-1.71,2.4,2.4,0,0,0-1.7-.67,2.3,2.3,0,0,0-1.67.67,2.25,2.25,0,0,0-.68,1.71,2.35,2.35,0,0,0,.68,1.7,2.19,2.19,0,0,0,1.67.71,2.42,2.42,0,0,0,2.41-2.41Zm0,5.76A2.43,2.43,0,0,0,36,126.77a2.22,2.22,0,0,0-1.67.72A2.4,2.4,0,0,0,36,131.55h0a2.42,2.42,0,0,0,1.71-.68A2.24,2.24,0,0,0,38.41,129.19Zm1.43,5.7a2.44,2.44,0,0,0-2.42-2.42,2.3,2.3,0,0,0-1.74.72,2.45,2.45,0,0,0,1.59,4.12h.16a2.35,2.35,0,0,0,1.7-.68A2.31,2.31,0,0,0,39.84,134.89Zm3.59,4.74a2.31,2.31,0,0,0-.68-1.74,2.45,2.45,0,0,0-4.12,1.56v.18a2.23,2.23,0,0,0,.68,1.67A2.34,2.34,0,0,0,41,142a2.4,2.4,0,0,0,1.68-.71,2.24,2.24,0,0,0,.71-1.67Zm5.76,1.43a2.2,2.2,0,0,0-.73-1.67,2.39,2.39,0,0,0-1.68-.72A2.33,2.33,0,0,0,44.4,141V141a2.36,2.36,0,0,0,.67,1.73,2.29,2.29,0,0,0,1.67.68,2.38,2.38,0,0,0,1.71-.68,2.3,2.3,0,0,0,.74-1.73Zm5.36-1.46a2.42,2.42,0,0,0-.68-1.74,2.28,2.28,0,0,0-1.68-.67,2.37,2.37,0,0,0-1.7.67,2.31,2.31,0,0,0-.68,1.74,2.18,2.18,0,0,0,.68,1.67,2.34,2.34,0,0,0,1.7.68,2.29,2.29,0,0,0,1.68-.68A2.26,2.26,0,0,0,54.55,139.6Zm1.24-2.29a2.27,2.27,0,0,0,1.67-.68,2.5,2.5,0,0,0,0-3.43,2.22,2.22,0,0,0-1.67-.72,2.44,2.44,0,0,0-2.42,2.42,2.26,2.26,0,0,0,.72,1.73,2.35,2.35,0,0,0,1.68.68ZM59.57,112a2.44,2.44,0,0,0-2.42-2.42,2.17,2.17,0,0,0-1.7.71,2.42,2.42,0,0,0-.68,1.71,2.29,2.29,0,0,0,.68,1.67,2.25,2.25,0,0,0,1.7.68,2.38,2.38,0,0,0,1.7-.68,2.24,2.24,0,0,0,.7-1.67Zm0,5.7a2.44,2.44,0,0,0-2.42-2.42,2.18,2.18,0,0,0-1.7.72,2.41,2.41,0,0,0-.68,1.7,2.37,2.37,0,0,0,.68,1.73,2.21,2.21,0,0,0,1.7.68,2.34,2.34,0,0,0,1.7-.68,2.29,2.29,0,0,0,.7-1.73Zm0,5.77a2.23,2.23,0,0,0-.68-1.71,2.41,2.41,0,0,0-1.71-.67,2.23,2.23,0,0,0-2.35,2.1,1,1,0,0,0,0,.25,2.46,2.46,0,0,0,.68,1.7,2.2,2.2,0,0,0,1.7.72,2.44,2.44,0,0,0,2.42-2.42Zm0,5.76a2.44,2.44,0,0,0-2.42-2.42,2.18,2.18,0,0,0-1.7.72,2.4,2.4,0,0,0-.68,1.7,2.27,2.27,0,0,0,.68,1.67,2.21,2.21,0,0,0,1.7.68,2.34,2.34,0,0,0,1.7-.68,2.24,2.24,0,0,0,.7-1.67Z" style="fill:#fff"></path><path d="M83.79,119.39a8.38,8.38,0,0,0-.9-2.51,2.47,2.47,0,0,0-2.33-1.14,2.69,2.69,0,0,0-1.67.52,1.74,1.74,0,0,0-.68,1.46,2,2,0,0,0,.53,1.42,4.51,4.51,0,0,0,1.27.94,9.78,9.78,0,0,0,1.58.62l1.52.43c1.4.46,2.84,1,4.3,1.58A14.06,14.06,0,0,1,91.29,125a13,13,0,0,1,3.1,4,10.39,10.39,0,0,1,1.11,4.74,12.88,12.88,0,0,1-1.17,5.67,11.3,11.3,0,0,1-3.22,4.06,14.66,14.66,0,0,1-4.74,2.45,18.26,18.26,0,0,1-5.64.83A19.85,19.85,0,0,1,76,146.2a13.43,13.43,0,0,1-4.16-1.77,10.58,10.58,0,0,1-3.09-3.09,11,11,0,0,1-1.61-4.56l10.63-3.34a2.72,2.72,0,0,0,1,2.26,3.83,3.83,0,0,0,2.42.78A3.52,3.52,0,0,0,83,136a1.64,1.64,0,0,0,.77-1.55,1.49,1.49,0,0,0-.53-1.11,5.16,5.16,0,0,0-1.26-.87,14.34,14.34,0,0,0-1.59-.68,15.41,15.41,0,0,1-1.45-.62l-4.68-1.92a12.33,12.33,0,0,1-4.06-2.7A10.94,10.94,0,0,1,67.7,123a10.53,10.53,0,0,1-.9-4.25,12.41,12.41,0,0,1,1.09-5.36,11,11,0,0,1,3-3.9,13,13,0,0,1,4.37-2.39,17.1,17.1,0,0,1,5.27-.8,22.42,22.42,0,0,1,4.62.46,12.29,12.29,0,0,1,4,1.58,10.31,10.31,0,0,1,3,2.88,11.37,11.37,0,0,1,1.74,4.37Zm-11.1,1.55a2.18,2.18,0,0,0,1.71-.71,2.43,2.43,0,0,0,.67-1.7,2.3,2.3,0,0,0-.67-1.67,2.25,2.25,0,0,0-1.71-.68,2.34,2.34,0,0,0-1.7.68,2.19,2.19,0,0,0-.72,1.67A2.43,2.43,0,0,0,72.69,120.94Zm4.74-8a2.19,2.19,0,0,0-.72-1.67,2.39,2.39,0,0,0-4.06,1.63v0a2.3,2.3,0,0,0,.72,1.71,2.23,2.23,0,0,0,1.64.72A2.46,2.46,0,0,0,77.43,113Zm.06,25.91a2.32,2.32,0,0,0-.71-1.74,2.42,2.42,0,0,0-1.71-.68,2.28,2.28,0,0,0-1.68.71,2.41,2.41,0,0,0-.67,1.71,2.51,2.51,0,0,0,.67,1.67,2.07,2.07,0,0,0,1.65.74,2.39,2.39,0,0,0,1.73-.71,2.28,2.28,0,0,0,.69-1.71Zm-1.8-13a2.15,2.15,0,0,0,1.7-.71,2.59,2.59,0,0,0,0-3.44,2.25,2.25,0,0,0-1.7-.68,2.42,2.42,0,0,0-1.71.68,2.45,2.45,0,0,0,0,3.44,2.32,2.32,0,0,0,1.68.71Zm5.21-12.33a2.25,2.25,0,0,0,1.67-.68,2.39,2.39,0,0,0,.67-1.7,2.34,2.34,0,0,0-.67-1.74,2.29,2.29,0,0,0-1.67-.68,2.39,2.39,0,0,0-2.38,2.41,2.36,2.36,0,0,0,.67,1.65,2.28,2.28,0,0,0,1.68.74Zm.18,29.94a2.29,2.29,0,0,0,1.68-.68A2.46,2.46,0,0,0,81,138.68a2.27,2.27,0,0,0-1.71.74,2.38,2.38,0,0,0-.67,1.68,2.27,2.27,0,0,0,.67,1.73,2.46,2.46,0,0,0,1.74.68Zm.13-14.82a2.24,2.24,0,0,0,1.64-.68,2.3,2.3,0,0,0,.68-1.7A2.35,2.35,0,0,0,81.22,124h0a2.4,2.4,0,0,0-1.7.68,2.22,2.22,0,0,0-.72,1.67,2.44,2.44,0,0,0,2.42,2.42Zm7.62.13a2.36,2.36,0,0,0-.71-1.68,2.27,2.27,0,0,0-1.71-.74,2.24,2.24,0,0,0-1.67.71,2.42,2.42,0,0,0-.68,1.71,2.33,2.33,0,0,0,2.32,2.35h0a2.39,2.39,0,0,0,1.7-.67,2.23,2.23,0,0,0,.69-1.68ZM89,113a2.58,2.58,0,0,0-.68-1.73,2.09,2.09,0,0,0-1.64-.75,2.37,2.37,0,0,0-1.77.75,2.41,2.41,0,0,0-.68,1.73,2.22,2.22,0,0,0,.68,1.67,2.35,2.35,0,0,0,1.7.68,2.31,2.31,0,0,0,1.68-.68A2.22,2.22,0,0,0,89,113Zm-2.3,28.89a2.16,2.16,0,0,0,1.65-.72,2.41,2.41,0,0,0,.67-1.71,2.23,2.23,0,0,0-2.1-2.35h-.25a2.39,2.39,0,0,0-1.67.68,2.15,2.15,0,0,0-.75,1.67,2.28,2.28,0,0,0,.75,1.7,2.36,2.36,0,0,0,1.68.73Zm5.15-7.94a2.42,2.42,0,1,0-2.42,2.42A2.56,2.56,0,0,0,91.87,133.9Z" style="fill:#fff"></path><path d="M99.4,146V107h12.18v39Zm8.31-34a2.46,2.46,0,0,0-.68-1.71,2.19,2.19,0,0,0-1.7-.71,2.42,2.42,0,0,0-2.42,2.42,2.17,2.17,0,0,0,.71,1.67,2.42,2.42,0,0,0,1.71.68,2.25,2.25,0,0,0,1.7-.68A2.33,2.33,0,0,0,107.71,112Zm-2.35,8.12a2.28,2.28,0,0,0,1.7-.68,2.42,2.42,0,0,0,.68-1.73,2.46,2.46,0,0,0-.68-1.71,2.24,2.24,0,0,0-1.7-.71,2.44,2.44,0,0,0-2.43,2.42,2.27,2.27,0,0,0,.72,1.73A2.38,2.38,0,0,0,105.36,120.08Zm0,5.76a2.17,2.17,0,0,0,1.7-.71,2.46,2.46,0,0,0,.68-1.7,2.24,2.24,0,0,0-2.11-2.36h-.25a2.46,2.46,0,0,0-1.7.68,2.16,2.16,0,0,0-.72,1.7,2.43,2.43,0,0,0,2.42,2.42Zm2.35,3.35a2.44,2.44,0,0,0-.68-1.7,2.2,2.2,0,0,0-1.7-.72,2.44,2.44,0,0,0-2.42,2.42,2.19,2.19,0,0,0,.71,1.67,2.38,2.38,0,0,0,1.71.68,2.21,2.21,0,0,0,1.7-.68A2.31,2.31,0,0,0,107.71,129.19Zm-2.35,8.12a2.24,2.24,0,0,0,1.7-.68,2.41,2.41,0,0,0,.68-1.73,2.44,2.44,0,0,0-.68-1.7,2.16,2.16,0,0,0-1.7-.72,2.45,2.45,0,0,0-2.43,2.42,2.26,2.26,0,0,0,.72,1.73A2.38,2.38,0,0,0,105.36,137.31Zm0,5.76a2.15,2.15,0,0,0,1.7-.71,2.46,2.46,0,0,0,.68-1.7,2.39,2.39,0,0,0-.68-1.68,2.28,2.28,0,0,0-1.7-.68,2.42,2.42,0,0,0-1.71.68,2.22,2.22,0,0,0-.72,1.68,2.45,2.45,0,0,0,2.43,2.41Z" style="fill:#fff"></path><path d="M156.71,126.53a20.39,20.39,0,0,1-1.58,8.08,19.46,19.46,0,0,1-10.88,10.6,22.62,22.62,0,0,1-16.24,0A19.92,19.92,0,0,1,121.5,141a19.65,19.65,0,0,1-4.33-6.39,20.22,20.22,0,0,1-1.59-8.08,21.26,21.26,0,0,1,1.55-8.19,19.27,19.27,0,0,1,4.31-6.41,19.47,19.47,0,0,1,6.54-4.19,22,22,0,0,1,8.19-1.48,21.27,21.27,0,0,1,8.11,1.51,20.18,20.18,0,0,1,6.55,4.22,19.37,19.37,0,0,1,4.37,6.42A20.48,20.48,0,0,1,156.71,126.53Zm-32.67,0a2.3,2.3,0,0,0-.67-1.74,2.38,2.38,0,0,0-1.71-.68,2.21,2.21,0,0,0-1.7.68,2.39,2.39,0,0,0-.68,1.74,2.34,2.34,0,0,0,.68,1.67,2.24,2.24,0,0,0,1.7.67,2.41,2.41,0,0,0,1.71-.67,2.27,2.27,0,0,0,.64-1.67Zm.81,5.51a2.3,2.3,0,0,0-.71-1.73,2.39,2.39,0,1,0-1.68,4.14,2.41,2.41,0,0,0,2.41-2.41Zm-2.3-8.68a2.25,2.25,0,0,0,1.68-.68,2.35,2.35,0,0,0,.68-1.7,2.33,2.33,0,0,0-.68-1.73,2.29,2.29,0,0,0-1.68-.68,2.35,2.35,0,0,0-1.7.68,2.28,2.28,0,0,0-.68,1.73,2.41,2.41,0,0,0,.68,1.68,2.33,2.33,0,0,0,1.67.7Zm5.33-7.12a2.42,2.42,0,0,0-2.41-2.42,2.18,2.18,0,0,0-1.67.68,2.39,2.39,0,0,0,1.64,4.06h0a2.35,2.35,0,0,0,1.7-.68,2.21,2.21,0,0,0,.67-1.64Zm0,20.58a2.21,2.21,0,0,0-.67-1.68,2.38,2.38,0,0,0-1.71-.68,2.34,2.34,0,0,0-2.42,2.25v.11a2.38,2.38,0,0,0,.68,1.71,2.24,2.24,0,0,0,1.67.71,2.28,2.28,0,0,0,1.7-.75,2.33,2.33,0,0,0,.72-1.67Zm8.25-1.06a8.24,8.24,0,0,0,6.14-2.39q2.35-2.38,2.35-6.84c0-3-.78-5.27-2.35-6.89a9.12,9.12,0,0,0-12.34,0c-1.54,1.59-2.32,3.89-2.32,6.92s.77,5.3,2.3,6.84a8.17,8.17,0,0,0,6.19,2.39Zm-3.5-22.62a2.43,2.43,0,0,0-2.46-2.41,2.41,2.41,0,0,0-1.7.71,2.47,2.47,0,0,0,0,3.38,2.36,2.36,0,0,0,3.34,0l.05,0A2.36,2.36,0,0,0,132.63,113.14Zm0,26.78a2.43,2.43,0,0,0-4.16-1.7,2.39,2.39,0,0,0-.67,1.7,2.26,2.26,0,0,0,.67,1.67,2.35,2.35,0,0,0,1.74.68,2.39,2.39,0,0,0,1.67-.68,2.19,2.19,0,0,0,.75-1.68Zm3.47-25.85a2.21,2.21,0,0,0,1.7-.68,2.37,2.37,0,0,0,.68-1.73,2.33,2.33,0,0,0-.68-1.67,2.21,2.21,0,0,0-1.7-.68,2.39,2.39,0,0,0-1.68.68,2.21,2.21,0,0,0-.74,1.64,2.31,2.31,0,0,0,.71,1.74,2.37,2.37,0,0,0,1.71.69Zm0,29.63a2.22,2.22,0,0,0,1.7-.71,2.46,2.46,0,0,0,.68-1.71,2.33,2.33,0,0,0-.68-1.67,2.25,2.25,0,0,0-1.7-.68,2.42,2.42,0,0,0-1.71.68,2.24,2.24,0,0,0-.71,1.67A2.44,2.44,0,0,0,136.1,143.7ZM142,115.56a2.2,2.2,0,0,0,1.71-.68,2.56,2.56,0,0,0,0-3.38,2.23,2.23,0,0,0-1.71-.68,2.43,2.43,0,0,0-2.41,2.42,2.54,2.54,0,0,0,2.41,2.41Zm2.36,24.35a2.46,2.46,0,0,0-.68-1.7,2.2,2.2,0,0,0-1.7-.72,2.44,2.44,0,0,0-2.42,2.42,2.17,2.17,0,0,0,.75,1.68,2.4,2.4,0,0,0,1.67.67,2.24,2.24,0,0,0,1.7-.67A2.35,2.35,0,0,0,144.34,139.91Zm4.78-23.67a2.45,2.45,0,0,0-2.43-2.42,2.25,2.25,0,0,0-1.67.68,2.35,2.35,0,0,0-.67,1.7,2.16,2.16,0,0,0,.71,1.67,2.3,2.3,0,0,0,1.64.68,2.34,2.34,0,0,0,1.7-.68A2.2,2.2,0,0,0,149.12,116.24Zm0,20.58a2.22,2.22,0,0,0-.72-1.68,2.38,2.38,0,0,0-1.71-.68,2.33,2.33,0,0,0-2.35,2.32v0a2.29,2.29,0,0,0,.72,1.67,2.22,2.22,0,0,0,1.63.75,2.46,2.46,0,0,0,2.43-2.42Zm3-15.88a2.3,2.3,0,0,0-.68-1.73,2.47,2.47,0,0,0-3.38,0,2.23,2.23,0,0,0-.71,1.73,2.43,2.43,0,0,0,2.41,2.42,2.55,2.55,0,0,0,2.42-2.42Zm-2.3,13.54a2.26,2.26,0,0,0,1.65-.75,2.41,2.41,0,0,0,0-3.38,2.27,2.27,0,0,0-1.68-.68,2.34,2.34,0,0,0-1.7.68,2.27,2.27,0,0,0-.72,1.73,2.45,2.45,0,0,0,2.42,2.42Zm3.17-7.93a2.35,2.35,0,0,0-2.26-2.43h-.16a2.31,2.31,0,0,0-1.68.68,2.38,2.38,0,0,0-.67,1.74,2.33,2.33,0,0,0,2.31,2.35h0a2.34,2.34,0,0,0,1.74-.67,2.29,2.29,0,0,0,.68-1.69Z" style="fill:#fff"></path><path d="M185.12,146l-12.58-18.71V146h-12V107h12l11.77,19.53V107h11.84v39Zm-16.24-34a2.41,2.41,0,0,0-.67-1.71,2.21,2.21,0,0,0-1.71-.71,2.43,2.43,0,0,0-2.41,2.42,2.21,2.21,0,0,0,.71,1.67,2.4,2.4,0,0,0,1.7.68,2.28,2.28,0,0,0,1.71-.68A2.32,2.32,0,0,0,168.88,112Zm-2.35,8.12a2.25,2.25,0,0,0,1.7-.68,2.38,2.38,0,0,0,.68-1.73,2.42,2.42,0,0,0-.68-1.71,2.17,2.17,0,0,0-1.7-.71,2.44,2.44,0,0,0-2.42,2.42,2.3,2.3,0,0,0,.71,1.73A2.38,2.38,0,0,0,166.53,120.08Zm0,5.76a2.15,2.15,0,0,0,1.7-.71,2.46,2.46,0,0,0,.68-1.7,2.24,2.24,0,0,0-2.1-2.36h-.25a2.46,2.46,0,0,0-1.71.68,2.21,2.21,0,0,0-.7,1.68,2.42,2.42,0,0,0,2.41,2.41Zm2.35,3.35a2.39,2.39,0,0,0-.67-1.7,2.22,2.22,0,0,0-1.71-.72,2.43,2.43,0,0,0-2.41,2.42,2.21,2.21,0,0,0,.71,1.67,2.35,2.35,0,0,0,1.7.68,2.25,2.25,0,0,0,1.71-.68A2.3,2.3,0,0,0,168.88,129.19Zm-2.35,8.12a2.21,2.21,0,0,0,1.7-.68,2.37,2.37,0,0,0,.68-1.73,2.4,2.4,0,0,0-.68-1.7,2.15,2.15,0,0,0-1.7-.72,2.44,2.44,0,0,0-1.71,4.15A2.38,2.38,0,0,0,166.53,137.31Zm0,5.76a2.14,2.14,0,0,0,1.7-.71,2.46,2.46,0,0,0,.68-1.7,2.31,2.31,0,0,0-.68-1.68,2.25,2.25,0,0,0-1.7-.68,2.42,2.42,0,0,0-1.71.68,2.25,2.25,0,0,0-.71,1.68,2.44,2.44,0,0,0,2.42,2.41Zm5-25.19a2.23,2.23,0,0,0,1.67-.68,2.47,2.47,0,0,0,0-3.38,2.23,2.23,0,0,0-1.67-.68,2.44,2.44,0,0,0-2.42,2.42,2.38,2.38,0,0,0,.71,1.67A2.33,2.33,0,0,0,171.49,117.88Zm5.45,2.92a2.25,2.25,0,0,0-.71-1.68,2.47,2.47,0,0,0-3.38,0,2.25,2.25,0,0,0-.71,1.68,2.42,2.42,0,0,0,4.83,0Zm3.53,5.33a2.55,2.55,0,0,0-2.41-2.43,2.24,2.24,0,0,0-1.67.72,2.36,2.36,0,0,0-.68,1.71,2.3,2.3,0,0,0,.68,1.73,2.26,2.26,0,0,0,1.67.67,2.35,2.35,0,0,0,1.7-.67,2.27,2.27,0,0,0,.71-1.77Zm4,5.82a2.35,2.35,0,0,0-.68-1.68,2.45,2.45,0,0,0-3.38,0,2.26,2.26,0,0,0-.75,1.65,2.3,2.3,0,0,0,.68,1.73,2.4,2.4,0,0,0,1.7.68,2.34,2.34,0,0,0,2.42-2.26.86.86,0,0,0,0-.16Zm3.53,4.9a2.29,2.29,0,0,0-.68-1.68,2.42,2.42,0,0,0-4.09,1.63v.06a2.37,2.37,0,0,0,.67,1.73,2.31,2.31,0,0,0,1.68.68,2.44,2.44,0,0,0,2.42-2.42Zm4.9-24.86a2.4,2.4,0,0,0-.68-1.7,2.3,2.3,0,0,0-1.74-.72,2.4,2.4,0,0,0-1.71.72A2.35,2.35,0,0,0,188,112a2.23,2.23,0,0,0,.71,1.67,2.38,2.38,0,0,0,1.71.68,2.35,2.35,0,0,0,1.74-.68,2.28,2.28,0,0,0,.68-1.7Zm0,5.71a2.42,2.42,0,0,0-.68-1.71,2.37,2.37,0,0,0-1.74-.72,2.4,2.4,0,0,0-1.71.72,2.37,2.37,0,0,0-.71,1.71,2.3,2.3,0,0,0,.71,1.73,2.46,2.46,0,0,0,1.71.68,2.34,2.34,0,0,0,2.42-2.26v-.16Zm0,5.76a2.25,2.25,0,0,0-.68-1.7,2.41,2.41,0,0,0-1.74-.68,2.48,2.48,0,0,0-1.71.68,2.22,2.22,0,0,0-.71,1.7,2.44,2.44,0,0,0,2.42,2.42,2.32,2.32,0,0,0,1.74-.71,2.46,2.46,0,0,0,.68-1.74Zm0,5.77a2.42,2.42,0,0,0-.68-1.71,2.3,2.3,0,0,0-1.74-.72,2.4,2.4,0,0,0-1.71.72,2.37,2.37,0,0,0-.71,1.71,2.26,2.26,0,0,0,.71,1.67,2.41,2.41,0,0,0,1.71.67,2.31,2.31,0,0,0,2.42-2.38Zm0,5.7a2.42,2.42,0,0,0-.68-1.71,2.31,2.31,0,0,0-1.74-.71,2.44,2.44,0,0,0-2.42,2.42,2.3,2.3,0,0,0,.71,1.73,2.42,2.42,0,0,0,1.71.68,2.34,2.34,0,0,0,2.42-2.26v-.16Zm0,5.76a2.31,2.31,0,0,0-.68-1.68,2.38,2.38,0,0,0-1.74-.67,2.41,2.41,0,0,0-1.71.67,2.28,2.28,0,0,0-.71,1.68,2.45,2.45,0,0,0,2.42,2.42,2.28,2.28,0,0,0,1.74-.72,2.42,2.42,0,0,0,.68-1.73Z" style="fill:#fff"></path><path d="M41.2,82.16h-13l-2.52,7.26H17.9L31.77,54.77h6.08L51.73,89.42h-8Zm-11-5.81h8.92L34.69,63.5ZM66.31,62.79a11.6,11.6,0,0,1,3.83.58A9.43,9.43,0,0,1,73,64.86V52.25h7.11V75.7a16.89,16.89,0,0,1-.95,5.85,13,13,0,0,1-2.75,4.53A12.2,12.2,0,0,1,72,89a15.32,15.32,0,0,1-5.75,1A13.93,13.93,0,0,1,60.78,89a13.13,13.13,0,0,1-7.13-7.3,14.1,14.1,0,0,1-1-5.33,13.51,13.51,0,0,1,3.93-9.65,13.28,13.28,0,0,1,4.34-2.88A13.87,13.87,0,0,1,66.31,62.79Zm.1,21.08a7.14,7.14,0,0,0,2.85-.56,6.75,6.75,0,0,0,2.2-1.53,7,7,0,0,0,1.43-2.38,8.8,8.8,0,0,0,.51-3.05A7.49,7.49,0,0,0,71.48,71a7.37,7.37,0,0,0-10.15,0,7.49,7.49,0,0,0-1.92,5.36,8.8,8.8,0,0,0,.51,3.05,6.5,6.5,0,0,0,3.65,3.91A7.09,7.09,0,0,0,66.41,83.87ZM97.78,62.79a12.12,12.12,0,0,1,3.83.55,9.7,9.7,0,0,1,2.82,1.46V52.25h7.12V75.7a16.91,16.91,0,0,1-1,5.85,12.84,12.84,0,0,1-2.74,4.53A12.33,12.33,0,0,1,103.47,89a15.24,15.24,0,0,1-5.75,1A13.83,13.83,0,0,1,92.26,89a13.08,13.08,0,0,1-7.14-7.28,14.1,14.1,0,0,1-1-5.33,13.44,13.44,0,0,1,8.32-12.55A14,14,0,0,1,97.78,62.79Zm.1,21.08a7.14,7.14,0,0,0,2.85-.56,6.5,6.5,0,0,0,3.65-3.91,8.8,8.8,0,0,0,.51-3.05A7.49,7.49,0,0,0,103,71a7.37,7.37,0,0,0-10.15,0,7.49,7.49,0,0,0-1.92,5.36,9,9,0,0,0,.5,3.05,6.54,6.54,0,0,0,3.66,3.91,7,7,0,0,0,2.82.56Zm18.94-31.62h7.11v7.11h-7.09Zm0,11.15h7.11v26h-7.09Zm24.91,14.88a9.09,9.09,0,0,1-1.28.12h-3.66v11H129.7V52.25h7.11V72.37h1.87A7,7,0,0,0,144.14,70a10.82,10.82,0,0,0,2.4-6.63h6.78a15.89,15.89,0,0,1-1.51,6.95,14.25,14.25,0,0,1-4.06,5.2l8,13.87H148ZM169.43,90A14,14,0,0,1,164,89a13.65,13.65,0,0,1-4.38-22.25,14.17,14.17,0,0,1,19.61,0A13.55,13.55,0,0,1,182.16,71a14,14,0,0,1,0,10.69A13.73,13.73,0,0,1,179.24,86a13.46,13.46,0,0,1-4.4,2.93,13.9,13.9,0,0,1-5.4,1.06Zm0-6.15a7.12,7.12,0,0,0,2.84-.56,6.54,6.54,0,0,0,3.66-3.91,8.57,8.57,0,0,0,.5-3A7.53,7.53,0,0,0,174.51,71a7.37,7.37,0,0,0-10.15,0,7.53,7.53,0,0,0-1.92,5.37,8.8,8.8,0,0,0,.51,3,6.5,6.5,0,0,0,3.65,3.91,7.11,7.11,0,0,0,2.84.55Z" style="fill:#fff"></path></svg> 