<?xml version="1.0" encoding="UTF-8"?> <svg xmlns="http://www.w3.org/2000/svg" viewBox="0 0 200 200"><title>explosive-stage-logo-nov</title><path d="M95.58,47.76c1.79,1.5,3.67,2.91,5.55,4.42,2.73,2.16,5.45,4.51,8.18,6.77a1.66,1.66,0,0,0,.66.47,2.23,2.23,0,0,1,.85,2.07c-.1,1.22-.1,2.45-.1,3.57v72.43c0,1.23.19,1.23-.94,2.17-1.41,1.22-2.91,2.35-4.32,3.57-.76.66-1.51,1.32-2.36,2a2.32,2.32,0,0,0-.65,2.72,7.09,7.09,0,0,0,.75,1.51,9.25,9.25,0,0,1,.37.94,1.52,1.52,0,0,1,.1.66h-.1c-.09-.1-.09-.19-.18-.19a11.61,11.61,0,0,1-2.45-1.79c-1.79-1.69-3.67-3.29-5.46-4.89-1.41-1.22-2.72-2.44-4.13-3.76a2.17,2.17,0,0,1-.66-1.32c0-.47-.1-.94-.1-1.41V61a1.71,1.71,0,0,1,.57-1.51l2-1.69,4-3.39A1.68,1.68,0,0,0,97.74,53a4.36,4.36,0,0,0-.47-1.88,11.51,11.51,0,0,0-.94-1.41,4,4,0,0,1-.75-2Zm.85,50.51h0v35c0,.94.09,1.79.09,2.73a1.66,1.66,0,0,0,.56,1.22c.57.47,1,.94,1.6,1.41s.57.38,1,0c1-.75,2.16-1.6,3.2-2.44a2.11,2.11,0,0,0,.94-1.88V64.59a1.75,1.75,0,0,0-.66-1.5c-.94-.75-1.79-1.6-2.73-2.35a6.57,6.57,0,0,0-1.32-.94,2.69,2.69,0,0,0-1.5-.38,1.21,1.21,0,0,0-1.32,1.22v.94C96.43,73.91,96.43,86.13,96.43,98.27Z" style="fill:#fff"></path><path d="M6.78,95.54A.32.32,0,0,0,7,95.45c1-1,2.07-2,3.2-3,2.26-2.17,4.51-4.24,6.77-6.4l1-1a1.56,1.56,0,0,1,.65-.47c.38-.29.57-.19.95,0a2.82,2.82,0,0,1,.75.75L26,91.21a3.72,3.72,0,0,1,1,2.73v2.54a1.57,1.57,0,0,1-.47,1.13l-1.7,1.69c-1.6,1.51-3.29,3-4.89,4.52-1.13,1-2.16,2.07-3.29,3.1a1.86,1.86,0,0,0-.57,1.32c.1,1.32.1,2.54.19,3.86a1.07,1.07,0,0,0,.29.75,8,8,0,0,0,1.22,1.32c.28.28.56.28.94-.1.66-.66,1.41-1.41,2.07-2.16a24.41,24.41,0,0,1,2.26-2.17c.09.1.18.1.28.19.84.76,1.6,1.51,2.44,2.26.66.56.57,1.22-.09,1.79l-3.48,3.2c-1,.94-2.07,2-3.11,3s-1.12.65-1.88,0c-1.31-1.23-2.63-2.54-3.95-3.86a22,22,0,0,0-1.6-1.6,1.86,1.86,0,0,1-.56-1.79c0-2.07.09-4,.09-6.11,0-2.45.1-5,.1-7.43V96a1,1,0,0,0-1.51-1,8.84,8.84,0,0,1-1.6.47A5.53,5.53,0,0,1,7,95.54C6.78,95.63,6.78,95.63,6.78,95.54Zm9.41-5.45c-.1,3.48-.1,6.77,0,10.25.38-.38.75-.57,1-.85,1.23-1,2.36-2.16,3.48-3.2l.47-.47c.47-.56.47-.75,0-1.31-.09-.1-.28-.19-.37-.29-.66-.56-1.22-1.12-1.88-1.69s-1.32-1.22-2-1.79C16.75,90.46,16.47,90.37,16.19,90.09Z" style="fill:#fff"></path><path d="M193.12,107.77a.61.61,0,0,1-.09.38c-.09.18-.09.37-.28.47a94,94,0,0,0-7.43,6.58c-1.51,1.32-2.92,2.63-4.42,4-.19.18-.38.28-.57.47-.47.47-.94.47-1.6,0a13.22,13.22,0,0,1-1.13-1,34.5,34.5,0,0,0-3.95-3.48l-.84-.85a1.46,1.46,0,0,1-.47-1V92.06a1.76,1.76,0,0,1,.47-1.32c.65-.75,1.41-1.41,2.07-2.07,1.78-1.69,3.57-3.29,5.36-5a.59.59,0,0,1,.28-.19,8.86,8.86,0,0,1,1,.94c1.23,1.13,2.36,2.35,3.58,3.58.75.75,1.41,1.5,2.16,2.16A2.16,2.16,0,0,1,188,92c-.09,1.5-.09,3.1-.09,4.61a2.37,2.37,0,0,1-.76,1.69l-8.84,8.28c-.28.28-.75.56-.85.94a2.7,2.7,0,0,0-.09,1.22c0,.94.09,1.88.09,2.73,0,1,1.23,1.78,2,1.78a2.94,2.94,0,0,0,.85-.18l6.49-2.83c1.31-.56,2.63-1.22,4-1.88a10.66,10.66,0,0,1,1.88-.65,1.15,1.15,0,0,1,.57-.1A.3.3,0,0,0,193.12,107.77ZM177.89,100a4.58,4.58,0,0,0,1.78-.94c1-.85,2-1.79,3-2.73l1.13-1.13a.8.8,0,0,0,0-1.22l-.38-.37c-.65-.57-1.31-1.23-2-1.79l-2.26-2a3.15,3.15,0,0,0-1.22-.66,2.28,2.28,0,0,0-.47,1.32v7.71A3.72,3.72,0,0,0,177.89,100Z" style="fill:#fff"></path><path d="M77.33,71.74v43.65c0,1.32,0,2.63-.09,4a2.16,2.16,0,0,0,.65,1.79c.48.47,1,.94,1.51,1.41s.56.37,1.13-.1c1.41-1.22,2.91-2.44,4.42-3.57a14.31,14.31,0,0,1,1.22-.85,3.62,3.62,0,0,0,.1.47c0,.94.09,1.88.09,2.82,0,1.13.09,2.26.09,3.48a4.75,4.75,0,0,1-.09,1.13,2.21,2.21,0,0,1-.56,1c-1.6,1.6-3.3,3.1-4.9,4.7a1,1,0,0,1-1.5,0c-.56-.47-1-1-1.6-1.5-1.88-1.79-3.76-3.48-5.55-5.27L71.4,124a2,2,0,0,1-.47-1.22V77.39a2.11,2.11,0,0,1,.85-2c1.13-1,2.35-2,3.48-3,.1,0,.1-.09.19-.09C76.11,71.55,76.39,71.55,77.33,71.74Z" style="fill:#fff"></path><path d="M57.2,117.83a2.59,2.59,0,0,1-1-.28,5,5,0,0,1-.76-.56,24.16,24.16,0,0,0-2.35-2.17,2.06,2.06,0,0,1-.66-1.6V94a15.69,15.69,0,0,1,.1-2.17A1.76,1.76,0,0,1,53,90.74l7-6.67c.09,0,.09-.1.19-.1a3.59,3.59,0,0,1,1.22.85c1,1.13,2,2.26,3,3.38.66.76,1.32,1.51,1.88,2.26a2.36,2.36,0,0,1,.66,1.88c0,1.79,0,3.58.09,5.36a2.94,2.94,0,0,1-.65,2c-1,1-1.89,2.07-2.83,3l-5.64,5.93a2.1,2.1,0,0,0-.57,1.22v7.43C57.2,117.36,57.2,117.55,57.2,117.83Zm5.46-22.29a1.76,1.76,0,0,0-.85-1c-.66-.57-1.32-1.23-2-1.79a13.55,13.55,0,0,0-1.78-1.6,5,5,0,0,0-.76-.47v9.5a3.34,3.34,0,0,0,.1.94,4.92,4.92,0,0,0,.66-.56C59.55,98.83,61.06,97.23,62.66,95.54Z" style="fill:#fff"></path><path d="M26.35,117.93a.69.69,0,0,1,.28-.75c.38-.38.66-.76,1-1.13s.76-.66,1-.94A10.94,10.94,0,0,0,32,111c1.32-2.73,2.73-5.36,4.05-8a1.25,1.25,0,0,0,0-1.13c-.1-.28-.29-.56-.38-.84-1.6-3-3.2-6.12-4.89-9.13a1.16,1.16,0,0,1,.19-1.6l1.88-2.16c.56-.66,1.13-.56,1.5.28.66,1.41,1.32,2.73,2,4.14s1.5,2.92,2.26,4.33c0,.09.09.19.18.28a2.68,2.68,0,0,0,.76-1c1-2.17,2.07-4.24,3.19-6.4a7.75,7.75,0,0,1,.57-.94.75.75,0,0,1,1.22-.1c.75.85,1.51,1.79,2.26,2.73a.89.89,0,0,1,.19.66c-.1.19-.1.38-.28.56-1.51,2.73-2.92,5.55-4.43,8.28l-.28.57a2,2,0,0,0,0,1.78c.85,1.6,1.7,3.3,2.45,5,.37.66.66,1.32,1,2a17.13,17.13,0,0,0,4.33,5.37,8,8,0,0,1,1,.94,1.57,1.57,0,0,1,.29.94.35.35,0,0,1-.29-.1c-.37-.18-.84-.28-1.22-.47-2.07-1.13-4.14-2.16-6.3-3.29a4.93,4.93,0,0,1-2.45-2.54c-.37-.85-.84-1.6-1.22-2.44a2.92,2.92,0,0,0-.85-1.13c-.09.19-.18.28-.28.47A43.22,43.22,0,0,1,36,112.57a5.62,5.62,0,0,1-1.7,1.6c-.28.18-.56.28-.84.47-1.7.84-3.48,1.69-5.18,2.54A9.77,9.77,0,0,1,26.35,117.93Z" style="fill:#fff"></path><path d="M120.32,76.92v3.76c0,1.5-.1,3-.1,4.51a1.78,1.78,0,0,0,.29.94,21.19,21.19,0,0,0,1.22,2c2.07,3.29,4.14,6.68,6.21,10,1.6,2.54,3.2,5.17,4.79,7.71.47.76,1,1.51,1.51,2.36a3.12,3.12,0,0,1,.56,1.88c0,1.69,0,3.29.1,5v2.64a2.27,2.27,0,0,1-.66,1.69c-1.79,1.6-3.48,3.2-5.17,4.89-1,1-2.17,2-3.2,3a1.38,1.38,0,0,1-.38.28.85.85,0,0,1-1-.09c-.19-.19-.47-.38-.66-.57-2.07-2-4.14-4-6.21-6-.75-.75-1.6-1.5-2.35-2.35a1.88,1.88,0,0,1-.57-1.41c0-1.88-.09-3.86-.09-5.74a14.51,14.51,0,0,1,.09-2,.59.59,0,0,1,.85-.57c.19.1.28.19.47.29,2.63,2.54,5.27,5.08,7.9,7.71a18.25,18.25,0,0,1,1.32,1.32c.28.28.47.47.94.09l2-1.69,1.12-1.13a1.46,1.46,0,0,0,.19-2,23.68,23.68,0,0,0-1.31-2.07c-3.86-6.11-7.81-12.13-11.67-18.15a22.69,22.69,0,0,0-1.32-2,5.63,5.63,0,0,1-1-3.48c.09-2,0-4,.09-6V65.44a1.5,1.5,0,0,1,.47-1,.9.9,0,0,1,1.23-.19,4.78,4.78,0,0,1,1.13.84c2.07,1.89,4,3.77,6.11,5.65,2.92,2.73,5.93,5.45,8.94,8.18a16.22,16.22,0,0,1,1.31,1.22,3,3,0,0,1,1.13,2.45v4.33c-.09.56-.37.75-.85.56a2.42,2.42,0,0,1-.47-.28c-2.91-2.35-5.73-4.7-8.65-7.15-.85-.75-1.69-1.41-2.54-2.16A3.28,3.28,0,0,0,120.32,76.92Z" style="fill:#fff"></path><path d="M144.77,85.29a2.93,2.93,0,0,1,1.6.47c2.54,1.22,5.08,2.54,7.72,3.76a1.46,1.46,0,0,1,.84,1.41v16.84a1.55,1.55,0,0,0,.29.85,15.33,15.33,0,0,0,1.22,1.41c1,1,2.07,2,3,2.91.09.1.28.19.47.38a3,3,0,0,0,1.5-2.73v-20a1.09,1.09,0,0,1,.76-1.13c1.13-.57,2.25-1.23,3.48-1.79s2.54-1.32,3.85-2a18.62,18.62,0,0,1,2-.84c.19,0,.47-.1.75-.1a2,2,0,0,1-.75,1.32c-.85.66-1.79,1.22-2.64,1.88-.65.47-1.22.94-1.78,1.41a1.63,1.63,0,0,0-.57,1.41c0,5.27.1,10.63.1,15.9v3.48a2,2,0,0,1-.47,1.22c-1.13,1.23-2.35,2.26-3.58,3.39l-3.38,3.1a3.83,3.83,0,0,1-.94.76.86.86,0,0,1-1.13,0c-.19-.19-.38-.29-.57-.47q-2.67-2.55-5.36-5.08c-.19-.19-.38-.29-.47-.47a2.42,2.42,0,0,1-.75-1.79c0-1.51,0-3-.1-4.61,0-3-.09-5.93-.18-8.94V90.65a2.26,2.26,0,0,0-.94-2c-.76-.56-1.51-1.12-2.17-1.69a10.68,10.68,0,0,1-1-.94C145.06,86.23,144.87,85.85,144.77,85.29Z" style="fill:#fff"></path><path d="M138.94,115.48V84.63c0-.28,0-.47.28-.56a.73.73,0,0,1,.76.09c.09.09.19.09.28.19.66.66,1.32,1.31,2,2a15.85,15.85,0,0,0,1.23,1.23,2.55,2.55,0,0,1,.75,1.78v3c0,.94-.09,1.88-.09,2.73v8c0,2.35,0,4.61.09,6.86a2.17,2.17,0,0,1-.56,1.51c-1,1.13-2.07,2.26-3.11,3.48A1.54,1.54,0,0,1,138.94,115.48Z" style="fill:#fff"></path></svg> 