<?xml version="1.0" encoding="UTF-8"?> <svg xmlns="http://www.w3.org/2000/svg" viewBox="0 0 200 200"><title>nsns-stage-logo-nov</title><polygon points="140.99 68.77 146.24 68.77 146.24 61.45 144.43 59.91 117.47 33.59 140.99 33.59 146.24 33.59 146.24 23.55 140.99 23.55 106.26 23.55 101.1 23.55 101.1 30.87 102.82 32.41 129.78 58.73 106.26 58.73 101.1 58.73 101.1 68.77 106.26 68.77 140.99 68.77" style="fill:none"></polygon><polygon points="140.99 115.72 146.24 115.72 146.24 108.39 144.43 106.85 117.47 80.62 140.99 80.62 146.24 80.62 146.24 70.58 140.99 70.58 106.26 70.58 101.1 70.58 101.1 77.82 102.82 79.36 129.78 105.68 106.26 105.68 101.1 105.68 101.1 115.72 106.26 115.72 140.99 115.72" style="fill:none"></polygon><path d="M142.53,164.47H137v15.92h5.52c2.44-.09,4.25-.72,5.43-2.08s1.81-3.26,1.81-5.88-.64-4.61-1.81-5.88S145,164.56,142.53,164.47Zm5.61,9.86c-.09.36-.18.81-.27,1.09a5.44,5.44,0,0,1-1.18,2.08,5.23,5.23,0,0,1-2.08,1.17,9.65,9.65,0,0,1-3,.36h-3.26V173h9.77A3.42,3.42,0,0,1,148.14,174.33Zm.18-2.53h-9.77v-6.06h3.26a10.41,10.41,0,0,1,3,.36,5.16,5.16,0,0,1,2.08,1.17,5.28,5.28,0,0,1,1.18,2.09l.27,1.08A3.46,3.46,0,0,0,148.32,171.8Z" style="fill:none"></path><path d="M127.51,164.56l-6.42,15.83h1.63l1.9-5,9.14,5h1.62l-6.24-15.83Zm-2.35,9.59,3.17-8.14,4.79,12.66Z" style="fill:none"></path><polygon points="64.2 136.52 62.75 136.52 62.75 149.64 58.77 145.75 58.77 147.74 62.75 151.72 64.2 151.72 64.2 136.52" style="fill:none"></polygon><polygon points="57.59 142.4 57.59 140.41 53.7 136.52 52.26 136.52 52.26 151.72 53.7 151.72 53.7 138.6 57.59 142.4" style="fill:none"></polygon><rect x="46.65" y="157.23" width="106.55" height="1.9" style="fill:none"></rect><polygon points="63.66 63.52 63.66 40.01 89.98 66.96 91.42 68.77 98.75 68.77 98.75 63.52 98.75 28.79 98.75 23.55 88.71 23.55 88.71 28.79 88.71 52.31 62.39 25.35 60.94 23.55 53.61 23.55 53.61 28.79 53.61 63.52 53.61 68.77 63.66 68.77 63.66 63.52" style="fill:none"></polygon><polygon points="97.75 173.52 97.75 180.39 99.29 180.39 99.29 172.7 98.66 173.06 97.75 173.52" style="fill:none"></polygon><path d="M80.3,166.64A6,6,0,0,0,78,164.83a7.74,7.74,0,0,0-6.52,0,7.94,7.94,0,0,0-2.35,1.81,6.67,6.67,0,0,0-1.35,2.62,11.33,11.33,0,0,0-.46,3.17,11.85,11.85,0,0,0,.46,3.17,8,8,0,0,0,1.35,2.62A6.69,6.69,0,0,0,71.43,180,7.74,7.74,0,0,0,78,180a6.69,6.69,0,0,0,2.35-1.81,6.61,6.61,0,0,0,1.35-2.62,11.15,11.15,0,0,0,0-6.34A7.35,7.35,0,0,0,80.3,166.64Zm0,8.32a8.62,8.62,0,0,1-1.09,2.26,4.84,4.84,0,0,1-1.81,1.54,5,5,0,0,1-2.71.64,5.23,5.23,0,0,1-2.71-.64,5,5,0,0,1-1.81-1.54,7.21,7.21,0,0,1-1.36-4.16H80.75C80.57,173.7,80.48,174.33,80.3,175ZM68.72,171.8c0-.36.09-.64.09-1s.09-.63.18-.9a9.82,9.82,0,0,1,1.09-2.26A6.08,6.08,0,0,1,71.89,166a6,6,0,0,1,2.71-.63,5,5,0,0,1,2.71.63,4.36,4.36,0,0,1,1.81,1.63,8.62,8.62,0,0,1,1.09,2.26,3.2,3.2,0,0,1,.18.9,3.44,3.44,0,0,1,.09,1Z" style="fill:none"></path><polygon points="90.97 174.51 87.44 164.56 85.91 164.56 90.25 176.59 89.52 178.67 89.43 178.67 84.37 164.56 82.74 164.56 88.62 180.39 90.43 180.39 96.22 164.56 94.68 164.56 90.97 174.51" style="fill:none"></polygon><path d="M111.23,166.19a3.2,3.2,0,0,1,1.27-.54,7.94,7.94,0,0,1,1.54-.18,10.16,10.16,0,0,1,1.63.18c.27.09.45.18.72.27s.45.27.63.36a6,6,0,0,1,1,1.18,3.08,3.08,0,0,1,.36,1.62h1.54a5.36,5.36,0,0,0-.46-2.17l-.54-.81a5.43,5.43,0,0,0-.72-.72,4.54,4.54,0,0,0-1.9-.91l-1.09-.27a4.75,4.75,0,0,0-1.17-.09,7.8,7.8,0,0,0-2.72.45,4.82,4.82,0,0,0-1.72,1.18,2.6,2.6,0,0,0-.81,1.44c-.09.28-.09.46-.18.73s-.09.45-.09.63a3.64,3.64,0,0,0,.27,1.54,2.46,2.46,0,0,0,.81,1.08,3.7,3.7,0,0,0,1.18.73c.18.09.45.18.63.27a1.74,1.74,0,0,0,.73.18l.45.09.81-.45,1.09-.63h0l-2-.46c-.36-.09-.63-.18-.91-.27a2,2,0,0,1-.72-.45,5,5,0,0,1-.54-.72,3.36,3.36,0,0,1-.18-1,2.33,2.33,0,0,1,.36-1.45C110.51,166.73,110.87,166.37,111.23,166.19Z" style="fill:none"></path><polygon points="63.66 110.47 63.66 86.95 89.98 113.91 91.42 115.72 98.75 115.72 98.75 110.47 98.75 75.74 98.75 70.58 88.71 70.58 88.71 75.74 88.71 99.25 62.39 72.3 60.94 70.58 53.61 70.58 53.61 75.74 53.61 110.47 53.61 115.72 63.66 115.72 63.66 110.47" style="fill:none"></polygon><path d="M119.19,173.34a13.1,13.1,0,0,0-1.26-.82,6.43,6.43,0,0,1-.73-.27l-.81-.27-1.9,1.08,1.27.28a1.28,1.28,0,0,1,.54.18c.18.09.36.09.54.18a3.16,3.16,0,0,1,1.09.54c.18.09.27.27.45.36s.27.27.36.45a2.32,2.32,0,0,1,.27,1.18,2.34,2.34,0,0,1-.45,1.45,2.82,2.82,0,0,1-1.09,1,4.24,4.24,0,0,1-1.35.54,9.89,9.89,0,0,1-1.36.19,14.87,14.87,0,0,1-2.08-.19,3.37,3.37,0,0,1-1.63-.72,4.62,4.62,0,0,1-1.08-1.27,3.43,3.43,0,0,1-.27-.9,4,4,0,0,1-.1-1.09H108a7.21,7.21,0,0,0,.36,2.54,5.12,5.12,0,0,0,1.26,1.72,5,5,0,0,0,2.09,1,12.24,12.24,0,0,0,2.62.27,10.12,10.12,0,0,0,2.44-.27,9.7,9.7,0,0,0,1.72-.63,5.72,5.72,0,0,0,1.08-.91,3.51,3.51,0,0,0,.64-1c.09-.36.18-.63.27-.91v-.72a3.81,3.81,0,0,0-.27-1.63A5.83,5.83,0,0,0,119.19,173.34Z" style="fill:none"></path><polygon points="97.75 172.07 99.29 171.25 99.29 164.47 97.75 164.47 97.75 172.07" style="fill:none"></polygon><polygon points="126.25 151.72 136.74 151.72 136.74 150.45 127.69 150.45 127.69 145.93 136.11 145.93 136.11 144.75 126.25 144.75 126.25 151.72" style="fill:none"></polygon><polygon points="136.65 137.79 136.65 136.52 126.25 136.52 126.25 143.49 136.11 143.49 136.11 142.22 127.69 142.22 127.69 137.79 136.65 137.79" style="fill:none"></polygon><path d="M63.38,173.88l-9.49-9.41H52.35V180.3h1.54v-9.41l9.49,9.41h1.54V164.47H63.38Zm0,4.34-9.49-9.32v-2.26l9.49,9.41Z" style="fill:none"></path><polygon points="113.58 151.72 124.17 151.72 124.17 150.45 115.03 150.45 115.03 145.93 123.53 145.93 123.53 144.75 113.58 144.75 113.58 151.72" style="fill:none"></polygon><path d="M145.24,144.57h-1.81v1.27h1.81a4.9,4.9,0,0,0,5.16-4.71,5,5,0,0,0-5.16-4.7h-6.42v15.29h1.45v-9.95H149A3.68,3.68,0,0,1,145.24,144.57Zm-5-4v-2.8h5a4,4,0,0,1,3.89,2.8Z" style="fill:none"></path><rect x="46.65" y="129.28" width="106.55" height="1.9" style="fill:none"></rect><path d="M97.12,150.09a3.55,3.55,0,0,1-1.35.54,7.29,7.29,0,0,1-1.27.18,13.62,13.62,0,0,1-2-.18,4.41,4.41,0,0,1-1.63-.63,3.7,3.7,0,0,1-1.08-1.27c-.09-.27-.19-.54-.28-.9a4.11,4.11,0,0,1-.09-1.09H88.08a6.92,6.92,0,0,0,.36,2.44,3.25,3.25,0,0,0,1.27,1.63,5.81,5.81,0,0,0,2,1,11.19,11.19,0,0,0,2.44.27,8.18,8.18,0,0,0,2.26-.27,6.6,6.6,0,0,0,1.63-.64,3.21,3.21,0,0,0,1-.9,2.13,2.13,0,0,0,.54-1c.09-.27.19-.63.28-.9v-.63a4.18,4.18,0,0,0-.28-1.63,5.71,5.71,0,0,0-.81-1.09,5.59,5.59,0,0,0-1.27-.72c-.27-.09-.45-.18-.72-.27-.09,0-.27-.09-.36-.09h0c-.09,0-.18-.09-.36-.09h0c-.64-.18-1.72-.45-2.35-.55l-1.36-.36c-.36-.09-.63-.18-.91-.27a2,2,0,0,1-.72-.45c-.18-.18-.36-.45-.54-.63a2.78,2.78,0,0,1-.18-.91,2.51,2.51,0,0,1,.36-1.45,2,2,0,0,1,.81-.9c.36-.18.73-.36,1.18-.54a7,7,0,0,1,1.45-.18,7.93,7.93,0,0,1,1.53.18l.73.27c.18.09.45.27.63.36l.27.27h1.81a.9.9,0,0,0-.36-.45,2.35,2.35,0,0,0-.73-.63,5.45,5.45,0,0,0-1.8-.91l-1.09-.27c-.36,0-.72-.09-1.08-.09a7.27,7.27,0,0,0-2.63.45,3.77,3.77,0,0,0-1.63,1.09,5.37,5.37,0,0,0-.81,1.35c-.09.28-.09.46-.18.73s-.09.45-.09.63a4.26,4.26,0,0,0,.27,1.54,7.51,7.51,0,0,0,.72,1.08,2.13,2.13,0,0,0,1.09.64c.18.09.45.18.63.27s.45.09.64.18l.45.09s.81.18,1.81.45h0l1.17.27a1.37,1.37,0,0,1,.55.18c.18.1.36.1.54.19a2.15,2.15,0,0,1,1,.54c.18.09.27.27.45.36a1.74,1.74,0,0,1,.37.45,2,2,0,0,1,.27,1.09,2.17,2.17,0,0,1-.36,1.35C97.85,149.55,97.48,149.82,97.12,150.09Z" style="fill:none"></path><path d="M70.44,151.36a7.09,7.09,0,0,0,3.16.63A6.74,6.74,0,0,0,79,149.64a7.63,7.63,0,0,0,1.36-2.54,10.85,10.85,0,0,0,.45-3,10.42,10.42,0,0,0-.45-3A6.26,6.26,0,0,0,79,138.6a5.42,5.42,0,0,0-2.26-1.72,6.85,6.85,0,0,0-3.17-.63,6.74,6.74,0,0,0-5.42,2.35,7.41,7.41,0,0,0-1.36,2.53,10.13,10.13,0,0,0,0,6,6.81,6.81,0,0,0,1.36,2.54A7.21,7.21,0,0,0,70.44,151.36ZM68,142.58c.09-.27.09-.63.18-.9a7.85,7.85,0,0,1,1-2.17A4.64,4.64,0,0,1,70.89,138a5.92,5.92,0,0,1,2.62-.54,5.31,5.31,0,0,1,2.54.54,4.1,4.1,0,0,1,1.72,1.54,5.9,5.9,0,0,1,1,2.17c.09.27.09.63.18.9a3.1,3.1,0,0,1,.09.91H67.91A2.81,2.81,0,0,1,68,142.58Zm-.09,2.08H79.3a14.73,14.73,0,0,1-.27,1.81,8,8,0,0,1-1,2.17,5.83,5.83,0,0,1-1.72,1.54,5.56,5.56,0,0,1-2.53.63,5,5,0,0,1-2.63-.63,4.17,4.17,0,0,1-1.72-1.54,6,6,0,0,1-1-2.17A2.69,2.69,0,0,1,67.91,144.66Z" style="fill:none"></path><path d="M95,141h4.43a4.56,4.56,0,0,0-.18-1.17H95Z" style="fill:none"></path><rect x="102.19" y="150.45" width="9.95" height="1.27" style="fill:none"></rect><polygon points="102.19 136.52 102.19 148.01 102.19 149.28 112.14 149.28 112.14 148.01 103.64 148.01 103.64 136.52 102.19 136.52" style="fill:none"></polygon><polygon points="124.08 137.79 124.08 136.52 113.58 136.52 113.58 143.49 123.53 143.49 123.53 142.22 115.03 142.22 115.03 137.79 124.08 137.79" style="fill:none"></polygon><path d="M145.24,137.79h-5v2.8H149A3.68,3.68,0,0,0,145.24,137.79Z" style="fill:#fff"></path><path d="M71,150.18a6,6,0,0,0,2.62.63,4.64,4.64,0,0,0,2.54-.63,4.17,4.17,0,0,0,1.72-1.54,6,6,0,0,0,1-2.17,6.79,6.79,0,0,0,.27-1.81H67.91a14.73,14.73,0,0,0,.27,1.81,8,8,0,0,0,1,2.17A5,5,0,0,0,71,150.18Z" style="fill:#fff"></path><path d="M79.12,142.58c-.09-.27-.09-.63-.18-.9a7.85,7.85,0,0,0-1-2.17A4.72,4.72,0,0,0,76.23,138a5.57,5.57,0,0,0-2.54-.54,6,6,0,0,0-2.62.54,4.1,4.1,0,0,0-1.72,1.54,5.9,5.9,0,0,0-1,2.17c-.09.27-.09.63-.18.9a3.1,3.1,0,0,0-.09.91H79.48A2.43,2.43,0,0,1,79.12,142.58Z" style="fill:#fff"></path><path d="M41.31,11.51V187.26H158.54V11.51ZM101.1,58.73h28.68l-27-26.32L101,30.87V23.55h45.05v10H117.38l27,26.32,1.81,1.53v7.33H101.1Zm0,47h28.68l-27-26.33L101,77.82V70.49h45.05v10H117.38l27,26.32,1.81,1.54v7.33H101.1ZM53.61,63.53V23.64h7.33l1.54,1.8,26.32,27V23.73h10v45H91.51L90,67,63.65,40V68.68h-10Zm0,46.94V70.58h7.33l1.54,1.81L88.71,99.25V70.58h10v45.05H91.42l-1.53-1.81L63.65,87v28.68h-10Zm11.31,69.92H63.38L53.89,171v9.41H52.35V164.56h1.54L63.38,174v-9.41h1.54Zm16.83-4.79a8.24,8.24,0,0,1-1.36,2.62A6.6,6.6,0,0,1,78,180a7.86,7.86,0,0,1-3.26.72,7.26,7.26,0,0,1-3.26-.72,6.69,6.69,0,0,1-2.35-1.81,6.61,6.61,0,0,1-1.35-2.62,11.15,11.15,0,0,1,0-6.34,8.12,8.12,0,0,1,1.35-2.62,6.69,6.69,0,0,1,2.35-1.81,7.74,7.74,0,0,1,6.52,0,7.82,7.82,0,0,1,2.35,1.81,6.83,6.83,0,0,1,1.36,2.62,11.72,11.72,0,0,1,.45,3.17A12.26,12.26,0,0,1,81.75,175.6Zm8.68,4.79H88.71l-5.88-15.83h1.63l5.06,14.2h0l.73-2.08-4.34-12.12h1.62l3.53,10,3.62-10h1.54Zm8.86,0H97.76v-6.87l.9-.46.63-.36Zm0-9.14-1.53.82v-7.6h1.53Zm21.08,5.25V177a1.77,1.77,0,0,1-.27.91,3.51,3.51,0,0,1-.64,1,3.63,3.63,0,0,1-1.08.91,6.29,6.29,0,0,1-1.72.63,10.12,10.12,0,0,1-2.44.27,12.41,12.41,0,0,1-2.63-.27,5.64,5.64,0,0,1-2.08-1,4.15,4.15,0,0,1-1.26-1.72,5.62,5.62,0,0,1-.36-2.54h1.53a4.07,4.07,0,0,0,.09,1.09c.09.36.19.63.28.9a3,3,0,0,0,1.08,1.27,4.5,4.5,0,0,0,1.63.72,7.47,7.47,0,0,0,2.08.18,9.65,9.65,0,0,0,1.36-.18,4.24,4.24,0,0,0,1.35-.54,2.82,2.82,0,0,0,1.09-1,2.63,2.63,0,0,0,.18-2.63,1.58,1.58,0,0,0-.36-.45.9.9,0,0,0-.45-.36l-1.09-.54a1.28,1.28,0,0,0-.54-.18c-.18-.09-.36-.09-.55-.19l-1.26-.27,1.9-1.08.81.27a7.24,7.24,0,0,1,.73.27,7.66,7.66,0,0,1,1.26.81,4.25,4.25,0,0,1,.91,1.18,4.42,4.42,0,0,1,.27,1.63C120.37,176.32,120.37,176.41,120.37,176.5Zm-10.22-6.87a1.89,1.89,0,0,0,.54.72,2,2,0,0,0,.72.45c.28.09.55.18.91.27l2,.46h0l-1.09.63-.81.45-.45-.09c-.27-.09-.46-.09-.73-.18s-.45-.18-.63-.27a5.4,5.4,0,0,1-1.18-.72,3.57,3.57,0,0,1-.81-1.09,4.26,4.26,0,0,1-.27-1.54,1.76,1.76,0,0,1,.09-.63,2.12,2.12,0,0,1,.18-.72,4.5,4.5,0,0,1,.81-1.45,4.23,4.23,0,0,1,1.72-1.18,7.8,7.8,0,0,1,2.72-.45,5.54,5.54,0,0,1,1.17.09,2.44,2.44,0,0,1,1.09.27,6.09,6.09,0,0,1,1.9.91,2.74,2.74,0,0,1,.72.72l.54.81a5.53,5.53,0,0,1,.46,2.17H118.2a4.74,4.74,0,0,0-.36-1.62,4.14,4.14,0,0,0-1-1.18,2.26,2.26,0,0,0-.63-.36,5.78,5.78,0,0,0-.73-.27,5,5,0,0,0-1.62-.18,7.94,7.94,0,0,0-1.54.18,3.2,3.2,0,0,0-1.27.54,3.14,3.14,0,0,0-.9,1,2.45,2.45,0,0,0-.36,1.44A2.27,2.27,0,0,1,110.15,169.63Zm23.61,10.76-9.14-5-1.9,5h-1.63l6.42-15.83h1.63l6.24,15.83Zm14.2-2.08a7.81,7.81,0,0,1-5.43,2.08H137V164.47h5.52c2.44.09,4.25.72,5.43,2.08s1.81,3.26,1.81,5.88S149.22,177,148,178.31Zm5.24-19.18H46.65v-1.9H153.2ZM52.26,151.72v-15.2H53.7l3.89,3.89v2.08L53.7,138.6v13.12Zm6.51-4v-2l4,4V136.61H64.2v15.11H62.75Zm7.6-3.62a10.42,10.42,0,0,1,.45-3,6.14,6.14,0,0,1,1.36-2.53,6,6,0,0,1,2.26-1.72,6.83,6.83,0,0,1,3.16-.63,7.1,7.1,0,0,1,3.17.63A7.18,7.18,0,0,1,79,138.6a7.58,7.58,0,0,1,1.36,2.53,10.13,10.13,0,0,1,0,6A7,7,0,0,1,79,149.64a6.17,6.17,0,0,1-2.26,1.72,8.27,8.27,0,0,1-6.33,0,7.21,7.21,0,0,1-2.26-1.72,7.46,7.46,0,0,1-1.36-2.54A11.39,11.39,0,0,1,66.37,144.12Zm31.84,2.53a1.58,1.58,0,0,0-.36-.45,2,2,0,0,0-.46-.36c-.36-.18-.63-.36-1-.55-.18-.09-.36-.09-.54-.18s-.37-.09-.55-.18l-1.17-.27h0c-1-.27-1.81-.45-1.81-.45l-.45-.09a5.38,5.38,0,0,1-.64-.18c-.18-.09-.45-.18-.63-.27a3.27,3.27,0,0,1-1.09-.64A3.24,3.24,0,0,1,88.8,142a3.93,3.93,0,0,1-.27-1.54,1.76,1.76,0,0,1,.09-.63,2.84,2.84,0,0,1,.18-.73,4.15,4.15,0,0,1,.81-1.35,3.68,3.68,0,0,1,1.63-1.09,7.27,7.27,0,0,1,2.63-.45,4.38,4.38,0,0,1,1.08.09,2.44,2.44,0,0,1,1.09.27,4.83,4.83,0,0,1,1.81.91c.27.18.45.45.72.63.09.18.27.27.36.45H97.12l-.27-.27a1.45,1.45,0,0,0-.63-.36,5.78,5.78,0,0,0-.73-.27,4.21,4.21,0,0,0-1.53-.18,7,7,0,0,0-1.45.18,2.39,2.39,0,0,0-1.18.54,2,2,0,0,0-.81.9,2.33,2.33,0,0,0-.36,1.45,2.78,2.78,0,0,0,.18.91,1.21,1.21,0,0,0,.54.63,2,2,0,0,0,.72.45c.28.09.55.18.91.27l1.36.36c.63.18,1.71.37,2.35.55h0c.18,0,.27.09.36.09h0c.09,0,.27.09.36.09.27.09.45.18.73.27a5.74,5.74,0,0,1,1.26.72,2.59,2.59,0,0,1,.82,1.09,3.78,3.78,0,0,1,.27,1.63v.63a2,2,0,0,1-.27.9,11,11,0,0,1-.55,1,4.72,4.72,0,0,1-1,.9,6.84,6.84,0,0,1-1.63.64,8.65,8.65,0,0,1-2.26.27,10.06,10.06,0,0,1-2.44-.27,5.12,5.12,0,0,1-2-1A5.39,5.39,0,0,1,88.62,149a5,5,0,0,1-.36-2.44h1.45a4.5,4.5,0,0,0,.09,1.09c.09.36.18.63.27.9a4.78,4.78,0,0,0,1.08,1.27,4.41,4.41,0,0,0,1.63.63,6.52,6.52,0,0,0,2,.18,7.29,7.29,0,0,0,1.27-.18,4.24,4.24,0,0,0,1.35-.54,2.53,2.53,0,0,0,1-1,2.17,2.17,0,0,0,.36-1.35A5.17,5.17,0,0,1,98.21,146.65Zm1.08-7a5.27,5.27,0,0,1,.18,1.17H95v-1.17ZM112.14,148v1.26h-10V136.52h1.44V148Zm0,2.44v1.27h-10v-1.27Zm11.39-8.23v1.27h-9.85v-7h10.49v1.27h-9v4.52h8.41Zm0,2.53V146h-8.41v4.52h9.14v1.27H113.68v-7h9.85Zm12.58-2.53v1.27h-9.86v-7h10.49v1.27h-9v4.52h8.41Zm0,2.53V146H127.7v4.52h9.13v1.27H126.25v-7h9.86Zm4.16-3v9.95h-1.45v-15.2h6.42a4.9,4.9,0,0,1,5.16,4.7,5,5,0,0,1-5.16,4.71h-1.81v-1.27h1.81a4,4,0,0,0,3.89-2.8h-8.86Zm12.93-10.59H46.65v-1.9H153.2Z" style="fill:#fff"></path><path d="M80.3,169.9a10.25,10.25,0,0,0-1.09-2.26A6.08,6.08,0,0,0,77.4,166a6,6,0,0,0-2.71-.63A5,5,0,0,0,72,166a3.88,3.88,0,0,0-1.81,1.63,8.62,8.62,0,0,0-1.09,2.26,3.2,3.2,0,0,0-.18.9,3.44,3.44,0,0,0-.09,1H80.75c0-.36-.09-.64-.09-1A3.76,3.76,0,0,1,80.3,169.9Z" style="fill:#fff"></path><polygon points="53.89 168.9 63.38 178.22 63.38 176.05 53.89 166.64 53.89 168.9" style="fill:#fff"></polygon><polygon points="125.16 174.15 133.12 178.67 128.33 166.01 125.16 174.15" style="fill:#fff"></polygon><path d="M138.55,179.12h3.26a10.41,10.41,0,0,0,3-.36,5.16,5.16,0,0,0,2.08-1.17,5.31,5.31,0,0,0,1.18-2.08l.27-1.09a5.58,5.58,0,0,0,.09-1.27h-9.77v6Z" style="fill:#fff"></path><path d="M146.78,167.27a4.62,4.62,0,0,0-2.08-1.17,9.65,9.65,0,0,0-3-.36h-3.26v6.06h9.77c0-.45-.09-.91-.09-1.27s-.18-.81-.27-1.08A4.18,4.18,0,0,0,146.78,167.27Z" style="fill:#fff"></path><path d="M69.08,175a8.62,8.62,0,0,0,1.09,2.26A4.84,4.84,0,0,0,72,178.76a6.06,6.06,0,0,0,5.42,0,5,5,0,0,0,1.81-1.54,7.21,7.21,0,0,0,1.36-4.16H68.72A13.82,13.82,0,0,0,69.08,175Z" style="fill:#fff"></path></svg> 