<?xml version="1.0" encoding="UTF-8"?> <svg xmlns="http://www.w3.org/2000/svg" viewBox="0 0 200 200"><title>urban-bug-stage-logo-nov</title><path d="M51.08,89c-.39,0-.58,0-.67.19a3.56,3.56,0,0,0-.29,1.43v5.83a2.66,2.66,0,0,0,.29,1.43c.09.29.38.29.67.29s.57,0,.67-.29a4.11,4.11,0,0,0,.19-1.52V90.65a4.88,4.88,0,0,0-.19-1.43A1.19,1.19,0,0,0,51.08,89Z" style="fill:none"></path><path d="M121.38,105c0-1.81-.1-2.86-.48-3.34-.19-.48-1-.67-2-.67a2.55,2.55,0,0,0-2.1.86,6.08,6.08,0,0,0-.57,3.25V118c0,1.72.09,2.77.48,3.25.19.67,1,.86,2,.86a2.58,2.58,0,0,0,2.29-1c.39-.66.48-2.1.48-4.2h-.09Z" style="fill:none"></path><path d="M66,98.3c.38,0,.57,0,.67-.29a2.51,2.51,0,0,0,.19-1.15V94c-.9.45-1.44.91-1.53,1.28a3.47,3.47,0,0,0-.19,1.34A4.51,4.51,0,0,0,65.31,98C65.4,98.3,65.69,98.3,66,98.3Zm-.38-3.06c0-.1.09-.19.19-.29h.76v1.72a4.15,4.15,0,0,1-.1,1l-.09.09a1,1,0,0,1-.76,0,2.82,2.82,0,0,1-.2-1.24A3.61,3.61,0,0,1,65.6,95.24Z" style="fill:none"></path><path d="M26.24,101.16a2.51,2.51,0,0,0-2.1.67c-.38.57-.48,1.91-.48,4v16.43c0,2,.19,3.34.58,3.92s1.05.86,2.1.86a2.31,2.31,0,0,0,2.1-.86c.38-.58.48-2,.48-4.3v-16c0-2-.1-3.35-.58-3.92C28.06,101.35,27.29,101.16,26.24,101.16Z" style="fill:none"></path><path d="M176.37,80.38l-2.08-8.64-.38-.38-9.17-3.82a7.42,7.42,0,0,0-1.53.1l-6.48,4.72,8.78,8.93Z" style="fill:none"></path><polygon points="145.09 103.36 144.68 107.66 161.68 114.06 164.53 110.18 156.62 104.12 145.09 103.36" style="fill:none"></polygon><polygon points="146.5 88.36 145.51 98.89 158.82 98.01 167.1 106.69 172.79 98.95 158.91 98.01 146.5 88.36" style="fill:none"></polygon><path d="M178,91.42c0,.19-.09.39-.13.58l.22-.29A.36.36,0,0,0,178,91.42Z" style="fill:#fff"></path><path d="M153.25,72.7a29.49,29.49,0,0,0-4.84,5.73l5.84-4.26,9,13.14,13.93-3.71,1.36,5.62v.57a31.29,31.29,0,0,0,.18-6.6l16.44-4.38-16.86,1.41c-1.14-5.72-4.17-10.25-8.84-12-4.45-1.71-9.52-.53-14,2.76L144.59,60Zm10-5.06a7.42,7.42,0,0,1,1.53-.1l9.17,3.82.38.38,2.08,8.64-10.86.91-8.78-8.93Z" style="fill:#fff"></path><path d="M187,99.92l-9.8-5.09c.27-1,.5-1.89.69-2.83l-1.69,2.31-13.46-7-15.77-4,.29-3.09c.29-.47.57-.95.86-1.52a32.07,32.07,0,0,0-2.38,4.3l-9.08-2.3,7.61,5.91a33.3,33.3,0,0,0-1.86,12.46l-12.53.83-.77,2.39,13.83.91c1.18,5.54,4.15,9.88,8.62,11.6,4.71,1.79,10.07.4,14.78-3.26l11.87,9.09.48-1.82-9.44-9.89a33.46,33.46,0,0,0,6.39-9.79Zm-25.32,14.14-17-6.4.41-4.3,11.53.76,7.91,6.06Zm5.42-7.37L158.82,98l-13.31.88,1-10.53L158.91,98l13.88.94Z" style="fill:#fff"></path><polygon points="160.73 85.5 155.86 78.81 154.04 83.59 160.73 85.5" style="fill:#fff"></polygon><polygon points="173.34 85.59 166.17 87.41 171.91 90.18 173.34 85.59" style="fill:#fff"></polygon><path d="M66.36,97.72l.09-.09a4.15,4.15,0,0,0,.1-1V95h-.76c-.1.1-.19.19-.19.29a3.61,3.61,0,0,0-.2,1.24,2.82,2.82,0,0,0,.2,1.24A1,1,0,0,0,66.36,97.72Z" style="fill:#fff"></path><path d="M88.9,100.59H82.21V95h-1v5.64H75.24v20.06c0,3-.09,4.87-.38,5.44s-1,.86-2.39.86c-1.14,0-1.91-.19-2.29-.86-.29-.48-.38-2.29-.38-5.25V100.59H66.74v-.67a4.12,4.12,0,0,1-.86.48,3.61,3.61,0,0,1-2.2.47,6.27,6.27,0,0,1-3-.76c-1-.38-1.53-1.43-1.53-3V96.1a5,5,0,0,1,.19-1.24H58.14v1.62a7.73,7.73,0,0,1-.28,2.2v.09a3.53,3.53,0,0,1-1.43,1.44,5.38,5.38,0,0,1-2.68.66,7.19,7.19,0,0,1-1.53-.19v20.06a48.46,48.46,0,0,0,.29,6.59A7.69,7.69,0,0,0,54,130.58,8.53,8.53,0,0,0,58,133a18.16,18.16,0,0,0,6.59.95,20.26,20.26,0,0,0,6.21-.95,9.51,9.51,0,0,0,4.49-2.87l-.38,3.06h18V95H88.9Z" style="fill:#fff"></path><path d="M129.59,99.63l9.55-.67V95H122.81l-1.34,2.87a17.26,17.26,0,0,0-4.87-2.77,20.17,20.17,0,0,0-6.11-.86c-4,0-7.07.86-9,2.39s-3,4.2-3,7.83v13.85a13.53,13.53,0,0,0,1,5.83,7.94,7.94,0,0,0,4.3,3.34,20,20,0,0,0,7.73,1.34A16.94,16.94,0,0,0,117,128a23.07,23.07,0,0,0,4.78-2v2.86a5.88,5.88,0,0,1-.67,3.25,3.24,3.24,0,0,1-2.58.86c-1.91,0-2.86-.86-2.86-2.49h-17a7.33,7.33,0,0,0,5.26,7.36,42.58,42.58,0,0,0,13.56,1.91,54.13,54.13,0,0,0,11.37-1.05,17.93,17.93,0,0,0,7.07-3c1.62-1.34,2.77-2.49,3-3.73a54.16,54.16,0,0,0,.38-7.64V103.26l-10.51-.67ZM121,121.12a2.58,2.58,0,0,1-2.29,1c-1,0-1.81-.19-2-.86-.39-.48-.48-1.53-.48-3.25V105.08a6.08,6.08,0,0,1,.57-3.25,2.55,2.55,0,0,1,2.1-.86c1,0,1.82.19,2,.67.38.48.48,1.53.48,3.34v11.94h.09C121.47,119,121.38,120.46,121,121.12Z" style="fill:#fff"></path><path d="M24.05,97.72h.86A3.12,3.12,0,0,0,25,96.58a6.92,6.92,0,0,0-1.05.76C24,97.53,24,97.72,24.05,97.72Z" style="fill:#fff"></path><path d="M43.82,100.68V96.39A11.17,11.17,0,0,0,40.57,95a3.63,3.63,0,0,0-1-.19v5.92H33v-6.3c-.47,0-1,.1-1.43.1v6.2H24.81l.1-.57a4.78,4.78,0,0,1-1,.48,5.44,5.44,0,0,1-2.2.38,6,6,0,0,1-2.38-.38,3.18,3.18,0,0,1-1.44-1l-.09-.09a3.91,3.91,0,0,1-.48-1.24v-.67c0-.48-.1-1-.1-1.82V86.45H5.9v46.61H22.42l1-2.86A19.23,19.23,0,0,0,28.34,133a19.67,19.67,0,0,0,5.83.86,17.21,17.21,0,0,0,7.55-1.53c2-1,3.34-2.1,3.91-3.53a16.72,16.72,0,0,0,.86-6.21V105.27c0-2-.09-3.54-.19-4.59Zm-14.9,21.21c0,2.29-.1,3.72-.48,4.3a2.31,2.31,0,0,1-2.1.86c-1.05,0-1.82-.19-2.1-.86s-.58-1.91-.58-3.92V105.84c0-2.1.1-3.44.48-4a2.51,2.51,0,0,1,2.1-.67c1.05,0,1.82.19,2.1.86.48.57.58,1.91.58,3.92Z" style="fill:#fff"></path><path d="M39.33,95.05a10.13,10.13,0,0,1,.28-2.58c.1-.38.39-.57,1-.86A8,8,0,0,1,43,91.42V86.64a4.31,4.31,0,0,0-3.82,2l.19-1.82H33.5V100.3h5.83Z" style="fill:#fff"></path><path d="M18.12,99.44a4.68,4.68,0,0,0,1.34.86,5.44,5.44,0,0,0,2.29.38,5.8,5.8,0,0,0,2-.38,3.38,3.38,0,0,0,1.53-1l-.1,1H31.3V86.83H25.19v9.08a8.84,8.84,0,0,1-.09,2c-.19.29-.39.29-.86.29-.29,0-.58,0-.67-.29a8,8,0,0,1-.1-1.91V86.83H17.55v9.08c0,1.24.1,2,.1,2.39A5,5,0,0,0,18.12,99.44Z" style="fill:#fff"></path><path d="M56.14,100a3.64,3.64,0,0,0,1.34-1.34,11,11,0,0,0,.19-2.1V90.37a8,8,0,0,0-.1-1.91c0-.38-.19-.58-.48-1a3.45,3.45,0,0,0-1.43-.67,4.74,4.74,0,0,0-2-.28,4.77,4.77,0,0,0-2,.28,14.12,14.12,0,0,0-1.62.86V83.87H44.2v16.34h5.44l.39-1a15.28,15.28,0,0,0,1.62,1,4.51,4.51,0,0,0,2,.38A5.05,5.05,0,0,0,56.14,100Zm-4.2-3.63a4.11,4.11,0,0,1-.19,1.52c-.1.29-.29.29-.67.29s-.58,0-.67-.29a2.66,2.66,0,0,1-.29-1.43V90.65a3.56,3.56,0,0,1,.29-1.43c.09-.19.28-.19.67-.19a1.19,1.19,0,0,1,.67.19,4.88,4.88,0,0,1,.19,1.43Z" style="fill:#fff"></path><path d="M60.72,100a5.87,5.87,0,0,0,2.87.66,4.44,4.44,0,0,0,1.91-.38,3.1,3.1,0,0,0,1.43-1v1.15h5.73V93.62a15.74,15.74,0,0,0-.28-4.4,3.26,3.26,0,0,0-1.91-1.81A10.53,10.53,0,0,0,66,86.64a9.83,9.83,0,0,0-4,.58,4.33,4.33,0,0,0-2,1.52,4,4,0,0,0-.57,2.39v1h5.54V90.94A5,5,0,0,1,65,89.51c.1-.19.29-.19.67-.19a1.59,1.59,0,0,1,.86.19,4.47,4.47,0,0,1,.19,1.43,1.9,1.9,0,0,1-.19,1,10.87,10.87,0,0,1-3.06,1.15,12.39,12.39,0,0,0-3.43,1.14c-.48.29-.67,1-.67,2.11v1C59.39,98.87,59.86,99.63,60.72,100Zm4.59-4.78c.09-.37.63-.83,1.53-1.28v2.9A2.51,2.51,0,0,1,66.65,98c-.1.29-.29.29-.67.29s-.58,0-.67-.29a4.51,4.51,0,0,1-.19-1.43A3.47,3.47,0,0,1,65.31,95.24Z" style="fill:#fff"></path><path d="M80.78,91.23a5.36,5.36,0,0,1,.29-1.91c0-.29.29-.38.67-.38s.67.09.67.19a8.24,8.24,0,0,1,.09,1.81v9.27h5.92V90.75a15.27,15.27,0,0,0-.19-2.58A3.28,3.28,0,0,0,86.9,87a4.67,4.67,0,0,0-2.49-.47,5.37,5.37,0,0,0-2.1.38,4,4,0,0,0-1.53,1l.1-1.15h-6V100.3h5.92Z" style="fill:#fff"></path></svg> 