<?xml version="1.0" encoding="UTF-8"?> <svg xmlns="http://www.w3.org/2000/svg" viewBox="0 0 200 200"><title>as-fm-stage-nov</title><path d="M91.54,99.51a3.65,3.65,0,0,1,.86.85,2.09,2.09,0,0,1,.19,1.15v1.62a1.78,1.78,0,0,1-2,2H90.2a1.77,1.77,0,0,1-2-2v-2.29h1.24v2.39a.76.76,0,0,0,.86.86h.28a.76.76,0,0,0,.86-.86v-1.72c0-.29,0-.48-.09-.57a1.78,1.78,0,0,0-.38-.48l-1.53-1.15a3.65,3.65,0,0,1-.86-.85,2.09,2.09,0,0,1-.19-1.15V96a1.77,1.77,0,0,1,2-2h.19a1.77,1.77,0,0,1,2,2v2H91.35V96a.76.76,0,0,0-.86-.85H90.3a.75.75,0,0,0-.86.85v1.34c0,.29,0,.48.09.57a1.14,1.14,0,0,0,.48.48Z" style="fill:#fff"></path><path d="M96,105H94.78V95.21H93.16V94.07h4.58v1.14H96.12V105Z" style="fill:#fff"></path><path d="M102.42,105h-1.24l-.29-1.81h-2L98.6,105H97.36l1.81-11h1.63ZM99.94,96l-.86,6.11h1.72Z" style="fill:#fff"></path><path d="M106.52,100.36h-1V99.22h2.2v3.91a1.78,1.78,0,0,1-2,2h-.47a1.78,1.78,0,0,1-2-2V96.07a1.77,1.77,0,0,1,2-2h.47a1.77,1.77,0,0,1,2,2V97.6h-1.24V96.07a.76.76,0,0,0-.86-.86h-.38a.76.76,0,0,0-.86.86v7.16a.76.76,0,0,0,.86.86h.38a.76.76,0,0,0,.86-.86v-2.87Z" style="fill:#fff"></path><path d="M108.81,94.07h3.44v1.14h-2.2v3.63h2.1V100h-2.1v3.92h2.2V105h-3.44Z" style="fill:#fff"></path><path d="M76.17,114.59v4.1H74.93v-11h2.2a1.77,1.77,0,0,1,2,2v2.77a1.77,1.77,0,0,1-2,2h-1Zm1.72-4.87a.76.76,0,0,0-.86-.86h-.86v4.58H77a.76.76,0,0,0,.86-.86Z" style="fill:#fff"></path><path d="M84.67,116.78a1.78,1.78,0,0,1-2,2h-.48a1.77,1.77,0,0,1-2-2v-7.06a1.77,1.77,0,0,1,2-2h.48a1.78,1.78,0,0,1,2,2Zm-1.24-7.16a.76.76,0,0,0-.86-.86h-.39a.76.76,0,0,0-.85.86v7.16a.76.76,0,0,0,.85.86h.39a.76.76,0,0,0,.86-.86Z" style="fill:#fff"></path><path d="M90,107.81l1,9.35,1-9.35h1.24l-1.34,11H90.2L89.34,111l-.86,7.83H86.86l-1.34-11h1.25l1,9.35,1-9.35Z" style="fill:#fff"></path><path d="M94.21,107.81h3.44V109h-2.2v3.63h2.1v1.15h-2.1v3.91h2.2v1.15H94.21Z" style="fill:#fff"></path><path d="M102.13,113.54a1.29,1.29,0,0,1,1,1.43v3.72h-1.24v-3.63c0-.66-.29-1-1-1h-1v4.58H98.7v-11H101a1.77,1.77,0,0,1,2,2v2C103.09,112.77,102.7,113.35,102.13,113.54Zm-.28-3.82a.76.76,0,0,0-.86-.86h-1V113h1a.86.86,0,0,0,1-.95Z" style="fill:#fff"></path><path d="M104.23,107.81h3.44V109h-2.2v3.63h2.1v1.15h-2.1v3.91h2.2v1.15h-3.44Z" style="fill:#fff"></path><path d="M108.72,118.79v-11h2.1a2.08,2.08,0,0,1,2.38,2.39v6.1a2.08,2.08,0,0,1-2.38,2.39h-2.1ZM110,109v8.69h.76c.86,0,1.24-.38,1.24-1.24v-6.11c0-.86-.38-1.24-1.24-1.24H110Z" style="fill:#fff"></path><path d="M119.6,113.15a1.65,1.65,0,0,1,1,1.72v1.82a1.77,1.77,0,0,1-2,2h-2.29v-11h2.29a1.77,1.77,0,0,1,2,2v1.62C120.55,112.3,120.27,112.87,119.6,113.15Zm-.29-3.43a.76.76,0,0,0-.86-.86h-1v3.72h1a.85.85,0,0,0,1-1Zm-1.81,4v3.91h1a.76.76,0,0,0,.86-.86v-2.19a.86.86,0,0,0-1-1h-1Z" style="fill:#fff"></path><path d="M126,107.81,124.18,115v3.82h-1.24v-3.73l-1.81-7.25h1.24l1.14,5.34,1.15-5.34Z" style="fill:#fff"></path><polygon points="113.01 150 113.39 148.09 112.54 148.09 112.06 150 113.01 150" style="fill:#fff"></polygon><polygon points="94.88 148.18 93.92 148.18 93.26 151.24 94.21 151.24 94.88 148.18" style="fill:#fff"></polygon><path d="M114.83,145.7l-26-.09-1.72.66-1.72,7.83,1.53-.57H113l1.53-.58,1.72-7.82Zm-24.44,6.49-.47-2.86-.67,2.86h-1l1-5h1l.47,2.86.67-2.86h1l-1,5Zm4.77,0H92l1-5h3.14Zm5,.19H97l.38-1.62h1.15l-.1.67h.76l.19-.86-1.62-1.34.48-2.1h3l-.38,1.63h-1l.1-.58h-.77l-.19.67,1.63,1.34Zm3.34,0h-2.86l1.14-5.34h1.15l-1,4.29h1.62Zm3.53-1-.19,1H104l1.15-5.34H108l-.19,1.05h-1.52l-.19,1h1.52l-.19,1H106l-.29,1.24Zm3.15,0-.19,1h-2.77l1.15-5.34h2.76l-.19,1.05h-1.52l-.19,1h1.52l-.19,1H109.1l-.29,1.24Zm3.82-.28h-2.1l-.29,1.33h-1.14l1-4.58,1-.76h2.39Z" style="fill:#fff"></path><polygon points="76.46 126.33 79.8 126.33 79.8 140.93 81.33 140.93 81.33 140.55 81.33 135.68 81.33 126.33 84.76 126.33 84.76 128.62 86.1 126.9 86.1 124.89 75.03 124.89 75.03 126.52 76.46 128.24 76.46 126.33" style="fill:#fff"></polygon><polygon points="82.38 144.27 78.65 144.27 76.46 141.79 76.46 142.36 75.79 143.12 77.98 145.7 83.04 145.7 84.67 143.7 84.67 141.5 82.38 144.27" style="fill:#fff"></polygon><polygon points="90.97 144.27 90.97 139.5 90.97 139.5 90.97 137.49 89.44 137.49 89.44 144.27 86.1 144.27 86.1 129.09 88.39 126.33 92.11 126.33 94.31 128.81 94.31 126.71 92.78 124.89 87.72 124.89 86.1 126.9 84.76 128.62 84.76 141.41 84.67 141.5 84.67 143.7 84.67 145.7 94.31 145.7 94.31 144.27 90.97 144.27" style="fill:#fff"></polygon><polygon points="89.44 134.44 90.97 134.44 90.97 132.72 90.97 132.72 90.97 129.67 89.44 129.67 89.44 134.44" style="fill:#fff"></polygon><polygon points="115.02 126.33 118.36 126.33 120.17 130.81 120.17 126.33 123.7 126.33 123.7 128.62 125.04 126.9 125.04 124.89 113.59 124.89 113.59 126.71 115.02 128.33 115.02 126.33" style="fill:#fff"></polygon><polygon points="120.17 144.27 120.17 142.17 120.17 138.73 120.17 138.06 118.36 133.1 118.36 144.27 115.02 144.27 115.02 145.7 123.61 145.7 123.61 144.27 120.17 144.27" style="fill:#fff"></polygon><polygon points="110.25 132.91 110.25 132.91 110.25 129.67 108.72 129.67 108.72 134.44 110.25 134.44 110.25 132.91" style="fill:#fff"></polygon><polygon points="104.23 136.06 105.38 136.73 105.38 135.2 104.23 136.06" style="fill:#fff"></polygon><polygon points="115.02 144.27 115.02 128.33 113.59 126.71 112.06 124.89 107 124.89 104.81 127.66 105.38 128.33 105.38 129.09 107.67 126.33 111.39 126.33 113.68 128.9 113.68 144.27 110.25 144.27 110.25 140.07 110.25 137.49 108.72 137.49 108.72 144.27 105.38 144.27 105.38 145.7 113.59 145.7 115.02 145.7 115.02 144.27" style="fill:#fff"></polygon><polygon points="99.08 130.24 99.17 134.44 100.61 134.44 100.61 129.67 99.08 129.67 99.08 130.24" style="fill:#fff"></polygon><path d="M105.38,144.27v-7.54l-1.15-.67,1.15-.86v-6h0v-.76l-.58-.67L102.42,125H94.31v3.91h0v15.37h0v1.43h11.07v-1.43ZM104,134.44l-2.19,1.72,2.19,1.33v6.78H100.7v-6.78H99.17v2.68h0v4.1H95.83V126.33h6.11l2.2,2.57v5.54Z" style="fill:#fff"></path><path d="M131.72,124.89h-5.06l-1.62,2-1.43,1.72v15.65h0v1.43h11.07V128.33Zm1.53,19.38h-3.34v-6.78h-1.53v6.78H125V129.09l2.29-2.86h3.72l2.2,2.58Z" style="fill:#fff"></path><polygon points="128.38 134.44 129.91 134.44 129.91 134.15 129.91 132.63 129.91 129.67 128.38 129.67 128.38 134.44" style="fill:#fff"></polygon><path d="M76.46,141.79h0V128.23L75,126.61,73.69,125h-5l-3,3.53v13.84l3,3.53h5l2.2-2.58.66-.76v-.76Zm-1.34-8.88H71.88v-3.43H70.35v11.64h1.53v-4.2H71v-2.39h4.1v7.26l-2,2.48H69.49l-2.19-2.58V128.9l2.19-2.57h3.63l2,2.48Z" style="fill:#fff"></path><path d="M33,45.39H31.5v1.53H33Zm-27.11,3a1.94,1.94,0,0,0-.57,1.43V55H6.88V49.87a.49.49,0,0,1,.19-.38.52.52,0,0,1,.38-.19h3.91V47.77h-4A2.06,2.06,0,0,0,5.92,48.44Zm21.77-.67H23.3a2,2,0,0,0-1.44.58,1.94,1.94,0,0,0-.57,1.43v3a1.95,1.95,0,0,0,2,2h5.91V45.39H27.69Zm0,5.73H23.3a.49.49,0,0,1-.39-.19c-.09-.09-.09-.19-.09-.38V49.87c0-.19,0-.28.19-.38a.5.5,0,0,1,.38-.19h4.39v4.2Zm5.44-.19a.47.47,0,0,1-.19-.38V47.77H31.41v5.16a1.95,1.95,0,0,0,2,2h1.43V53.41H33.41C33.41,53.5,33.22,53.41,33.13,53.31Zm10.78-4.87a1.94,1.94,0,0,0-1.43-.57H38.57a2,2,0,0,0-1.44.57,1.94,1.94,0,0,0-.57,1.43v3.06a1.94,1.94,0,0,0,.57,1.43,2,2,0,0,0,1.44.57h3.91a1.95,1.95,0,0,0,2-2V49.87A1.94,1.94,0,0,0,43.91,48.44ZM43,52.93a.76.76,0,0,1-.19.38.51.51,0,0,1-.39.19H38.47a.67.67,0,0,1-.57-.57V49.87c0-.19,0-.28.19-.38a.5.5,0,0,1,.38-.19h3.91a.54.54,0,0,1,.39.19.52.52,0,0,1,.19.38ZM17.38,47.77h-4V49.3h4a.67.67,0,0,1,.57.57v1.05H14.13a2,2,0,0,0-1.43.58A2,2,0,0,0,12,52.93a2,2,0,0,0,2,2h5.25V49.78a2,2,0,0,0-1.91-2Zm.47,5.73H14.13a.49.49,0,0,1-.38-.19.48.48,0,0,1,0-.76.49.49,0,0,1,.38-.19h3.72Z" style="fill:#fff"></path><path d="M104,57.41a3.9,3.9,0,0,0,4,4h25a11.36,11.36,0,0,1,8.5,3.53c.57.58.95,1,1.43,1.63V53.41H108a3.9,3.9,0,0,0-4,4Z" style="fill:#fff"></path><path d="M96.69,85.57v-8H133a4,4,0,1,0,0-8H108A11.3,11.3,0,0,1,99.46,66a11.42,11.42,0,0,1-3.53-8.49A11.29,11.29,0,0,1,99.46,49a11.55,11.55,0,0,1,8-3.54h-47a12.07,12.07,0,0,0-12,12V85.67h8v-8H88.67v8Zm-8-16H56.51V57.41a3.91,3.91,0,0,1,4-4h24a3.87,3.87,0,0,1,2.86,1.14,4,4,0,0,1,1.24,2.86Z" style="fill:#fff"></path><path d="M148.71,72a5.73,5.73,0,0,0-1.72,4.2v9.26h4v-4h12v-4H151V76.22a2,2,0,0,1,2-2h10v-4H153A6.31,6.31,0,0,0,148.71,72Z" style="fill:#fff"></path><path d="M193.38,72a5.83,5.83,0,0,0-4.3-1.72h-4a5.73,5.73,0,0,0-4,1.53,5.69,5.69,0,0,0-4-1.53h-4a6.12,6.12,0,0,0-4.3,1.72A5.83,5.83,0,0,0,167,76.31v9.26h4V76.31a2,2,0,0,1,2-2h4a1.95,1.95,0,0,1,2,2v9.26h4V76.31a1.95,1.95,0,0,1,2-2h4a1.94,1.94,0,0,1,1.43.57,1.91,1.91,0,0,1,.58,1.43v9.26h4V76.31A6.16,6.16,0,0,0,193.38,72Z" style="fill:#fff"></path><path d="M44.48,84.62a1,1,0,0,1-.95.95H37.42a1,1,0,0,1-1-.95V79.27a1,1,0,0,1,1-1h6.11a1,1,0,0,1,.95,1Z" style="fill:#ec1c24"></path><path d="M44.48,75.74a1,1,0,0,1-.95,1H37.42a1,1,0,0,1-1-1V70.4a1,1,0,0,1,1-1h6.11a1,1,0,0,1,.95,1Z" style="fill:#ec1c24"></path><path d="M32.46,84.62a1,1,0,0,1-1,.95H25.39a1,1,0,0,1-.95-.95V79.27a1,1,0,0,1,.95-1H31.5a1,1,0,0,1,1,1Z" style="fill:#ec1c24"></path><path d="M32.46,75.74a1,1,0,0,1-1,1H25.39a1,1,0,0,1-.95-1V70.4a1,1,0,0,1,.95-1H31.5a1,1,0,0,1,1,1Z" style="fill:#ec1c24"></path><path d="M44.48,66.86a1,1,0,0,1-.95,1H37.42a1,1,0,0,1-1-1V61.52a1,1,0,0,1,1-1h6.11a1,1,0,0,1,.95,1Z" style="fill:#ec1c24"></path></svg> 