<?xml version="1.0" encoding="UTF-8"?> <svg xmlns="http://www.w3.org/2000/svg" viewBox="0 0 200 200"><title>silent-disco-stage-nov</title><path d="M37.84,58.1a14.87,14.87,0,0,1,4.7,5,15.24,15.24,0,0,1,1.3,6.79V81.09c0,8.45-4.26,12.71-12.71,12.71H26.52c-8.28-.09-12.45-4.26-12.45-12.62V66.72H24.25v14c0,2.61,1.31,3.92,4,3.92h1.39c2.7,0,4-1.31,4-3.92V71.42a6.62,6.62,0,0,0-3-5.57L20.07,58.1a14.78,14.78,0,0,1-4.7-5.05,15.06,15.06,0,0,1-1.3-6.7V36.94c0-8.44,4.26-12.62,12.71-12.62h4.35c8.36,0,12.63,4.18,12.63,12.62V49.31H33.48v-12c0-2.61-1.3-3.92-3.92-3.92h-1.3q-3.92,0-3.92,3.92v7.58a6.4,6.4,0,0,0,3,5.57Z" style="fill:#fff"></path><path d="M60.13,24.84V93.11H49.68V24.84Z" style="fill:#fff"></path><path d="M66.48,24.84H76.93V83.7h11.5v9.49h-22Z" style="fill:#fff"></path><path d="M93.21,24.84h23.25v9.49h-12.8V53.66h12.28v9.49H103.66V83.7h13v9.49H93.21Z" style="fill:#fff"></path><path d="M153.38,93.19H142.06l-10.62-46,.09,12v34h-9.41V24.84h12.19L144.07,67,144,55.58V24.84h9.4Z" style="fill:#fff"></path><path d="M177.24,93.19H166.79V34.33h-9.4V24.84h29.17v9.49h-9.41V93.19Z" style="fill:#fff"></path><path d="M21.64,173.47V105.12H37.31q14.89,0,14.89,14.89v38.4q0,14.9-14.89,14.89H21.64Zm10.45-59.12v50h3.83c4,0,5.92-2,5.92-6V120.45c0-4-2-6-5.92-6H32.09Z" style="fill:#fff"></path><path d="M68.92,105.12v68.27H58.47V105.12Z" style="fill:#fff"></path><path d="M98.79,138.38a14.87,14.87,0,0,1,4.7,5.05,15.25,15.25,0,0,1,1.31,6.8v11.14c0,8.45-4.27,12.71-12.72,12.71H87.47c-8.36,0-12.63-4.18-12.63-12.62V147H85v14c0,2.61,1.31,3.92,4,3.92h1.39c2.7,0,4-1.31,4-3.92v-9.4a6.58,6.58,0,0,0-3-5.57L80.94,138.3a14.77,14.77,0,0,1-4.7-5.05,15,15,0,0,1-1.31-6.71v-9.4c0-8.45,4.27-12.72,12.71-12.72H92c8.35,0,12.62,4.18,12.62,12.63V129.5H94.35v-12c0-2.62-1.31-3.92-3.92-3.92H89.12c-2.61,0-3.92,1.3-3.92,3.92v7.57a6.4,6.4,0,0,0,3,5.57Z" style="fill:#fff"></path><path d="M130.57,145.44h10.27v15.93c0,8.45-4.26,12.71-12.71,12.71h-5.22c-8.45,0-12.72-4.26-12.72-12.71V117.31c0-8.44,4.27-12.71,12.72-12.71h5c8.36,0,12.62,4.18,12.62,12.62v13.94H130.31V117.75c0-2.7-1.31-4-3.92-4h-1.74c-2.7,0-4,1.31-4,4v43.1c0,2.7,1.31,4,4,4h1.91c2.62,0,3.92-1.3,3.92-4V145.44Z" style="fill:#fff"></path><path d="M177.41,161.37c0,8.45-4.26,12.71-12.71,12.71h-5.57c-8.45,0-12.71-4.26-12.71-12.71V117.31c0-8.44,4.26-12.71,12.71-12.71h5.57c8.45,0,12.71,4.27,12.71,12.71ZM167,117.75c0-2.7-1.31-4-3.92-4h-2.18c-2.7,0-4,1.31-4,4v43.1c0,2.7,1.31,4,4,4h2.18c2.61,0,3.92-1.3,3.92-4Z" style="fill:#fff"></path></svg> 