<?xml version="1.0" encoding="UTF-8"?> <svg xmlns="http://www.w3.org/2000/svg" viewBox="0 0 200 200"><title>pachamama-chillin-stage-nov</title><path d="M11.79,77.47h1.13c0-.89.05-1.58.05-2.06-.07-1.8-.14-4-.2-6.55a12,12,0,0,0,2,.2c.78,0,1.41-.1,1.87-.16a7.61,7.61,0,0,0,3.62-1.51q2.86-2.06,2.87-7a17.19,17.19,0,0,0-.22-2.59c-.31-1.53-.69-2.5-1.16-2.85A7.62,7.62,0,0,0,19,53.43c-1-.42-3.32-.64-6.78-.64a12.58,12.58,0,0,0-1.94.15,12.2,12.2,0,0,0-2.17.23v6.35q0,9.06.28,15.91c0,.77-.06,1.49-.11,2.16h.83ZM13.17,57c.83-.07,1.66-.11,2.36-.14a6.35,6.35,0,0,1,2,.31,3.33,3.33,0,0,1,1.41.75,6.58,6.58,0,0,1,1,3.25,6.34,6.34,0,0,1-.43,2A3.28,3.28,0,0,1,18,65.13c-.35.25-1.66.38-3.89.38h-1c.05-2.56.07-4.4.07-5.53C13.18,59.49,13.17,58.54,13.17,57Z" style="fill:#582d89"></path><path d="M28.9,77.85a11.73,11.73,0,0,0,.41-1.27c.37-1.6.74-3,1.12-4.16h.68a43.26,43.26,0,0,1,5.09.24,59.7,59.7,0,0,1,2,7,6.47,6.47,0,0,0,.61,1.88h5.44l-.36-1.87q-.63-2.55-4.32-15.37Q37.5,56,36.38,53.07H33.62a6.2,6.2,0,0,0-1.66.22A44.81,44.81,0,0,0,30,59a70.69,70.69,0,0,1-2.7,9,56.73,56.73,0,0,0-3,9.61c.09,0,.13,0,.13,0Zm3-11.64a35.33,35.33,0,0,1,2-5.66h0s.88,3.05,2.65,9c-.11,0-.17,0-.17.09l-5.56-.35h0a27.36,27.36,0,0,0,1-3.17Z" style="fill:#582d89"></path><path d="M60,55.93a3.87,3.87,0,0,0-1.66-2,12.25,12.25,0,0,0-4.16-.67,13.55,13.55,0,0,0-4,.59A4.88,4.88,0,0,0,48.44,55a6.86,6.86,0,0,0-1.91,3q-.59,1.07-.58,6.48v.22a37.43,37.43,0,0,0,.41,6.08,11.27,11.27,0,0,0,2.08,4.59A5,5,0,0,0,50.1,77c.56.45,1.86.68,3.91.68h.59a7.09,7.09,0,0,0,3.86-.83,5.92,5.92,0,0,0,1.95-2.58c.29-.49.43-2.13.43-5V68c-.44,0-1.51,0-3.21,0h0c.13,1.86.21,3.17.21,3.93a6.55,6.55,0,0,1-.27,1.52,2,2,0,0,1-2,1.44h-1c-1.22,0-2-.35-2.33-1a37.34,37.34,0,0,1-1.1-6.55c-.12-1.18-.23-3.39-.31-6.65v-.8c.34-2.12,1-3.18,2-3.18h.38A5,5,0,0,1,55,57c.51.33.76.57.76.74.14,0,.33,1.67.59,5,2.49,0,4-.08,4.52-.11h0a16.36,16.36,0,0,0-.08-2.38A9.34,9.34,0,0,0,60,55.93Z" style="fill:#582d89"></path><path d="M62.07,77.85l5.08-.19s.06,0,.06,0V73.82a55.24,55.24,0,0,1,.21-6h3.06a25.59,25.59,0,0,1,3.61.29c.2,0,.32,1.43.36,4.32v3.54c0,1.4,0,2.83-.09,4.29h3.27s.06,0,.06,0V77.31c.1-7,.16-10.91.16-11.84C78,60.56,78,56,78,51.67a.11.11,0,0,0,0-.08H73.47c.11,1.44.16,3.27.16,5.5q0,.3-.24,5.82H67.72a4.85,4.85,0,0,1-.15-1.08c.12-2.3.19-3.65.19-4V53.17l-5.44-.05h0q.1,4.55.11,6.5,0,8.91-.31,18.18C66.82,77.78,64.57,73.18,62.07,77.85Z" style="fill:#582d89"></path><path d="M94,79.74a6.25,6.25,0,0,0,.61,1.89H100l-.36-1.87q-.65-2.6-4.33-15.44Q93.24,56,92.12,53H89.36a5.83,5.83,0,0,0-1.66.22,43.2,43.2,0,0,0-2,5.73A74.77,74.77,0,0,1,83,68a56.92,56.92,0,0,0-3,9.64c.1,0,.14,0,.14,0l4.53.15a9.93,9.93,0,0,0,.42-1.27c.36-1.6.74-3,1.11-4.16h.68a43.33,43.33,0,0,1,5.1.24A62,62,0,0,1,94,79.74ZM86.6,69.34h0a29.8,29.8,0,0,0,1.09-3.18,36.4,36.4,0,0,1,2-5.67h0s.88,3,2.65,9.06c-.11,0-.17,0-.17.08Z" style="fill:#582d89"></path><path d="M124.05,53.15c-.5-.09-2.15-.24-5-.46A15.84,15.84,0,0,0,117.56,56a47.43,47.43,0,0,1-3.07,9h-.06a1.46,1.46,0,0,0-.28-.5,36,36,0,0,1-2-4.81c-1-3-1.66-4.86-1.93-5.51a26.11,26.11,0,0,0-1.51-3.42h-1.13l-5.35.23q-.2,0-.27,5.78-.34,18.27-.34,21.5c0,.81,0,1.64.08,2.5h1a22.63,22.63,0,0,0,3-.13c.25,0,.44-.7.55-2.11q-.21-5-.2-6.65v0a2.54,2.54,0,0,0,0-.39v-.19l.13-11.63a12.66,12.66,0,0,1,2,4.4s1,2.89,2.87,8.62c.19.69.32,1,.38,1h3.32a2.6,2.6,0,0,0,.4-.73c.6-1.72,1.31-3.57,2.13-5.58a41.47,41.47,0,0,1,1.8-5.31h0a33.48,33.48,0,0,1,.21,3.47V67.9q0,2.89.19,9.66c0,.12.66.2,2,.26a18.65,18.65,0,0,0,2.58-.18,29.38,29.38,0,0,0,.24-5.11V62.25Z" style="fill:#582d89"></path><path d="M142.58,64.35Q140.5,56,139.37,53.07h-2.76a6.2,6.2,0,0,0-1.66.22,44.33,44.33,0,0,0-2,5.74,70.69,70.69,0,0,1-2.7,9,57.65,57.65,0,0,0-3,9.61c.08,0,.13,0,.13,0l4.54.15a9.93,9.93,0,0,0,.42-1.27c.36-1.6.73-3,1.11-4.16h.68a43.26,43.26,0,0,1,5.09.24,59.74,59.74,0,0,1,2,7,5.92,5.92,0,0,0,.61,1.88h5.44l-.36-1.87Q146.26,77.17,142.58,64.35Zm-3.15,5.33-5.6-.34h0a29.3,29.3,0,0,0,1-3.17,35.26,35.26,0,0,1,2-5.66h0s.88,3,2.64,9.05c-.08,0-.13,0-.13.09Z" style="fill:#582d89"></path><path d="M166.43,62.06h0a33.46,33.46,0,0,1,.21,3.46v2.39q0,2.9.18,9.66c0,.12.66.2,2,.26a18.65,18.65,0,0,0,2.58-.18,33,33,0,0,0,.24-5.11V62.26l-.27-9.14c-.51-.1-2.17-.25-5-.46A16.16,16.16,0,0,0,164.84,56a46.36,46.36,0,0,1-3.05,9h-.06a1.89,1.89,0,0,0-.28-.5,33.5,33.5,0,0,1-2-4.81c-1-3-1.67-4.86-1.93-5.52A29.68,29.68,0,0,0,156,50.72H154.9l-5.35.23c-.13,0-.21,1.92-.26,5.77Q148.95,75,149,78.23c0,.8,0,1.63.07,2.49h1a24.75,24.75,0,0,0,3-.12c.25,0,.43-.7.55-2.11-.14-3.33-.21-5.54-.21-6.65h0a1.72,1.72,0,0,0,0-.39l0-.19.13-11.63a12.75,12.75,0,0,1,2,4.4l2.87,8.62c.19.69.32,1,.38,1h3.37a2.88,2.88,0,0,0,.4-.73q.9-2.58,2.13-5.58A38.14,38.14,0,0,1,166.43,62.06Z" style="fill:#582d89"></path><path d="M186.41,72.66a59.79,59.79,0,0,1,2.05,7,5.68,5.68,0,0,0,.61,1.88h5.44l-.36-1.87q-.65-2.58-4.33-15.43Q187.72,56,186.61,53h-2.73a6.21,6.21,0,0,0-1.66.23,40.08,40.08,0,0,0-2,5.73,74.82,74.82,0,0,1-2.71,9,58.11,58.11,0,0,0-3.06,9.67c.08,0,.12,0,.12,0l4.55.15a11.73,11.73,0,0,0,.41-1.27c.37-1.6.74-3,1.12-4.16h.68A43,43,0,0,1,186.41,72.66ZM181,69.34a24.4,24.4,0,0,0,1.1-3.18,35.44,35.44,0,0,1,2-5.67h0s.88,3,2.64,9.06c-.12,0-.17,0-.17.08l-5.6-.29Z" style="fill:#582d89"></path><path d="M71.27,88.23a17.3,17.3,0,0,0-2.49.32q-.18,2.4-.45,4.23-.4,2.68-1.9,9.88a5.08,5.08,0,0,1-.34,1.58c-1.1-2.93-2-5.54-2.77-7.82-.73-2.43-1.13-3.7-1.2-3.83H59.26c-.16.47-.53,1.67-1.08,3.6q-.41,1.35-2,5.69h-.06c0-.16-.08-.33-.13-.49a35.62,35.62,0,0,1-1.3-4.65c-.28-2.29-.64-4.82-1.1-7.58A33.94,33.94,0,0,0,53,85.29a13.87,13.87,0,0,0-3.87.83h0q0,.15,2.39,13.3,1.81,8.17,3.09,14.87h1.67c.38,0,.74,0,1.09-.05q1.14-4.59,2.12-7.39a46.86,46.86,0,0,1,2.05-6.09h.08q.9,2.82,4.5,13.21c1.49-.11,2.58-.22,3.28-.31Q71.71,101.89,73,94.38q.45-3.37,1-6.32V88C72.76,88.1,71.87,88.16,71.27,88.23Z" style="fill:#582d89"></path><path d="M92,91.85a4.84,4.84,0,0,0-1.38-2,9.29,9.29,0,0,0-2.2-.94c-.59-.29-2.25-.43-5-.43a7.57,7.57,0,0,0-4.56,1.37,8.15,8.15,0,0,0-1.71,1.9q-1.45,2.55-1.45,7.55a39.65,39.65,0,0,0,1,10.25,5,5,0,0,0,.7,1.51,5.75,5.75,0,0,0,3,2.24,24,24,0,0,0,5.07.49h.41a8.63,8.63,0,0,0,3.33-.61,9.09,9.09,0,0,0,1.6-.92,5,5,0,0,0,1.66-2.5,41.5,41.5,0,0,0,.62-7.63v-.93a35.28,35.28,0,0,0-.4-6.41A16.46,16.46,0,0,0,92,91.85Zm-3.26,16.71a2.15,2.15,0,0,1-.83,1.25,8.76,8.76,0,0,1-2.78.51h-.06a2.41,2.41,0,0,1-1.82-.62,4.69,4.69,0,0,1-1.45-2.49c-.2-.37-.37-2.78-.49-7.24,0-.83.08-2.15.24-3.91.26-2,1.09-3.08,2.49-3.08a8.9,8.9,0,0,1,3.82.58,2,2,0,0,1,.83,1.3q.57,5.65.57,10.08A12.33,12.33,0,0,1,88.78,108.56Z" style="fill:#582d89"></path><path d="M109.42,102.94a3.59,3.59,0,0,0-1.89-1.71h0a2.11,2.11,0,0,0,.55-.19c.39,0,1.14-.54,2.24-1.59.4-.31.6-1.16.6-2.58V94.16c0-2.07-.55-3.57-1.66-4.47a6.45,6.45,0,0,0-1.73-1.08c-.4-.34-1.66-.51-3.81-.51h-2.67c-1.54,0-3.7.14-6.51.41.1,1.66.16,4.15.16,7.47q.69,12,.7,12.47v2.36a23,23,0,0,0,.22,3.32,7.42,7.42,0,0,0,1-.08c2.25,0,3.43-.08,3.53-.23-.1-1.08-.15-1.92-.15-2.5a45,45,0,0,0-.58-6.55h0l1-.13h.1a14.53,14.53,0,0,1,3.65.5A3.4,3.4,0,0,1,106,106.8a13.44,13.44,0,0,1,1.06,4.55v2.59c.11,1.66.23,2.49.35,2.49h.29l3.86.09a7,7,0,0,0,.15-2q0-1.26-1.44-9A10.42,10.42,0,0,0,109.42,102.94Zm-4-4.8a2.64,2.64,0,0,1-.16,1,3.54,3.54,0,0,1-2.21.9c-.62,0-1.66,0-3.07-.12a49.76,49.76,0,0,1-.55-5.31V91.88a11,11,0,0,1,2.56-.37,5,5,0,0,1,2.09.42,2.17,2.17,0,0,1,1,1.16c.19,0,.33,1.53.4,4.6Z" style="fill:#582d89"></path><path d="M125.56,108.9c-2.66.15-4.39.22-5.2.22h-.29c-.83,0-1.49,0-1.93-.05h0q0-4.11.41-11.95a75.75,75.75,0,0,1,.33-8.52,3.29,3.29,0,0,0-.54,0l-2,0a23.11,23.11,0,0,1-2.49-.13h0q.08,3.41.06,5.64-.12,6.74-.12,7.74v6.37a53.09,53.09,0,0,1-.37,5.5h4.21q7.94-.15,9-.15h.42s.06,0,.06,0v-1c0-1.13,0-2.31-.06-3.55A4.21,4.21,0,0,0,125.56,108.9Z" style="fill:#582d89"></path><path d="M143.06,90.86a9.85,9.85,0,0,0-2.7-1.86,13,13,0,0,0-3.92-.67q-2.44,0-8,.13h0q.77,24.56.83,25.16c.07.6,0,0,0,0,1.17,0,2.88.06,5.16.06h1.46a11,11,0,0,0,4-.59,7.71,7.71,0,0,0,4.59-3.67A20.84,20.84,0,0,0,146,101v-.35a19.92,19.92,0,0,0-.89-6.28A7.41,7.41,0,0,0,143.06,90.86Zm-2.8,12.52c0,2.35-.41,3.82-1.25,4.42a5,5,0,0,1-3.8,1.29c-.74,0-1.48-.06-2.21-.14q0-.7-.23-16.81l2.66-.14a12.24,12.24,0,0,1,2.09.21,2.71,2.71,0,0,1,1.27.83,3.64,3.64,0,0,1,1,1.47,17.76,17.76,0,0,1,.68,5.07c-.05.67-.12,1.9-.22,3.8Z" style="fill:#582d89"></path><path d="M48.23,125.75a3.93,3.93,0,0,0-1.66-2,12.62,12.62,0,0,0-4.35-.69,14.1,14.1,0,0,0-4.08.61,5.31,5.31,0,0,0-1.87,1.18,7.22,7.22,0,0,0-2,3.07c-.37.74-.56,3-.57,6.71v.24a39,39,0,0,0,.43,6.29,11.56,11.56,0,0,0,2.1,4.75A5.09,5.09,0,0,0,38,147.53c.57.48,1.92.71,4,.71h.6a7.38,7.38,0,0,0,4-.88,6.15,6.15,0,0,0,2-2.68c.3-.5.45-2.2.45-5.13V138.3c-.46,0-1.57,0-3.33.06h0c.15,1.92.22,3.32.22,4.06a7,7,0,0,1-.27,1.57,2,2,0,0,1-2.06,1.5h-1.1c-1.26,0-2.07-.36-2.4-1.09a36,36,0,0,1-1.14-6.78q-.19-1.81-.33-6.84V130c.36-2.22,1.05-3.32,2.09-3.32h.4a5.21,5.21,0,0,1,1.88.29c.52.33.78.59.78.76.14,0,.35,1.72.61,5.16,2.6,0,4.15-.08,4.67-.11h0c0-1.25,0-2.09-.07-2.49A9.65,9.65,0,0,0,48.23,125.75Z" style="fill:#582d89"></path><path d="M62.88,121.29h-.47c.12,1.5.19,3.39.18,5.69q0,.33-.26,6H56.46a5.12,5.12,0,0,1-.16-1.1c.13-2.39.2-3.78.2-4.16v-4.84l-5.63,0h0c.08,3.13.11,5.38.12,6.73q0,9.21-.32,18.81h0l5.27-.2s.06,0,.06-.05v-3.93a62.05,62.05,0,0,1,.22-6.25h3.17a31.23,31.23,0,0,1,3.74.29c.21,0,.33,1.5.37,4.48v3.67c0,1.45,0,2.93-.1,4.44l.08,0h3.32a.06.06,0,0,0,.06-.06v-3q.18-10.8.18-12.25.15-7.65.15-14.29a.14.14,0,0,0,0-.09C65.28,121.28,63.87,121.29,62.88,121.29Z" style="fill:#582d89"></path><path d="M73.77,144.11c0-1.85,0-3.73-.1-5.62-.22-6.52-.33-10.38-.33-11.56s.07-2.53.08-3.93v-.06h-4v0q.19,9.29.76,25.17v.05l3.55-.16h.06v-.83Z" style="fill:#582d89"></path><path d="M88.7,143.35c-2.65.15-4.38.23-5.2.23h-.29c-.83,0-1.49,0-1.93-.05h0q0-4.11.41-11.95a75.93,75.93,0,0,1,.33-8.53,4.93,4.93,0,0,0-.54,0l-2,0a23.93,23.93,0,0,1-2.5-.12h0c0,2.26.06,4.14.06,5.64q-.11,6.74-.12,7.74v6.37a53.28,53.28,0,0,1-.37,5.5h4.17q7.94-.17,9-.16h.42s.06,0,.06-.05v-1c0-1.13,0-2.31-.06-3.56A4.26,4.26,0,0,0,88.7,143.35Z" style="fill:#582d89"></path><path d="M103.7,143.35c-2.65.15-4.38.23-5.19.23h-.3c-.83,0-1.49,0-1.93-.05h0q0-4.11.4-11.95a81,81,0,0,1,.33-8.53,4.93,4.93,0,0,0-.54,0l-2,0a23.7,23.7,0,0,1-2.49-.12h0q.06,3.39.06,5.64-.1,6.74-.12,7.74v6.37a53.28,53.28,0,0,1-.37,5.5h4.17c5.28-.11,8.31-.16,9-.16h.42s.06,0,.06-.05v-1c0-1.13,0-2.31-.06-3.56A4.5,4.5,0,0,0,103.7,143.35Z" style="fill:#582d89"></path><polygon points="106.81 137.13 115.39 137.13 115.39 134.66 106.54 134.49 106.81 137.13" style="fill:#582d89"></polygon><path d="M121.89,144.11c0-1.85,0-3.73-.1-5.62-.21-6.52-.32-10.38-.33-11.56s.07-2.53.08-3.93v-.06h-4v0q.18,9.29.76,25.17v.05l3.54-.16H122v-.83Z" style="fill:#582d89"></path><path d="M141.64,121.31l-.06,0h-2c-1.39,0-2.81,0-4.29.08m0,0c.08,2,.15,3.32.22,3.82q.65,9.42.65,12v.08h0q-2-3.37-2.5-4.44-2.22-5.31-4.44-10a12.75,12.75,0,0,1-2,.16h-1.6a3.82,3.82,0,0,0-.83.06q.22,4.58.39,12.21c0,4.06-.06,6.26-.06,6.64q0,1.14.2,6.58c0,.06.12.09.35.09h.57a5.2,5.2,0,0,0,1-.09,8.25,8.25,0,0,0,2-.18v-8.58c0-1.31,0-3.63-.1-6.94h0c1.53,3.22,2.35,4.9,2.44,5a141.15,141.15,0,0,0,6.32,12.75h4.94q-.34-2-.59-13.09-.34-5.44-.43-16Z" style="fill:#582d89"></path><path d="M162.82,137.29q-.31-5.39-.41-16c-4-.1-2,5.22-.06,0h-2c-1.38,0-2.81,0-4.29.08m0,0c.08,2,.15,3.32.21,3.82q.65,9.42.65,12v.08h0q-2-3.37-2.49-4.44-2.24-5.31-4.44-10a12.57,12.57,0,0,1-2,.16h-1.61a3.87,3.87,0,0,0-.83.06q.24,4.58.39,12.21-.06,6.09-.06,6.64c0,.76.07,2.95.19,6.58,0,.06.13.09.36.09h.57a5.2,5.2,0,0,0,1-.09,8.25,8.25,0,0,0,2-.18v-8.58c0-1.31,0-3.63-.1-6.94h0c1.54,3.22,2.36,4.9,2.45,5a141.15,141.15,0,0,0,6.32,12.75h4.9q-.32-2-.58-13.14Z" style="fill:#582d89"></path><path d="M10,75.65h1.15c0-.89.05-1.58.05-2.06-.07-1.8-.15-4-.2-6.55a11.87,11.87,0,0,0,2,.2,16.66,16.66,0,0,0,1.87-.17,7.51,7.51,0,0,0,3.62-1.51c1.91-1.37,2.87-3.69,2.87-7A17.18,17.18,0,0,0,21.07,56c-.3-1.53-.68-2.5-1.16-2.84a7.5,7.5,0,0,0-2.76-1.53c-1-.43-3.32-.64-6.78-.64a12.44,12.44,0,0,0-1.93.14,13.34,13.34,0,0,0-2.18.24v6.36q0,9,.28,15.91c0,.77,0,1.49-.1,2.16h.83C8.84,75.7,9.75,75.65,10,75.65Zm1.39-20.44c.83-.06,1.61-.11,2.36-.13a6.65,6.65,0,0,1,2,.3,3.29,3.29,0,0,1,1.4.75,6.56,6.56,0,0,1,1.06,3.24,6.18,6.18,0,0,1-.46,2,3.42,3.42,0,0,1-1.48,1.92c-.36.25-1.66.38-3.9.38h-1c.05-2.57.07-4.42.07-5.54C11.36,57.71,11.35,56.69,11.35,55.21Z" style="fill:#fff"></path><path d="M27.08,76a11.89,11.89,0,0,0,.41-1.28c.37-1.59.74-3,1.11-4.16h.73a47.86,47.86,0,0,1,5.08.24,59.09,59.09,0,0,1,2.05,7,6.1,6.1,0,0,0,.6,1.9h5.45l-.36-1.88q-.63-2.58-4.33-15.43-2.1-8.31-3.22-11.29H31.82a6.64,6.64,0,0,0-1.66.22,43.2,43.2,0,0,0-2,5.73,74.39,74.39,0,0,1-2.7,9,56.27,56.27,0,0,0-3.05,9.67c.08,0,.13,0,.13.05Zm3-11.64a36.66,36.66,0,0,1,2-5.66h0s.88,3.05,2.65,9.05c-.11,0-.17,0-.17.09L29,67.58h0a27.91,27.91,0,0,0,1.1-3.23Z" style="fill:#fff"></path><path d="M58.16,54.11a3.89,3.89,0,0,0-1.66-2,12.54,12.54,0,0,0-4.21-.67,13.21,13.21,0,0,0-3.94.6,5.06,5.06,0,0,0-1.8,1.14,7,7,0,0,0-1.91,3c-.36.71-.55,2.87-.55,6.48v.22A36.34,36.34,0,0,0,44.51,69a11.28,11.28,0,0,0,2,4.59,4.92,4.92,0,0,0,1.66,1.58c.56.46,1.86.68,3.91.68h.59A7.09,7.09,0,0,0,56.55,75a5.9,5.9,0,0,0,1.94-2.58c.29-.48.44-2.13.44-5V66.19l-3.2,0h0c.14,1.86.2,3.17.2,3.93a6.05,6.05,0,0,1-.26,1.52,2,2,0,0,1-2,1.45h-1c-1.22,0-2-.36-2.33-1.06a36.15,36.15,0,0,1-1.12-6.52q-.2-1.76-.32-6.6v-.81C49.28,56,50,55,51,55h.39a4.87,4.87,0,0,1,1.81.29c.51.32.75.57.75.73.15,0,.34,1.67.59,5,2.5,0,4-.08,4.52-.1h0A18.87,18.87,0,0,0,59,58.49,9.16,9.16,0,0,0,58.16,54.11Z" style="fill:#fff"></path><path d="M60.25,76l5.08-.19s.06,0,.06,0V72a55.33,55.33,0,0,1,.21-6h3.06a29.27,29.27,0,0,1,3.61.29q.3,0,.36,4.32V74.1c0,1.41,0,2.84-.09,4.3H75.8s.06,0,.06-.05V75.48Q76,65,76,63.65q.15-7.38.15-13.8a.11.11,0,0,0,0-.08H71.65c.11,1.44.17,3.27.17,5.49q0,.32-.25,5.82H65.89A4.84,4.84,0,0,1,65.74,60c.12-2.3.18-3.66.18-4.06v-4.6l-5.45-.05h0c.08,3,.11,5.19.11,6.5q0,8.89-.3,18.18C64.37,75.84,62.44,71.28,60.25,76Z" style="fill:#fff"></path><path d="M92.16,77.91a6.12,6.12,0,0,0,.61,1.9h5.44l-.36-1.88q-.64-2.58-4.33-15.43-2.1-8.31-3.21-11.28H87.55a6.2,6.2,0,0,0-1.66.21,42.84,42.84,0,0,0-2,5.74,74.82,74.82,0,0,1-2.71,9,58.6,58.6,0,0,0-3.06,9.66c.08,0,.13,0,.13.05l4.54.16a11.22,11.22,0,0,0,.41-1.28c.37-1.59.74-3,1.12-4.15H85a45.23,45.23,0,0,1,5.08.23A58.08,58.08,0,0,1,92.16,77.91ZM84.77,67.54h0a29.8,29.8,0,0,0,1.06-3.19,35.29,35.29,0,0,1,2-5.66h0s.88,3.05,2.64,9c-.11,0-.16,0-.16.1Z" style="fill:#fff"></path><path d="M122.25,51.33c-.51-.09-2.17-.24-5-.46a16.93,16.93,0,0,0-1.51,3.33,45.08,45.08,0,0,1-3.06,9h0a1.82,1.82,0,0,0-.22-.47,33.15,33.15,0,0,1-2-4.82c-1-3-1.66-4.85-1.93-5.51A28.89,28.89,0,0,0,107,48.94h-1.14l-5.35.24q-.18,0-.26,5.77-.35,18.27-.34,21.51c0,.8,0,1.63.08,2.49h1a27.08,27.08,0,0,0,3-.11c.25,0,.43-.71.54-2.11-.14-3.33-.21-5.54-.2-6.65V70a2.58,2.58,0,0,0,0-.39l0-.19.13-11.64a12.82,12.82,0,0,1,2,4.42s1,2.89,2.88,8.6c.19.69.31,1,.38,1H113a2.88,2.88,0,0,0,.4-.73c.61-1.71,1.31-3.57,2.14-5.58a36.83,36.83,0,0,1,1.79-5.31h.08c.12,1.15.19,2.31.2,3.47v2.39q0,2.88.19,9.66c0,.12.65.2,2,.26a20.07,20.07,0,0,0,2.57-.19,29.86,29.86,0,0,0,.24-5.11V60.41Z" style="fill:#fff"></path><path d="M140.76,62.5c-1.4-5.54-2.48-9.3-3.21-11.28h-2.77a6.32,6.32,0,0,0-1.62.21,42.84,42.84,0,0,0-2,5.74,73.06,73.06,0,0,1-2.71,9,59.27,59.27,0,0,0-3.07,9.63c.09,0,.14,0,.14.05l4.54.16c.16-.42.3-.85.42-1.28.36-1.59.73-3,1.11-4.16h.68a48,48,0,0,1,5.09.24,61,61,0,0,1,2,7,6.12,6.12,0,0,0,.61,1.9h5.44l-.36-1.88Q144.45,75.34,140.76,62.5Zm-3.15,5.33-5.6-.29h0a25.33,25.33,0,0,0,1.05-3.19,34.39,34.39,0,0,1,2-5.66h0s.89,3.05,2.65,9C137.66,67.75,137.61,67.78,137.61,67.83Z" style="fill:#fff"></path><path d="M164.57,60.2h0a33.48,33.48,0,0,1,.21,3.47v2.39q0,2.88.19,9.66c0,.12.65.2,2,.26a20.2,20.2,0,0,0,2.57-.19,29.86,29.86,0,0,0,.24-5.11V60.41l-.26-9.14c-.5-.09-2.16-.25-5-.46A16.85,16.85,0,0,0,163,54.13c-1.19,4.45-2.2,7.48-3.07,9h0a1.36,1.36,0,0,0-.29-.49,36.59,36.59,0,0,1-2-4.82c-1-3-1.65-4.85-1.92-5.51a30.68,30.68,0,0,0-1.52-3.42H153l-5.35.24q-.18,0-.26,5.76-.35,18.28-.34,21.52c0,.8,0,1.63.07,2.49h1a24.75,24.75,0,0,0,3-.12c.25,0,.43-.7.54-2.11-.13-3.32-.21-5.52-.21-6.65v-.1a2.54,2.54,0,0,0,0-.39v-.19l.13-11.63a12.43,12.43,0,0,1,2,4.41s1,2.89,2.88,8.61c.19.69.31,1,.37,1h3.38a3.19,3.19,0,0,0,.39-.73q.9-2.57,2.14-5.59A38.39,38.39,0,0,1,164.57,60.2Z" style="fill:#fff"></path><path d="M184.59,70.87a57.75,57.75,0,0,1,2,7,6.32,6.32,0,0,0,.57,1.9h5.45l-.36-1.88q-.64-2.58-4.33-15.43c-1.4-5.54-2.46-9.3-3.21-11.28H182a6.26,6.26,0,0,0-1.62.21,42.93,42.93,0,0,0-2,5.74,71.33,71.33,0,0,1-2.7,9,57.37,57.37,0,0,0-3.06,9.66c.09,0,.13,0,.13.05l4.54.16a11.22,11.22,0,0,0,.41-1.28c.37-1.59.74-3,1.13-4.15h.68A43.6,43.6,0,0,1,184.59,70.87Zm-5.39-3.33a27.29,27.29,0,0,0,1.1-3.19,34.39,34.39,0,0,1,2-5.66h0s.88,3.05,2.65,9c-.12,0-.18,0-.18.1l-5.59-.29Z" style="fill:#fff"></path><path d="M69.44,86.4a20.11,20.11,0,0,0-2.44.32q-.18,2.41-.45,4.23c-.26,1.8-.9,5.1-1.9,9.89a5.37,5.37,0,0,1-.33,1.58c-1.08-2.94-2-5.54-2.79-7.82s-1.12-3.71-1.19-3.83H57.49c-.18.46-.54,1.67-1.08,3.6-.28.91-.94,2.8-2,5.69h-.06a4.43,4.43,0,0,0-.13-.49,32.87,32.87,0,0,1-1.3-4.66q-.4-3.42-1.1-7.57a35.46,35.46,0,0,0-.68-3.84,14,14,0,0,0-3.88.83h0q0,.14,2.39,13.29,1.83,8.17,3.09,14.87h1.67a9.83,9.83,0,0,0,1.09,0c.76-3,1.46-5.52,2.11-7.38A48.07,48.07,0,0,1,59.65,99h.08q.9,2.83,4.5,13.22c1.49-.12,2.58-.23,3.27-.32q2.34-11.77,3.66-19.27.45-3.39,1-6.33v-.07C70.94,86.28,70,86.34,69.44,86.4Z" style="fill:#fff"></path><path d="M90.22,90a4.86,4.86,0,0,0-1.39-2,9.19,9.19,0,0,0-2.19-.93c-.59-.29-2.25-.43-5-.43A7.56,7.56,0,0,0,77.1,88a8.64,8.64,0,0,0-1.67,1.9Q74,92.46,74,97.47a39.79,39.79,0,0,0,1,10.26,4.78,4.78,0,0,0,.76,1.47,5.75,5.75,0,0,0,3,2.24,23.38,23.38,0,0,0,5.07.5h.41a8,8,0,0,0,5-1.54,5.05,5.05,0,0,0,1.66-2.49,41.5,41.5,0,0,0,.62-7.63v-.94a36.21,36.21,0,0,0-.4-6.41A16.59,16.59,0,0,0,90.22,90ZM87,106.7a2.1,2.1,0,0,1-.83,1.26,8.48,8.48,0,0,1-2.78.5h-.1a2.37,2.37,0,0,1-1.82-.61A4.72,4.72,0,0,1,80,105.36q-.31-.57-.49-7.24c0-.83.08-2.15.23-3.91.27-2.06,1.09-3.09,2.5-3.09A9.22,9.22,0,0,1,86,91.7,2,2,0,0,1,86.86,93a99.81,99.81,0,0,1,.56,10.08A11.9,11.9,0,0,1,87,106.7Z" style="fill:#fff"></path><path d="M107.59,101.12a3.48,3.48,0,0,0-1.88-1.7h0a2.58,2.58,0,0,0,.55-.2c.39,0,1.14-.53,2.24-1.58q.6-.47.6-2.58V92.32c0-2.09-.54-3.57-1.66-4.48a6.13,6.13,0,0,0-1.72-1.07c-.41-.34-1.66-.52-3.81-.52H99.23q-2.31,0-6.51.41c.1,1.66.15,4.16.15,7.48q.7,12,.7,12.46V109a24.72,24.72,0,0,0,.22,3.33,6.12,6.12,0,0,0,1-.09c2.25,0,3.43-.08,3.53-.23-.1-1.08-.16-1.91-.16-2.49a45,45,0,0,0-.57-6.56h0l1-.12h.1a14.54,14.54,0,0,1,3.66.49,3.37,3.37,0,0,1,1.82,1.66,13.2,13.2,0,0,1,1.06,4.55v2.58a7.31,7.31,0,0,0,.36,2.54h.29c.26,0,1.54,0,3.85.08a6.34,6.34,0,0,0,.16-2q0-1.25-1.44-9A10.09,10.09,0,0,0,107.59,101.12Zm-4-4.8a2.64,2.64,0,0,1-.16,1,3.54,3.54,0,0,1-2.21.9c-.63,0-1.66,0-3.07-.13a49.31,49.31,0,0,1-.55-5.3V90.05a11.14,11.14,0,0,1,2.57-.36,5.17,5.17,0,0,1,2.09.42,2,2,0,0,1,.89,1.15c.2,0,.34,1.54.41,4.61Z" style="fill:#fff"></path><path d="M123.73,107.07c-2.65.16-4.38.24-5.19.23h-.29c-.83,0-1.49,0-1.94,0h0q0-4.16.4-12a75.77,75.77,0,0,1,.35-8.52,2.57,2.57,0,0,0-.55-.06,10.58,10.58,0,0,0-2,.06,23.34,23.34,0,0,1-2.5-.13h0c0,2.27.06,4.16.06,5.64C112,96.78,112,99.36,112,100v.31c0,.24,0,.48,0,.71v5.38c0,1.84-.16,3.68-.38,5.5h4.17c5.29-.1,8.28-.16,9-.16h.41s.06,0,.06-.05v-1c0-1.13,0-2.32-.06-3.56A4,4,0,0,0,123.73,107.07Z" style="fill:#fff"></path><path d="M141.2,89a9.87,9.87,0,0,0-2.71-1.85,13,13,0,0,0-3.91-.67c-1.63,0-4.3,0-8,.13h0q.77,24.52.83,25.16h0c1.17,0,2.88,0,5.15.07H134a11,11,0,0,0,4-.6,7.63,7.63,0,0,0,4.6-3.67,20.67,20.67,0,0,0,1.51-8.51v-.35a20.19,20.19,0,0,0-.88-6.27A7.45,7.45,0,0,0,141.2,89Zm-2.8,12.53c0,2.35-.42,3.82-1.25,4.42a5,5,0,0,1-3.8,1.29c-.55,0-1.29,0-2.21-.14q0-.72-.24-16.81l2.67-.14a13.32,13.32,0,0,1,2.09.2,2.93,2.93,0,0,1,1.27.83,3.68,3.68,0,0,1,1,1.47,18.13,18.13,0,0,1,.69,5.07Q138.55,98.71,138.4,101.56Z" style="fill:#fff"></path><path d="M46.41,123.9a4,4,0,0,0-1.66-2,12.86,12.86,0,0,0-4.35-.69,13.78,13.78,0,0,0-4.08.62A5,5,0,0,0,34.45,123a7.1,7.1,0,0,0-2,3.07c-.39.73-.57,3-.57,6.71V133a39,39,0,0,0,.43,6.29,11.64,11.64,0,0,0,2.09,4.76,5.28,5.28,0,0,0,1.76,1.66c.58.47,1.93.71,4.06.71h.6a7.53,7.53,0,0,0,4-.88,6.12,6.12,0,0,0,2-2.69c.3-.49.45-2.2.45-5.12v-1.25l-3.33,0h0c.15,1.93.22,3.33.22,4.07a6.88,6.88,0,0,1-.27,1.57,2,2,0,0,1-2.06,1.5h-1c-1.26,0-2.07-.37-2.41-1.09a39.94,39.94,0,0,1-1.13-6.79c-.13-1.2-.24-3.49-.33-6.83v-.85c.35-2.2,1.05-3.33,2.1-3.33h.39a5,5,0,0,1,1.87.3c.53.33.84.58.84.77.13,0,.34,1.72.6,5.16,2.59-.05,4.16-.09,4.68-.11h0c0-1.26,0-2.08-.07-2.5A9.75,9.75,0,0,0,46.41,123.9Z" style="fill:#fff"></path><path d="M61.06,119.47h-.47c.11,1.49.17,3.39.17,5.69,0,.21-.08,2.23-.25,6H54.64a4.58,4.58,0,0,1-.16-1.11c.13-2.38.2-3.78.2-4.15v-4.87c-.69,0-2.58,0-5.64,0h0q.1,4.71.11,6.73,0,9.23-.31,18.82h0l5.27-.19a0,0,0,0,0,0,0V142.4a59.43,59.43,0,0,1,.22-6.26h3.17a29,29,0,0,1,3.73.3c.21,0,.34,1.49.38,4.48v3.75c0,1.45,0,2.93-.1,4.44H65a0,0,0,0,0,0-.05v-3q.18-10.8.18-12.24.15-7.65.16-14.29v-.09Z" style="fill:#fff"></path><path d="M72,142.29c0-1.86,0-3.73-.1-5.63-.22-6.51-.34-10.36-.34-11.56s.07-2.49.09-3.93v0h-4q.19,9.31.77,25.18v.06L72,146.2H72v-.83Z" style="fill:#fff"></path><path d="M86.87,141.52q-4,.24-5.19.24h-.29c-.84,0-1.49,0-1.94,0h0q0-4.16.41-12a75.94,75.94,0,0,1,.34-8.53,2.57,2.57,0,0,0-.55-.06,10.58,10.58,0,0,0-2,.06,24.27,24.27,0,0,1-2.5-.12h0c0,2.27.06,4.15.06,5.64-.08,4.49-.11,7.06-.11,7.73v.3q0,.36,0,.72v5.38c0,1.36-.13,3.19-.37,5.5h4.16q7.93-.16,9-.16h.41a.06.06,0,0,0,.06-.06v-1c0-1.13,0-2.32-.06-3.57A4.23,4.23,0,0,0,86.87,141.52Z" style="fill:#fff"></path><path d="M101.88,141.52c-2.65.16-4.38.24-5.2.24h-.29c-.83,0-1.49,0-1.93,0h0q0-4.16.41-12a75.93,75.93,0,0,1,.33-8.53,2.48,2.48,0,0,0-.54-.06,10.9,10.9,0,0,0-2,.06,23.86,23.86,0,0,1-2.49-.12h0q.06,3.39.06,5.64c-.07,4.49-.11,7.06-.12,7.73v6.4a53.47,53.47,0,0,1-.37,5.5H94q7.93-.16,9-.16h.42a.05.05,0,0,0,.06,0v-1c0-1.13,0-2.32-.06-3.57A4.22,4.22,0,0,0,101.88,141.52Z" style="fill:#fff"></path><polygon points="104.98 135.31 113.56 135.31 113.56 132.84 104.72 132.67 104.98 135.31" style="fill:#fff"></polygon><path d="M120.07,142.29c0-1.86,0-3.73-.1-5.63q-.33-9.76-.33-11.56c0-1.22.07-2.49.08-3.93v0h-4q.2,9.31.76,25.18v.06l3.54-.16h.06v-.83Z" style="fill:#fff"></path><path d="M139.81,119.49l-.06-.06h-2c-1.38,0-2.8,0-4.28.09h0c.07,2,.15,3.32.21,3.83q.63,9.42.64,12v.09h0q-2-3.39-2.49-4.44-2.23-5.31-4.45-10a13.77,13.77,0,0,1-2,.16H123.7a4.68,4.68,0,0,0-.83,0q.24,4.59.39,12.22-.06,6.09-.05,6.64c0,.76.06,2.94.2,6.58,0,0,.11.09.34.09h.57a5.12,5.12,0,0,0,1-.09,8.74,8.74,0,0,0,2-.18v-8.59c0-1.31,0-3.63-.1-6.94h0c1.55,3.23,2.36,4.9,2.45,5a138.65,138.65,0,0,0,6.33,12.75h4.93q-.35-2-.59-13.09Q139.89,130.07,139.81,119.49Z" style="fill:#fff"></path><path d="M161,135.47q-.31-5.39-.41-16c-2.09-.06,0,4.18-.06-.06h-2c-1.39,0-2.82,0-4.29.09h0c.07,2,.15,3.32.21,3.83q.65,9.42.65,12v.09h0q-2-3.39-2.49-4.44-2.23-5.31-4.45-10a12.54,12.54,0,0,1-2,.16h-1.61a4.63,4.63,0,0,0-.83,0q.24,4.59.4,12.22Q144,139.45,144,140c0,.76.07,2.94.2,6.58,0,0,.12.09.35.09h.58a5,5,0,0,0,.95-.09,8.74,8.74,0,0,0,2-.18v-8.59c0-1.31,0-3.63-.1-6.94h0c1.54,3.23,2.35,4.9,2.44,5a141.24,141.24,0,0,0,6.33,12.75h4.93Q161.25,146.57,161,135.47Z" style="fill:#fff"></path></svg> 