<?xml version="1.0" encoding="UTF-8"?> <!-- Generator: Adobe Illustrator 23.0.1, SVG Export Plug-In . SVG Version: 6.00 Build 0) --> <svg xmlns="http://www.w3.org/2000/svg" xmlns:xlink="http://www.w3.org/1999/xlink" id="Layer_1" x="0px" y="0px" viewBox="0 0 53.9 53.9" style="enable-background:new 0 0 53.9 53.9;" xml:space="preserve"> <style type="text/css"> .st0{fill:#FFFFFF;} .st1{fill:url(#SVGID_1_);} .st2{fill:#FFFFFF;stroke:#FFFFFF;stroke-width:0.25;stroke-miterlimit:10;} </style> <title>sdf2018-logo</title> <polygon class="st0" points="14,43.5 14.7,43.5 14.7,41.8 15.5,41.8 15.5,41.1 14.7,41.1 14.7,39.8 15.7,39.8 15.7,39.1 14,39.1 "></polygon> <polygon class="st0" points="19.2,42.8 18.2,42.8 18.2,41.8 19,41.8 19,41.1 18.2,41.1 18.2,39.8 19.2,39.8 19.2,39.1 17.5,39.1 17.5,43.5 19.2,43.5 "></polygon> <polygon class="st0" points="39.4,39.1 38.7,39.1 38.7,43.5 40.3,43.5 40.3,42.8 39.4,42.8 "></polygon> <path class="st0" d="M44,30.9c0.2,0.1,0.3,0.2,0.3,0.4c0,0.1,0,0.2,0,0.2c0,0.1,0,0.1-0.1,0.2h1.8v-0.4c-1.8-1.2-3.8-2-5.9-2.4H40 c-0.2,0-0.4,0.1-0.5,0.2c-0.1,0.1-0.1,0.3-0.1,0.4c0.1,0.7,0.1,1.7,0.1,2.9c0,1.5,0,2.6-0.1,3.3s0.6,0.6,0.6,0.6h6v-1.8h-1.8 c0,0.1,0,0.1,0.1,0.2v0.1l0,0V35c-0.1,0.3-0.4,0.5-0.7,0.5c-0.3,0-0.6-0.2-0.7-0.5c-0.1-0.2-0.1-0.5,0.1-0.7 c0.2-0.3,0.6-0.4,0.9-0.4h0h0.6h1c0.5,0,0.6-0.1,0.6-0.1v-0.1v-1.2v-0.1c-0.2,0-0.4,0-0.6,0c-0.3,0-0.7,0-1,0h-0.6l0,0 c-0.4,0-0.7-0.2-0.9-0.4c-0.1-0.2-0.2-0.5-0.1-0.7c0.1-0.3,0.4-0.5,0.7-0.5C43.8,30.8,43.9,30.9,44,30.9z"></path> <path class="st0" d="M13.6,30.3c-1.9-0.2-3.8-0.7-5.5-1.6v4.2C8.3,33,8.4,33,8.6,33c0.2,0,0.5-0.2,0.5-0.4c0.1-0.4,0.5-0.7,1-0.7 h0.1c0.6,0,1,0.4,1.1,1c0,0.3-0.1,0.6-0.3,0.8c-0.2,0.2-0.5,0.3-0.7,0.3h-0.1c-0.7,0-1.4-0.2-1.9-0.6v2.9h5.9c0.1,0,1-0.2,1-0.9 c0-0.5,0-1.2,0-2s0-1.3,0-1.9C15,30.7,14.1,30.3,13.6,30.3z"></path> <g> <g> <linearGradient id="SVGID_1_" gradientUnits="userSpaceOnUse" x1="357.9317" y1="133.6831" x2="411.877" y2="133.6831" gradientTransform="matrix(0 -1 1 0 -106.7129 411.877)"> <stop offset="0" style="stop-color:#FFCF54"></stop> <stop offset="4.646885e-02" style="stop-color:#EBCB5C"></stop> <stop offset="0.1992" style="stop-color:#ADBD75"></stop> <stop offset="0.3509" style="stop-color:#79B28A"></stop> <stop offset="0.4977" style="stop-color:#4DA99B"></stop> <stop offset="0.6388" style="stop-color:#2CA1A9"></stop> <stop offset="0.7727" style="stop-color:#149CB2"></stop> <stop offset="0.8963" style="stop-color:#0599B8"></stop> <stop offset="1" style="stop-color:#0098BA"></stop> </linearGradient> <path class="st1" d="M0,27c0,14.9,12.1,27,27,27c14.9,0,27-12.1,27-27c0-14.9-12.1-27-27-27C12.1,0,0,12.1,0,27z"></path> </g> <g> <path class="st0" d="M28.6,32.8c0,0.1-0.1,0.2-0.2,0.3c0,0-0.1,0-0.1,0c-0.1,0-0.1,0-0.2-0.1l-3.7-2.6c-0.4,0.1-0.6,0.1-1,0.1v6.6 c0,0.2,0.2,0.4,0.4,0.4l1.8,0v-2.1c0-0.1,0.1-0.2,0.2-0.3c0.1-0.1,0.2,0,0.3,0l3.5,2.4h0.8c0.2,0,0.4-0.2,0.4-0.4v-7.5L28.6,30 V32.8z"></path> <path class="st0" d="M19.8,28.9v-8.3h-6.8c-0.3,0-0.5-0.2-0.5-0.5v-1.2c0-0.3,0.2-0.5,0.5-0.5h6.8v-2.5c0-0.3-0.3-0.6-0.6-0.6h-11 c-0.3,0-0.6,0.3-0.6,0.6v7.6h6.7c0.3,0,0.5,0.2,0.5,0.5v1.2c0,0.3-0.2,0.5-0.5,0.5H7.6v2l11.7,1.7C19.3,29.3,19.8,29.3,19.8,28.9z "></path> <path class="st0" d="M21.4,29.4c1.2-0.1,11.7-1.4,11.7-1.4v-2.3h-6.5c-0.3,0-0.5-0.2-0.5-0.5V24c0-0.3,0.2-0.5,0.5-0.5h6.5v-2.9 h-6.5c-0.3,0-0.5-0.2-0.5-0.5v-1.2c0-0.3,0.2-0.5,0.5-0.5h6.5v-2.5c0-0.3-0.3-0.6-0.6-0.6h-11c-0.3,0-0.6,0.3-0.6,0.6v13 C20.9,29,21,29.4,21.4,29.4z"></path> <path class="st0" d="M37.8,24c0-0.3,0.2-0.5,0.5-0.5h3.9c0.3,0,0.5,0.2,0.5,0.5v5.1l3.6,0.5l0-13.6c0-0.3-0.3-0.6-0.6-0.6h-11 c-0.3,0-0.6,0.3-0.6,0.6V28l3.6,0.5V24z M37.8,19.3v-0.3v-0.2c0-0.3,0.2-0.5,0.5-0.5h3.9c0.3,0,0.5,0.2,0.5,0.5v0.2v0.3v0.8 c0,0.3-0.2,0.5-0.5,0.5h-3.9c-0.3,0-0.5-0.2-0.5-0.5V19.3z"></path> <path class="st0" d="M15.8,30.3c-0.1,0-0.2,0.2-0.2,0.3v7h2.1v-2.2c0-0.2,0.1-0.3,0.3-0.3h2.3c0.2,0,0.3,0.1,0.3,0.3v2.2h2.1 l0-6.9L20.4,31L15.8,30.3z M20.5,32.4v0.1v0.1v0.5c0,0.2-0.1,0.3-0.3,0.3h-2.3c-0.2,0-0.3-0.1-0.3-0.3v-0.5v-0.1v-0.1 c0-0.2,0.1-0.3,0.3-0.3h2.3C20.4,32.1,20.5,32.2,20.5,32.4z"></path> <path class="st0" d="M7.6,37.2c0,0.2,0.2,0.4,0.4,0.4h6.5c0.2,0,0.4-0.2,0.4-0.4v-7.1l-7.2-1.1V37.2z M9.9,32.4 c0-0.1,0.1-0.2,0.2-0.3c0.1-0.1,0.2-0.1,0.4,0l2.2,1.2c0.1,0.1,0.2,0.2,0.2,0.3s-0.1,0.3-0.2,0.3l-2.2,1.2c-0.1,0-0.1,0-0.2,0 c-0.1,0-0.1,0-0.2-0.1C10,35.1,9.9,35,9.9,34.8V32.4z"></path> <path class="st0" d="M42.8,32.1h3.5V31l-7.2-0.9v7.1c0,0.2,0.2,0.4,0.4,0.4H46c0.2,0,0.4-0.2,0.4-0.4v-1.1h-3.5 c-0.1,0-0.3-0.1-0.3-0.3V35c0-0.1,0.1-0.3,0.3-0.3h3.5v-1.4h-3.5c-0.1,0-0.3-0.1-0.3-0.3v-0.8C42.6,32.2,42.7,32.1,42.8,32.1z"></path> <path class="st0" d="M31.5,29.7v7.6c0,0.2,0.2,0.4,0.4,0.4H38c0.2,0,0.4-0.2,0.4-0.4v-1.8h-3.7c-0.2,0-0.3-0.1-0.3-0.3v-3.2 c0-0.2,0.1-0.3,0.3-0.3h3.7V30l-4.6-0.6L31.5,29.7z"></path> </g> <g> <path class="st2" d="M14.8,44.2c0,0-0.1,0-0.1-0.1c0,0-0.1-0.1-0.1-0.1v-3.2c0-0.1,0-0.1,0.1-0.1c0,0,0.1-0.1,0.1-0.1h1.1 c0.1,0,0.1,0,0.1,0.1c0,0,0.1,0.1,0.1,0.1c0,0.1,0,0.1-0.1,0.1c0,0-0.1,0.1-0.1,0.1H15v1.2h0.8c0.1,0,0.1,0,0.1,0.1 c0,0,0.1,0.1,0.1,0.1c0,0.1,0,0.1-0.1,0.1c0,0-0.1,0.1-0.1,0.1H15v1.5c0,0.1,0,0.1-0.1,0.1C14.9,44.2,14.8,44.2,14.8,44.2z"></path> <path class="st2" d="M18,40.7c0,0,0.1-0.1,0.1-0.1h1.1c0.1,0,0.1,0,0.1,0.1c0,0,0.1,0.1,0.1,0.1c0,0.1,0,0.1-0.1,0.1 c0,0-0.1,0.1-0.1,0.1h-0.9v1.2h0.8c0.1,0,0.1,0,0.1,0.1c0,0,0.1,0.1,0.1,0.1c0,0.1,0,0.1-0.1,0.1c0,0-0.1,0.1-0.1,0.1h-0.8v1.3 h0.9c0.1,0,0.1,0,0.1,0.1c0,0,0.1,0.1,0.1,0.1c0,0.1,0,0.1-0.1,0.1c0,0-0.1,0.1-0.1,0.1h-1.1c-0.1,0-0.1,0-0.1-0.1 c0,0-0.1-0.1-0.1-0.1v-3.2C18,40.8,18,40.7,18,40.7z"></path> <path class="st2" d="M22.4,43.8c0.1-0.1,0.2-0.2,0.2-0.4c0-0.1,0-0.1,0-0.2c0-0.1-0.1-0.1-0.1-0.2l-0.9-0.9 c-0.1-0.1-0.1-0.2-0.2-0.3c0-0.1-0.1-0.2,0-0.4c0-0.1,0-0.2,0.1-0.3c0.1-0.1,0.1-0.2,0.2-0.3c0.1-0.1,0.2-0.1,0.3-0.2 c0.1,0,0.2,0,0.4,0c0.2,0.1,0.4,0.2,0.6,0.4c0,0,0,0.1,0,0.1c0,0,0,0.1-0.1,0.1c0,0-0.1,0-0.1,0c0,0-0.1,0-0.1-0.1 c-0.1-0.1-0.2-0.2-0.3-0.2c-0.2,0-0.3,0-0.4,0.1c-0.1,0.1-0.2,0.2-0.2,0.4c0,0.1,0,0.3,0.1,0.4l0.9,0.9c0.1,0.1,0.2,0.2,0.2,0.3 c0,0.1,0.1,0.2,0.1,0.4c0,0.1,0,0.2-0.1,0.4c-0.1,0.1-0.1,0.2-0.2,0.3c-0.1,0.1-0.2,0.1-0.3,0.2c-0.1,0-0.2,0-0.4,0 c-0.1,0-0.2-0.1-0.3-0.1c-0.1-0.1-0.2-0.2-0.3-0.3c0,0,0-0.1,0-0.1c0,0,0-0.1,0.1-0.1c0,0,0.1,0,0.1,0c0,0,0.1,0,0.1,0.1 c0.1,0.1,0.2,0.2,0.3,0.2C22.1,43.9,22.3,43.9,22.4,43.8z"></path> <path class="st2" d="M26.5,40.7c0,0,0.1,0.1,0.1,0.1c0,0.1,0,0.1-0.1,0.1c0,0-0.1,0.1-0.1,0.1h-0.6v3.1c0,0.1,0,0.1-0.1,0.1 c0,0-0.1,0.1-0.1,0.1c0,0-0.1,0-0.1-0.1c0,0-0.1-0.1-0.1-0.1l0-3.1h-0.6c0,0-0.1,0-0.1-0.1c0,0-0.1-0.1-0.1-0.1 c0-0.1,0-0.1,0.1-0.1c0,0,0.1-0.1,0.1-0.1h1.5C26.4,40.7,26.4,40.7,26.5,40.7z"></path> <path class="st2" d="M28.6,44.3c0,0-0.1,0-0.1-0.1c0,0-0.1-0.1-0.1-0.1v-3.3c0-0.1,0-0.1,0.1-0.1c0,0,0.1-0.1,0.1-0.1 c0.1,0,0.1,0,0.1,0.1c0,0,0.1,0.1,0.1,0.1v3.3c0,0.1,0,0.1-0.1,0.1C28.7,44.2,28.6,44.3,28.6,44.3z"></path> <path class="st2" d="M30.7,40.7c0,0,0.1-0.1,0.1-0.1c0,0,0.1,0,0.1,0c0,0,0.1,0.1,0.1,0.1c0,0.2,0.1,0.3,0.1,0.5 c0,0.2,0.1,0.3,0.1,0.5c0,0.1,0.1,0.3,0.1,0.4c0,0.1,0.1,0.3,0.1,0.4c0,0.1,0.1,0.3,0.1,0.4c0,0.1,0.1,0.2,0.1,0.3 c0-0.1,0.1-0.2,0.1-0.3c0-0.1,0.1-0.3,0.1-0.4c0-0.1,0.1-0.3,0.1-0.4c0-0.1,0.1-0.3,0.1-0.4c0-0.2,0.1-0.3,0.1-0.5 c0-0.2,0.1-0.3,0.1-0.5c0,0,0-0.1,0.1-0.1c0,0,0.1,0,0.1,0c0,0,0.1,0,0.1,0.1c0,0,0,0.1,0,0.1l-0.9,3.3c0,0,0,0.1-0.1,0.1 c0,0-0.1,0-0.1,0c0,0-0.1,0-0.1,0c0,0-0.1-0.1-0.1-0.1l-0.9-3.3C30.7,40.8,30.7,40.8,30.7,40.7z"></path> <path class="st2" d="M36.4,44c0,0,0,0.1,0,0.1c0,0-0.1,0.1-0.1,0.1c0,0-0.1,0-0.1,0c0,0-0.1-0.1-0.1-0.1c0-0.1,0-0.1-0.1-0.2 c0-0.1,0-0.1-0.1-0.2c0-0.1,0-0.2-0.1-0.3h-1.1c0,0.1-0.1,0.2-0.1,0.3c0,0.1,0,0.1-0.1,0.2c0,0.1,0,0.1-0.1,0.2c0,0,0,0.1-0.1,0.1 c0,0-0.1,0-0.1,0c0,0-0.1,0-0.1-0.1c0,0,0-0.1,0-0.1l0.9-3.3c0-0.1,0.1-0.1,0.2-0.1c0.1,0,0.2,0,0.2,0.1L36.4,44z M35.8,43.1 c0-0.1-0.1-0.3-0.1-0.4c0-0.1-0.1-0.3-0.1-0.4c0-0.1-0.1-0.3-0.1-0.4c0-0.1-0.1-0.2-0.1-0.3c0,0.1-0.1,0.2-0.1,0.3 c0,0.1-0.1,0.3-0.1,0.4c0,0.1-0.1,0.3-0.1,0.4c0,0.1-0.1,0.3-0.1,0.4H35.8z"></path> <path class="st2" d="M38.4,44.2c0,0-0.1-0.1-0.1-0.1v-3.2c0-0.1,0-0.1,0.1-0.1c0,0,0.1-0.1,0.1-0.1c0,0,0.1,0,0.1,0.1 c0,0,0.1,0.1,0.1,0.1v3.1h0.9c0,0,0.1,0,0.1,0.1c0,0,0.1,0.1,0.1,0.1c0,0.1,0,0.1-0.1,0.1c0,0-0.1,0.1-0.1,0.1h-1.1 C38.4,44.2,38.4,44.2,38.4,44.2z"></path> </g> </g> </svg> 