<svg xmlns="http://www.w3.org/2000/svg" width="250" height="138.57" viewBox="0 0 250 138.57"><defs><style>.a{fill:#63328a;}.b{fill:#e32285;}.c{fill:#ffdd18;}</style></defs><title>Revolution_Festival_logo</title><path class="a" d="M82,106.21a8,8,0,0,1-5.68-2.35l-8.58-8.59a8,8,0,0,1,0-11.36l8.58-8.59a8.05,8.05,0,0,1,11.37,0l8.58,8.59a8,8,0,0,1,0,11.36l-8.58,8.59A8,8,0,0,1,82,106.21m0-27.62a2.37,2.37,0,0,0-1.7.71l-8.59,8.58a2.44,2.44,0,0,0,0,3.42l8.59,8.58a2.4,2.4,0,0,0,3.41,0l8.59-8.58a2.43,2.43,0,0,0,0-3.42L83.74,79.3A2.37,2.37,0,0,0,82,78.59"/><path class="a" d="M82.56,69.61c-3.13,0-5.86-1.93-7.32-5.18L66.61,45a2.81,2.81,0,1,1,5.14-2.28l8.63,19.47c.53,1.19,1.31,1.85,2.19,1.85h0a2.71,2.71,0,0,0,2.29-1.82l8.28-19.51a2.81,2.81,0,1,1,5.17,2.19L90,64.37a8.3,8.3,0,0,1-7.42,5.24Z"/><path class="a" d="M60.67,106.21a2.76,2.76,0,0,1-2-.85L41.94,88.29c-2.53-2.54-3.77-5.05-3.78-7.66a9,9,0,0,1,3.11-6.39c3.08-2.81,6.53-6,7-6.59.13-.16.27-.31.4-.46.58-.67.65-.74.65-1.43a3,3,0,0,0-.76-1.58l-.14-.13-11-11.77A7,7,0,0,1,36,44.78a6.78,6.78,0,0,1,6.48-3.91l16.11,0a2.81,2.81,0,0,1,0,5.62h0l-16.11,0c-.31,0-1.1.06-1.31.54a1.39,1.39,0,0,0,.43,1.43L52.5,60.16A8.39,8.39,0,0,1,55,65.75a7,7,0,0,1-2.06,5.16l-.3.35c-.79.95-5.56,5.32-7.57,7.16l-.1.08a3.45,3.45,0,0,0-1.14,2.12c0,1,.72,2.29,2.15,3.72l16.74,17.09a2.82,2.82,0,0,1-2,4.78"/><path class="a" d="M188.88,106.52a2.81,2.81,0,0,1-1.88-4.9c8.31-7.49,21-19,22-20,.17-.2.37-.39.57-.59a7.94,7.94,0,0,0,2.66-6.52V50.6c0-5.79,3.34-9.45,8.72-9.56h13.42a9.18,9.18,0,0,1,6.15,2.63,9.39,9.39,0,0,1,2.47,7c-.11,6.59,0,50.66,0,51.1a2.81,2.81,0,0,1-2.8,2.82h0a2.8,2.8,0,0,1-2.81-2.8c0-1.82-.11-44.57,0-51.22a4,4,0,0,0-.88-2.95,3.6,3.6,0,0,0-2.14-.94H221.05c-1,0-3.18.1-3.18,3.94V74.5A13.55,13.55,0,0,1,213.52,85l-.31.3c-.79.92-16,14.61-22.45,20.45a2.78,2.78,0,0,1-1.88.73"/><path class="a" d="M112.77,106.2a8.48,8.48,0,0,1-3.16-.6,8.84,8.84,0,0,1-5.56-7.91v-54a2.81,2.81,0,1,1,5.62,0V97.52a3.18,3.18,0,0,0,2,2.85,3.46,3.46,0,0,0,3.77-1l22-22.62a2.81,2.81,0,0,1,4,3.92l-22.09,22.67a9.45,9.45,0,0,1-6.64,2.86"/><path class="a" d="M123.5,79.13a6.46,6.46,0,0,1-2.39-.46,6.66,6.66,0,0,1-4.19-6v-29a2.81,2.81,0,1,1,5.62,0V72.54a1,1,0,0,0,.63.91A1.28,1.28,0,0,0,124.5,73l10.57-10.6.08-.05a4.47,4.47,0,0,0,1.38-3.14V43.68a2.81,2.81,0,0,1,5.62,0V59.23a10,10,0,0,1-3.32,7.38L128.47,77a7.09,7.09,0,0,1-5,2.13"/><path class="a" d="M172.29,40.9H148.92a2.81,2.81,0,1,0,0,5.62h8.87V66.69a2.81,2.81,0,0,0,5.62,0V46.52h8.88a2.81,2.81,0,0,0,0-5.62"/><path class="a" d="M160.6,105.76a2.81,2.81,0,0,1-2.81-2.81V85.33a2.81,2.81,0,0,1,5.62,0V103a2.81,2.81,0,0,1-2.81,2.81"/><path class="b" d="M164.1,75.84a3.5,3.5,0,1,1-3.5-3.5,3.5,3.5,0,0,1,3.5,3.5"/><path class="a" d="M47,107.31a2.83,2.83,0,0,1-2-.84L21.87,83c-2.5-2.5-3.73-5-3.73-7.57a8.87,8.87,0,0,1,3.09-6.32c3-2.76,6.44-5.93,6.92-6.48l.39-.46c.58-.65.63-.7.63-1.37a2.65,2.65,0,0,0-.74-1.52l-.13-.12L17.38,47.42l-.06-.09a2.66,2.66,0,0,0-3-1c-.9.37-1.73,1.08-1.73,3.8v53.3a2.81,2.81,0,1,1-5.62,0V50.15c0-4.56,1.75-7.58,5.22-9,4.41-1.81,8.07.87,9.49,2.66L32.36,55.22a8.19,8.19,0,0,1,2.43,5.53,7,7,0,0,1-2,5.1l-.3.34c-.78.94-5.49,5.25-7.47,7.06l-.1.08a3.34,3.34,0,0,0-1.12,2c0,1,.71,2.22,2.1,3.61L49,102.53a2.81,2.81,0,0,1-2,4.78"/><path class="c" d="M113.24,33.35H1.69a1.69,1.69,0,1,1,0-3.37H113.17a2.35,2.35,0,0,0,2.13-1.49,2.55,2.55,0,0,0-.74-2.79L103.47,14.63a1.69,1.69,0,1,1,2.39-2.39L117,23.32a6,6,0,0,1,1.49,6.4,5.76,5.76,0,0,1-5.16,3.63Z"/><path class="c" d="M248.31,33.35H136.72a5.76,5.76,0,0,1-5.16-3.63,5.92,5.92,0,0,1,1.48-6.4l11.1-11.08a1.69,1.69,0,1,1,2.38,2.39L135.43,25.7a2.58,2.58,0,0,0-.74,2.79A2.37,2.37,0,0,0,136.82,30H248.31a1.69,1.69,0,1,1,0,3.37"/><path class="c" d="M248.31,116.75H1.69a1.69,1.69,0,1,1,0-3.37H248.31a1.69,1.69,0,1,1,0,3.37"/><path class="a" d="M19.43,132.33H16.52v1.85H19a.73.73,0,0,1,.5.16.56.56,0,0,1,0,.8.73.73,0,0,1-.5.15H16.52v2.38a1,1,0,0,1-.21.68.75.75,0,0,1-1.07,0,1,1,0,0,1-.2-.67V132.1a1.31,1.31,0,0,1,.09-.52.57.57,0,0,1,.3-.29,1.23,1.23,0,0,1,.51-.09h3.49a.73.73,0,0,1,.53.16.5.5,0,0,1,.17.4.52.52,0,0,1-.17.42.78.78,0,0,1-.53.15"/><path class="a" d="M50.56,132.33H47.23v1.78H50.3a.73.73,0,0,1,.5.15.53.53,0,0,1,.17.4.52.52,0,0,1-.16.4.74.74,0,0,1-.51.16H47.23v2.06h3.45a.74.74,0,0,1,.52.16.55.55,0,0,1,.18.43.51.51,0,0,1-.18.41.74.74,0,0,1-.52.16h-4a1,1,0,0,1-.69-.21.91.91,0,0,1-.22-.69V132.1a1.3,1.3,0,0,1,.1-.52.57.57,0,0,1,.3-.29,1.23,1.23,0,0,1,.51-.09h3.91a.75.75,0,0,1,.53.16.53.53,0,0,1,.17.4.56.56,0,0,1-.17.42.8.8,0,0,1-.53.15"/><path class="a" d="M82.62,136.27a2.09,2.09,0,0,1-.34,1.18,2.28,2.28,0,0,1-1,.82,3.74,3.74,0,0,1-1.56.3,3.56,3.56,0,0,1-1.79-.41,2.32,2.32,0,0,1-.81-.78,1.81,1.81,0,0,1-.31-.94A.62.62,0,0,1,77,136a.61.61,0,0,1,.47-.19.57.57,0,0,1,.4.15,1.15,1.15,0,0,1,.28.44,2.85,2.85,0,0,0,.3.58,1.25,1.25,0,0,0,.46.38,1.67,1.67,0,0,0,.77.15,1.78,1.78,0,0,0,1.07-.3.94.94,0,0,0,.41-.76.8.8,0,0,0-.22-.59,1.44,1.44,0,0,0-.58-.34,9.12,9.12,0,0,0-.94-.25,6.93,6.93,0,0,1-1.31-.43,2,2,0,0,1-.85-.67A1.7,1.7,0,0,1,77,133.1a1.78,1.78,0,0,1,.33-1.06,2,2,0,0,1,1-.71,3.9,3.9,0,0,1,1.47-.25,3.61,3.61,0,0,1,1.16.16,2.55,2.55,0,0,1,.82.44,2,2,0,0,1,.47.58,1.29,1.29,0,0,1,.15.59.67.67,0,0,1-.19.47.59.59,0,0,1-.46.21.53.53,0,0,1-.39-.13A1.51,1.51,0,0,1,81,133a2.06,2.06,0,0,0-.48-.64,1.45,1.45,0,0,0-.9-.23,1.57,1.57,0,0,0-.93.25.74.74,0,0,0-.35.6.59.59,0,0,0,.12.37,1,1,0,0,0,.33.28,2.26,2.26,0,0,0,.43.17c.14.05.37.11.7.19a11,11,0,0,1,1.12.32,2.93,2.93,0,0,1,.85.42,1.64,1.64,0,0,1,.55.62,1.88,1.88,0,0,1,.2.93"/><path class="a" d="M113.13,132.41h-1.61v5.26a1,1,0,0,1-.21.68.69.69,0,0,1-.52.22.71.71,0,0,1-.54-.23.93.93,0,0,1-.21-.67v-5.26h-1.61a.84.84,0,0,1-.57-.16.57.57,0,0,1-.18-.44.55.55,0,0,1,.19-.45.89.89,0,0,1,.56-.16h4.7a.87.87,0,0,1,.58.17.57.57,0,0,1,.18.44.55.55,0,0,1-.19.44.83.83,0,0,1-.57.16"/><path class="a" d="M139.34,137.67V132a1,1,0,0,1,.2-.67.69.69,0,0,1,.53-.22.67.67,0,0,1,.54.22.93.93,0,0,1,.21.67v5.7a.93.93,0,0,1-.21.67.68.68,0,0,1-.54.23.67.67,0,0,1-.52-.23.94.94,0,0,1-.21-.67"/><path class="a" d="M168.07,132l1.65,4.86,1.66-4.89c.09-.26.16-.44.2-.54a.66.66,0,0,1,.21-.27.65.65,0,0,1,.41-.12.68.68,0,0,1,.35.09.69.69,0,0,1,.26.25.61.61,0,0,1,.09.31,1,1,0,0,1,0,.24c0,.08-.05.17-.07.24a1.34,1.34,0,0,0-.09.26l-1.78,4.73-.18.52a2.73,2.73,0,0,1-.22.42,1,1,0,0,1-.34.31,1,1,0,0,1-.5.12,1,1,0,0,1-.51-.12.9.9,0,0,1-.33-.31,1.74,1.74,0,0,1-.22-.43c-.07-.16-.13-.33-.19-.51l-1.74-4.7a2.6,2.6,0,0,0-.1-.25c0-.08,0-.17-.08-.26a1.29,1.29,0,0,1,0-.25.65.65,0,0,1,.21-.46.69.69,0,0,1,.51-.2.6.6,0,0,1,.54.23,3.28,3.28,0,0,1,.32.73"/><path class="a" d="M202.68,137.62l-.35-.91h-3l-.35.93a3.22,3.22,0,0,1-.35.74.57.57,0,0,1-.47.19.7.7,0,0,1-.5-.21.6.6,0,0,1-.21-.46,1.11,1.11,0,0,1,.05-.3c0-.11.09-.25.16-.44l1.87-4.7.2-.49a1.87,1.87,0,0,1,.24-.47.9.9,0,0,1,.33-.31,1.13,1.13,0,0,1,.51-.11,1.14,1.14,0,0,1,.52.11,1.06,1.06,0,0,1,.33.3,2.56,2.56,0,0,1,.22.4c.05.13.13.32.22.56l1.91,4.67a2.22,2.22,0,0,1,.22.78.65.65,0,0,1-.21.46.69.69,0,0,1-.51.21.67.67,0,0,1-.3-.06.87.87,0,0,1-.21-.17,1.21,1.21,0,0,1-.18-.33c-.07-.15-.12-.27-.17-.39m-2.93-2h2.18l-1.1-3Z"/><path class="a" d="M231.31,132v5.27h3a.82.82,0,0,1,.55.17.56.56,0,0,1,.19.44.54.54,0,0,1-.19.43.8.8,0,0,1-.55.16h-3.58a.77.77,0,0,1-.9-.9V132a1,1,0,0,1,.2-.67.67.67,0,0,1,.53-.22.7.7,0,0,1,.54.22.93.93,0,0,1,.21.67"/><path class="b" d="M103.08,25.32H14.64a1.32,1.32,0,0,1,0-2.63h88.44a1.32,1.32,0,0,1,0,2.63"/><path class="b" d="M235.36,25.32H146.92a1.32,1.32,0,0,1,0-2.63h88.44a1.32,1.32,0,0,1,0,2.63"/><path class="b" d="M235.36,124.62H14.64a1.32,1.32,0,0,1,0-2.63H235.36a1.32,1.32,0,1,1,0,2.63"/><path class="a" d="M184.68,91.57c-4.31,0-7.56-3.6-7.56-8.36V50.83a10.26,10.26,0,0,1,2.52-7.12,9.33,9.33,0,0,1,7.1-2.77h11.88c3.62,0,9,2.65,9,9.94v18a12.14,12.14,0,0,1-4,8.87L190.26,89.54l-.1.08a9.31,9.31,0,0,1-5.48,1.95m2.06-45a3.93,3.93,0,0,0-3,1,4.8,4.8,0,0,0-1,3V83.21c0,1.26.51,2.74,1.94,2.74a3.63,3.63,0,0,0,2-.79L200,73.4a6.34,6.34,0,0,0,2-4.56v-18c0-4.11-2.81-4.32-3.37-4.32Z"/><path class="b" d="M125,21.32a5.05,5.05,0,0,1-3.59-1.49l-5.58-5.58a5.08,5.08,0,0,1,0-7.18l5.58-5.58a5.08,5.08,0,0,1,7.19,0l5.58,5.58a5.08,5.08,0,0,1,0,7.18l-5.58,5.58a5.06,5.06,0,0,1-3.6,1.49m0-17.95a1.74,1.74,0,0,0-1.21.5l-5.57,5.58a1.71,1.71,0,0,0,0,2.42l5.57,5.58A1.74,1.74,0,0,0,125,18a1.7,1.7,0,0,0,1.21-.5l5.58-5.58a1.71,1.71,0,0,0,0-2.42l-5.58-5.58a1.7,1.7,0,0,0-1.21-.5"/><rect class="a" x="122.48" y="8.12" width="5.09" height="5.09" rx="0.64" ry="0.64" transform="translate(29.09 91.54) rotate(-45.01)"/></svg>