<?xml version="1.0" encoding="UTF-8"?> <svg xmlns="http://www.w3.org/2000/svg" width="300" height="207.84" viewBox="0 0 300 207.84"><defs><style>.a{fill:#483d78;}.b{fill:#dfe345;}</style></defs><title>SeaStar2020_logo</title><path class="a" d="M215.08,49.39c1-1.9,1.88-3.57,2.62-5.11.7,4.74,1.4,9.59,2.31,14.34-1.3.33-3.52,1-5.95,1.71L208.12,62C210.88,57.23,213.34,52.89,215.08,49.39ZM43.73,57.28A241.33,241.33,0,0,0,87,66.58C77.58,74.66,67.87,80.17,46,88c-14.14,5,15.51,17.38,25.1,13.16q31.68-14,45.5-29.48a36.73,36.73,0,0,0,.58,11.07c1.72,7.5,8.71,9.38,15.1,4,12.3-1.36,26.78-3.82,39-5.84a3.85,3.85,0,0,0,2.92,4.55l.68,0,4.24.52c9.58,1,15-.26,16.91-3.48.89-1.43,1.7-2.81,2.51-4.18L212.76,72c4.32-1.89,8.11-3.55,9-3.87a121.83,121.83,0,0,0,3.54,12.73c1.54,4.45,7.75,6.49,16.88,5.68,7.19-.7,7.44-3,6.07-8.27S245.54,67,244.47,61.65l10.2-2.29,2.7-.56c5.81-1.16,5.61-4.33-2.15-5.1a45.28,45.28,0,0,0-6.89-.15c-1.77.1-3.47.22-5.27.4a172.21,172.21,0,0,1-1.53-39.23c.42-6.46-4.31-8.32-20.17-8.23-.64,0-1.3.09-1.93.18-5.56,1.13-5.31,7.15-3.91,19-7.2-1.33-9.68-1.32-12.69,3.45-6.18,9.46-13.76,19.8-21.18,31.21-1.52,2.36-3,4.74-4.5,7.19-1.09,1.84-2.07,3.5-2.85,5.06-9.43-.62-20-.45-31.05-.08,2.85-6.72,5.07-11.26,7.57-17.62,13.44-3.5,40.76-10.46,5.23-14.33,1.83-4.38,3.66-8.88,5.57-13.43,7.31-1,16.36-2.12,23.71-3.85l1.91-.46c10.94-2.73,7.21-4.82-1.25-6.17a352,352,0,0,0-36.68-2.91c-5.3-.61-13.18-3.19-15.78,3.81a394.54,394.54,0,0,0-14.3,39.75,11,11,0,0,0-4.07-3.49c-7.41-3.11-21.12-5.18-35.67-8.58,6.61-2.34,20.5-6.64,30.85-9.4,11.38-3-10.82-18-17.54-15.58C80,24.89,64,30.25,49.9,35.7,44,38,39.78,40.91,38.45,45.56,36.27,53.14,38.67,55.6,43.73,57.28Z"></path><path class="a" d="M290.37,170.28a7.7,7.7,0,0,0-1.27.13c-3.69.62-4.85,3.13-2.89,5.81a7.92,7.92,0,0,0,2.14,2.1c3.31,2.2,7.45.8,8.91-4.25C298.48,169.71,296.36,168.26,290.37,170.28Z"></path><path class="a" d="M251.8,119.24c-2.1.72-4.41,1.47-7,2.23,1.07-5.48,2.27-10.61,3.56-15.4l4.62.07C273.72,106.68,273.08,112,251.8,119.24ZM173.51,144c2.31-.3,4.54-.63,6.81-1,0,.75.06,1.48.08,2.2q.34,7.65.7,14.48a43.76,43.76,0,0,0-8.46-6.56c-1.95-1.26-3.92-2.51-5.54-3.48s-2.32-1.36-3-1.71L166,145M180,134l-2.68.35-2.85.37-1.77.19c.46-.73,1.21-1.76,2-2.91a76.68,76.68,0,0,0,4.91-7.62c.11,2.15.17,4.24.25,6.31C179.88,131.82,179.9,133,180,134Zm109.66,27.63a7.31,7.31,0,0,0,.75-7.86,21.42,21.42,0,0,0-1-2.24c-4.6-8.75-9.75-15.92-11.75-23.78a68.43,68.43,0,0,0,16.13-8.57c6-4.85,5.44-8.87,1.18-12.15-7.7-5.95-27.36-9.53-40.67-11.31-5.54-.7-10-1.14-12.21-1.32a150,150,0,0,0-16.55-3.77c-3.42-.52-6.17,1.35-7.14,6.88-1.76,9.72-3.46,20-4.57,30.76l-5,1-6.29,1.22-3,.56c-.16-12.27,0-23.82.25-34.5a7.73,7.73,0,0,0-.34-2.79c-1.18-3.12-5.49-2.12-14.74,2.66-4,1.8-5.51,3.5-5.76,7.24a14.93,14.93,0,0,1-2.09,4.91A322.12,322.12,0,0,1,157,136.5c-11,.89-21.91,1.45-32.79,1.77,3-10.91,5.76-20.63,8.19-29.13a102.3,102.3,0,0,0,10.34-2.77c6.65,3.89,11.44,3.41,15.93.22,13.71-9.77,11.66-13.56-7.38-12.71-29.56,1.29-60.67,11.5-87.69,14.07-8.23.77-10.7,5.3-4.12,10.08,5,3.52,28.15.61,37.66-1.56a257.71,257.71,0,0,0-7.6,41.43,60.62,60.62,0,0,0-6.77-2,269.34,269.34,0,0,0-43.54-5.42c11.36-5,23.44-10.09,36.56-14.51,9.32-3.1,6.18-5.07-9-9.63a28.57,28.57,0,0,0-19-.09c-13.16,4.65-26.33,8.62-39.21,13.88-9,3.28-10.62,7.9-6.08,15.37,2.16,3.59,5.65,4.93,11.74,5.71,10.79,1.36,22,4.24,33.86,6.37-9,6.31-20,12.49-31.75,20.83-8.18,5.78-8.9,13.7-.76,16.66,13.49,4.81,23.23,2.59,28-.51,16-10.47,31.28-21.38,45.72-32.91a44.55,44.55,0,0,0,1,6.69c1.71,7.66,7.61,6.69,20.08-1.37a12,12,0,0,0,5.66-7.36c1.84-7.09,3.59-13.8,5.3-20.14l.26-1a111.17,111.17,0,0,1,21.58,6.19l-.45.54c-5.21,6.88-10,13.36-13.65,18.64-6.52,9.55-6.65,14.52-2.13,14.08a15.52,15.52,0,0,0,4.76-1.58c8.34-4.14,12.88-7,16.11-12.33,2.78-4.61,5.48-9,8.19-13.26l3,1.78a78.1,78.1,0,0,1,12.1,9.42,46,46,0,0,1,12.59,18.5,2.41,2.41,0,0,0,2.66,2.21l.43,0a20,20,0,0,0,4.39-1.4,39.87,39.87,0,0,0,8-4.62c3-1.9,2.25-3.3,2.06-7.22q-1.22-21-1.55-39.79c2.79-.57,5.6-1.21,8.37-1.85l5-1.23-.17,2.54a176.76,176.76,0,0,0,1.63,37.28c1.84,11.82,9.06,7.82,15.43,5.54,8.23-2.91,9.4-5.35,9.55-10.1.25-10.34,1-20.22,1.93-29.28l8.33-2.9,1.31-.47C265.88,161.69,284.26,167.09,289.63,161.67Z"></path><path class="b" d="M216.89,42.91c1-1.91,1.87-3.58,2.62-5.11.69,4.73,1.4,9.58,2.31,14.33-1.3.33-3.52,1-5.95,1.71l-5.94,1.71C212.69,50.74,215.15,46.41,216.89,42.91ZM45.54,50.79A242.31,242.31,0,0,0,88.76,60.1c-9.37,8.08-19.08,13.58-41,21.45-14.13,5,15.52,17.38,25.11,13.16q31.68-14,45.49-29.48A37,37,0,0,0,119,76.3c1.72,7.5,8.72,9.38,15.11,4,12.3-1.37,26.78-3.83,39-5.85A3.84,3.84,0,0,0,176,79l.68,0,4.24.52c9.57,1,15-.25,16.91-3.47.89-1.44,1.7-2.82,2.5-4.19l14.23-6.41c4.32-1.89,8.11-3.55,9-3.86a124.2,124.2,0,0,0,3.55,12.72c1.54,4.45,7.75,6.5,16.88,5.68,7.18-.7,7.44-3,6.06-8.26s-2.71-11.25-3.77-16.65l10.2-2.29,2.69-.56c5.81-1.16,5.61-4.32-2.14-5.1a46.64,46.64,0,0,0-6.89-.15c-1.77.1-3.47.22-5.27.41a172.32,172.32,0,0,1-1.54-39.24C243.76,1.77,239-.08,223.17,0c-.65,0-1.3.1-1.94.18-5.55,1.13-5.3,7.15-3.91,19-7.19-1.34-9.67-1.32-12.68,3.44-6.18,9.46-13.76,19.8-21.18,31.21-1.52,2.36-3,4.74-4.5,7.2-1.09,1.83-2.07,3.49-2.85,5.06-9.44-.63-20-.45-31.06-.09,2.85-6.72,5.08-11.26,7.58-17.62,13.44-3.5,40.75-10.45,5.22-14.32,1.84-4.39,3.66-8.89,5.58-13.44,7.31-1,16.35-2.12,23.71-3.85l1.9-.46c11-2.73,7.22-4.81-1.25-6.16a354.32,354.32,0,0,0-36.67-2.92c-5.3-.6-13.18-3.19-15.78,3.81A395.49,395.49,0,0,0,121,50.77,10.82,10.82,0,0,0,117,47.29c-7.42-3.11-21.12-5.19-35.67-8.59,6.6-2.33,20.49-6.63,30.85-9.4,11.38-3-10.82-18-17.54-15.57-12.8,4.67-28.85,10-42.9,15.49-5.92,2.27-10.13,5.21-11.45,9.85C38.08,46.65,40.47,49.11,45.54,50.79Z"></path><path class="b" d="M253.61,112.75c-2.1.73-4.41,1.47-7.05,2.24q1.62-8.23,3.57-15.41l4.61.07C275.52,100.2,274.89,105.47,253.61,112.75Zm-78.29,24.73c2.3-.29,4.53-.63,6.8-1-.05.75.07,1.48.09,2.2.22,5.1.46,9.94.7,14.48a44.47,44.47,0,0,0-8.46-6.56c-1.95-1.26-3.92-2.5-5.54-3.47s-2.33-1.36-3.06-1.71l2-3m14-10.92-2.68.34-2.85.37-1.77.19c.46-.73,1.21-1.76,2-2.91a74.83,74.83,0,0,0,4.9-7.62c.12,2.15.18,4.24.26,6.31C181.69,125.34,181.71,126.49,181.78,127.56Zm109.66,27.62a7.31,7.31,0,0,0,.75-7.85,23.88,23.88,0,0,0-1-2.25c-4.6-8.75-9.76-15.92-11.75-23.78a68.43,68.43,0,0,0,16.13-8.57c6-4.85,5.44-8.86,1.17-12.14-7.69-6-27.35-9.54-40.66-11.31-5.55-.71-10-1.15-12.21-1.33a154.29,154.29,0,0,0-16.56-3.77c-3.41-.51-6.16,1.35-7.14,6.88-1.76,9.72-3.45,20-4.56,30.76l-5,1-6.3,1.22-3,.56c-.16-12.27-.05-23.82.24-34.5a7.34,7.34,0,0,0-.34-2.79c-1.17-3.11-5.48-2.12-14.73,2.66-4,1.8-5.52,3.5-5.76,7.24a15.11,15.11,0,0,1-2.09,4.92A325.71,325.71,0,0,1,158.77,130c-11,.9-21.92,1.45-32.79,1.77,3-10.91,5.76-20.63,8.19-29.13a99.73,99.73,0,0,0,10.34-2.77c6.64,3.89,11.44,3.41,15.93.23,13.71-9.78,11.66-13.56-7.38-12.72-29.56,1.29-60.67,11.5-87.69,14.07-8.23.77-10.7,5.3-4.12,10.08,5,3.53,28.15.61,37.65-1.56a258.81,258.81,0,0,0-7.6,41.43,60.46,60.46,0,0,0-6.76-2A270.6,270.6,0,0,0,41,144c11.36-5,23.44-10.08,36.56-14.5,9.32-3.11,6.18-5.08-9-9.64a28.48,28.48,0,0,0-19-.08c-13.16,4.65-26.33,8.62-39.21,13.88-9,3.27-10.62,7.89-6.08,15.36,2.15,3.59,5.64,4.94,11.74,5.72,10.78,1.36,22,4.23,33.86,6.37-9.05,6.3-20,12.48-31.75,20.82-8.18,5.79-8.9,13.7-.76,16.67,13.49,4.8,23.23,2.59,28-.52,16-10.46,31.28-21.37,45.72-32.91a44.55,44.55,0,0,0,1,6.69c1.71,7.67,7.61,6.69,20.08-1.37a12.08,12.08,0,0,0,5.66-7.36q2.74-10.62,5.3-20.14l.26-1a111.17,111.17,0,0,1,21.58,6.19l-.45.55c-5.22,6.88-10,13.35-13.65,18.63-6.53,9.55-6.66,14.52-2.13,14.08a15.52,15.52,0,0,0,4.76-1.58c8.34-4.13,12.88-7,16.11-12.32,2.78-4.62,5.48-9,8.19-13.27l3,1.78a77.56,77.56,0,0,1,12.1,9.43A46,46,0,0,1,185.38,184a2.4,2.4,0,0,0,2.65,2.2l.43,0a19.71,19.71,0,0,0,4.39-1.4,40,40,0,0,0,8-4.62c3-1.9,2.24-3.3,2.05-7.21q-1.2-21-1.55-39.79c2.79-.57,5.61-1.22,8.38-1.86l5-1.23-.17,2.54a176.1,176.1,0,0,0,1.63,37.28c1.84,11.82,9.06,7.82,15.43,5.55,8.23-2.91,9.4-5.35,9.54-10.11.26-10.33,1-20.22,1.93-29.28l8.34-2.9,1.3-.47C267.69,155.2,286.06,160.6,291.44,155.18Z"></path><path class="b" d="M292.12,168.18a7.7,7.7,0,0,0-1.27.13c-3.69.62-4.85,3.13-2.89,5.81a7.78,7.78,0,0,0,2.14,2.1c3.31,2.2,7.45.8,8.91-4.25C300.23,167.61,298.11,166.16,292.12,168.18Z"></path></svg> 