<?xml version="1.0" encoding="UTF-8"?> <svg xmlns="http://www.w3.org/2000/svg" width="65" height="65" viewBox="0 0 65 65"><defs><style>.a{fill:#fff;}.b{fill:none;}</style></defs><title>No Sleep 2019</title><rect x="5" y="5" width="55" height="55"></rect><polygon class="a" points="32.98 27.99 35.12 27.99 44.82 27.99 33.71 17.14 32.98 16.52 32.98 13.5 35.12 13.5 49.46 13.5 51.6 13.5 51.6 17.64 49.46 17.64 39.76 17.64 50.87 28.49 51.6 29.11 51.6 32.13 49.46 32.13 35.12 32.13 32.98 32.13 32.98 27.99"></polygon><polygon class="a" points="13.41 29.98 13.41 15.65 13.41 13.5 16.42 13.5 17.04 14.24 27.89 25.35 27.89 15.65 27.89 13.5 32.03 13.5 32.03 15.65 32.03 29.98 32.03 32.13 29.01 32.13 28.39 31.39 17.55 20.28 17.55 29.98 17.55 32.13 13.41 32.13 13.41 29.98"></polygon><polygon class="a" points="32.05 36.99 32.05 32.87 17.55 32.87 13.41 32.87 13.41 51.5 17.55 51.5 17.55 44.24 27.89 44.24 27.89 40.12 17.55 40.12 17.55 36.99 32.05 36.99"></polygon><path class="b" d="M45.33,35.9a1.32,1.32,0,0,0-1.37.93,5.69,5.69,0,0,0-.1,1.41,5.74,5.74,0,0,0,.1,1.42,1.47,1.47,0,0,0,2.74,0,6.32,6.32,0,0,0,.1-1.42,6.27,6.27,0,0,0-.1-1.41A1.32,1.32,0,0,0,45.33,35.9Zm.46,3.59a.43.43,0,0,1-.46.31.42.42,0,0,1-.46-.31,6.41,6.41,0,0,1-.06-1.25A6.34,6.34,0,0,1,44.87,37a.42.42,0,0,1,.46-.31.43.43,0,0,1,.46.31,8.05,8.05,0,0,1,.05,1.24A8.13,8.13,0,0,1,45.79,39.49Z"></path><path class="b" d="M40.09,38.3a1.71,1.71,0,0,0,.46-1.1,1.25,1.25,0,0,0-.38-.93,1.41,1.41,0,0,0-1-.37,1.46,1.46,0,0,0-1,.34,1.18,1.18,0,0,0-.42.84.06.06,0,0,0,.05.08l.73.12c.05,0,.08,0,.08-.06,0-.35.22-.53.53-.53a.48.48,0,0,1,.49.52,1,1,0,0,1-.26.63l-1.6,1.89a.17.17,0,0,0,0,.1v.62a.05.05,0,0,0,.06.06h2.7c.05,0,.07,0,.07-.06v-.66s0-.07-.07-.07H38.89Z"></path><path class="b" d="M39.76,43.85H39a.28.28,0,0,0-.12,0l-.76.55a.12.12,0,0,0,0,.09v.83c0,.06,0,.08.07,0l.72-.49h0v3.42s0,.06.07.06h.8c.05,0,.07,0,.07-.06V43.92C39.83,43.87,39.81,43.85,39.76,43.85Z"></path><path class="a" d="M45.33,36.69a.42.42,0,0,0-.46.31,6.34,6.34,0,0,0-.06,1.24,6.41,6.41,0,0,0,.06,1.25.42.42,0,0,0,.46.31.43.43,0,0,0,.46-.31,8.13,8.13,0,0,0,.05-1.25A8.05,8.05,0,0,0,45.79,37,.43.43,0,0,0,45.33,36.69Z"></path><path class="a" d="M33,32.87V51.5H51.6V32.87Zm6.85,15.46s0,.06-.07.06H39c-.05,0-.07,0-.07-.06V44.91h0l-.72.49s-.07,0-.07,0v-.83a.12.12,0,0,1,0-.09l.76-.55a.28.28,0,0,1,.12,0h.75c.05,0,.07,0,.07.07Zm.65-8.61c.05,0,.07,0,.07.07v.66s0,.06-.07.06h-2.7a.05.05,0,0,1-.06-.06v-.62a.17.17,0,0,1,0-.1l1.6-1.89a1,1,0,0,0,.26-.63.48.48,0,0,0-.49-.52c-.31,0-.49.18-.53.53,0,.05,0,.06-.08.06l-.73-.12a.06.06,0,0,1-.05-.08,1.18,1.18,0,0,1,.42-.84,1.46,1.46,0,0,1,1-.34,1.41,1.41,0,0,1,1,.37,1.25,1.25,0,0,1,.38.93,1.71,1.71,0,0,1-.46,1.1l-1.2,1.41h1.59Zm6,6.61-1.09,2a.07.07,0,0,1-.08,0h-.85s-.06,0,0-.07l1-1.75h0a.66.66,0,0,1-.28,0,1.28,1.28,0,0,1-.92-.37,1.36,1.36,0,0,1-.38-1,1.32,1.32,0,0,1,.43-1.05,1.57,1.57,0,0,1,1.09-.4,1.55,1.55,0,0,1,1.09.39,1.32,1.32,0,0,1,.43,1A2.35,2.35,0,0,1,46.43,46.33Zm.27-6.67a1.47,1.47,0,0,1-2.74,0,5.74,5.74,0,0,1-.1-1.42,5.69,5.69,0,0,1,.1-1.41,1.47,1.47,0,0,1,2.74,0,6.27,6.27,0,0,1,.1,1.41A6.32,6.32,0,0,1,46.7,39.66Z"></path><path class="a" d="M45.25,44.58a.6.6,0,0,0-.44.17.62.62,0,0,0-.16.45.65.65,0,0,0,.16.46.57.57,0,0,0,.44.18.54.54,0,0,0,.43-.18.61.61,0,0,0,.17-.46.59.59,0,0,0-.17-.45A.56.56,0,0,0,45.25,44.58Z"></path></svg> 