<?xml version="1.0" encoding="UTF-8"?> <svg xmlns="http://www.w3.org/2000/svg" overflow="scroll" baseProfile="tiny" viewBox="0 0 105 54" xml:space="preserve"> <path d="m19.6 19.7h-7.6l-1.5 4.2h-4.6l8.1-20.3h3.6l8.1 20.3h-4.7l-1.4-4.2zm-6.4-3.4h5.2l-2.6-7.5-2.6 7.5zm21.1-8c0.8 0 1.6 0.1 2.2 0.3s1.2 0.5 1.7 0.9v-7.3h4.2v13.7c0 1.3-0.2 2.4-0.6 3.4s-0.9 1.9-1.6 2.6-1.5 1.3-2.6 1.7c-1 0.4-2.1 0.6-3.4 0.6-1.2 0-2.2-0.2-3.2-0.6s-1.8-1-2.5-1.7-1.3-1.6-1.7-2.6-0.6-2-0.6-3.1 0.2-2.2 0.6-3.1c0.4-1 1-1.8 1.7-2.5s1.6-1.3 2.5-1.7c1.1-0.4 2.1-0.6 3.3-0.6zm0 12.4c0.6 0 1.2-0.1 1.7-0.3s0.9-0.5 1.3-0.9 0.6-0.8 0.8-1.4c0.2-0.5 0.3-1.1 0.3-1.8 0-1.3-0.4-2.3-1.1-3.1s-1.7-1.2-3-1.2c-1.2 0-2.2 0.4-3 1.2-0.7 0.8-1.1 1.8-1.1 3.1 0 0.6 0.1 1.2 0.3 1.8 0.2 0.5 0.5 1 0.8 1.4 0.4 0.4 0.8 0.7 1.3 0.9 0.6 0.2 1.1 0.3 1.7 0.3zm18.4-12.4c0.8 0 1.6 0.1 2.2 0.3s1.2 0.5 1.7 0.9v-7.3h4.2v13.7c0 1.3-0.2 2.4-0.6 3.4s-0.9 1.9-1.6 2.6-1.5 1.3-2.6 1.7c-1 0.4-2.1 0.6-3.4 0.6-1.2 0-2.2-0.2-3.2-0.6s-1.8-1-2.5-1.7-1.3-1.6-1.7-2.6-0.6-2-0.6-3.1 0.2-2.2 0.6-3.1c0.4-1 1-1.8 1.7-2.5s1.6-1.3 2.5-1.7c1.1-0.4 2.2-0.6 3.3-0.6zm0 12.4c0.6 0 1.2-0.1 1.7-0.3s0.9-0.5 1.3-0.9 0.6-0.8 0.8-1.4c0.2-0.5 0.3-1.1 0.3-1.8 0-1.3-0.4-2.3-1.1-3.1s-1.7-1.2-3-1.2c-1.2 0-2.2 0.4-3 1.2-0.7 0.8-1.1 1.8-1.1 3.1 0 0.6 0.1 1.2 0.3 1.8 0.2 0.5 0.5 1 0.8 1.4 0.4 0.4 0.8 0.7 1.3 0.9 0.6 0.2 1.1 0.3 1.7 0.3zm11.1-18.5h4.2v4.2h-4.2v-4.2zm0 6.5h4.2v15.2h-4.2v-15.2zm14.6 8.7c-0.2 0-0.5 0.1-0.8 0.1s-0.5 0-0.7 0h-1.5v6.4h-4.2v-21.7h4.2v11.8h1.1c1.3 0 2.4-0.5 3.2-1.4s1.3-2.2 1.4-3.9h4c0 1.5-0.3 2.8-0.9 4.1-0.6 1.2-1.4 2.3-2.4 3l4.7 8.1h-4.5l-3.6-6.5zm16.2 6.9c-1.1 0-2.2-0.2-3.2-0.6s-1.8-1-2.6-1.7c-0.7-0.7-1.3-1.6-1.7-2.5-0.4-1-0.6-2-0.6-3.1s0.2-2.2 0.6-3.1c0.4-1 1-1.8 1.7-2.5s1.6-1.3 2.6-1.7 2-0.6 3.2-0.6c1.1 0 2.2 0.2 3.2 0.6s1.8 1 2.6 1.7c0.7 0.7 1.3 1.5 1.7 2.5s0.6 2 0.6 3.1-0.2 2.2-0.6 3.1c-0.4 1-1 1.8-1.7 2.5s-1.6 1.3-2.6 1.7-2.1 0.6-3.2 0.6zm0-3.6c0.6 0 1.2-0.1 1.7-0.3s0.9-0.5 1.3-0.9 0.6-0.8 0.8-1.4c0.2-0.5 0.3-1.1 0.3-1.8 0-1.3-0.4-2.3-1.1-3.1s-1.7-1.2-3-1.2c-1.2 0-2.2 0.4-3 1.2-0.7 0.8-1.1 1.8-1.1 3.1 0 0.6 0.1 1.2 0.3 1.8 0.2 0.5 0.5 1 0.8 1.4 0.4 0.4 0.8 0.7 1.3 0.9s1.1 0.3 1.7 0.3zm-73.9 15.4c0 0.9-0.2 1.7-0.6 2.4s-1 1.2-1.7 1.6c0.9 0.3 1.6 0.8 2.2 1.6s0.8 1.7 0.8 2.8c0 0.9-0.2 1.7-0.5 2.4s-0.8 1.4-1.4 1.9-1.3 1-2.1 1.3-1.7 0.4-2.7 0.4h-8.6v-20.2h8.2c1 0 1.9 0.1 2.7 0.4s1.5 0.7 2 1.2c0.6 0.5 1 1.1 1.3 1.8s0.4 1.5 0.4 2.4zm-10.5 2.5h3.8c0.9 0 1.6-0.2 2-0.6 0.5-0.4 0.7-1 0.7-1.8 0-0.7-0.2-1.3-0.7-1.7s-1.1-0.6-2-0.6h-3.8v4.7zm0 3.5v5h4.3c0.9 0 1.6-0.2 2.1-0.7 0.5-0.4 0.8-1 0.8-1.8s-0.2-1.4-0.8-1.9c-0.5-0.4-1.2-0.6-2.1-0.6h-4.3zm25.4 8.5v-1.6c-0.5 0.6-1.1 1-1.8 1.4-0.8 0.3-1.7 0.5-2.8 0.5s-2-0.2-3-0.6c-0.9-0.4-1.7-0.9-2.3-1.6-0.7-0.7-1.2-1.5-1.5-2.5-0.4-1-0.6-2.1-0.6-3.2s0.2-2.2 0.6-3.1c0.4-1 1-1.8 1.7-2.5s1.6-1.3 2.6-1.7 2-0.6 3.2-0.6 2.2 0.2 3.2 0.6 1.8 0.9 2.5 1.7c0.7 0.7 1.3 1.6 1.7 2.5 0.4 1 0.6 2.1 0.6 3.2v7.6h-4.1v-0.1zm-4-12c-1.2 0-2.2 0.4-3 1.2-0.7 0.8-1.1 1.8-1.1 3.1 0 0.6 0.1 1.2 0.3 1.8 0.2 0.5 0.5 1 0.8 1.4 0.4 0.4 0.8 0.7 1.3 0.9s1.1 0.3 1.7 0.3 1.2-0.1 1.7-0.3 0.9-0.5 1.3-0.9 0.6-0.8 0.8-1.4c0.2-0.5 0.3-1.1 0.3-1.8 0-1.3-0.4-2.3-1.1-3.1-0.8-0.8-1.8-1.2-3-1.2zm18.4 0.1c-1 0-1.8 0.3-2.4 0.9s-0.9 1.5-0.9 2.5v8.4h-4.2v-8.4c0-1.1 0.2-2.1 0.5-3s0.8-1.6 1.5-2.2c0.6-0.6 1.4-1.1 2.3-1.4s1.9-0.5 3.1-0.5c1.1 0 2.1 0.2 3.1 0.5 0.9 0.3 1.7 0.8 2.3 1.4s1.1 1.4 1.5 2.2c0.3 0.9 0.5 1.9 0.5 3v8.4h-4.2v-8.4c0-1.1-0.3-1.9-0.9-2.5-0.4-0.6-1.2-0.9-2.2-0.9zm17.5 5.4c-0.2 0-0.5 0.1-0.7 0.1h-0.6-1.5v6.4h-4.2v-21.8h4.2v11.8h1.1c1.3 0 2.4-0.5 3.2-1.4s1.3-2.2 1.4-3.9h4c0 1.5-0.3 2.8-0.9 4.1-0.6 1.2-1.4 2.2-2.4 3l4.6 8.1h-4.6l-3.6-6.4z" fill="#fff"></path> </svg> 