<svg xmlns="http://www.w3.org/2000/svg" width="240" height="55.47" viewBox="0 0 240 55.47"><defs><style>.a,.b{fill:#fff;}.b{fill-rule:evenodd;}</style></defs><title>Alexandar_cosmetics_logo</title><rect class="a" x="59.25" y="0.26" width="4.76" height="40.65"/><path class="a" d="M89.37,28.36a.15.15,0,0,0,0,.1A19.8,19.8,0,0,1,87,34.69q-1.42,2.22-5.52,2.22a6.86,6.86,0,0,1-5.94-2.77A10.48,10.48,0,0,1,73.48,28v-.2a12.63,12.63,0,0,1,2-7,6.68,6.68,0,0,1,6-3.16,5.9,5.9,0,0,1,2.74.52,5.34,5.34,0,0,1,1.52,1.16l.47.58.37.45L74.66,28.2l2,4.07L93.44,21.81a20.59,20.59,0,0,0-4.82-6.45,10.37,10.37,0,0,0-7.12-2.65,11.19,11.19,0,0,0-1.43.1,13.41,13.41,0,0,0-1.49.29,13.64,13.64,0,0,0-6.72,4.52q-3.09,3.54-3.09,10.19a14.23,14.23,0,0,0,3.65,10.07,11.84,11.84,0,0,0,9.08,3.94A11.17,11.17,0,0,0,89,39.37,13.9,13.9,0,0,0,93,33.94a11.17,11.17,0,0,0,.59-2.06,10.84,10.84,0,0,0,.2-2V28.65l-4.43-.38A.12.12,0,0,1,89.37,28.36Z"/><path class="a" d="M110.53,14.13a10.76,10.76,0,0,0-3,1.91,8.14,8.14,0,0,0-2.21,3.45,9.74,9.74,0,0,0-4-4.87,11.26,11.26,0,0,0-5.49-1.52v4.52l.05.06a8.26,8.26,0,0,1,4.88,2.65,10.4,10.4,0,0,1,2.35,4.45,9.36,9.36,0,0,1,.17,1.06,10,10,0,0,1,.06,1.07,8,8,0,0,1-.06,1,9.51,9.51,0,0,1-.17,1,11,11,0,0,1-2.6,4.87A5.9,5.9,0,0,1,95.85,36l.05,5a10.61,10.61,0,0,0,5.44-1.48,10,10,0,0,0,4-4.85c.19.35.41.74.67,1.17a9.67,9.67,0,0,0,1,1.29,12.44,12.44,0,0,0,3.23,2.64,9.32,9.32,0,0,0,5.12,1.16V36a7.06,7.06,0,0,1-1.51-.23,7,7,0,0,1-2.07-.87,8.92,8.92,0,0,1-2.78-2.77,9.3,9.3,0,0,1-1.26-5.23q0-4.52,2.33-6.71a9.35,9.35,0,0,1,5.29-2.58V13.17a14.43,14.43,0,0,0-2.12.19A11.05,11.05,0,0,0,110.53,14.13Z"/><path class="a" d="M129.53,12.71q-6.27,0-9.5,4.13a15.87,15.87,0,0,0-3.22,10.07q0,6.53,3.36,10.49a10.06,10.06,0,0,0,7.85,4h.73a11.34,11.34,0,0,0,4.06-.58,8.69,8.69,0,0,0,2.61-1.68V32.78c-.34.39-.66.75-1,1.07l-.89.93A9.32,9.32,0,0,1,131.66,36a4.92,4.92,0,0,1-2.13.45h-.45a1.14,1.14,0,0,1-.39-.06,8.55,8.55,0,0,1-5.21-2.49c-1.57-1.48-2.36-3.82-2.36-7a10.42,10.42,0,0,1,1.57-5.52,8.7,8.7,0,0,1,3.09-2.81,5.94,5.94,0,0,1,1.79-.7,7.56,7.56,0,0,1,1.57-.2q4.31,0,6.08,2.23A7.94,7.94,0,0,1,137,24.78V40.91h4.82V24.52a12.1,12.1,0,0,0-3.19-8.13Q135.48,12.72,129.53,12.71Z"/><path class="a" d="M161.31,13.29a9.56,9.56,0,0,0-2.3-.8,10,10,0,0,0-1.9-.23,9.58,9.58,0,0,0-7.93,3.52A12.71,12.71,0,0,0,146.35,24v16.9h4.31V24.07a9.65,9.65,0,0,1,1.79-4.77,5,5,0,0,1,4.26-2.07,4.41,4.41,0,0,1,4.18,2.23,10.2,10.2,0,0,1,1.32,4.87V40.91H167v-18a10,10,0,0,0-1.77-6.32A11.14,11.14,0,0,0,161.31,13.29Z"/><path class="a" d="M190.57,25a20,20,0,0,1-1.63,8.39,5.58,5.58,0,0,1-5.44,3.55,14.41,14.41,0,0,1-1.51-.09,7.38,7.38,0,0,1-1.68-.42A7.61,7.61,0,0,1,177,34c-1-1.2-1.67-3.12-1.93-5.74a.61.61,0,0,0,0-.17.73.73,0,0,1,0-.22.8.8,0,0,0,0-.23.55.55,0,0,1,0-.16A9.79,9.79,0,0,1,177,21a7.62,7.62,0,0,1,4.41-2.84l.47,0a2.74,2.74,0,0,1,.48,0,9.53,9.53,0,0,1,3.11.52,16.36,16.36,0,0,1,2.55,1.1l.59.35.42.29V14.91a8.71,8.71,0,0,0-2.39-1.26,14.89,14.89,0,0,0-4.79-.55,8.45,8.45,0,0,0-1.71.19,9.84,9.84,0,0,0-1.76.59,12.85,12.85,0,0,0-5.3,4.49A14.33,14.33,0,0,0,170.67,27a.61.61,0,0,0,0,.16.75.75,0,0,1,0,.22v.13a.22.22,0,0,1,.06.13v.13c0,.35,0,.7,0,1.07s.05.72.08,1.07a15.78,15.78,0,0,0,3.31,7.95q2.81,3.63,8.91,4h.45a9.37,9.37,0,0,0,6.84-2.52,16.17,16.17,0,0,0,3.81-5.61,20.91,20.91,0,0,0,.92-3.26,14.57,14.57,0,0,0,.31-2.81V.71h-4.87Z"/><path class="a" d="M212.26,12.71q-6.28,0-9.5,4.13a15.88,15.88,0,0,0-3.23,10.07q0,6.53,3.37,10.49a10,10,0,0,0,7.84,4h.73a11.31,11.31,0,0,0,4.06-.58,8.45,8.45,0,0,0,2.61-1.68V32.78c-.33.39-.65.75-.95,1.07s-.6.63-.9.93a9.27,9.27,0,0,1-1.9,1.23,5,5,0,0,1-2.13.45h-.45a1.14,1.14,0,0,1-.39-.06,8.58,8.58,0,0,1-5.22-2.49c-1.57-1.48-2.35-3.82-2.35-7a10.24,10.24,0,0,1,1.57-5.52,8.68,8.68,0,0,1,3.08-2.81,6.1,6.1,0,0,1,1.8-.7,7.48,7.48,0,0,1,1.56-.2q4.32,0,6.08,2.23a8,8,0,0,1,1.83,4.87V40.91h4.82V24.52a12.11,12.11,0,0,0-3.2-8.13Q218.2,12.72,212.26,12.71Z"/><path class="a" d="M238.32,12.26a5.82,5.82,0,0,0-2.92.71,7.9,7.9,0,0,0-2,1.61c-.19.22-.37.43-.54.65l-.42.58V13.1h-4.37V40.91h4.37V28.27c0-.61,0-1.35.06-2.23a15.07,15.07,0,0,1,.39-2.74,10.14,10.14,0,0,1,1.79-3.88,6.14,6.14,0,0,1,4.15-2.25H240v-5Z"/><path class="a" d="M69.32,48.89a4.29,4.29,0,0,1,1.66.3l.4-1.47a6.05,6.05,0,0,0-2.13-.36c-3.07,0-4.86,1.81-4.86,4.14s1.77,4,4.5,4a7.07,7.07,0,0,0,2.47-.41l-.3-1.45a4.78,4.78,0,0,1-1.74.3,2.51,2.51,0,1,1,0-5Z"/><path class="a" d="M88,47.36c-2.63,0-4.51,1.56-4.51,4.11s1.89,4,4.37,4c2.22,0,4.48-1.27,4.48-4.13C92.37,49,90.63,47.36,88,47.36ZM88,54.05c-1.34,0-2.17-1.13-2.17-2.63,0-1.29.63-2.63,2.19-2.63s2.11,1.39,2.11,2.6C90.09,53,89.22,54.05,88,54.05Z"/><path class="a" d="M108.8,50.66c-1.11-.35-1.52-.59-1.52-1.09s.43-.81,1.22-.81a4.27,4.27,0,0,1,1.84.44l.43-1.38a5.62,5.62,0,0,0-2.31-.46c-2,0-3.3,1.06-3.3,2.43,0,.91.7,1.74,2.4,2.27,1.08.33,1.44.61,1.44,1.13s-.43.86-1.4.86a5.24,5.24,0,0,1-2.24-.56l-.43,1.42a6.14,6.14,0,0,0,2.65.56c2.31,0,3.55-1,3.55-2.44C111.11,51.88,110.38,51.17,108.8,50.66Z"/><path class="a" d="M133.45,47.36a3.14,3.14,0,0,0-1.76.46,3.07,3.07,0,0,0-1.07,1h0a2.53,2.53,0,0,0-2.42-1.43,3.09,3.09,0,0,0-2.69,1.32h0l-.09-1.15h-1.9c0,.67.07,1.42.07,2.31V55.3h2.15V50.7a1.48,1.48,0,0,1,.13-.63A1.67,1.67,0,0,1,127.35,49c1,0,1.51.77,1.51,1.85v4.5H131V50.64a2.27,2.27,0,0,1,.11-.65,1.66,1.66,0,0,1,1.54-1c1.06,0,1.56.77,1.56,2.06V55.3h2.15V50.72C136.37,48.23,134.9,47.36,133.45,47.36Z"/><path class="a" d="M153,47.36a4,4,0,0,0-4.27,4.17c0,2.38,1.67,3.94,4.5,3.94a9.11,9.11,0,0,0,3.05-.49l-.32-1.36a7.16,7.16,0,0,1-2.42.35c-1.4,0-2.64-.6-2.69-2h5.84a4,4,0,0,0,.07-.83A3.51,3.51,0,0,0,153,47.36Zm1.69,3.23h-3.84a2,2,0,0,1,2-1.9A1.75,1.75,0,0,1,154.66,50.59Z"/><path class="a" d="M172.74,45.54l-2.15.55v1.44h-1.26V49h1.26v3.65a2.86,2.86,0,0,0,.68,2.17,2.72,2.72,0,0,0,1.9.65,5.34,5.34,0,0,0,1.59-.2l0-1.5a3.22,3.22,0,0,1-.86.09c-.85,0-1.13-.49-1.13-1.43V49h2.09V47.53h-2.09Z"/><rect class="a" x="187.06" y="47.53" width="2.22" height="7.77"/><path class="a" d="M188.17,44.29a1.13,1.13,0,0,0-1.24,1.07,1.1,1.1,0,0,0,1.22,1,1.12,1.12,0,0,0,1.26-1A1.13,1.13,0,0,0,188.17,44.29Z"/><path class="a" d="M207.15,48.89a4.39,4.39,0,0,1,1.67.3l.4-1.47a6.11,6.11,0,0,0-2.14-.36c-3.06,0-4.86,1.81-4.86,4.14s1.78,4,4.5,4a7.09,7.09,0,0,0,2.48-.41l-.31-1.45a4.78,4.78,0,0,1-1.74.3,2.51,2.51,0,1,1,0-5Z"/><path class="a" d="M225.29,50.66c-1.11-.35-1.52-.59-1.52-1.09s.43-.81,1.22-.81a4.27,4.27,0,0,1,1.84.44l.43-1.38a5.62,5.62,0,0,0-2.31-.46c-2,0-3.3,1.06-3.3,2.43,0,.91.7,1.74,2.4,2.27,1.08.33,1.44.61,1.44,1.13s-.43.86-1.4.86a5.24,5.24,0,0,1-2.24-.56l-.43,1.42a6.17,6.17,0,0,0,2.65.56c2.31,0,3.55-1,3.55-2.44C227.6,51.88,226.87,51.17,225.29,50.66Z"/><path class="b" d="M27.65,0A27.66,27.66,0,1,0,55.31,27.65,27.65,27.65,0,0,0,27.65,0ZM3.39,27.65A24.27,24.27,0,1,1,47.66,41.4a11.93,11.93,0,0,1-4.21-4.71c-1.64-3.07-1.88-6.09-2.5-9.42-.2-1.09-.49-2.42-.73-3.64-1.2-6-1.65-7.85-3-10.95a10.88,10.88,0,0,0-4.26-4.57,9.28,9.28,0,0,0-6-1.39,9.11,9.11,0,0,0-5,2.07,10.31,10.31,0,0,1,2.81-.6,13.42,13.42,0,0,1,3.88.3C34.43,10,35.93,15.93,37,22.56c.28,1.66.45,3.1.74,4.77a39.76,39.76,0,0,0,1.87,7.27,12.51,12.51,0,0,0,3,4.57,8.4,8.4,0,0,0,4.64,2.72,24.91,24.91,0,0,1-2,2.44C38.7,40.89,37.42,38,35.81,30.27,35,26.16,35,20.72,33.61,17c-1.06-2.76-2.38-4.82-5.07-6a10.28,10.28,0,0,0-3.66-.63,8.63,8.63,0,0,0-5.27,2.2A11.86,11.86,0,0,0,17,17.07a28.32,28.32,0,0,1,2.4-3,7,7,0,0,1,3.68-1.42,7.43,7.43,0,0,1,5.76,1.82,9.81,9.81,0,0,1,2.63,4.85c.53,2.11.38,4.57.55,7A53.41,53.41,0,0,0,33,32.82c1,5.42,3.54,8.57,8.21,10.84a17.38,17.38,0,0,0,3.5,1.27A24.27,24.27,0,0,1,3.39,27.65Z"/><path class="b" d="M24.61,30.6a4.15,4.15,0,0,0-3.78,3.08,4.78,4.78,0,0,0,.76,3.45c.15.16.38.48.57.39a2.41,2.41,0,0,1,.19-1.72,1.72,1.72,0,0,1,1.73-.5c1.36.44,1.14,2.46.56,3.41a2.36,2.36,0,0,1-1,.9c-1.41.73-3.25,0-4.31-.76a7.11,7.11,0,0,1-3.14-5.53,8.48,8.48,0,0,1,.69-3.65,5.82,5.82,0,0,1,4.84-3.84,6.91,6.91,0,0,1,5.77,2l.12.12-.12-.12c-.1-.09.11.14.25.26s.07.11.1,0A3,3,0,0,0,27.62,27c-.83-2.38-3.07-3.85-6.29-3.68a10.37,10.37,0,0,0-6.49,2.79A11,11,0,0,0,11.56,32a12.11,12.11,0,0,0,.89,7.68,10.07,10.07,0,0,0,7.62,6.13A9.45,9.45,0,0,0,29.71,42c1-1.61,1.95-4.94,1.15-7.35A5.94,5.94,0,0,0,24.61,30.6Z"/></svg>