<svg xmlns="http://www.w3.org/2000/svg" width="180" height="24.08" viewBox="0 0 180 24.08"><defs><style>.a{fill:#fff;}</style></defs><title>CK Logo</title><path class="a" d="M2.79,12.07c0,5.46,3.91,9.49,9,9.49a8.62,8.62,0,0,0,7.88-4.4h2.7a10.89,10.89,0,0,1-10.58,6.92A11.62,11.62,0,0,1,0,12,11.71,11.71,0,0,1,11.82,0c6.67,0,9.9,4.59,10.61,7H19.67a8.74,8.74,0,0,0-7.85-4.44C6.7,2.51,2.79,6.58,2.79,12.07Z"/><path class="a" d="M36.61,16.63H26.83l-2.66,7H21.5L30.4.4H33l9,23.27H39.28Zm-.93-2.39L31.74,3.82l-4,10.42Z"/><path class="a" d="M55.1,23.67H43.46V.4h2.73V21.19H55.1Z"/><path class="a" d="M62.63,23.67H60.09L51.43.4h2.89l7.1,19.52L68.53.4h2.73Z"/><path class="a" d="M75.66,23.67H73V.4h2.7Z"/><path class="a" d="M82.11,4.9V23.67H79.57V.4h2.54l13,18.84V.4h2.55V23.67H95.27Z"/><path class="a" d="M113.6,13l-3,3.32v7.35h-2.7V.4h2.7V12.81L121.55.4h3.22l-9.33,10.52,9.33,12.75h-3.1Z"/><path class="a" d="M138,23.67H126.33V.4h2.73V21.19H138Z"/><path class="a" d="M139.67.4h12.38V2.89h-9.68v7.72h9.43v2.48h-9.43v8.1h9.68v2.48H139.67Z"/><path class="a" d="M158.1,23.67h-2.7V.4h2.7Z"/><path class="a" d="M164.49,4.9V23.67h-2.55V.4h2.55l13,18.84V.4H180V23.67h-2.36Z"/></svg>