<?xml version="1.0" encoding="UTF-8"?> <svg xmlns="http://www.w3.org/2000/svg" id="Layer_1" data-name="Layer 1" viewBox="0 0 400.2 236.41"><defs><style>.cls-1{fill:#fff;}</style></defs><title>Chipsy-logo</title><path class="cls-1" d="M35.15,106.11c.07-.28.18-.57.26-.85l-1.92.27Z"></path><path class="cls-1" d="M316.7,152.35l-3.14.45,9.57,7.9-20.35-1.35a30.21,30.21,0,0,1-2.73,2.17l30.18,2Z"></path><path class="cls-1" d="M115.15,217.55l46.77-30.64,13.67,30.73,26.29-32.12,31.64,24.28,7.53-33.5,52.46,21.76-14.27-29.77-.78.06c-.6,0-1.19,0-1.79,0l12.08,25.17-49.37-20.48L232,205.7,201.5,182.28l-25.31,30.93-13.25-29.77-43.88,28.75,9.2-33.48-10.09,1.42-13.31,4.57A38.53,38.53,0,0,1,99.45,189l26-8.92Z"></path><polygon class="cls-1" points="345.5 99.78 357.16 94.83 347.07 93.89 346.46 96.19 347.69 96.3 346.26 96.9 345.5 99.78"></polygon><path class="cls-1" d="M228.85,48.72,215.15,18,188.88,50.11,157.26,25.83l-7.54,33.63L103.64,44.52l12.12,31.2L60.54,72.13l8.93,7.38c.63-.06,1.25-.1,1.83-.13s1.11,0,1.68,0L67.63,75l51.65,3.36-11.66-30,43.82,14.21,7.3-32.56,30.52,23.42,25.3-30.9,13.26,29.71,40-25.43L262.09,59.1l49.61-17-11.26,14.7,3.31-.46,14.54-19-53.2,18.26L271,21.89Z"></path><polygon class="cls-1" points="38.12 141.86 37.81 142.01 38.15 142.03 38.12 141.86"></polygon><path class="cls-1" d="M78.54,195.77c-.75,0-1.42,0-2.14,0s-1.31-.05-2-.08l-2,2.57,7.9-2.72c-.61.06-1.23.15-1.82.19"></path><polygon class="cls-1" points="305.34 114.27 308.01 115.33 307.71 113.26 305.34 114.27"></polygon><path class="cls-1" d="M310,149.84l3.28,2.7-.49-3.44-1.86-1.54c-.28.77-.58,1.54-.93,2.28"></path><path class="cls-1" d="M320.74,58.85l-2.85.36,2.1,4.31h.09Z"></path><path class="cls-1" d="M43,174.83l-7.67.83L42,170.41l-.67-5L20.51,181.86,45,179.16a24,24,0,0,1-2-4.33"></path><path class="cls-1" d="M329.23,150.57l-5.87.84L343,167.6l-48-3.15a39.39,39.39,0,0,1-10.21,3.15l17.61,37.23-56.67-23.1L237.39,219l-34.95-26.88-29,35.46-15.12-34L107.7,226.59l11-40.79L60.84,205.66l8.07-10.55A40.52,40.52,0,0,1,64.38,194c-7.95,10.4-15.77,20.6-15.77,20.6l63.86-22c-2.79,10.45-11.71,43.81-11.71,43.81l55.81-36.47c3,6.74,15.84,35.68,15.84,35.68l30.66-37.48c5.07,3.85,37,28.32,37,28.32s7-31.26,8.64-38.72c7.44,3.07,62.3,25.38,62.3,25.38l-21-44.49c11.26.73,66.47,4.37,66.47,4.37l-27.19-22.43"></path><polygon class="cls-1" points="346.63 128.22 346.95 130.5 350.75 129.87 346.63 128.22"></polygon><path class="cls-1" d="M345.9,123l19.85,7.84-18.33,3,.63,4.47,34.47-5.62-37.33-14.75Z"></path><path class="cls-1" d="M38.7,146.14l-20-1,18.69-8.78-.63-4.62L.49,148.84l38.82,1.85Z"></path><path class="cls-1" d="M34.45,110l-15.64-5.49L36.62,102a33.45,33.45,0,0,1,2.69-5L0,102.63l34.48,12.12a20.92,20.92,0,0,1,0-4.75"></path><path class="cls-1" d="M356.39,58.94l8.48-1.07-10,6.68L353.18,71,383,51l-25.34,3.2Z"></path><path class="cls-1" d="M349.21,85.89,348,90.31,379.49,93l-35.63,13-.24.89.53,3.76L400.2,90.19l-51-4.3"></path><path class="cls-1" d="M58.06,82.2a41.65,41.65,0,0,1,5-1.58L47.72,68l60,4L94.43,37.51,145,53.88l8.35-37.23,34.94,26.88,29-35.5L232.36,42.1l46.21-29.42L272,49.8,329.86,30,310.37,55.38l5.3-.74.25.53C325.34,42.93,342.09,21,342.09,21L277.41,43.23c1.71-9.52,6.92-39.48,6.92-39.48s-43.66,27.79-50.16,32C231.22,29.05,218.26,0,218.26,0l-4.1,5S191.75,32.47,187.6,37.51c-5-3.9-36.88-28.35-36.88-28.35s-7.18,31.92-8.77,39c-7-2.27-54.77-17.74-54.77-17.74S98,58.31,101.34,67c-10.53-.75-67.05-4.41-67.05-4.41L58.06,82.2"></path><polygon class="cls-1" points="169.54 111.82 178.01 171.81 199.22 168.81 190.74 108.81 169.54 111.82"></polygon><polygon class="cls-1" points="189.81 102.11 187.74 87.46 166.54 90.49 168.59 105.08 189.81 102.11"></polygon><path class="cls-1" d="M242,89.68c-1.44-10.24-12.11-15.48-22.38-14.05l-28.42,4L202.77,161,224.25,158l-4-28.23,6.93-1c10.26-1.45,19.07-9.36,17.61-19.68Zm-21,23.1-3.1.42-2.85-20.1,3.09-.45c2.32-.32,3.82.4,4.17,2.77l1.91,13.6c.35,2.31-.92,3.47-3.22,3.76"></path><polygon class="cls-1" points="349.18 57.35 328 60.3 324 88.58 311.38 62.69 289.25 65.8 314.6 109.41 319.56 144.47 341.08 141.43 336.11 106.39 349.18 57.35"></polygon><path class="cls-1" d="M284.83,111.35c-12.3-4.71-15.3-5.6-16.43-13.72-.44-3.21,2.24-5.21,5-5.62a4.8,4.8,0,0,1,5.78,4l.92,6.69L299,100l-1.15-8.25C296.23,80.7,285.15,73,271,75.07c-17.39,2.44-24.78,14.42-23.19,25.54,1.3,9.24,6.88,17.79,17.92,22.81,12.3,5.59,17.66,7.41,18.58,14.14.5,3.43-1.14,5.56-5.21,6.12s-6.82-1.3-7.29-4.46l-1-7-18.78,2.64,1.27,9.26c1.81,12.6,12.77,18.71,29.17,16.43s24.09-14.32,22.52-25.47c-1.42-10.07-8.86-19.39-20.19-23.71"></path><polygon class="cls-1" points="138.99 86.77 143.63 119.73 130.94 121.5 126.29 88.55 104.75 91.58 116.24 172.92 137.79 169.9 133.57 140.13 146.29 138.31 150.48 168.12 171.97 165.04 160.49 83.72 138.99 86.77"></polygon><path class="cls-1" d="M105.2,146.73l-21.44,3.15,1.64,11.94c.4,3.12-2.2,5.92-6.05,6.46a7.2,7.2,0,0,1-.88.13c-3.45.15-6.13-1.76-6.56-4.58l-6.78-50.61c-.44-3.14,2-5.88,5.89-6.46.28,0,.59-.06.88-.06,3.52-.22,6.29,1.72,6.68,4.57l1.56,11.93L101.62,120l-2-14.75C98.41,96.17,87,87,72,87.73c-1.12,0-2.31.2-3.46.36C51,90.71,41.46,105,42.59,113.76l7.61,56.18c1.18,8.84,13,18.15,28.18,17.39,1.15-.05,2.3-.19,3.45-.32,17.52-2.6,26.55-16.63,25.37-25.61Z"></path><path class="cls-1" d="M346.6,42.37A4.48,4.48,0,0,1,343.37,41a4.45,4.45,0,0,1-.95-1.45,4.39,4.39,0,0,1-.36-1.78,4.47,4.47,0,0,1,.36-1.79,4.39,4.39,0,0,1,2.4-2.41,4.54,4.54,0,0,1,5,1,4.8,4.8,0,0,1,1,1.44,4.64,4.64,0,0,1,.35,1.79,4.56,4.56,0,0,1-.35,1.78,4.85,4.85,0,0,1-1,1.45,4.65,4.65,0,0,1-1.44,1,4.56,4.56,0,0,1-1.78.35m0-.87a3.62,3.62,0,0,0,1.43-.29,3.35,3.35,0,0,0,1.12-.77,3.6,3.6,0,0,0,.75-1.18,4,4,0,0,0,0-2.88,3.46,3.46,0,0,0-.75-1.17,3.23,3.23,0,0,0-1.12-.78,3.42,3.42,0,0,0-1.41-.29,3.36,3.36,0,0,0-1.43.29,3.22,3.22,0,0,0-1.14.78,3.46,3.46,0,0,0-.75,1.17,4,4,0,0,0,0,2.88,3.75,3.75,0,0,0,.74,1.18,3.39,3.39,0,0,0,1.13.77,3.55,3.55,0,0,0,1.43.29m-1.58-6h1.78a1.8,1.8,0,0,1,.73.13,1.58,1.58,0,0,1,.51.31,1.06,1.06,0,0,1,.29.45,1.09,1.09,0,0,1,.1.46,1.53,1.53,0,0,1-.23.82,1.41,1.41,0,0,1-.67.54l1.12,1.9h-1l-1-1.78h-.73v1.78H345Zm1.73,2.13a.8.8,0,0,0,.59-.19.72.72,0,0,0,.19-.53.58.58,0,0,0-.2-.5.91.91,0,0,0-.63-.18h-.8v1.4Z"></path></svg> 