<?xml version="1.0" encoding="UTF-8"?> <svg xmlns="http://www.w3.org/2000/svg" width="195.37" height="206.21" viewBox="0 0 195.37 206.21"><defs><style>.a{fill:#231f20;}.b{fill:#fff;}</style></defs><title>Cockta</title><path class="a" d="M28.61,29.64C10.93,54.34,0,84.93,0,112.08s10.93,55.07,28.61,75.43C46.3,208.11,70.69,212,97.68,197.64s51.4-32.28,69.08-47c17.69-15,28.61-35.77,28.61-62.51s-10.92-44.87-28.61-55.49C149.08,22.26,124.67,10.31,97.68,2.57S46.3,4.71,28.61,29.64"></path><path class="b" d="M61.84,137.05l.36-.2.77-.2.66,0,.23.06h.33l.62.35.28.17.44.51c.13.22.26.44.38.66l.5,1.43.12.42c0,.28.06.56.1.84s0,.57,0,.85l0,.88c0,.15,0,.29,0,.44s0,.18,0,.26c0,.24.07.47.1.71s-.07.49-.1.74c0,.58-.1,1.16-.14,1.74l-.27,1.85-.18.92-.21.9c0,.16,0,.31,0,.47s-.15.58-.23.86-.14.57-.22.86,0,.34-.08.51a.83.83,0,0,0,0,.15l.21.15.09,0,0,0,.36-.17.7-.61.18-.11.21-.24v-.06l.12,0a.09.09,0,0,1,0-.05l.09,0,.52-.75.43-.81.3-.72.09-.24.15-.2.22-.14.28-.06.13.1.12,0,.07,0a1.22,1.22,0,0,1,.07.17l.07,0c0,.14,0,.28.07.41-.08.3-.17.6-.25.9l-.41.83c-.11.19-.21.39-.32.59l-.07,0c-.07.15-.15.29-.23.44l-.21.29-.59.67-.67.64-.63.55-.56.4-.75.28-.41.19-.31.21-.25.39c0,.15-.09.31-.14.46l-.21.44-.33.9-.39.75s0,.07,0,.1l-.51,1-.13.09a.22.22,0,0,0,0,.08l-.15.16-.29.47-.15.16-.15.32-.15.13c-.12.21-.23.42-.34.64l-.24.23-.29.39-.21.22-.06.11-.5.47-.72.61-.59.44-.8.4-.72.34-.19.07,0-.06-.37.16H56l-.63-.11h-.07l-.19-.16L55,165l-.3-.17-.4-.33s0-.09,0-.14l0,0-.44-.54c-.09-.2-.19-.39-.28-.58s-.11-.26-.16-.39l0,0c0-.25-.09-.51-.13-.76s-.1-.54-.14-.82l-.24-1c0-.27,0-.54,0-.82v-.89c0-.29,0-.58.07-.87s0-.56.07-.84l0-1c0-.16,0-.32.07-.48l.18-.66c0-.25,0-.5,0-.75l.06-.09c0-.12,0-.24,0-.35s.09-.33.14-.49l0-.33c.09-.3.17-.61.26-.91l.18-.9c.12-.31.24-.63.35-.94,0,0,0-.07,0-.1l.07,0c0-.15,0-.31,0-.46l.06-.09c0-.14,0-.29.08-.43s.23-.59.35-.88a.34.34,0,0,1,0-.1l.06,0a.57.57,0,0,0,0-.13l0,0s0-.07,0-.11l0,0c0-.05,0-.09,0-.13l0,0s0-.07,0-.1l.06,0a2,2,0,0,0,.05-.24c0-.1.1-.21.16-.31s0-.13,0-.2l.12-.18c0-.07,0-.15.05-.22l.43-.86c0-.07,0-.15,0-.22l.27-.39c.13-.27.27-.54.4-.82L57,143l.38-.61.13-.1v-.05l.09-.05v-.07l.11-.06v0l.09-.05s0,0,0-.05l.12-.06a.11.11,0,0,1,0-.05l.09-.05v-.08l.13-.09.21-.33.15-.13.09-.21.18-.15.45-.86c.16-.26.31-.53.46-.79l.62-.67.3-.32.1-.18.66-.5.49-.35Zm-7.25,17.77a.49.49,0,0,1,0-.11c0-.08-.05-.16-.08-.23l-.11.05,0,.21.13.07Zm.16,7.78.21,0c0-.05,0-.09,0-.14h-.07l-.11.11S54.76,162.58,54.75,162.6Zm.1-10.76.13-.07c0-.05,0-.1,0-.16l-.14.08C54.84,151.74,54.84,151.79,54.85,151.84Zm.72-1.23c0-.07,0-.14,0-.2l-.16-.09c0,.07,0,.14,0,.21l.17.07Zm1.61-3c-.07.29-.14.59-.22.88s-.22.59-.32.89-.09.41-.13.62-.1.59-.16.89l-.15.58a1.34,1.34,0,0,0-.07.18c0,.28-.09.56-.12.84s-.09.54-.13.81l-.06.31-.09.88c0,.32-.1.63-.16.94s-.07.62-.11.92v.87c0,.15,0,.3,0,.45l0,0c0,.26,0,.53,0,.8s0,.31,0,.46.11.54.17.81l.12.88.06.33.39.71.25.24.4.24.29,0,.1.08.12-.06.12,0,.73-.28.44-.2.44-.55.09-.05.38-.44.15-.32.07,0,.48-.82.65-1.24.18-.48.15-.24c0-.06,0-.12,0-.18l.15-.2,0-.16,0,0,0-.21.18-.31a.22.22,0,0,1,0-.08l.15-.38c0-.07,0-.14,0-.2s-.11-.25-.16-.37l-.85-.58a.56.56,0,0,1,0-.12h-.12l-.09-.15,0,0-.52-.43-.47-.52c0-.11-.07-.22-.11-.34l-.15-.08c-.11-.21-.21-.42-.31-.63s-.21-.45-.32-.67l-.13-.36-.21-.78-.18-.71-.17-.87-.09-.84v-.59l-.09-.39-.09-.13-.17,0-.09.05A3.59,3.59,0,0,0,57.18,147.65Zm.18-2.83.07,0a1.66,1.66,0,0,0,.13-.14l0-.18-.09.07-.12.2Zm.53-.62-.09-.15-.09,0s0,.07,0,.11l.12,0Zm.3.4.08-.18-.09-.15-.14,0,0,.12.14.18Zm-.08,1.13.09-.08a1.21,1.21,0,0,1,0-.14l.17,0a1.09,1.09,0,0,1,.08-.15l-.1,0-.23-.11-.11.06,0,.1.06.27Zm.26-1.52h.12l0-.15H58.4s0,.06,0,.09S58.37,144.18,58.37,144.21Zm.13,1.57.15-.08,0-.1-.14.05S58.49,145.74,58.5,145.78Zm.23-1.7.15,0,.07,0,0-.18-.08,0-.11.06-.06.08Zm.3.24.09,0c0-.07,0-.14,0-.21l0-.1-.1,0c0,.1,0,.19,0,.29A.11.11,0,0,0,59,144.32Zm.33-1.89a1,1,0,0,1,0-.1,1,1,0,0,0,0-.1l-.07,0a.5.5,0,0,1,0,.13l.07.11Zm3.48,9.83a2.6,2.6,0,0,1,.1-.25s0-.07,0-.1l.21-.68.12-.43.09-.9a1.94,1.94,0,0,0,0-.24l.07-.08c0-.31.08-.62.13-.93,0-.14,0-.29,0-.44s0-.17.08-.26l.06-.81,0-.07c0-.3.07-.59.11-.89v-.11l0-.07v-.84c0-.29,0-.59.07-.89s0-.57,0-.86,0-.61-.05-.92-.08-.54-.11-.81l0-.24a.09.09,0,0,1-.06,0c0-.14,0-.29-.07-.43l-.16-.2-.07-.16-.15-.1a.77.77,0,0,1-.07-.16l-.45-.2-.19.07-.14,0-.76.31-.24.21-.53.76c-.09.15-.18.29-.26.44l-.15.4-.06.09a.41.41,0,0,0,0,.11l-.05,0s0,.08,0,.13l-.09.1c-.06.25-.13.51-.2.76s-.09.55-.14.83-.07.51-.11.77,0,.59,0,.89v.25a.25.25,0,0,1,0,.07c0,.23,0,.46.08.69l0,.15c0,.28.05.56.07.83l.18.74c0,.28.06.57.1.85a1.36,1.36,0,0,0,0,.17l.07,0a1.1,1.1,0,0,0,0,.18l0,0c.08.26.17.51.25.76l.3.75a1.51,1.51,0,0,1,.09.18l.11.08c0,.05,0,.09,0,.13l.05,0s0,.07,0,.11l0,0s0,.08,0,.13l.37.26.09.18.15.07.25.34.39,0c.09-.19.19-.39.29-.58ZM60.65,140l.09,0a2,2,0,0,1,.07-.23l0-.07-.1,0a.41.41,0,0,1,0,.11,1,1,0,0,1,0,.16A.07.07,0,0,0,60.65,140Zm.85-.67.08,0,.08-.07a.42.42,0,0,0,0-.1l-.07,0-.11.11S61.51,139.34,61.5,139.36Zm.62,17.53a.41.41,0,0,1,0,.11l.08,0,.09,0,0-.21,0,0-.11.08Zm.43-.71c0-.06,0-.13.07-.2l0-.24-.09,0-.09.32.09.1Zm.3-1.54-.08,0-.16.05-.15.16c0,.08,0,.16,0,.24l.14,0,.24-.06.06-.33A.13.13,0,0,1,62.85,154.64Zm-.25-16.12.1-.05s0-.08,0-.13l-.09,0C62.59,138.43,62.6,138.47,62.6,138.52Zm.16.53c.08,0,.16-.1.25-.14v-.17l-.24.2s0,0,0,.06Zm.19,16.1.21-.05a.34.34,0,0,0,0-.1l-.07,0-.11.1A.14.14,0,0,1,63,155.15Zm.08-1.23h.17l.15-.16h-.24l-.06.08A.64.64,0,0,0,63,153.92Zm.6.46-.06-.14-.13-.05v-.08l-.13.06a1.49,1.49,0,0,0,0,.21.76.76,0,0,0,.11.14h.12Zm-.17-15.52h.07l.22-.16-.09-.15-.12,0-.06.06,0,.18A.22.22,0,0,0,63.46,138.86Zm.11,16.88.11-.05.07-.09c0-.11,0-.22,0-.33l-.16.08c0,.1,0,.21,0,.31A.25.25,0,0,1,63.57,155.74Zm.29-2.28-.08-.13-.14,0s0,.09,0,.13l.13.05Zm.18-2.23.17,0,.29-.2s0-.11,0-.17l-.17,0-.15.13-.09.24Zm.25-11.53-.05,0-.16.08s0,0,0,.06a.41.41,0,0,1,.05.09l.18-.09A.45.45,0,0,0,64.29,139.7Zm-.18,12.56.15.09.12,0a.43.43,0,0,1,0-.07l-.11-.17h-.1l-.08.1A.64.64,0,0,0,64.11,152.26Zm.22-13.32,0-.13,0-.2-.19,0,.06.33.1,0Zm-.1,10.12.11-.08c0-.08,0-.15,0-.22l-.14,0c0,.09,0,.18,0,.27Zm.36,4.24-.09-.17-.2,0,0,.23.13.11.14-.1Zm.58-5.39-.25.12-.17,0c0,.1,0,.21-.08.32l0,.06.38-.26c.1-.11.2-.22.29-.34l.06-.16-.08,0-.06-.11-.11,0c0,.07,0,.13.07.19a.3.3,0,0,1,0,.1Zm-.43,3.74.11-.06.07-.22h-.1l-.09.07a1.21,1.21,0,0,1,0,.14Zm.09-4.89,0,.1.32,0a.09.09,0,0,0,0-.05c0-.07.09-.13.12-.19a.49.49,0,0,0,0-.12l-.07,0-.25.09-.11.14Zm.08-7.13,0,0-.1-.06Zm.1-.38.09,0c0-.06,0-.12,0-.19l-.09,0A1.1,1.1,0,0,0,65,139.25Zm.15,3.68h.19l.09-.1v-.09l-.1-.06-.19.2Z"></path><path class="b" d="M76.33,149.8c.12-.29.24-.57.35-.85l.15-.45.21-.43,0-.17.1-.16a1,1,0,0,1,0-.17l.16-.4.23-.74s0-.07,0-.11l.33-.86.21-.26.37-.1h.19l.39.28c0,.14,0,.27,0,.4l-.09.49-.21.53a.41.41,0,0,1,0,.11l-.06.08a.76.76,0,0,1,0,.15l0,0s0,.08,0,.13l0,0s0,.07,0,.1l-.07,0v.2c-.14.29-.28.58-.43.87l0,.11,0,.21c-.1.29-.2.59-.31.88l-.33.84-.21.45s0,.07,0,.1-.09.19-.14.28l0,0c-.06.15-.13.31-.19.47l-.46.75-.49.74-.63.75-.28.29-.73.32-.69.41-.71,0-.18,0-.13-.14-.37-.11a.83.83,0,0,1,0-.15l-.08,0c-.1-.25-.21-.5-.32-.75s-.09-.23-.13-.35c0-.28-.07-.57-.1-.85l.09-.85c0-.3,0-.61,0-.91s.07-.6.09-.9.07-.46.1-.68a1.51,1.51,0,0,1,.11-.22c.06-.31.11-.62.16-.93s.12-.6.19-.9.09-.31.13-.47,0-.31,0-.47a.25.25,0,0,1,0-.07l0-.37,0-.47c0-.1-.11-.21-.16-.32l-.24-.22-.62-.25-.18.11-.13.14-.21.46,0,.35a1.62,1.62,0,0,0-.1.18c0,.14,0,.27,0,.41l-.24.86c-.08.31-.17.62-.25.92l-.06.36-.12.22c0,.05,0,.09,0,.14h0c0,.17-.09.34-.13.51l-.12.22c0,.07,0,.15,0,.22l-.12.14-.39.15-.26,0-.4-.35c0-.07,0-.14,0-.21.07-.31.15-.63.22-.94s.11-.36.16-.54.09-.29.14-.43l0-.21.09-.21a.66.66,0,0,1,0-.14l0,0,.09-.46a.54.54,0,0,0,0-.11,1,1,0,0,0,0-.17c.08-.31.17-.62.25-.92l.21-.9c0-.16,0-.31-.05-.46s-.09-.23-.13-.35l-.13-.11a1.46,1.46,0,0,1-.07-.19l-.19-.16c0-.27-.09-.53-.14-.8s0-.33,0-.5,0-.29.05-.44l.12-.44.4-.85.22-.41.15-.18.13-.31.24-.22.4-.24.38,0,.15.07,0,.07.34.07.31.17.11.12v.41c-.06.3-.11.59-.17.89s-.15.58-.23.88c0,.1,0,.2.08.3l.19.19.09,0,.14.11.39.08.61.37.3.06.06.11.16,0,.53.44.28.21c.09.09.17.19.25.28.09.25.17.5.25.75s0,.21,0,.31l0,.06,0,.44c0,.19,0,.38,0,.58l-.07.08c0,.15,0,.31,0,.47l-.09.23a1.21,1.21,0,0,1,0,.19c-.06.3-.14.59-.21.88l-.09.46s0,.07,0,.1l0,0c0,.05,0,.11,0,.17l-.09.21,0,.2-.09.27v.58l-.05,0c0,.16,0,.31,0,.47s-.11.6-.16.9v.42l.06.53.25.33.17,0,.21,0,.11-.07.48-.6.44-.8c0-.16.11-.31.16-.47l.12-.19c0-.12.09-.25.13-.38A.05.05,0,0,1,76.33,149.8ZM73,148.67l.06-.33H73l-.11.3.08.07ZM74.06,146s0-.07,0-.11l-.08-.05-.14.06a.59.59,0,0,1,0,.13l.05.06.12,0Z"></path><path class="b" d="M82.08,137.12c0,.23,0,.46-.07.69l-.07.06c0,.29-.11.58-.16.87l-.12.83-.1.18V140c0,.06,0,.11-.07.17,0,.21,0,.41-.07.62l-.07,0c0,.15,0,.3-.07.45l-.06.11c-.06.28-.11.56-.17.84,0,.12,0,.23,0,.34l-.06.06-.09.68-.21.5c0,.05,0,.09,0,.14l0,0s0,.09,0,.13l0,0c0,.14,0,.27,0,.41s0,.56-.08.84l-.06.08c0,.3-.09.61-.13.92s-.07.36-.11.54l-.1.18a1.23,1.23,0,0,1,0,.19.53.53,0,0,1-.06.1l0,.52,0,0c0,.27-.06.55-.1.82s0,.33,0,.49,0,.28,0,.42l.27.25.31.07.61-.36c.17-.22.33-.44.5-.65s.15-.31.23-.46l.21-.25.24-.44a2.17,2.17,0,0,1,.07-.24l.21-.4c.11-.28.21-.57.31-.85l.39-.77,0-.2.12-.17,0-.2.1-.15c0-.07,0-.14,0-.21.1-.22.21-.45.31-.68s0-.29,0-.43l.16-.31s0-.08,0-.12.14-.26.22-.39l.4-.22.32.12.24.16.13.17,0,.49c-.09.3-.18.6-.26.9,0,.11-.07.22-.11.32v.17l-.09.23-.09.1s0,.08,0,.13l-.18.32s0,.07,0,.1l-.07,0a1.49,1.49,0,0,0,0,.21l-.09.09a1.6,1.6,0,0,1-.05.21l-.2.28c0,.09,0,.18-.05.26l-.1.11V147c-.05.13-.1.26-.14.39l-.07,0c0,.15-.11.29-.16.43l-.46.83-.41.83s0,0,0,.06l-.16.12-.13.3-.07,0-.55.81-.24.38-.14.08a.43.43,0,0,0,0,.05l-.09,0-.66.55-.3.24-.73.3-.43.24,0-.06-.23.09-.41,0-.19,0-.22-.27-.18-.11c0-.12,0-.23-.07-.34l-.46-.55-.09-.16-.12-.81c0-.29,0-.58,0-.87s0-.52.08-.78a2.53,2.53,0,0,0,0-.28l.07,0v-.44c0-.29.09-.58.14-.87s.09-.6.14-.89l.09-.19c.06-.25.11-.5.16-.76s0-.29,0-.43a2,2,0,0,0,.07-.23c0-.11,0-.22,0-.34l.11-.15v-.39l0-.07s0-.09,0-.13l.1-.18v-.2c.06-.17.11-.34.16-.52l.12-.82.06-.34,0,0,.18-.93.21-.9.25-.88c0-.19.07-.38.11-.57l.24-.41.21-.23,1.59-.66.24,0,.17,0,.21.16Zm-3.83,13,.09.16.17,0,.08-.09s0-.08,0-.13l-.06-.06-.23.1Zm.83-1.35s0,.06,0,.09l-.15.12s0,.08,0,.12l.18-.13.09-.24s0-.07,0-.1l-.14-.19h-.1l.15.27A.43.43,0,0,0,79.08,148.82Zm.57-5.47a.34.34,0,0,0,0-.1l-.13-.09,0,.1,0,.1.07,0Zm.38-.85a1.11,1.11,0,0,0,0-.19h-.16c0,.05,0,.09,0,.14l.13.06Zm3.2-9.13-.07.08a.41.41,0,0,1,0,.11l-.17.38s0,.07,0,.11l-.54.69-.2.17a2.12,2.12,0,0,0-.11.21l-.32.13-.8.16-.29-.07-.16-.1a.75.75,0,0,0,0-.16h-.09l-.39-.65c0-.12-.06-.23-.08-.35s0-.34,0-.51l.12-.41.12-.22.24-.62.52-.44.34-.2.39-.1h.36l.31.06.31.19.25.26.12.28.15.91Z"></path><path class="b" d="M94.11,132.73l.11.15,0,.24-.09.68-.1.2v.19l-.21.89-.21.85c0,.1-.06.21-.08.31s0,.23,0,.35-.09.29-.14.44,0,.25,0,.38l-.06.1c0,.06,0,.11,0,.16l0,.13-.07,0,0,.35-.12.2,0,.6c0,.06,0,.12-.05.18s0,.23,0,.34-.1.41-.14.61a1.62,1.62,0,0,0-.1.18l-.12.85c0,.14-.1.29-.14.44v.19l-.1.2c0,.21,0,.41-.07.62a1.71,1.71,0,0,1-.11.14c0,.24,0,.47-.08.71l-.1.2c0,.26-.07.52-.1.79l-.12.38,0,.23-.09.17c0,.07,0,.14,0,.21s0,.26-.07.39l.11.18h.19c.2-.19.39-.38.58-.58l.56-.7.47-.73.45-.81.45-.63c0-.07,0-.14.07-.22l.25-.37.06-.24.12-.18,0-.23.24-.4c.11-.3.21-.6.32-.89.07-.12.14-.23.2-.35l.29-.83c0-.14.09-.29.14-.44l.22-.35.2-.1.34,0,.3.2c.07.14.13.29.19.43s0,.07,0,.11l-.23.77-.12.21c-.06.23-.13.46-.2.69l-.07.07s0,.07,0,.11l0,0c0,.08,0,.16,0,.24l-.13.15-.15.38c-.07.15-.15.3-.23.45s0,.06,0,.08l-.43.85-.17.36-.51.74-.43.83c-.07.1-.15.21-.22.33v.05l-.23.28,0,.15-.15.08c0,.07,0,.13-.08.19l-.59.66c-.06.07-.13.13-.19.19l0,.15-.09,0v.06l-.11,0a.11.11,0,0,0,0,.05l-.2.13c0,.07-.07.13-.1.2l-.24.17,0,.15-.12,0a.13.13,0,0,1,0,.06L92,148l-.62.59v.05l-.13.08-.24.4-.15.36c-.07.31-.14.63-.2.94s-.13.57-.19.85-.13.62-.18.93a1.62,1.62,0,0,0-.1.18c0,.09,0,.18,0,.28l-.15.36v.17l-.12.21-.15.56-.36.86-.37.67-.16.12-.48.82-.57.56-.67.45-.19.19-.34.13-.4,0-.55.19-.29,0-.11-.1-.14,0-.13-.12-.14,0-.16-.11-.07,0-.33-.17a.83.83,0,0,0,0-.15l-.1-.1c-.08-.18-.16-.37-.23-.55l-.12-.37c0-.32,0-.63-.05-.95a.16.16,0,0,1,0-.07v-.2l.09-.43a.76.76,0,0,0,.09-.09c0-.15.07-.3.11-.46l0,0v-.08c.15-.28.31-.56.47-.83l.14-.08a3.24,3.24,0,0,1,.13-.33l.13-.09a.75.75,0,0,0,0-.16l.09,0s0-.1,0-.15a1,1,0,0,1,.17-.1l.21-.25.07,0c.06-.07.11-.14.17-.2l.11-.08.06-.16.09,0c0-.06,0-.11.07-.17l.18-.1.12-.21.63-.55.52-.46.59-.67c.07-.12.14-.24.22-.36l.16-.46c0-.1,0-.2,0-.3l-.08,0h-.16l-.18.1-.18.29-.52.48-.21.28-.31.2-.75.27-.73.07-.32-.07-.13-.14-.28-.17,0-.07-.12-.06s0-.09,0-.13l0,0s0-.07,0-.11l-.06,0s0-.09,0-.14l0,0a.41.41,0,0,1,0-.11l-.15-.24c-.07-.3-.13-.6-.2-.9l-.09-.4c0-.14,0-.28,0-.41,0-.31,0-.61,0-.91s0-.54,0-.82l0-.85c0-.31.09-.61.13-.92s.07-.51.11-.76.07-.38.1-.57l.15-.76v-.05l0,0c.05-.3.1-.59.14-.89l.18-.57.1-.15c0-.05,0-.09,0-.13l0,0v-.11l0,0c0-.05,0-.11,0-.17s.09-.31.13-.47l.07-.08a1.87,1.87,0,0,1,.07-.22.41.41,0,0,1,0-.11l0,0s0-.08,0-.13l.06,0s0-.07,0-.1c.12-.29.24-.58.35-.87s.28-.55.41-.82.33-.5.49-.75L87,135l.28-.28.12-.19.64-.46.33-.21.74-.23.18,0,.08.05H90l.54.3.06.14.1,0,.22.28.07,0s0,.09,0,.13l.51.14.36-.19.38-.39.48-.45a.13.13,0,0,1,0-.06l.11,0a2.54,2.54,0,0,0,.16-.28l.34-.18.33-.26.36-.13,0,0Zm-9.17,10.85a.65.65,0,0,1,0,.13h.17l.08-.09a.56.56,0,0,0,0-.12l-.07,0-.13.08Zm.17,4.61.08-.06c0-.07,0-.14,0-.21l-.09-.14-.06.06a1.79,1.79,0,0,0,0,.23l0,0A.19.19,0,0,0,85.11,148.19Zm.09-1.48.2-.16a1,1,0,0,1,0-.16l-.25.1c0,.07,0,.13,0,.2Zm2.11,5.4-.64.72-.3.29-.3.42-.1,0a.11.11,0,0,1,0,0l-.13.08-.22.45a2.43,2.43,0,0,1-.14.2c0,.08,0,.16,0,.23l-.15.2,0,.4,0,.23a1.84,1.84,0,0,1,.17.22l.34.08.17,0,.52-.43.2-.33.09,0,.36-.86.21-.44.09-.43.1-.2c0-.16,0-.32.07-.48s0-.2,0-.29l-.13-.1h-.15Zm-1.48-11.27h-.15a.45.45,0,0,1,0,.11h.1l.06-.07Zm.23-.9.09,0c0-.07,0-.14,0-.21a.76.76,0,0,0-.08-.11l-.09,0C86,139.73,86.05,139.84,86.06,139.94Zm2.37-2.75-.24.37c-.12.28-.23.57-.35.86s-.19.46-.28.69l-.15.42-.11.21c-.07.28-.13.57-.19.85s-.14.52-.2.77-.13.57-.19.86v.22l-.21.89c0,.12,0,.25-.05.38,0,.29,0,.59,0,.88s0,.61,0,.92.07.53.11.8l.21.33.26.06a.13.13,0,0,1,0,.06l.8-.34.25-.24c.18-.23.35-.46.52-.7l.1-.2.09,0,.24-.41c.06-.14.12-.29.19-.43a1.23,1.23,0,0,1,0-.2l.09-.09.3-.87,0-.34c0-.08.07-.16.1-.23,0-.23.09-.45.14-.67l0,0,0-.37c0-.15.1-.3.14-.44s.05-.26.08-.39l.06-.11c0-.32.05-.63.08-1,0-.13,0-.26.08-.39l0-.1c.06-.29.12-.56.17-.84l.09-.9c-.05-.21-.09-.43-.14-.64s-.12-.18-.17-.27l-.54-.33-.37.09-.68.34-.3.45Zm-1.27.68.22-.11s0-.07,0-.11l-.12,0-.08.11Zm1.67,11.88.12,0,0-.15h-.12Zm.46-2.68.13-.11c0-.07,0-.14,0-.21l.15-.19,0-.13-.17,0-.13-.09-.21.06.12.37C89.26,146.86,89.27,147,89.29,147.07Zm.28,1.72-.31-.07-.12,0,0,.07.18.08.18-.07Zm-.37.9.16.21h.1l.13-.11s0-.09,0-.13l-.09-.11-.25.1S89.21,149.67,89.2,149.69Zm.37-2a.1.1,0,0,1,.05,0l.09,0,.1-.17a.37.37,0,0,0,0-.11l-.1,0-.14.22S89.57,147.69,89.57,147.71Zm.43,2.37a1.62,1.62,0,0,0,.1-.18c0-.1,0-.2,0-.3l-.3,0a.42.42,0,0,0,0,.1l0,.24.18.13Zm0-5.57s0,.09,0,.13h.19l.06-.09v-.13l-.1,0-.13.08S90,144.5,90,144.51Zm.33,2.91-.09-.16-.21,0,0,.1.16.11.06,0Zm.05-1,.11,0a1.8,1.8,0,0,0,0-.19l.11-.15,0-.07-.15-.08-.14,0,0,.12.06.31Zm.58,1.34a1.59,1.59,0,0,1-.07-.2h-.24l.09.16.17,0Zm.31-4.82.09-.06a.78.78,0,0,0,.05-.14l-.09,0-.06.11A.07.07,0,0,1,91.29,142.92Zm.32-3.91,0-.09-.2-.07.09.16h.14Zm-.07,2.29.11-.05v-.1l-.12,0S91.53,141.26,91.54,141.3Zm0-1.81,0,.09.18-.07a1.1,1.1,0,0,0,0-.18l-.17.12A.05.05,0,0,0,91.55,139.49Zm.4-3.19-.06.33.06.12.09-.06.1-.18.2-.13s0-.11.07-.17,0-.09,0-.13l-.08,0-.3.26Z"></path><path class="b" d="M100.39,130.28l-.06.69-.06.05c-.06.28-.11.57-.17.86l-.12.82-.1.17v.25l-.07.16c0,.21,0,.41-.07.61l-.07,0c0,.15,0,.29-.07.44l-.06.1c-.06.28-.12.56-.17.84,0,.11,0,.22,0,.33a.18.18,0,0,1-.07.05c0,.23-.05.45-.08.67l-.21.49V137h0c0,.05,0,.09,0,.13l0,0c0,.14,0,.27,0,.41s-.05.55-.08.83l-.06.08c0,.3-.09.6-.13.91s-.07.35-.11.53l-.1.18a1.1,1.1,0,0,1,0,.18l-.06.11,0,.51h0c0,.28-.06.55-.1.82s0,.32,0,.49,0,.28.05.42l.27.27.31.09.61-.32.5-.62.23-.44.21-.24.24-.41a2.17,2.17,0,0,1,.07-.24l.21-.38c.11-.28.21-.56.31-.83l.39-.74,0-.21.12-.15,0-.2.1-.15a1.23,1.23,0,0,0,0-.2c.11-.22.21-.44.31-.66s0-.29,0-.43l.15-.3s0-.08,0-.12l.22-.37.4-.19.33.14.23.18a2.09,2.09,0,0,0,.14.17c0,.17,0,.33,0,.49s-.17.59-.26.89c0,.1-.07.21-.11.31v.17l-.09.22-.09.09s0,.09,0,.13l-.18.31s0,.07,0,.11l-.07,0c0,.07,0,.14,0,.2l-.09.09a1.6,1.6,0,0,1,0,.21l-.2.26a2.51,2.51,0,0,0,0,.27l-.11.09s0,.09,0,.13-.09.26-.14.38l-.07,0-.16.42-.46.79c-.13.27-.27.54-.41.81,0,0,0,0,0,.06l-.16.1c0,.1-.08.2-.13.3l-.07,0-.55.77-.24.36-.14.08a.43.43,0,0,1,0,.05l-.09,0-.66.5-.3.22-.73.25-.43.21-.05-.07-.23.08-.41-.05-.19,0-.23-.29-.18-.13-.06-.34-.47-.58-.09-.16c0-.28-.07-.55-.11-.83s0-.58,0-.87,0-.52.08-.78a2.44,2.44,0,0,1,0-.27l.07,0v-.44l.15-.86c0-.29.09-.59.13-.88a1.62,1.62,0,0,0,.1-.18c0-.25.1-.49.16-.74s0-.29,0-.44,0-.14.07-.22,0-.22,0-.34l.1-.14c0-.13,0-.26,0-.39a.16.16,0,0,1,0-.07c0-.05,0-.09,0-.14l.1-.17v-.19c.05-.17.11-.34.16-.51l.12-.82.06-.33h0q.08-.47.18-.93c.07-.29.13-.58.2-.88s.18-.57.26-.86.07-.38.11-.57l.24-.39.21-.21,1.6-.55.23,0,.17.05.21.18Zm-3.82,12.78.09.16h.16l.09-.09a.57.57,0,0,1,0-.13l-.06-.06-.23.08Zm.83-1.29,0,.09-.15.1s0,.08,0,.12l.17-.12a1.6,1.6,0,0,0,.1-.23s0-.07,0-.1a1.43,1.43,0,0,0-.14-.2h-.09l.15.28A.13.13,0,0,0,97.4,141.77Zm.57-5.43s0-.07,0-.11l-.13-.09a.36.36,0,0,1,0,.09l0,.1.08,0Zm.38-.83a1.23,1.23,0,0,0,0-.19h-.16c0,.05,0,.09,0,.14l.13.07Zm3.19-8.9s0,0-.06.07a.45.45,0,0,1,0,.11c0,.12-.11.24-.17.36a.49.49,0,0,1,0,.12l-.54.65-.19.15a2.25,2.25,0,0,0-.12.21l-.32.11-.8.1-.29-.09-.16-.12a.83.83,0,0,0,0-.15l-.09,0-.39-.68a3.59,3.59,0,0,1-.08-.35c0-.17,0-.34,0-.51l.12-.4.12-.21.24-.61.52-.41.34-.17.39-.07h.36l.31.09.31.21.25.27.12.3.15.92A.41.41,0,0,1,101.54,126.61Z"></path><path class="b" d="M110.51,139.32h.09L111,139l.12,0a.11.11,0,0,1,0-.05l.09,0a.07.07,0,0,0,0,0l.12,0s0-.05,0-.08l.09,0a.09.09,0,0,0,0-.05l.12,0,.22-.38.11,0,.48-.78.06-.07c0-.14.1-.27.14-.41s.23-.38.34-.56a.49.49,0,0,1,0-.12l.21-.36,0-.21.4-.81c.12-.24.23-.49.34-.74l.06-.1v-.17a1.4,1.4,0,0,0,.1-.16c.09-.29.17-.59.26-.88l.23-.48.67,0,.13.1h.14c.06.1.12.19.17.29s0,.24,0,.35c-.09.3-.18.59-.28.89s-.13.47-.2.7l-.13.12c-.09.28-.19.55-.28.83s-.2.56-.31.84l-.22.51-.15.18a1.5,1.5,0,0,1,0,.2l-.41.73c-.14.27-.29.54-.43.82l-.15.1c-.06.13-.11.27-.17.41l-.15.07a1.72,1.72,0,0,0-.07.21l-.12,0a.09.09,0,0,1,0,.05l-.32.32c-.12.16-.24.33-.37.49l-.61.43-.45.39-.72.25-.71.16-.36,0-.3-.13-.33-.24L108,141l-.16-.12c-.06-.24-.13-.49-.2-.74l-.09-.44-.06-.9v-.48c0-.29.07-.58.11-.87s0-.58.07-.88c0-.07,0-.13,0-.2l.06-.1V136c0-.11.07-.22.11-.33a.71.71,0,0,1,.1-.14s0-.1,0-.14h0c0-.25.07-.49.11-.74s0-.34.08-.52l0,0s0-.07,0-.1l.15-.38c.05-.28.11-.55.16-.83s0-.29,0-.43l.12-.43v-.31h0s0-.08,0-.11.06-.24.08-.35c0-.32,0-.64,0-.95,0,0,0-.07,0-.11l-.34-.31-.33,0-.7.47c-.2.22-.41.43-.61.64s-.33.44-.5.65l-.21.44-.24.32-.17.39-.12.45c0,.2,0,.39,0,.58h-.05c0,.13,0,.25,0,.37s-.07.25-.1.37,0,.3,0,.46l-.18.86c-.07.3-.13.6-.19.9s-.11.54-.17.81l-.1.14c-.05.28-.09.56-.14.85l-.18.92,0,.4c0,.13-.09.27-.14.41,0,.3-.11.6-.16.91s-.11.57-.16.86-.15.51-.22.77l-.2.37-.26.19-.76.37-.38,0-.17-.06-.38.13h-.41l-.09-.42.09-.89.15-.77c.09-.3.18-.6.28-.9l.18-.93a1.64,1.64,0,0,1,0-.22l.09-.26c0-.15,0-.3,0-.46s.06-.28.1-.42,0-.3,0-.46.13-.54.19-.81.11-.58.17-.86.17-.6.25-.9l.18-.92c.06-.3.12-.59.19-.89l.15-.89c.07-.26.14-.52.2-.79s.09-.58.14-.87l.18-.9c.07-.27.13-.54.19-.81s.09-.25.13-.38l.22-.32.19,0,.33,0a.39.39,0,0,1,.1.08l.46.07.13.1.09,0s0,0,0,.06l.68.17.22-.07.33-.27.54-.67c.14-.16.29-.32.44-.47l.09,0s0,0,0-.08l.11,0v0l.61-.41.64-.39.38-.18.44-.1.37,0,.32.1.61.4,0,0,.26.63.15.31c0,.13,0,.27,0,.4,0,.32,0,.62,0,.93s-.07.62-.1.93-.09.5-.13.76l-.06.1-.09.64a1.74,1.74,0,0,0-.1.19l-.12.82c0,.1,0,.21,0,.31s-.08.2-.13.3a1.1,1.1,0,0,1,0,.18c-.06.26-.13.52-.19.78l-.09.45-.06.1-.09.69-.05,0v.19l-.09.22c0,.08,0,.16,0,.24l-.06.1-.12.84c0,.28,0,.56,0,.84l0,0,.12.88c0,.09,0,.18,0,.26l.23.13ZM104,136l.16-.06a.78.78,0,0,1,0-.16l-.09,0A1.05,1.05,0,0,0,104,136Zm.35-4.07s0-.07,0-.11l-.07-.06-.14.05s0,.09,0,.14l.06.06.11,0Zm.4-.83.1,0a.69.69,0,0,1,0-.13l-.12,0v.08Zm4.15,4.68.09-.05a.41.41,0,0,1,0-.11l-.1,0C108.93,135.69,108.93,135.75,108.94,135.81Zm.21-1.9c0,.07,0,.14,0,.21h.07l.12-.15a1.34,1.34,0,0,0,0-.2l-.23.1Zm.4,3.55.11-.06,0-.09-.08-.12,0,0,0,.17A.19.19,0,0,0,109.55,137.46Zm.32-6.16s0-.07,0-.1l-.13-.11,0,.22.07,0Zm.1-2.53,0,0,.09-.06,0-.09.21-.17a.3.3,0,0,1,0-.1l-.1,0-.25.13-.09.23A.07.07,0,0,1,110,128.77Zm.5,1.16c0-.05,0-.08,0-.13l-.09-.16-.1,0-.06,0v.22l0,.06h.1Zm.14-1.49s0-.07,0-.11l-.12,0s0,.07,0,.11l.07,0Z"></path><path class="b" d="M123.76,126.83l-.09.91c0,.24-.07.47-.11.7h0c0,.05,0,.09,0,.13l0,0a.45.45,0,0,0,0,.11h0s0,.09,0,.13l-.07,0s0,.07,0,.11l-.14.42v.45c-.08.27-.17.54-.26.81s-.07.6-.11.89l-.21.84-.12.45c0,.13,0,.28,0,.41l-.06.1c0,.27-.06.54-.1.81l-.06.51.06.49c0,.14.08.28.11.42l.12.19.14,0,.06.1.27-.07.33-.22.27-.27.5-.73.15-.12.43-.78,0-.11.22-.31.15-.4.27-.48a1.5,1.5,0,0,0,0-.2l.09-.08a1.17,1.17,0,0,1,0-.2l.08-.08,0-.2.1-.08,0-.2.16-.26v-.17c.12-.28.23-.56.35-.83s.06-.26.1-.39.15-.32.22-.47a1.14,1.14,0,0,1,.11-.11l.34,0,.36.11.29.24c0,.11.07.21.1.31l-.09.44c-.06.2-.13.4-.19.6l-.1.16v.11c-.07.19-.14.37-.22.55h0c0,.05,0,.09,0,.14h0c0,.1,0,.19,0,.29s-.09.2-.13.31l-.22.3a1,1,0,0,1,0,.17l-.06.07a1.72,1.72,0,0,1-.07.21,2.43,2.43,0,0,1-.14.2.41.41,0,0,1,0,.11l-.15.26c0,.06,0,.11,0,.17l-.43.77-.43.69-.5.73-.44.64-.12,0s0,0,0,.06l-.09,0v.06l-.11,0s0,.08,0,.12l-.4.38c-.18.11-.35.23-.52.35l-.66.38-.31.14-.72,0h-.35l-.32-.09-.56-.49-.35-.35a1.06,1.06,0,0,0,0-.19l-.34-.16-.16.1-.5.72c-.16.23-.31.47-.46.7l-.32.26-.19.21-.33.24-.51.19-.06.1-.66.23-.32,0,0-.07-.26,0s0,0,0-.06l-.11,0a.09.09,0,0,0,0-.05l-.09,0v-.08a.45.45,0,0,0-.11,0,.13.13,0,0,0,0-.06l-.34-.1-.36-.31a.65.65,0,0,0,0-.13l-.12,0c0-.14-.09-.27-.13-.41l-.08-.06-.19-.61-.18-.84,0-.88c0-.15,0-.3,0-.45l-.06-.57c0-.11,0-.22.08-.33s0-.33,0-.5l.12-.64.09-.81c0-.18.06-.37.08-.55l.05,0,.11-.87c0-.16.07-.31.11-.47l.09-.72.09-.2c0-.1,0-.21,0-.31l.09-.17c.06-.22.11-.44.17-.66l.12-.17c0-.15,0-.29.07-.44l.06-.07.06-.29.15-.18a2,2,0,0,1,0-.24l.12-.15c.06-.13.12-.27.17-.4s0-.16,0-.24l.31-.59.3-.33.06-.21.12,0s0-.08,0-.12l.22-.14s0-.1,0-.16l.09,0,.15-.18.15-.07s0-.07,0-.11l.11-.06.06-.16.09,0,.14-.18.66-.37.75-.2h.59v0l.28,0,.13.14.35.16.31.25.28.43.07,0,.06.15.42.19.12,0,0-.1.29-.13.62-.54.6-.49.53-.47.2,0,.36.3c0,.1,0,.19,0,.28l-.21.86c0,.09,0,.19,0,.28l-.07.07c0,.13,0,.25,0,.38l-.24,1a1.72,1.72,0,0,0-.07.21.46.46,0,0,1-.07.07Zm-8.42,9.92,0,.09.15,0v.05l.27-.13.13-.12c0-.09-.07-.18-.1-.27l-.21.08a2.5,2.5,0,0,1-.23.23Zm.65-5.56.13,0a.49.49,0,0,0,0-.12l-.11,0C116,131.12,116,131.15,116,131.19Zm.09,6.15.09-.05a2.23,2.23,0,0,0,0-.23l-.12.11v.17Zm.25.33h.21a.62.62,0,0,1,0-.13l-.08,0-.09.06A1,1,0,0,0,116.33,137.67Zm2.83-10.79-.09,0s0,0,0,.06l-.12,0a.07.07,0,0,1,0,.05l-.09,0-.1.22-.18.18-.41.78-.3.86-.36.82-.06.3h0s0,.09,0,.14h-.07v.31a1.42,1.42,0,0,1-.07.22l-.06.07c0,.16,0,.31-.07.46l-.09.2c0,.13-.06.27-.1.41l-.06.88-.15.77c0,.13-.05.27-.07.41,0,.3,0,.6,0,.9s.06.63.1.94c0,.12.09.24.13.35l.26.24.3.11.4-.11.49-.27.1-.16.11-.06,0-.15.11,0s0-.08,0-.12l.38-.55.39-.74c.1-.2.2-.39.31-.58v-.2l.18-.88c0-.15,0-.29.07-.44s.1-.24.14-.37,0-.34.06-.52a1.4,1.4,0,0,0,.1-.16v-.11c0-.05,0-.11.08-.16,0-.31.09-.61.13-.92s.11-.57.16-.85l.21-.89c0-.16,0-.32,0-.48s0-.25,0-.38-.07-.26-.11-.38l-.22-.33-.31-.23-.33,0-.37,0a.43.43,0,0,0,0,.07l-.33.2S119.17,126.87,119.16,126.88Zm-.26-1.07s0-.08,0-.11l-.07,0-.09.11.1,0Zm1.41,9.53h.19l.15-.3-.07,0-.18.07-.1.19S120.31,135.32,120.31,135.34Zm.31-1a.5.5,0,0,0,0,.13l.07,0,.12-.17-.08-.07-.08.08Zm.11-.52.12.08.18-.1.14-.35-.09,0-.18.07-.15.15,0,.12A.13.13,0,0,0,120.73,133.84Zm.13,3.11c0-.15.11-.29.16-.43l-.06-.1h-.16c0,.06,0,.13,0,.2a2,2,0,0,0,0,.25.18.18,0,0,0,0,.07Zm.33-.79.18-.13a.78.78,0,0,1,0-.16l-.08,0-.09.24A.25.25,0,0,1,121.19,136.16Zm.51.18a1,1,0,0,0,0-.1l0-.21.09-.11h-.1s0,.08,0,.11l-.09.2,0,.1Zm.28-7a.36.36,0,0,1,0-.09l-.09-.15-.1,0c0,.07,0,.13,0,.2l0,.1Zm0,2.39a1.36,1.36,0,0,1,0-.2l-.12-.08a.36.36,0,0,0,0,.09c0,.05,0,.09,0,.14l.08.06Zm.35-4.37,0-.21a.39.39,0,0,1-.1-.08,1.79,1.79,0,0,0,0,.23l0,0Zm0-.51.17,0,.11,0s0-.07,0-.11l-.08-.06-.17.1S122.39,126.83,122.38,126.85Zm.29.67.17-.12c0-.06,0-.11,0-.17l-.07,0-.09.24A.19.19,0,0,0,122.67,127.52Zm.16.91,0-.23,0,0c0,.07,0,.14,0,.21l0,0Z"></path><path class="b" d="M130,116,130,116l.7-.16.8-.14.06,0,.22.12.15.27c0,.15,0,.28,0,.43s-.09.59-.14.89-.11.52-.17.78-.05.37-.07.55l-.18.76-.06.32a.93.93,0,0,1-.05.1c-.06.28-.13.56-.19.84s0,.26-.07.38l-.1.16v.39l-.05,0a.25.25,0,0,1,0,.08l-.06.1v.42c0,.1-.07.2-.1.3v.14l-.06.07-.21.91c0,.11,0,.22,0,.33l-.25.69-.07.41c0,.31-.06.62-.08.94l-.24.8-.18.87-.18.91-.18.88c-.06.28-.11.56-.17.84,0,.08,0,.17,0,.26l-.06.07-.15.78-.15.73c0,.28-.05.55-.07.83s0,.33,0,.5,0,.2,0,.3l.06.15.33.26.31,0,.35-.22.29-.29.34-.43.18-.32.13-.09.32-.68.08,0,.15-.39.26-.34a1.23,1.23,0,0,0,0-.2l.22-.35.33-.8.1-.19s0-.09,0-.13l.11-.08c0-.07,0-.13,0-.2l.13-.14,0-.19a1.14,1.14,0,0,0,.1-.19l0-.17.33-.79a1.72,1.72,0,0,1,.07-.21l.25-.2.23,0,.36.09.24.31c0,.13.07.26.11.39s0,.29,0,.43l-.3.81-.33.82c-.05.13-.11.25-.16.37l-.24.83a1.34,1.34,0,0,1-.07.18l-.19.18a.45.45,0,0,1,0,.11l-.4.73c-.14.26-.27.52-.4.78s-.28.47-.41.71L131,135l-.29.26-.22.3-.22.13-.06.1L130,136l-.12.17-.65.37-.34.13-.23,0a.18.18,0,0,0,0-.07l-.74.19-.58-.14-.3-.18-.49-.43c0-.14-.07-.28-.11-.42l-.05,0c0-.1-.06-.21-.08-.31l-.13-.08c0-.29-.09-.57-.14-.86l0-.84,0-.51,0-.3c0-.22.09-.44.13-.67s.09-.59.14-.89.15-.56.23-.84c0-.13.06-.27.1-.41l.06-.9c0-.14.09-.27.14-.4l.15-.73.12-.64c0-.25.09-.49.13-.73s0-.29.07-.43l0-.1.15-.84c0-.14.07-.28.11-.42l.15-.75c0-.15,0-.29.07-.44l.06-.09c.06-.29.12-.57.19-.85s.11-.53.16-.79.11-.57.17-.85l.18-.85c0-.14,0-.28.05-.42s.16-.54.23-.81v-.2c0-.15.1-.3.14-.45s0-.24,0-.36l.11-.27.06-.49.32-.69.43-.29Zm-2.86,18,.17.05.2-.05.09-.1-.35,0-.09.07Zm.42.85.1,0,0-.12-.1,0Zm.65-7.89.2-.07a2,2,0,0,1,.13-.25c0-.07,0-.13,0-.19l-.15.11-.15.35S128.17,127,128.17,127Zm.46.84.12,0s.05-.1.07-.16l-.07,0-.11.08S128.63,127.8,128.63,127.83ZM129,126l-.06-.35-.15,0-.05.12a.19.19,0,0,0,0,.08l.2.18Z"></path><path class="b" d="M66.38,88c-5.9,1.82-15.48,11.19-17.6,30.55a22.85,22.85,0,0,0,.53,8.15,20.61,20.61,0,0,1-8.1,6.18c-6.89,2.7-14.43-.18-12.32-20.08,1.68-15.87,8.22-30.33,13.21-31.93,3-1,4.28,3.21,3.91,6.61-.53,4.85-1.45,4.59-1.83,8.09-.33,3,1.34,4,2.65,3.52,6.31-2.2,9.32-9.37,9.71-12.89,1.34-12.07-4-17-11.39-14.69C33.71,75,19,96.55,16.35,122.05c-2.59,24.91,8.82,28.69,19.12,24.47,7.17-2.92,12.72-9,16.49-14.75,1.77,1.83,4.28,2.55,7.62,1.29,7.71-2.88,14.41-14,16.16-29.28,1-9-2.18-17.5-9.36-15.82m1.09,22c-.69,6.11-2.74,13.15-5.5,14.15-1.68.61-4-2.12-2.82-12.36,1-8.57,3-13.14,4.25-15.39,2.74.52,5,4.95,4.07,13.6"></path><path class="b" d="M179.91,96.35c-2-.14-2.53,4.3-5,4.21-1.51,0-2-2.55-1-10.48s3.55-13.62,3.89-16.13a2.64,2.64,0,0,0-2.19-3.26c-1.51-.12-3.84,1-5.56,2.54-.46-1.49-1.72-3-5.18-3-5.49-.18-14.54,5.74-16.66,22.56a30,30,0,0,0-.09,6.7,4.61,4.61,0,0,1-3.28,2.47c-1.81.22-2.94-2.21-1.88-10.62.43-3.43,1.81-9.85,3.26-16.22,3.05-.8,5-1.54,6.42-3a17.17,17.17,0,0,0,2.61-6.37c.11-.79,0-1.75-.78-1.72-1.59,0-4.12,1.74-6.23,2.51,1.33-5.36,2.38-9.61,2.51-10.65.29-2.25-1-3.16-2.2-3.11-2.17.08-6.16,3.15-7.66,6-.56,1-1.78,6.2-3.13,12.42-2.77,1.53-4.82,3-4.93,3.94-.24,2,1.59,2.14,3.69,2-1.88,8.74-3.51,17.87-3.91,21.12-.06.51-.11,1-.14,1.51-1.18,1.5-1.92,4.38-3.75,4.72-2.91.55-5.82-7-6.14-17.82,6.16-5,9.77-4.16,10.31-8.48.21-1.74-2.68-6.65-5.44-6.23-3.5.49-10.57,10.65-15.11,20.82,1.44-12.11,8.21-38,8.43-39.7.29-2.36-1-3.15-2.06-3-2.18.33-6.7,4-8.13,7.07-2.37,4.82-7.5,35.7-9.45,49.17-1.62,1.75-3.17,6.19-7.8,7.57-4.16,1.25-7.23-1.29-6.11-11C87.9,97,90,89.07,93,88.25c1.09-.29,1.49.54,1.35,1.77-.26,2.19-2.16,4.59-2.46,7.15-.22,1.86.46,3.29,2.72,2.65,3.79-1.07,6.69-6.47,7.31-11.77s-1-9.82-7.08-8.29c-8.52,2.15-15.79,14.6-17.27,27.61s3.91,17.9,11.41,15.48a24.68,24.68,0,0,0,11.13-8.27c-.24,3-.06,4.9,1.25,4.52,6.85-1.95,8.6-5.94,8.88-8.28.69-5.78,2-8.68,3.83-13.1,1.4,7.28,3.46,17.09,10.66,15.52,4-.84,6.75-4,8.45-7,1.12,3,3.56,4.7,7.75,4.06,3.68-.54,6.58-3.15,8.51-5.76,1.24,2.62,3.36,4.35,6.71,4.06a13.2,13.2,0,0,0,8.31-4.29c1.07,2.32,3.26,3.73,6.5,3.74,6.78,0,10.06-7.11,10.34-9.18.16-1.21-.33-2.48-1.4-2.55M165.33,85c-.56,3.54-1.38,7.29-1.75,10.12a4.84,4.84,0,0,0,0,1.42c-.83,2-2,4.13-4.14,4.24-1.16.06-3.11-1.49-1.85-11.36.64-4.93,2.83-11.87,6-11.86,1.16,0,1.45.61,1.71,1.53a15.38,15.38,0,0,1,.07,5.91"></path><path class="b" d="M179.1,74.72a29.69,29.69,0,0,1-1,4,72.23,72.23,0,0,0-2.84,12.15c-.72,5.51-.71,8.74,0,9.61l.12.1c-.28-1.58-.18-4.29.39-8.65,1.05-7.94,3.56-13.62,3.89-16.12a3,3,0,0,0-.56-2.37,4,4,0,0,1,0,1.31"></path><path class="b" d="M94.11,89.48a1.18,1.18,0,0,0-.25,0c-2.49.67-4.61,7.74-5.34,14-.58,5,0,7.63.84,9a20,20,0,0,1-.29-7.9c.63-5.53,2.54-13.06,5.39-14.42a1.06,1.06,0,0,0-.17-.67.21.21,0,0,0-.18-.07"></path><path class="b" d="M103.23,88.8c-.61,5.19-3.47,11.08-7.76,12.29a4.17,4.17,0,0,1-1.16.17h-.15a2,2,0,0,0,2.29.39c3.79-1.07,6.7-6.47,7.32-11.77a10.59,10.59,0,0,0-.87-6.39,13.12,13.12,0,0,1,.33,5.32"></path><path class="b" d="M89.86,124.12a12.15,12.15,0,0,1-3.72.63,8.33,8.33,0,0,1-2.42-.35c1.94,1.08,4.38,1.15,7.1.28a23.52,23.52,0,0,0,9.35-6.21,11.52,11.52,0,0,1-.07-1.41,24.56,24.56,0,0,1-10.24,7.06"></path><path class="b" d="M111.54,111.57c-.23,1.91-1.59,6.6-9.32,8.8l-.08,0a.81.81,0,0,0,1.06.54c6.85-2,8.6-6,8.88-8.29A36.8,36.8,0,0,1,114.87,102c-.12-.52-.22-1-.32-1.54a36.53,36.53,0,0,0-3,11.08"></path><path class="b" d="M136.44,78.4h-.39a7.46,7.46,0,0,1-1-.07,2.19,2.19,0,0,0,1.3.54c0-.16.07-.32.1-.48"></path><path class="b" d="M122.07,53.76c-.06.46-.47,2.2-1.34,5.78-1.82,7.56-5,20.75-6.51,29.92.35-.7.72-1.4,1.09-2.1,2.42-13,7.12-31.14,7.3-32.54a3,3,0,0,0-.55-2.44,4.83,4.83,0,0,1,0,1.38"></path><path class="b" d="M156.56,66.52a17.34,17.34,0,0,1-2.79,6.72c-1.46,1.48-3.45,2.25-6.34,3-1.78,7.83-2.81,13-3.17,15.8-.87,6.94-.12,9,.41,9.64-.38-1.63-.4-4.35.13-8.58.44-3.43,1.82-9.85,3.27-16.21,3-.81,5-1.55,6.41-3a16.94,16.94,0,0,0,2.62-6.36c.09-.69,0-1.49-.51-1.68a4,4,0,0,1,0,.61"></path><path class="b" d="M134.73,79.93a3.87,3.87,0,0,0-.37-1.76l-.19-.07a2.89,2.89,0,0,1,0,.77c-.36,2.9-2,3.75-4.48,5a32.62,32.62,0,0,0-5.81,3.66c.22,6.55,1.37,11.35,2.66,14.13a44.5,44.5,0,0,1-2.13-13.27c6.16-5,9.77-4.17,10.3-8.49"></path><path class="b" d="M152.05,56.66c-.12,1-1,4.56-2.23,9.54l.91-.43c1-4.1,1.76-7.18,1.86-8a3,3,0,0,0-.55-2.41,4.64,4.64,0,0,1,0,1.35"></path><path class="b" d="M125.55,114.52a7.55,7.55,0,0,1-1.6.18,6.16,6.16,0,0,1-1.58-.2,5.65,5.65,0,0,0,4.2.57c3.49-.74,6.07-3.31,7.8-5.91a6.92,6.92,0,0,1-.58-.9c-1.68,2.58-4.36,5.44-8.24,6.26"></path><path class="b" d="M141.72,111.62a12.26,12.26,0,0,1-1.77.14,7.92,7.92,0,0,1-2.29-.33,7.57,7.57,0,0,0,5.12.73,13.07,13.07,0,0,0,7.85-4.92,8.7,8.7,0,0,1-.59-.86,13.7,13.7,0,0,1-8.32,5.24"></path><path class="b" d="M156.9,109.92c-.26,0-.51,0-.76,0a7.5,7.5,0,0,1-2-.29,6.46,6.46,0,0,0,3.9.78,12.91,12.91,0,0,0,7.6-3.59A5.86,5.86,0,0,1,165,106a13.58,13.58,0,0,1-8.11,3.88"></path><path class="b" d="M182.6,98.59a3.91,3.91,0,0,1,0,1.08c-.29,2.14-3.61,9.7-10.91,9.7h0a9.61,9.61,0,0,1-2.87-.42,8,8,0,0,0,4,1c6.78,0,10.06-7.11,10.33-9.17a2.67,2.67,0,0,0-.54-2.14"></path><path class="b" d="M159.39,91.24c.62-4.82,2.72-11.55,5.78-11.85-.18-.42-.4-.55-.93-.55v0c-2.42,0-4.68,5.88-5.38,11.33-.91,7-.12,9.43.49,10.25-.43-1.65-.56-4.46,0-9.18"></path><path class="b" d="M43,82.1c-4.54,1.44-11.11,15.48-12.8,31.41-.92,8.65,0,14.83,2.56,17.94-2-3.13-2.92-8.6-2-17.42C32.43,98.16,39,83.69,44,82.1l.15,0a1.51,1.51,0,0,0-.48-.09,2.05,2.05,0,0,0-.66.12"></path><path class="b" d="M76,93.76a23.83,23.83,0,0,1,1,10.78c-1.72,15-8.22,26.65-16.56,29.78a9.69,9.69,0,0,1-3.36.67,6.8,6.8,0,0,1-1.89-.26,7,7,0,0,0,6.18.16c7.71-2.89,14.41-14,16.17-29.28.51-4.47,0-8.81-1.57-11.85"></path><path class="b" d="M36.39,147.77a19.62,19.62,0,0,1-6.22,1.5,18.17,18.17,0,0,0,7.17-1.48c6.84-2.79,12.22-8.45,16-14a5.34,5.34,0,0,1-.55-.42c-3.34,5-8.8,11.29-16.36,14.38"></path><path class="b" d="M57.84,86.91c-.38,3.35-3.34,11-10.12,13.4l-.15,0a1.94,1.94,0,0,0,1.12,0C55,98.11,58,91,58.41,87.43c.66-6-.32-10.21-2.39-12.67,1.77,2.79,2.4,6.94,1.82,12.15"></path><path class="b" d="M61,113.62c.95-8.5,3-13.06,4.21-15.33a2.62,2.62,0,0,0-.81-.48c-1.94,3.72-3.26,8.67-3.94,14.73-.81,7.23.19,10,.8,11-.57-1.92-.8-5.09-.26-9.94"></path></svg> 