<svg xmlns="http://www.w3.org/2000/svg" width="300" height="58.25" viewBox="0 0 300 58.25"><defs><style>.a{fill:#fff;}</style></defs><title>deezer-logo</title><rect class="a" x="46.64" y="18.51" width="12.87" height="7.51"/><rect class="a" x="46.64" y="28.97" width="12.87" height="7.51"/><rect class="a" x="46.64" y="39.42" width="12.87" height="7.51"/><rect class="a" y="49.88" width="12.87" height="7.51"/><rect class="a" x="15.55" y="49.88" width="12.87" height="7.51"/><rect class="a" x="31.09" y="49.88" width="12.87" height="7.51"/><rect class="a" x="46.64" y="49.88" width="12.87" height="7.51"/><rect class="a" x="31.09" y="39.42" width="12.87" height="7.51"/><rect class="a" x="15.55" y="39.42" width="12.87" height="7.51"/><rect class="a" x="15.55" y="28.97" width="12.87" height="7.51"/><path class="a" d="M173.55,49.22c-5.57,0-10.17-3.36-10.25-9.27h26.42a22.16,22.16,0,0,0,.49-4.76c0-10.66-7.3-17.47-18.05-17.47-11.48,0-19.36,8.94-19.36,20,0,12.3,8.53,20.51,20.59,20.51,9.11,0,15.42-4.6,18.13-12.15l-8.94-3.52C181.35,47,178.31,49.22,173.55,49.22Zm-1.39-23c4.68,0,7.88,2.54,7.88,6.48L180,33H163.3A8.73,8.73,0,0,1,172.16,26.17Z"/><polygon class="a" points="226.54 27.15 226.54 18.54 192.66 18.54 192.66 27.56 213.34 27.56 192.01 48.4 192.01 57.43 227.12 57.43 227.12 47.99 205.13 47.99 226.54 27.15"/><path class="a" d="M289.83,31.09A13.39,13.39,0,0,1,289.7,33h9.95a19.77,19.77,0,0,0,.35-3.83c0-6.65-4.18-11.49-11.16-11.49a9.67,9.67,0,0,0-9.35,5.82v-5H269V57.43h10.5v-25c0-3.93,2.13-6.15,5.42-6.15A4.63,4.63,0,0,1,289.83,31.09Z"/><path class="a" d="M100.77,24.36a13.93,13.93,0,0,0-12.31-6.64C77.8,17.72,70,25.92,70,38.15c0,12.06,7.71,20.1,18.7,20.1,5.5,0,9.93-2.38,12.47-6.4v5.58h10.09V0h-10.5ZM90.84,49.3C85,49.3,80.51,45,80.51,38.15S85,26.74,90.84,26.74c5.66,0,10.34,4.43,10.34,11.41S96.5,49.3,90.84,49.3Z"/><path class="a" d="M248.35,49.22c-5.58,0-10.17-3.36-10.26-9.27h26.42a21.55,21.55,0,0,0,.49-4.76c0-10.66-7.3-17.47-18.05-17.47-11.48,0-19.36,8.94-19.36,20,0,12.3,8.53,20.51,20.59,20.51,9.11,0,15.43-4.6,18.13-12.15l-8.94-3.52C256.14,47,253.11,49.22,248.35,49.22Zm-1.4-23c4.68,0,7.88,2.54,7.88,6.48l-.08.33H238.09A8.75,8.75,0,0,1,247,26.17Z"/><path class="a" d="M134.78,49.22c-5.58,0-10.17-3.36-10.25-9.27h26.41a21.53,21.53,0,0,0,.5-4.76c0-10.66-7.3-17.47-18.05-17.47-11.49,0-19.36,8.94-19.36,20,0,12.3,8.53,20.51,20.59,20.51,9.1,0,15.42-4.6,18.13-12.15l-8.94-3.52C142.58,47,139.54,49.22,134.78,49.22Zm-1.39-23c4.67,0,7.87,2.54,7.87,6.48l-.08.33H124.53A8.73,8.73,0,0,1,133.39,26.17Z"/></svg>