<?xml version="1.0" encoding="UTF-8"?> <!-- Generator: Adobe Illustrator 22.1.0, SVG Export Plug-In . SVG Version: 6.00 Build 0) --> <svg xmlns="http://www.w3.org/2000/svg" xmlns:xlink="http://www.w3.org/1999/xlink" id="Layer_1" x="0px" y="0px" viewBox="0 0 86 39.6" style="enable-background:new 0 0 86 39.6;" xml:space="preserve"> <style type="text/css"> .st0{fill:#FFFFFF;} </style> <polygon class="st0" points="37.9,29.6 37,29.6 36.3,32.5 37.3,32.5 "></polygon> <polygon class="st0" points="55.1,31.2 55.5,29.4 54.7,29.4 54.3,31.2 "></polygon> <path class="st0" d="M77.1,8.8l-3.6-4.1H48.8l-1.5,2l-1.6-1.9H12.3L8.8,8.9V23l3.7,4.2h5.8l1.5-1.8l1.5,1.6h10.9l-1.6,0.7l-1.6,7.4 l1.5-0.5l24.8-0.1l1.5-0.6l1.5-6.8h19C77.1,27.1,77.1,8.8,77.1,8.8z M33.5,33.3l-0.4-2.7l-0.6,2.7h-0.9l1-4.7h1l0.4,2.7l0.6-2.7h1 l-1,4.7H33.5z M38,33.3h-3l1-4.7h3L38,33.3z M42.8,33.6h-2.9l0.3-1.6h1.1l-0.2,0.6H42l0.2-0.8l-1.5-1.3l0.4-2.1h2.8L43.6,30h-1 l0.2-0.5H42l-0.2,0.7l1.5,1.3C43.3,31.4,42.8,33.6,42.8,33.6z M46.1,33.6h-2.7l1.1-5h1.1l-0.9,4.1h1.6 C46.2,32.6,46.1,33.6,46.1,33.6z M49.3,32.6l-0.2,1h-2.7l1.1-5h2.7L50,29.5h-1.5l-0.3,0.9h1.4l-0.2,0.9h-1.4l-0.3,1.3L49.3,32.6z M52.4,32.6l-0.3,0.9h-2.7l1.1-5h2.7l-0.2,0.9h-1.5l-0.3,0.9h1.4l-0.3,1h-1.4l-0.3,1.3L52.4,32.6z M56,32.2h-2l-0.3,1.3h-1.1 l0.9-4.4l0.9-0.8h2.3C56.8,28.5,56,32.2,56,32.2z M75.8,25.8H28.1v-1.9l-1.5,1.9h-4.8l-2.1-2.4l-2.1,2.4H13l-2.8-3.3V9.4L13,6h4.7 L19,7.6V6h10.5v1.9L31,6h4.8l1.5,1.7V6H45l2.2,2.7L49.4,6h4.8l1.5,1.7V6h10.9v1.9L68.1,6h4.8l2.8,3.3V25.8z"></path> <polygon class="st0" points="24.9,16.4 24.9,21 24.9,21.3 23.5,21.3 23.5,7.3 20.2,7.3 20.2,9.2 20.2,22 20.2,22 22.4,24.5 25.9,24.5 28.1,21.9 28.2,21.8 28.2,9.6 28.2,7.3 24.9,7.3 "></polygon> <path class="st0" d="M35.3,7.3h-3.6L29.5,10v14.5h3.3V18h1.5v6.4h3.2V9.7L35.3,7.3z M34.1,13.5v1.7h-1.5v-4.5h1.5V13.5z"></path> <polygon class="st0" points="62,11.7 60.3,7.3 57,7.3 57,9.3 57,24.5 57.1,24.5 60.3,24.5 60.3,13.9 62,18.5 62,19.2 62,22.6 62,24.5 65.2,24.5 65.3,24.5 65.3,9.6 65.3,7.3 62,7.3 "></polygon> <path class="st0" d="M53.7,7.3h-3.6L47.9,10v14.5h3.3V18h1.5v6.4h3.2V9.7L53.7,7.3z M52.5,13.7v1.5H51v-4.5h1.5V13.7z"></path> <path class="st0" d="M44.4,7.3h-5.8v17.1h3.3V18h1.5v6.4h3.2V18l-2.1-1.3l2.1-1.6V9.8C46.5,9.8,44.4,7.3,44.4,7.3z M43.3,15.2h-1.5 v-4.6h1.5V15.2z"></path> <path class="st0" d="M68.8,7.3L66.6,10v14.5h3.3V18h1.5v6.4h3.3V9.8l-2.1-2.4C72.4,7.3,68.8,7.3,68.8,7.3z M71.2,13.4v1.8h-1.5v-4.5 h1.5V13.4z"></path> <polygon class="st0" points="17.1,7.3 13.6,7.3 11.4,9.8 11.4,22 13.6,24.5 17.1,24.5 19,22.2 19,22.2 19,15.4 19,15.4 15.1,15.4 15.1,17.5 15.9,17.5 15.9,21.5 14.4,21.5 14.4,10.3 15.9,10.3 15.9,13.7 19,13.7 19,13.7 19,9.7 19,9.6 "></polygon> </svg> 