<svg xmlns="http://www.w3.org/2000/svg" xmlns:xlink="http://www.w3.org/1999/xlink" width="32.81mm" height="25.75mm" viewBox="0 0 93 73"><defs><style>.a{isolation:isolate;}.b{fill:url(#a);}.c{mix-blend-mode:multiply;}.d{fill:#fff;}.e{mix-blend-mode:overlay;}.f{fill:url(#b);}</style><linearGradient id="a" x1="0.39" y1="35.92" x2="92.61" y2="35.92" gradientUnits="userSpaceOnUse"><stop offset="0.06" stop-color="#fff"/><stop offset="0.1" stop-color="#fff"/><stop offset="0.17" stop-color="#fff"/><stop offset="0.18" stop-color="#fff"/><stop offset="0.35" stop-color="#fff"/><stop offset="0.47" stop-color="#fff"/><stop offset="0.57" stop-color="#fff"/><stop offset="0.71" stop-color="#fff"/><stop offset="0.82" stop-color="#fff"/><stop offset="0.85" stop-color="#fff"/><stop offset="0.91" stop-color="#fff"/><stop offset="0.97" stop-color="#fff"/></linearGradient><linearGradient id="b" x1="0.39" y1="35.92" x2="92.61" y2="35.92" gradientUnits="userSpaceOnUse"><stop offset="0.05" stop-color="#fff"/><stop offset="0.09" stop-color="#fff"/><stop offset="0.17" stop-color="#fff"/><stop offset="0.18" stop-color="#fff"/><stop offset="0.2" stop-color="#fff"/><stop offset="0.35" stop-color="#fff"/><stop offset="0.47" stop-color="#fff"/><stop offset="0.57" stop-color="#fff"/><stop offset="0.71" stop-color="#fff"/><stop offset="0.82" stop-color="#fff"/><stop offset="0.85" stop-color="#fff"/><stop offset="0.91" stop-color="#fff"/><stop offset="0.97" stop-color="#fff"/></linearGradient></defs><title>Head and Shoulders logo</title><g class="a"><path class="b" d="M21.41,32.29C14.42,37,6,37.41,2.55,33.2S2,21.74,9,17s15.44-5.12,18.87-.9S28.4,27.58,21.41,32.29ZM20.46,16.8c-2.28-.49-5.65.26-8.69,2.15-4.54,2.84-6.92,7.22-5.32,9.79h0c1.22,2,4.54,2.4,7.19.89l.45-.27.28-.2c.09-.08.2-.13.17-.21s0-.08-.07-.08c-2,.19-3.74-.37-4.56-1.69-1.45-2.31.44-6.11,4.22-8.47A10.33,10.33,0,0,1,20.75,17l.48.08A2.15,2.15,0,0,0,20.46,16.8ZM10.28,32c2.29.49,5.66-.26,8.69-2.16C23.52,27,25.9,22.6,24.29,20v0c-1.22-2-4.53-2.39-7.18-.88-.15.08-.3.16-.45.26a2.92,2.92,0,0,0-.28.21c-.1.07-.2.12-.17.2s0,.09.06.09c2-.19,3.74.37,4.56,1.68,1.45,2.32-.44,6.12-4.22,8.48A10.35,10.35,0,0,1,10,31.79l-.49-.09A2.11,2.11,0,0,0,10.28,32Zm33.63,5.69a3.38,3.38,0,0,1-.75-3.49,7.78,7.78,0,0,1,1.34-2.6,8.4,8.4,0,0,1,6.56-2.82c2.49,0,3.75,1.69,3.75,3.16a4.7,4.7,0,0,1-.4,1.8s0,.06-.07.06H46.26a.1.1,0,0,0-.07.06,4.21,4.21,0,0,0-.29.87c-.15.92,0,2.64,2.61,2.64a5.89,5.89,0,0,0,3.6-1.51.83.83,0,0,1,1,0A8.73,8.73,0,0,1,51,37.68a7.31,7.31,0,0,1-3.91,1.08A4.38,4.38,0,0,1,43.91,37.67ZM46.7,33h5a.13.13,0,0,0,.12-.09,6.12,6.12,0,0,0,.3-1.12c.09-.62.3-2.13-1.4-2.15-1.36,0-2.56,1.15-3.3,2.16a11.21,11.21,0,0,0-.73,1.11C46.63,33,46.68,33,46.7,33Zm35.24-8.53s-6,12.74-6.2,13.15a1.91,1.91,0,0,1-1.8,1H72.27s0,0,0-.1l.29-.6.1-.19c0-.09.06-.15-.16,0a5.79,5.79,0,0,1-3.48,1c-2.65,0-3.67-2.45-2.73-4.78a7.86,7.86,0,0,1,6.87-5.11,4,4,0,0,1,3.07,1c.14.13.13.15.19.05.79-1.67,1.2-2.59,1.31-2.81A4.27,4.27,0,0,1,81,24.42l1,0A0,0,0,0,1,81.94,24.45Zm-6.33,6A1.94,1.94,0,0,0,74.24,30c-2.63,0-4.91,2.78-5.48,4.74-.49,1.67.47,2.84,1.78,2.84a3.52,3.52,0,0,0,2.91-1.64c.55-1.13,2.15-4.43,2.28-4.73A.64.64,0,0,0,75.61,30.45ZM9.35,50.08c-1.55-.8-3.33-1.18-3-2.29.27-.85,1.2-1.1,2.15-1.1a6.63,6.63,0,0,1,2.87.68A.78.78,0,0,0,12.44,47s0-.05,0-.08a8.25,8.25,0,0,0-3.82-1.08c-3.13-.13-4.91,1.08-5.48,2.61a2.17,2.17,0,0,0,1.21,2.73c1.26.71,3.26,1.38,3,2.39-.22.83-.8,1.16-2.6,1.16a6.76,6.76,0,0,1-3.18-.94c-.46-.26-1,.22-1.14.35s0,0,0,.08A7.36,7.36,0,0,0,5,55.62c2.41,0,4.79-1,5.52-2.79A2.13,2.13,0,0,0,9.35,50.08Zm24.9.58a8,8,0,0,1-7.18,5c-3.42,0-4.45-2.44-3.89-4.35.87-3,3.32-5.46,7.68-5.46C33.76,45.8,35.48,47.87,34.25,50.66Zm-3.67-4c-2.71,0-5,4.84-5,6.42a1.54,1.54,0,0,0,1.66,1.7c1.74,0,4.4-3.25,4.82-6.15C32.27,47,31.41,46.64,30.58,46.64Zm58.68,3.44c-1.54-.8-3.33-1.18-3-2.29.26-.85,1.2-1.1,2.14-1.1a6.54,6.54,0,0,1,2.88.68A.78.78,0,0,0,92.36,47s0-.05,0-.08a8.06,8.06,0,0,0-3.81-1.08c-3.13-.13-4.92,1.08-5.49,2.61a2.17,2.17,0,0,0,1.21,2.73c1.27.71,3.27,1.38,3,2.39-.21.83-.79,1.16-2.59,1.16a6.73,6.73,0,0,1-3.18-.94c-.47-.26-1,.22-1.15.35s0,0,0,.08a7.33,7.33,0,0,0,4.54,1.44c2.41,0,4.8-1,5.53-2.78A2.13,2.13,0,0,0,89.26,50.08Zm2.48,6.6c0-.37-.21-.51-.57-.54h-.81V58h.37v-.77h.18l.41.76h.44l-.45-.79A.42.42,0,0,0,91.74,56.68Zm-.67.2h-.33v-.44h.32c.13,0,.27,0,.27.2S91.24,56.88,91.07,56.88Zm.18-1.42h-.19a1.54,1.54,0,1,0,.19,0Zm-.18,2.87a1.29,1.29,0,0,1,0-2.57h.15a1.29,1.29,0,0,1-.14,2.57ZM66,32.79l-1.51,3.28-.72,1.52a2,2,0,0,1-1.81,1H60.27s-.05,0,0-.1l.35-.73.09-.2c.07-.15-.09,0-.25.11a6.42,6.42,0,0,1-3.67,1.07,2.44,2.44,0,0,1-2.3-3.56c.82-2,3.19-3.18,5.47-3.38a4.07,4.07,0,0,1,3.14.77s.35-.68.58-1.15c.4-.88-.46-1.82-2.2-1.68a9.38,9.38,0,0,0-2.8.79c-.48.18-.89.13-1-.29a9.49,9.49,0,0,1,4.78-1.52C66.53,28.74,66.65,31.4,66,32.79Zm-3.45.28a2.55,2.55,0,0,0-1.71-.26,4.32,4.32,0,0,0-3.91,3.44,1.26,1.26,0,0,0,1.35,1.4A3.52,3.52,0,0,0,61.45,36c.1-.2,1-2.12,1.21-2.62A.27.27,0,0,0,62.54,33.07ZM34.13,35.89c.6-1.27,1.25-2.63,1.49-3.15A4.91,4.91,0,0,1,39.42,30c1,0,1.4.54,1.07,1.24-.18.4-1.32,2.81-2.25,4.77-.56,1.2-1.05,2.23-1.2,2.54,0,.06,0,.1,0,.1h1.68a2,2,0,0,0,1.81-1l.71-1.49c.65-1.39,1.39-3,1.68-3.59.58-1.21.84-3.73-2.23-3.73A5.36,5.36,0,0,0,37.37,30l-.45.31c-.14.09-.15.06-.13,0L40,23.35c0-.05,0-.08,0-.08s-.51,0-.94,0c-1.63.1-2.82,1.58-3.38,2.8-.22.49-2.91,6.2-4.58,9.73L31,36l-1.21,2.54c0,.05,0,.09,0,.1h1.68a1.94,1.94,0,0,0,1.8-1c.21-.43.46-1,.71-1.49Zm29,18.64a3.39,3.39,0,0,1-.75-3.48,7.67,7.67,0,0,1,1.34-2.6,8.41,8.41,0,0,1,6.56-2.82c2.49,0,3.76,1.69,3.75,3.16a4.62,4.62,0,0,1-.4,1.79s0,.07-.07.07H65.51a.08.08,0,0,0-.07.06,4.21,4.21,0,0,0-.29.87c-.15.92,0,2.63,2.61,2.63a5.92,5.92,0,0,0,3.6-1.5.84.84,0,0,1,1,0,9.09,9.09,0,0,1-2.2,1.88,7.31,7.31,0,0,1-3.91,1.08A4.39,4.39,0,0,1,63.16,54.53ZM66,49.85h5a.15.15,0,0,0,.13-.09,7.36,7.36,0,0,0,.29-1.12c.09-.62.31-2.13-1.4-2.16-1.37,0-2.56,1.16-3.3,2.16a13.26,13.26,0,0,0-.73,1.12C65.88,49.84,65.93,49.85,66,49.85ZM54.11,41.18s0-.07,0-.07-.52,0-.93,0c-1.64.09-2.82,1.57-3.38,2.8L44.38,55.35c0,.06,0,.1,0,.1h1.68a2,2,0,0,0,1.81-1ZM47.4,45.83s0-.07,0-.07H44.42s-.08,0-.1.11-2.28,5-2.48,5.4-.46,1-.7,1.44a3.5,3.5,0,0,1-3.25,1.78c-.91,0-1.17-.81-.84-1.74.26-.73,3.17-6.87,3.18-6.89s0-.09,0-.09H37.25s-.07.05-.1.1c-.42.88-2.08,4.48-2.67,5.82-.68,1.56-.4,3.84,1.9,3.9a6.4,6.4,0,0,0,3.73-1.09l.17-.12s.07,0,0,0-.4.86-.46,1,0,.09,0,.1h1.68a2,2,0,0,0,1.8-1c.21-.41.46-.93.71-1.48C44.09,53,47.39,45.87,47.4,45.83Zm24.71,9.58s0,.06,0,.06h1.7a2,2,0,0,0,1.78-1L78,49.2c.93-1.53,3-2,4-1,0,0,.09.08.14,0,1-1.26,1.4-1.65,1.82-2.19,0,0,0-.09,0-.11a2.45,2.45,0,0,0-1-.24,5.41,5.41,0,0,0-3.83,1.6L79,47.4c-.06.05-.08,0,0-.06l0,0,0,0c.09-.2.53-1.07.68-1.41a0,0,0,0,0,0-.06,4.69,4.69,0,0,0-3.07.51A1.82,1.82,0,0,0,76,47ZM14.33,52.75c.59-1.28,1.24-2.63,1.48-3.15a4.91,4.91,0,0,1,3.81-2.79c1,0,1.39.54,1.07,1.24-.19.39-1.33,2.81-2.26,4.77-.56,1.2-1.05,2.23-1.2,2.54,0,0,0,.09,0,.09h1.68a2,2,0,0,0,1.81-1L21.45,53c.66-1.4,1.39-3,1.67-3.6.59-1.21.86-3.73-2.22-3.73a5.3,5.3,0,0,0-3.34,1.19c-.12.08-.35.23-.45.31s-.15.05-.13,0l3.19-6.79s0-.07,0-.07-.51,0-.93,0c-1.64.1-2.82,1.58-3.38,2.8-.22.49-2.86,6-4.53,9.58l-.07.16c-.57,1.19-1.05,2.22-1.2,2.53,0,.06,0,.1,0,.1h1.68a2,2,0,0,0,1.81-1c.2-.42.45-.94.7-1.49ZM66.18,41.2,60,54.44a2,2,0,0,1-1.81,1H56.5s0,0,0-.1l.28-.6.11-.2c0-.08.06-.14-.16,0a5.83,5.83,0,0,1-3.5,1c-2.66,0-3.69-2.45-2.76-4.8a7.9,7.9,0,0,1,6.89-5.15,4,4,0,0,1,3.1,1c.13.13.13.15.18,0,.8-1.68,1.21-2.6,1.31-2.82a4.3,4.3,0,0,1,3.26-2.69l1,0S66.2,41.17,66.18,41.2Zm-6.35,6a1.94,1.94,0,0,0-1.37-.45c-2.65,0-4.94,2.81-5.5,4.78-.49,1.68.48,2.85,1.79,2.85a3.59,3.59,0,0,0,2.93-1.65c.54-1.15,2.15-4.46,2.28-4.76A.66.66,0,0,0,59.83,47.25ZM92.35,38c0,.39-.49.49-.9.54H90.13a2.94,2.94,0,0,1-1.56-.4,4.79,4.79,0,0,1-.53-.41,6.18,6.18,0,0,1-3.66,1c-2.79,0-4.66-.95-4.13-3.19.58-2.45,3.67-3.08,4-3.13,0,0,0,0,0,0a2.28,2.28,0,0,1-.35-1.54c.32-1.59,2.05-3.11,4.85-3.11,1.33,0,2.79.66,2.79,1.88,0,1.94-3.66,3-4.31,3.17l-.09,0a15.73,15.73,0,0,0,.84,1.42,14.35,14.35,0,0,0,1,1.3h0a3.54,3.54,0,0,0,.87-1,5.18,5.18,0,0,0,.31-.59,1.11,1.11,0,0,1,1.23-.65s0,.15,0,.15a6.17,6.17,0,0,1-.65,1.58,5.73,5.73,0,0,1-1,1.27,6.73,6.73,0,0,0,1.66,1.29,3,3,0,0,0,.63.27Zm-6.06-7.54a3.8,3.8,0,0,0,.41,1.45h0a.12.12,0,0,0,.07,0A4.32,4.32,0,0,0,88.5,31a2.32,2.32,0,0,0,.66-1.27c0-.44-.17-.94-1.14-.94A1.64,1.64,0,0,0,86.29,30.47Zm.79,6.44a16.05,16.05,0,0,1-1.26-1.58,16.47,16.47,0,0,1-1.09-1.69s0,0,0,0a4,4,0,0,0-1.2.69,2,2,0,0,0-.74,1.78c.23,1.18,1.33,1.5,2.43,1.44A3.48,3.48,0,0,0,87,37C87.1,36.94,87.09,36.93,87.08,36.91Z"/><g class="c"><path class="d" d="M21.41,32.29C14.42,37,6,37.41,2.55,33.2S2,21.74,9,17s15.44-5.12,18.87-.9S28.4,27.58,21.41,32.29ZM20.46,16.8c-2.28-.49-5.65.26-8.69,2.15-4.54,2.84-6.92,7.22-5.32,9.79h0c1.22,2,4.54,2.4,7.19.89l.45-.27.28-.2c.09-.08.2-.13.17-.21s0-.08-.07-.08c-2,.19-3.74-.37-4.56-1.69-1.45-2.31.44-6.11,4.22-8.47A10.33,10.33,0,0,1,20.75,17l.48.08A2.15,2.15,0,0,0,20.46,16.8ZM10.28,32c2.29.49,5.66-.26,8.69-2.16C23.52,27,25.9,22.6,24.29,20v0c-1.22-2-4.53-2.39-7.18-.88-.15.08-.3.16-.45.26a2.92,2.92,0,0,0-.28.21c-.1.07-.2.12-.17.2s0,.09.06.09c2-.19,3.74.37,4.56,1.68,1.45,2.32-.44,6.12-4.22,8.48A10.35,10.35,0,0,1,10,31.79l-.49-.09A2.11,2.11,0,0,0,10.28,32Zm33.63,5.69a3.38,3.38,0,0,1-.75-3.49,7.78,7.78,0,0,1,1.34-2.6,8.4,8.4,0,0,1,6.56-2.82c2.49,0,3.75,1.69,3.75,3.16a4.7,4.7,0,0,1-.4,1.8s0,.06-.07.06H46.26a.1.1,0,0,0-.07.06,4.21,4.21,0,0,0-.29.87c-.15.92,0,2.64,2.61,2.64a5.89,5.89,0,0,0,3.6-1.51.83.83,0,0,1,1,0A8.73,8.73,0,0,1,51,37.68a7.31,7.31,0,0,1-3.91,1.08A4.38,4.38,0,0,1,43.91,37.67ZM46.7,33h5a.13.13,0,0,0,.12-.09,6.12,6.12,0,0,0,.3-1.12c.09-.62.3-2.13-1.4-2.15-1.36,0-2.56,1.15-3.3,2.16a11.21,11.21,0,0,0-.73,1.11C46.63,33,46.68,33,46.7,33Zm35.24-8.53s-6,12.74-6.2,13.15a1.91,1.91,0,0,1-1.8,1H72.27s0,0,0-.1l.29-.6.1-.19c0-.09.06-.15-.16,0a5.79,5.79,0,0,1-3.48,1c-2.65,0-3.67-2.45-2.73-4.78a7.86,7.86,0,0,1,6.87-5.11,4,4,0,0,1,3.07,1c.14.13.13.15.19.05.79-1.67,1.2-2.59,1.31-2.81A4.27,4.27,0,0,1,81,24.42l1,0A0,0,0,0,1,81.94,24.45Zm-6.33,6A1.94,1.94,0,0,0,74.24,30c-2.63,0-4.91,2.78-5.48,4.74-.49,1.67.47,2.84,1.78,2.84a3.52,3.52,0,0,0,2.91-1.64c.55-1.13,2.15-4.43,2.28-4.73A.64.64,0,0,0,75.61,30.45ZM9.35,50.08c-1.55-.8-3.33-1.18-3-2.29.27-.85,1.2-1.1,2.15-1.1a6.63,6.63,0,0,1,2.87.68A.78.78,0,0,0,12.44,47s0-.05,0-.08a8.25,8.25,0,0,0-3.82-1.08c-3.13-.13-4.91,1.08-5.48,2.61a2.17,2.17,0,0,0,1.21,2.73c1.26.71,3.26,1.38,3,2.39-.22.83-.8,1.16-2.6,1.16a6.76,6.76,0,0,1-3.18-.94c-.46-.26-1,.22-1.14.35s0,0,0,.08A7.36,7.36,0,0,0,5,55.62c2.41,0,4.79-1,5.52-2.79A2.13,2.13,0,0,0,9.35,50.08Zm24.9.58a8,8,0,0,1-7.18,5c-3.42,0-4.45-2.44-3.89-4.35.87-3,3.32-5.46,7.68-5.46C33.76,45.8,35.48,47.87,34.25,50.66Zm-3.67-4c-2.71,0-5,4.84-5,6.42a1.54,1.54,0,0,0,1.66,1.7c1.74,0,4.4-3.25,4.82-6.15C32.27,47,31.41,46.64,30.58,46.64Zm58.68,3.44c-1.54-.8-3.33-1.18-3-2.29.26-.85,1.2-1.1,2.14-1.1a6.54,6.54,0,0,1,2.88.68A.78.78,0,0,0,92.36,47s0-.05,0-.08a8.06,8.06,0,0,0-3.81-1.08c-3.13-.13-4.92,1.08-5.49,2.61a2.17,2.17,0,0,0,1.21,2.73c1.27.71,3.27,1.38,3,2.39-.21.83-.79,1.16-2.59,1.16a6.73,6.73,0,0,1-3.18-.94c-.47-.26-1,.22-1.15.35s0,0,0,.08a7.33,7.33,0,0,0,4.54,1.44c2.41,0,4.8-1,5.53-2.78A2.13,2.13,0,0,0,89.26,50.08Zm2.48,6.6c0-.37-.21-.51-.57-.54h-.81V58h.37v-.77h.18l.41.76h.44l-.45-.79A.42.42,0,0,0,91.74,56.68Zm-.67.2h-.33v-.44h.32c.13,0,.27,0,.27.2S91.24,56.88,91.07,56.88Zm.18-1.42h-.19a1.54,1.54,0,1,0,.19,0Zm-.18,2.87a1.29,1.29,0,0,1,0-2.57h.15a1.29,1.29,0,0,1-.14,2.57ZM66,32.79l-1.51,3.28-.72,1.52a2,2,0,0,1-1.81,1H60.27s-.05,0,0-.1l.35-.73.09-.2c.07-.15-.09,0-.25.11a6.42,6.42,0,0,1-3.67,1.07,2.44,2.44,0,0,1-2.3-3.56c.82-2,3.19-3.18,5.47-3.38a4.07,4.07,0,0,1,3.14.77s.35-.68.58-1.15c.4-.88-.46-1.82-2.2-1.68a9.38,9.38,0,0,0-2.8.79c-.48.18-.89.13-1-.29a9.49,9.49,0,0,1,4.78-1.52C66.53,28.74,66.65,31.4,66,32.79Zm-3.45.28a2.55,2.55,0,0,0-1.71-.26,4.32,4.32,0,0,0-3.91,3.44,1.26,1.26,0,0,0,1.35,1.4A3.52,3.52,0,0,0,61.45,36c.1-.2,1-2.12,1.21-2.62A.27.27,0,0,0,62.54,33.07ZM34.13,35.89c.6-1.27,1.25-2.63,1.49-3.15A4.91,4.91,0,0,1,39.42,30c1,0,1.4.54,1.07,1.24-.18.4-1.32,2.81-2.25,4.77-.56,1.2-1.05,2.23-1.2,2.54,0,.06,0,.1,0,.1h1.68a2,2,0,0,0,1.81-1l.71-1.49c.65-1.39,1.39-3,1.68-3.59.58-1.21.84-3.73-2.23-3.73A5.36,5.36,0,0,0,37.37,30l-.45.31c-.14.09-.15.06-.13,0L40,23.35c0-.05,0-.08,0-.08s-.51,0-.94,0c-1.63.1-2.82,1.58-3.38,2.8-.22.49-2.91,6.2-4.58,9.73L31,36l-1.21,2.54c0,.05,0,.09,0,.1h1.68a1.94,1.94,0,0,0,1.8-1c.21-.43.46-1,.71-1.49Zm29,18.64a3.39,3.39,0,0,1-.75-3.48,7.67,7.67,0,0,1,1.34-2.6,8.41,8.41,0,0,1,6.56-2.82c2.49,0,3.76,1.69,3.75,3.16a4.62,4.62,0,0,1-.4,1.79s0,.07-.07.07H65.51a.08.08,0,0,0-.07.06,4.21,4.21,0,0,0-.29.87c-.15.92,0,2.63,2.61,2.63a5.92,5.92,0,0,0,3.6-1.5.84.84,0,0,1,1,0,9.09,9.09,0,0,1-2.2,1.88,7.31,7.31,0,0,1-3.91,1.08A4.39,4.39,0,0,1,63.16,54.53ZM66,49.85h5a.15.15,0,0,0,.13-.09,7.36,7.36,0,0,0,.29-1.12c.09-.62.31-2.13-1.4-2.16-1.37,0-2.56,1.16-3.3,2.16a13.26,13.26,0,0,0-.73,1.12C65.88,49.84,65.93,49.85,66,49.85ZM54.11,41.18s0-.07,0-.07-.52,0-.93,0c-1.64.09-2.82,1.57-3.38,2.8L44.38,55.35c0,.06,0,.1,0,.1h1.68a2,2,0,0,0,1.81-1ZM47.4,45.83s0-.07,0-.07H44.42s-.08,0-.1.11-2.28,5-2.48,5.4-.46,1-.7,1.44a3.5,3.5,0,0,1-3.25,1.78c-.91,0-1.17-.81-.84-1.74.26-.73,3.17-6.87,3.18-6.89s0-.09,0-.09H37.25s-.07.05-.1.1c-.42.88-2.08,4.48-2.67,5.82-.68,1.56-.4,3.84,1.9,3.9a6.4,6.4,0,0,0,3.73-1.09l.17-.12s.07,0,0,0-.4.86-.46,1,0,.09,0,.1h1.68a2,2,0,0,0,1.8-1c.21-.41.46-.93.71-1.48C44.09,53,47.39,45.87,47.4,45.83Zm24.71,9.58s0,.06,0,.06h1.7a2,2,0,0,0,1.78-1L78,49.2c.93-1.53,3-2,4-1,0,0,.09.08.14,0,1-1.26,1.4-1.65,1.82-2.19,0,0,0-.09,0-.11a2.45,2.45,0,0,0-1-.24,5.41,5.41,0,0,0-3.83,1.6L79,47.4c-.06.05-.08,0,0-.06l0,0,0,0c.09-.2.53-1.07.68-1.41a0,0,0,0,0,0-.06,4.69,4.69,0,0,0-3.07.51A1.82,1.82,0,0,0,76,47ZM14.33,52.75c.59-1.28,1.24-2.63,1.48-3.15a4.91,4.91,0,0,1,3.81-2.79c1,0,1.39.54,1.07,1.24-.19.39-1.33,2.81-2.26,4.77-.56,1.2-1.05,2.23-1.2,2.54,0,0,0,.09,0,.09h1.68a2,2,0,0,0,1.81-1L21.45,53c.66-1.4,1.39-3,1.67-3.6.59-1.21.86-3.73-2.22-3.73a5.3,5.3,0,0,0-3.34,1.19c-.12.08-.35.23-.45.31s-.15.05-.13,0l3.19-6.79s0-.07,0-.07-.51,0-.93,0c-1.64.1-2.82,1.58-3.38,2.8-.22.49-2.86,6-4.53,9.58l-.07.16c-.57,1.19-1.05,2.22-1.2,2.53,0,.06,0,.1,0,.1h1.68a2,2,0,0,0,1.81-1c.2-.42.45-.94.7-1.49ZM66.18,41.2,60,54.44a2,2,0,0,1-1.81,1H56.5s0,0,0-.1l.28-.6.11-.2c0-.08.06-.14-.16,0a5.83,5.83,0,0,1-3.5,1c-2.66,0-3.69-2.45-2.76-4.8a7.9,7.9,0,0,1,6.89-5.15,4,4,0,0,1,3.1,1c.13.13.13.15.18,0,.8-1.68,1.21-2.6,1.31-2.82a4.3,4.3,0,0,1,3.26-2.69l1,0S66.2,41.17,66.18,41.2Zm-6.35,6a1.94,1.94,0,0,0-1.37-.45c-2.65,0-4.94,2.81-5.5,4.78-.49,1.68.48,2.85,1.79,2.85a3.59,3.59,0,0,0,2.93-1.65c.54-1.15,2.15-4.46,2.28-4.76A.66.66,0,0,0,59.83,47.25ZM92.35,38c0,.39-.49.49-.9.54H90.13a2.94,2.94,0,0,1-1.56-.4,4.79,4.79,0,0,1-.53-.41,6.18,6.18,0,0,1-3.66,1c-2.79,0-4.66-.95-4.13-3.19.58-2.45,3.67-3.08,4-3.13,0,0,0,0,0,0a2.28,2.28,0,0,1-.35-1.54c.32-1.59,2.05-3.11,4.85-3.11,1.33,0,2.79.66,2.79,1.88,0,1.94-3.66,3-4.31,3.17l-.09,0a15.73,15.73,0,0,0,.84,1.42,14.35,14.35,0,0,0,1,1.3h0a3.54,3.54,0,0,0,.87-1,5.18,5.18,0,0,0,.31-.59,1.11,1.11,0,0,1,1.23-.65s0,.15,0,.15a6.17,6.17,0,0,1-.65,1.58,5.73,5.73,0,0,1-1,1.27,6.73,6.73,0,0,0,1.66,1.29,3,3,0,0,0,.63.27Zm-6.06-7.54a3.8,3.8,0,0,0,.41,1.45h0a.12.12,0,0,0,.07,0A4.32,4.32,0,0,0,88.5,31a2.32,2.32,0,0,0,.66-1.27c0-.44-.17-.94-1.14-.94A1.64,1.64,0,0,0,86.29,30.47Zm.79,6.44a16.05,16.05,0,0,1-1.26-1.58,16.47,16.47,0,0,1-1.09-1.69s0,0,0,0a4,4,0,0,0-1.2.69,2,2,0,0,0-.74,1.78c.23,1.18,1.33,1.5,2.43,1.44A3.48,3.48,0,0,0,87,37C87.1,36.94,87.09,36.93,87.08,36.91Z"/></g><g class="e"><path class="f" d="M21.41,32.29C14.42,37,6,37.41,2.55,33.2S2,21.74,9,17s15.44-5.12,18.87-.9S28.4,27.58,21.41,32.29ZM20.46,16.8c-2.28-.49-5.65.26-8.69,2.15-4.54,2.84-6.92,7.22-5.32,9.79h0c1.22,2,4.54,2.4,7.19.89l.45-.27.28-.2c.09-.08.2-.13.17-.21s0-.08-.07-.08c-2,.19-3.74-.37-4.56-1.69-1.45-2.31.44-6.11,4.22-8.47A10.33,10.33,0,0,1,20.75,17l.48.08A2.15,2.15,0,0,0,20.46,16.8ZM10.28,32c2.29.49,5.66-.26,8.69-2.16C23.52,27,25.9,22.6,24.29,20v0c-1.22-2-4.53-2.39-7.18-.88-.15.08-.3.16-.45.26a2.92,2.92,0,0,0-.28.21c-.1.07-.2.12-.17.2s0,.09.06.09c2-.19,3.74.37,4.56,1.68,1.45,2.32-.44,6.12-4.22,8.48A10.35,10.35,0,0,1,10,31.79l-.49-.09A2.11,2.11,0,0,0,10.28,32Zm33.63,5.69a3.38,3.38,0,0,1-.75-3.49,7.78,7.78,0,0,1,1.34-2.6,8.4,8.4,0,0,1,6.56-2.82c2.49,0,3.75,1.69,3.75,3.16a4.7,4.7,0,0,1-.4,1.8s0,.06-.07.06H46.26a.1.1,0,0,0-.07.06,4.21,4.21,0,0,0-.29.87c-.15.92,0,2.64,2.61,2.64a5.89,5.89,0,0,0,3.6-1.51.83.83,0,0,1,1,0A8.73,8.73,0,0,1,51,37.68a7.31,7.31,0,0,1-3.91,1.08A4.38,4.38,0,0,1,43.91,37.67ZM46.7,33h5a.13.13,0,0,0,.12-.09,6.12,6.12,0,0,0,.3-1.12c.09-.62.3-2.13-1.4-2.15-1.36,0-2.56,1.15-3.3,2.16a11.21,11.21,0,0,0-.73,1.11C46.63,33,46.68,33,46.7,33Zm35.24-8.53s-6,12.74-6.2,13.15a1.91,1.91,0,0,1-1.8,1H72.27s0,0,0-.1l.29-.6.1-.19c0-.09.06-.15-.16,0a5.79,5.79,0,0,1-3.48,1c-2.65,0-3.67-2.45-2.73-4.78a7.86,7.86,0,0,1,6.87-5.11,4,4,0,0,1,3.07,1c.14.13.13.15.19.05.79-1.67,1.2-2.59,1.31-2.81A4.27,4.27,0,0,1,81,24.42l1,0A0,0,0,0,1,81.94,24.45Zm-6.33,6A1.94,1.94,0,0,0,74.24,30c-2.63,0-4.91,2.78-5.48,4.74-.49,1.67.47,2.84,1.78,2.84a3.52,3.52,0,0,0,2.91-1.64c.55-1.13,2.15-4.43,2.28-4.73A.64.64,0,0,0,75.61,30.45ZM9.35,50.08c-1.55-.8-3.33-1.18-3-2.29.27-.85,1.2-1.1,2.15-1.1a6.63,6.63,0,0,1,2.87.68A.78.78,0,0,0,12.44,47s0-.05,0-.08a8.25,8.25,0,0,0-3.82-1.08c-3.13-.13-4.91,1.08-5.48,2.61a2.17,2.17,0,0,0,1.21,2.73c1.26.71,3.26,1.38,3,2.39-.22.83-.8,1.16-2.6,1.16a6.76,6.76,0,0,1-3.18-.94c-.46-.26-1,.22-1.14.35s0,0,0,.08A7.36,7.36,0,0,0,5,55.62c2.41,0,4.79-1,5.52-2.79A2.13,2.13,0,0,0,9.35,50.08Zm24.9.58a8,8,0,0,1-7.18,5c-3.42,0-4.45-2.44-3.89-4.35.87-3,3.32-5.46,7.68-5.46C33.76,45.8,35.48,47.87,34.25,50.66Zm-3.67-4c-2.71,0-5,4.84-5,6.42a1.54,1.54,0,0,0,1.66,1.7c1.74,0,4.4-3.25,4.82-6.15C32.27,47,31.41,46.64,30.58,46.64Zm58.68,3.44c-1.54-.8-3.33-1.18-3-2.29.26-.85,1.2-1.1,2.14-1.1a6.54,6.54,0,0,1,2.88.68A.78.78,0,0,0,92.36,47s0-.05,0-.08a8.06,8.06,0,0,0-3.81-1.08c-3.13-.13-4.92,1.08-5.49,2.61a2.17,2.17,0,0,0,1.21,2.73c1.27.71,3.27,1.38,3,2.39-.21.83-.79,1.16-2.59,1.16a6.73,6.73,0,0,1-3.18-.94c-.47-.26-1,.22-1.15.35s0,0,0,.08a7.33,7.33,0,0,0,4.54,1.44c2.41,0,4.8-1,5.53-2.78A2.13,2.13,0,0,0,89.26,50.08Zm2.48,6.6c0-.37-.21-.51-.57-.54h-.81V58h.37v-.77h.18l.41.76h.44l-.45-.79A.42.42,0,0,0,91.74,56.68Zm-.67.2h-.33v-.44h.32c.13,0,.27,0,.27.2S91.24,56.88,91.07,56.88Zm.18-1.42h-.19a1.54,1.54,0,1,0,.19,0Zm-.18,2.87a1.29,1.29,0,0,1,0-2.57h.15a1.29,1.29,0,0,1-.14,2.57ZM66,32.79l-1.51,3.28-.72,1.52a2,2,0,0,1-1.81,1H60.27s-.05,0,0-.1l.35-.73.09-.2c.07-.15-.09,0-.25.11a6.42,6.42,0,0,1-3.67,1.07,2.44,2.44,0,0,1-2.3-3.56c.82-2,3.19-3.18,5.47-3.38a4.07,4.07,0,0,1,3.14.77s.35-.68.58-1.15c.4-.88-.46-1.82-2.2-1.68a9.38,9.38,0,0,0-2.8.79c-.48.18-.89.13-1-.29a9.49,9.49,0,0,1,4.78-1.52C66.53,28.74,66.65,31.4,66,32.79Zm-3.45.28a2.55,2.55,0,0,0-1.71-.26,4.32,4.32,0,0,0-3.91,3.44,1.26,1.26,0,0,0,1.35,1.4A3.52,3.52,0,0,0,61.45,36c.1-.2,1-2.12,1.21-2.62A.27.27,0,0,0,62.54,33.07ZM34.13,35.89c.6-1.27,1.25-2.63,1.49-3.15A4.91,4.91,0,0,1,39.42,30c1,0,1.4.54,1.07,1.24-.18.4-1.32,2.81-2.25,4.77-.56,1.2-1.05,2.23-1.2,2.54,0,.06,0,.1,0,.1h1.68a2,2,0,0,0,1.81-1l.71-1.49c.65-1.39,1.39-3,1.68-3.59.58-1.21.84-3.73-2.23-3.73A5.36,5.36,0,0,0,37.37,30l-.45.31c-.14.09-.15.06-.13,0L40,23.35c0-.05,0-.08,0-.08s-.51,0-.94,0c-1.63.1-2.82,1.58-3.38,2.8-.22.49-2.91,6.2-4.58,9.73L31,36l-1.21,2.54c0,.05,0,.09,0,.1h1.68a1.94,1.94,0,0,0,1.8-1c.21-.43.46-1,.71-1.49Zm29,18.64a3.39,3.39,0,0,1-.75-3.48,7.67,7.67,0,0,1,1.34-2.6,8.41,8.41,0,0,1,6.56-2.82c2.49,0,3.76,1.69,3.75,3.16a4.62,4.62,0,0,1-.4,1.79s0,.07-.07.07H65.51a.08.08,0,0,0-.07.06,4.21,4.21,0,0,0-.29.87c-.15.92,0,2.63,2.61,2.63a5.92,5.92,0,0,0,3.6-1.5.84.84,0,0,1,1,0,9.09,9.09,0,0,1-2.2,1.88,7.31,7.31,0,0,1-3.91,1.08A4.39,4.39,0,0,1,63.16,54.53ZM66,49.85h5a.15.15,0,0,0,.13-.09,7.36,7.36,0,0,0,.29-1.12c.09-.62.31-2.13-1.4-2.16-1.37,0-2.56,1.16-3.3,2.16a13.26,13.26,0,0,0-.73,1.12C65.88,49.84,65.93,49.85,66,49.85ZM54.11,41.18s0-.07,0-.07-.52,0-.93,0c-1.64.09-2.82,1.57-3.38,2.8L44.38,55.35c0,.06,0,.1,0,.1h1.68a2,2,0,0,0,1.81-1ZM47.4,45.83s0-.07,0-.07H44.42s-.08,0-.1.11-2.28,5-2.48,5.4-.46,1-.7,1.44a3.5,3.5,0,0,1-3.25,1.78c-.91,0-1.17-.81-.84-1.74.26-.73,3.17-6.87,3.18-6.89s0-.09,0-.09H37.25s-.07.05-.1.1c-.42.88-2.08,4.48-2.67,5.82-.68,1.56-.4,3.84,1.9,3.9a6.4,6.4,0,0,0,3.73-1.09l.17-.12s.07,0,0,0-.4.86-.46,1,0,.09,0,.1h1.68a2,2,0,0,0,1.8-1c.21-.41.46-.93.71-1.48C44.09,53,47.39,45.87,47.4,45.83Zm24.71,9.58s0,.06,0,.06h1.7a2,2,0,0,0,1.78-1L78,49.2c.93-1.53,3-2,4-1,0,0,.09.08.14,0,1-1.26,1.4-1.65,1.82-2.19,0,0,0-.09,0-.11a2.45,2.45,0,0,0-1-.24,5.41,5.41,0,0,0-3.83,1.6L79,47.4c-.06.05-.08,0,0-.06l0,0,0,0c.09-.2.53-1.07.68-1.41a0,0,0,0,0,0-.06,4.69,4.69,0,0,0-3.07.51A1.82,1.82,0,0,0,76,47ZM14.33,52.75c.59-1.28,1.24-2.63,1.48-3.15a4.91,4.91,0,0,1,3.81-2.79c1,0,1.39.54,1.07,1.24-.19.39-1.33,2.81-2.26,4.77-.56,1.2-1.05,2.23-1.2,2.54,0,0,0,.09,0,.09h1.68a2,2,0,0,0,1.81-1L21.45,53c.66-1.4,1.39-3,1.67-3.6.59-1.21.86-3.73-2.22-3.73a5.3,5.3,0,0,0-3.34,1.19c-.12.08-.35.23-.45.31s-.15.05-.13,0l3.19-6.79s0-.07,0-.07-.51,0-.93,0c-1.64.1-2.82,1.58-3.38,2.8-.22.49-2.86,6-4.53,9.58l-.07.16c-.57,1.19-1.05,2.22-1.2,2.53,0,.06,0,.1,0,.1h1.68a2,2,0,0,0,1.81-1c.2-.42.45-.94.7-1.49ZM66.18,41.2,60,54.44a2,2,0,0,1-1.81,1H56.5s0,0,0-.1l.28-.6.11-.2c0-.08.06-.14-.16,0a5.83,5.83,0,0,1-3.5,1c-2.66,0-3.69-2.45-2.76-4.8a7.9,7.9,0,0,1,6.89-5.15,4,4,0,0,1,3.1,1c.13.13.13.15.18,0,.8-1.68,1.21-2.6,1.31-2.82a4.3,4.3,0,0,1,3.26-2.69l1,0S66.2,41.17,66.18,41.2Zm-6.35,6a1.94,1.94,0,0,0-1.37-.45c-2.65,0-4.94,2.81-5.5,4.78-.49,1.68.48,2.85,1.79,2.85a3.59,3.59,0,0,0,2.93-1.65c.54-1.15,2.15-4.46,2.28-4.76A.66.66,0,0,0,59.83,47.25ZM92.35,38c0,.39-.49.49-.9.54H90.13a2.94,2.94,0,0,1-1.56-.4,4.79,4.79,0,0,1-.53-.41,6.18,6.18,0,0,1-3.66,1c-2.79,0-4.66-.95-4.13-3.19.58-2.45,3.67-3.08,4-3.13,0,0,0,0,0,0a2.28,2.28,0,0,1-.35-1.54c.32-1.59,2.05-3.11,4.85-3.11,1.33,0,2.79.66,2.79,1.88,0,1.94-3.66,3-4.31,3.17l-.09,0a15.73,15.73,0,0,0,.84,1.42,14.35,14.35,0,0,0,1,1.3h0a3.54,3.54,0,0,0,.87-1,5.18,5.18,0,0,0,.31-.59,1.11,1.11,0,0,1,1.23-.65s0,.15,0,.15a6.17,6.17,0,0,1-.65,1.58,5.73,5.73,0,0,1-1,1.27,6.73,6.73,0,0,0,1.66,1.29,3,3,0,0,0,.63.27Zm-6.06-7.54a3.8,3.8,0,0,0,.41,1.45h0a.12.12,0,0,0,.07,0A4.32,4.32,0,0,0,88.5,31a2.32,2.32,0,0,0,.66-1.27c0-.44-.17-.94-1.14-.94A1.64,1.64,0,0,0,86.29,30.47Zm.79,6.44a16.05,16.05,0,0,1-1.26-1.58,16.47,16.47,0,0,1-1.09-1.69s0,0,0,0a4,4,0,0,0-1.2.69,2,2,0,0,0-.74,1.78c.23,1.18,1.33,1.5,2.43,1.44A3.48,3.48,0,0,0,87,37C87.1,36.94,87.09,36.93,87.08,36.91Z"/></g></g></svg>