<?xml version="1.0" encoding="utf-8"?>
<svg xmlns="http://www.w3.org/2000/svg" width="120" height="47.14" viewBox="0 0 120 47.14"><defs><style>.a{fill:#fff;}</style></defs><title>NIS</title><rect class="a" x="72.86" y="31.91" width="47.13" height="0.47"/><path class="a" d="M72.86,14.1V6.47h4.07a1.72,1.72,0,0,1,.34,0,2.28,2.28,0,0,1,.64.2h0a1.64,1.64,0,0,1,.28.16h0A6.22,6.22,0,0,1,79.8,8.62l6.56,9.74V14.1h0V8.76a2.29,2.29,0,0,1,2.29-2.29h2.73v8.29h0v11H87.45a1.78,1.78,0,0,1-.35,0,2.2,2.2,0,0,1-.63-.19h0a2.09,2.09,0,0,1-.29-.16h0a6.7,6.7,0,0,1-1.58-1.75L78,13.82h0l-.13-.13v1.08h0v11H75.15a2.3,2.3,0,0,1-2.29-2.29V14.1Z"/><path class="a" d="M100.71,8.76a2.28,2.28,0,0,0-2.29-2.29H95.7v17A2.29,2.29,0,0,0,98,25.74h2.72Z"/><path class="a" d="M118.11,15.78a10.15,10.15,0,0,0-4-1.51l-4-.89s-1.19-.27-1.19-1.24c0-.7.39-1.14,1.21-1.32a4.22,4.22,0,0,1,.92-.09h6a2.31,2.31,0,0,0,2-1.31,2.27,2.27,0,0,0,.23-1v-2h-7.06c-2.87,0-5,.62-6.48,1.86a5.2,5.2,0,0,0-1.6,2.54,6,6,0,0,0-.24,1.62,4.64,4.64,0,0,0,1.87,3.94,10.49,10.49,0,0,0,4,1.51l4,.89s1.2.28,1.2,1.23c0,.71-.4,1.14-1.22,1.33a4.19,4.19,0,0,1-.91.09h-6a2.26,2.26,0,0,0-.94.2,2.32,2.32,0,0,0-1.12,1.11,2.26,2.26,0,0,0-.22,1v2h7.06c2.86,0,5-.63,6.48-1.87a5.14,5.14,0,0,0,1.59-2.54,5.94,5.94,0,0,0,.24-1.62A4.64,4.64,0,0,0,118.11,15.78Z"/><path class="a" d="M76.62,42.66a4.9,4.9,0,0,1-1.43.24,2.45,2.45,0,0,1-1.75-.57,2.27,2.27,0,0,1,1.85-3.8,3,3,0,0,1,1.19.2l-.21.78a2.2,2.2,0,0,0-1-.18,1.4,1.4,0,0,0-.07,2.79,1.46,1.46,0,0,0,.47-.06v-.9H75V40.4h1.6Z"/><path class="a" d="M78.53,41.76l-.31,1.1h-1l1.31-4.29H79.8l1.33,4.29h-1l-.34-1.1ZM79.61,41l-.26-.91c-.08-.25-.16-.57-.22-.82h0c-.07.25-.13.57-.2.82l-.25.91Z"/><path class="a" d="M81.63,42.34l2-2.94v0H81.81v-.8h3.11v.56l-2,2.9v0h2v.8H81.63Z"/><path class="a" d="M85.71,38.63A8.08,8.08,0,0,1,87,38.54a2,2,0,0,1,1.3.34,1.21,1.21,0,0,1,.46,1,1.33,1.33,0,0,1-.39,1,2,2,0,0,1-1.39.45,1.57,1.57,0,0,1-.33,0v1.54h-1Zm1,1.94a1.27,1.27,0,0,0,.32,0c.51,0,.83-.26.83-.69s-.27-.63-.76-.63a1.67,1.67,0,0,0-.39,0Z"/><path class="a" d="M89.56,38.63a8.58,8.58,0,0,1,1.3-.09,2.18,2.18,0,0,1,1.38.33,1.12,1.12,0,0,1,.4.91,1.15,1.15,0,0,1-.76,1v0a1.08,1.08,0,0,1,.58.79c.13.49.26,1,.34,1.22h-1a6.17,6.17,0,0,1-.29-1c-.13-.54-.31-.68-.71-.69h-.29v1.69h-1Zm1,1.84h.39c.48,0,.76-.24.76-.61s-.26-.6-.71-.6a1.76,1.76,0,0,0-.44,0Z"/><path class="a" d="M97.39,40.67a2,2,0,0,1-2.11,2.26,2,2,0,0,1-2-2.19,2.07,2.07,0,0,1,2.08-2.25A2,2,0,0,1,97.39,40.67Zm-3.1,0c0,.84.39,1.44,1,1.44s1-.63,1-1.46-.36-1.44-1-1.44S94.29,39.89,94.29,40.72Z"/><path class="a" d="M101.8,41.22c0-.52,0-1.14,0-1.77h0c-.14.55-.32,1.16-.48,1.66l-.52,1.68H100l-.46-1.66c-.14-.51-.28-1.12-.39-1.68h0c0,.58,0,1.24-.07,1.78L99,42.86h-.9l.27-4.29h1.3l.42,1.43c.14.5.26,1,.36,1.53h0c.12-.49.26-1.06.41-1.53l.45-1.43h1.27l.23,4.29h-.94Z"/><path class="a" d="M105.43,42.86V38.57h1.13l.89,1.57a11.63,11.63,0,0,1,.7,1.47h0a16.84,16.84,0,0,1-.08-1.79V38.57H109v4.29h-1l-.91-1.66a14.15,14.15,0,0,1-.75-1.51h0c0,.57,0,1.18,0,1.87v1.3Z"/><path class="a" d="M112.52,41H111v1h1.76v.8H110V38.57h2.64v.8H111v.89h1.57Z"/><path class="a" d="M113.53,38.57h2.61v.8H114.5v1H116v.79H114.5v1.73h-1Z"/><path class="a" d="M117.86,39.39H116.7v-.82H120v.82h-1.17v3.47h-1Z"/><path class="a" d="M47.55,16.67c.24.07-9.86-2.47-13.08-4.3-1.62.76-2.74,1.66-2.74,2.68,0,5.22,20.08,4.34,19.53,11.52-.45,5.84-11.11,9.1-20,10.74a3.19,3.19,0,0,1-.9,3.22,19.16,19.16,0,0,1-5.91,4.13h0c-3.92,2.2-4,2.48-2.64,2.48C36.4,44.81,43,43.93,53.05,39.36c6.32-2.93,10.88-6.73,11.26-11.58C64.78,21.58,56.11,19,47.55,16.67ZM32.6,32.09c0-5.22-20.08-4.35-19.53-11.52.45-5.84,11.11-9.1,20-10.75A3.17,3.17,0,0,1,34,6.61a19.19,19.19,0,0,1,5.91-4.14h0C43.79.28,43.87,0,42.51,0,27.92,2.32,21.3,3.21,11.28,7.78,5,10.71.39,14.5,0,19.36c-.47,6.19,8.2,8.82,16.76,11.1-.24-.06,9.86,2.47,13.07,4.31C31.48,34,32.6,33.11,32.6,32.09Z"/></svg>
