<svg xmlns="http://www.w3.org/2000/svg" width="180" height="98.59" viewBox="0 0 180 98.59"><defs><style>.a,.b{fill:#fff;}.b{fill-rule:evenodd;}</style></defs><title>Promenada Logo</title><path class="a" d="M82.61,31.29a1.86,1.86,0,0,1,1.87,1.83v1.56a1.87,1.87,0,0,1-1.87,1.84h-28a1.87,1.87,0,0,1-1.88-1.84V33.12a1.86,1.86,0,0,1,1.88-1.83Z"/><path class="a" d="M119.66,38.09a1.86,1.86,0,0,1,1.87,1.83v1.56a1.86,1.86,0,0,1-1.87,1.84H88.19a1.86,1.86,0,0,1-1.87-1.84V39.92a1.86,1.86,0,0,1,1.87-1.83Z"/><path class="a" d="M75.46,24.46a1.85,1.85,0,0,1,1.87,1.83v1.56a1.85,1.85,0,0,1-1.87,1.83h-7.4a1.85,1.85,0,0,1-1.87-1.83V26.29a1.85,1.85,0,0,1,1.87-1.83Z"/><path class="a" d="M107.05,44.89a1.85,1.85,0,0,1,1.87,1.83v1.57a1.86,1.86,0,0,1-1.87,1.83H95.41a1.87,1.87,0,0,1-1.87-1.83V46.72a1.86,1.86,0,0,1,1.87-1.83Z"/><path class="a" d="M84.48,68a1.86,1.86,0,0,1-1.87,1.83H81A1.85,1.85,0,0,1,79.15,68V40.18A1.86,1.86,0,0,1,81,38.35h1.59a1.87,1.87,0,0,1,1.87,1.83Z"/><path class="a" d="M77.33,53a1.85,1.85,0,0,1-1.87,1.83H73.87A1.85,1.85,0,0,1,72,53V40.18a1.86,1.86,0,0,1,1.87-1.83h1.59a1.85,1.85,0,0,1,1.87,1.83Z"/><path class="a" d="M70.14,45.83a1.87,1.87,0,0,1-1.87,1.84H66.68a1.86,1.86,0,0,1-1.87-1.84V40.18a1.86,1.86,0,0,1,1.87-1.83h1.59a1.87,1.87,0,0,1,1.87,1.83Z"/><path class="a" d="M84.48,27.85a1.86,1.86,0,0,1-1.87,1.83H81a1.85,1.85,0,0,1-1.87-1.83V19.21A1.86,1.86,0,0,1,81,17.37h1.59a1.87,1.87,0,0,1,1.87,1.84Z"/><path class="a" d="M98.88,34.68A1.87,1.87,0,0,1,97,36.52h-1.6a1.87,1.87,0,0,1-1.87-1.84V17.85A1.87,1.87,0,0,1,95.41,16H97a1.87,1.87,0,0,1,1.87,1.83Z"/><path class="a" d="M91.65,61.48a1.85,1.85,0,0,1-1.87,1.83H88.19a1.85,1.85,0,0,1-1.87-1.83V46.72a1.85,1.85,0,0,1,1.87-1.83h1.59a1.85,1.85,0,0,1,1.87,1.83Z"/><path class="a" d="M106.1,34.68a1.86,1.86,0,0,1-1.87,1.84h-1.59a1.87,1.87,0,0,1-1.87-1.84v-1.5a1.87,1.87,0,0,1,1.87-1.83h1.59a1.86,1.86,0,0,1,1.87,1.83Z"/><path class="a" d="M110.68,62.2A1.84,1.84,0,0,1,108.82,64h-1.59a1.85,1.85,0,0,1-1.87-1.83V60.7a1.85,1.85,0,0,1,1.87-1.83h1.59a1.84,1.84,0,0,1,1.86,1.83Z"/><path class="a" d="M71.9,59A1.85,1.85,0,0,1,70,60.8H68.44A1.85,1.85,0,0,1,66.57,59v-1.5a1.85,1.85,0,0,1,1.87-1.84H70a1.85,1.85,0,0,1,1.87,1.84Z"/><path class="a" d="M77.33,15.06a1.85,1.85,0,0,1-1.87,1.83H73.87A1.85,1.85,0,0,1,72,15.06V10.79A1.85,1.85,0,0,1,73.87,9h1.59a1.85,1.85,0,0,1,1.87,1.83Z"/><path class="a" d="M91.65,34.68a1.86,1.86,0,0,1-1.87,1.84H88.19a1.86,1.86,0,0,1-1.87-1.84V1.83A1.85,1.85,0,0,1,88.19,0h1.59a1.85,1.85,0,0,1,1.87,1.83Z"/><path class="b" d="M8.56,78.92H6v6.63H8.3c2.5,0,4.71-.65,4.71-3.4s-2-3.23-4.45-3.23M0,75H9.52c2.53,0,4.74.17,6.5,1.35A6.84,6.84,0,0,1,19,82.31a6.54,6.54,0,0,1-4.13,6.41,14.93,14.93,0,0,1-4.71.71c-1.22,0-3.21,0-4.17,0V98.2H0Z"/><path class="b" d="M30.77,86.45a4,4,0,0,0-3.39,1.41,5.73,5.73,0,0,0-.84,3.49V98.2H20.93V86.35c0-1.6,0-2.85-.09-4.33h5.38c0,.26.16,2.76.16,3.11A5.18,5.18,0,0,1,31.45,82a4.8,4.8,0,0,1,.89.06V86.6a10.7,10.7,0,0,0-1.57-.15"/><path class="b" d="M42.42,84.65c-2.79,0-3.52,2.69-3.52,5.41a8.62,8.62,0,0,0,.73,3.76,2.9,2.9,0,0,0,2.82,1.73c2.76,0,3.59-2.79,3.59-5.49s-.83-5.41-3.62-5.41m0,13.94c-5.77,0-9.26-3.08-9.26-8.53a8.2,8.2,0,0,1,2.34-6,9.9,9.9,0,0,1,7.08-2.46c5.71,0,9.23,3.1,9.23,8.45s-3.59,8.53-9.39,8.53"/><path class="b" d="M76.67,98.2V89.07c0-2.17-.35-3.91-2.76-3.91S71,86.92,71,89.2v9H65.42V89.1a6.46,6.46,0,0,0-.35-2.5,2.28,2.28,0,0,0-2.34-1.44,2.65,2.65,0,0,0-2.53,1.47,5.73,5.73,0,0,0-.42,2.51V98.2H54.17v-11c0-2.5,0-3.34-.06-5.23h5.42c0,.22.12,2.28.16,2.57a6.06,6.06,0,0,1,5.54-2.79c2.44,0,4.2.8,5.19,3a6.3,6.3,0,0,1,5.83-3c2.79,0,4.49,1,5.36,2.88a8.54,8.54,0,0,1,.67,3.62v9.9Z"/><path class="b" d="M93.63,84.46c-2.12,0-3.46,1.5-3.46,3.81h6.6c0-2.4-1.06-3.81-3.14-3.81M90.07,91c0,2.53,1,4.58,3.49,4.58a2.82,2.82,0,0,0,3.11-2.76H102a6,6,0,0,1-1.93,3.66c-1.6,1.48-3.91,2-6.57,2-3.24,0-5.48-.83-7-2.53a8.47,8.47,0,0,1-1.89-5.68c0-5.41,3-8.74,9-8.74,3.65,0,6.5,1.38,7.81,4.42a11.85,11.85,0,0,1,.74,5Z"/><path class="b" d="M116,98.2V89.49c0-2-.07-4.33-2.76-4.33s-3,2.66-3,4.68V98.2H104.6V85.68c0-1.29-.1-2.31-.1-3.66H110c0,.22.13,2.34.13,2.5a6.32,6.32,0,0,1,5.48-2.72c4.23,0,6,1.92,6,6.15V98.2Z"/><path class="b" d="M151.72,84.84c-2.66,0-3.3,2.57-3.3,5.26s.67,5.29,3.5,5.29c2.6,0,3.42-2.69,3.42-5.22,0-2.79-.89-5.33-3.62-5.33m3.59,13.36c0-.15-.12-1.82-.12-2.14a5.88,5.88,0,0,1-5.2,2.5c-5,0-7.28-3.62-7.28-8.36,0-4.49,2.12-8.56,7.15-8.56a6.17,6.17,0,0,1,5.36,2.53V75h5.6V93.72c0,1.6,0,3,.1,4.48Z"/><path class="b" d="M174.36,90.49l-1.48,0c-1.95,0-4.48.61-4.48,2.82a2.31,2.31,0,0,0,2.47,2.28c2.85,0,3.49-2.41,3.49-4.84ZM180,98.2h-5.25a10.12,10.12,0,0,1-.39-2.4c-1.28,2-3,2.73-5.48,2.73-3.37,0-5.79-1.61-5.79-5,0-4.71,5.09-5.45,9.77-5.45h1.5v-1c0-1.45-.58-2.79-2.37-2.79a2.12,2.12,0,0,0-2.4,2.37h-5.48c.13-4.13,4.39-5.06,7.82-5.06,2.88,0,5,.38,6.31,1.72,1,1,1.5,2.38,1.5,4.62v5.1A33.53,33.53,0,0,0,180,98.2Z"/><path class="b" d="M135,90.49l-1.48,0c-1.95,0-4.48.61-4.48,2.82a2.31,2.31,0,0,0,2.47,2.28c2.85,0,3.49-2.41,3.49-4.84Zm.39,7.71a10.66,10.66,0,0,1-.39-2.4c-1.28,2-2.95,2.73-5.48,2.73-3.37,0-5.8-1.61-5.8-5,0-4.71,5.09-5.45,9.77-5.45H135v-1c0-1.45-.58-2.79-2.37-2.79a2.12,2.12,0,0,0-2.4,2.37h-5.49c.13-4.13,4.39-5.06,7.82-5.06,2.89,0,5,.38,6.32,1.72,1,1,1.5,2.38,1.5,4.62v5.1a33.53,33.53,0,0,0,.26,5.15Z"/></svg>