<?xml version="1.0" encoding="UTF-8"?> <svg xmlns="http://www.w3.org/2000/svg" width="150" height="70" viewBox="0 0 150 70"><title>rakuten-viber</title><polygon points="84.92 43.53 41.81 43.53 45.26 46.96 84.92 43.53" fill="#fff"></polygon><path d="M45.81,29.64v.53a4.43,4.43,0,0,0-2.51-.82c-3,0-5.33,2.75-5.33,6.14s2.29,6.14,5.33,6.14a4.34,4.34,0,0,0,2.51-.81v.52h2.66V29.64ZM43.3,38.8c-1.49,0-2.58-1.46-2.58-3.31s1.09-3.3,2.58-3.3,2.54,1.46,2.54,3.3S44.79,38.8,43.3,38.8Z" fill="#fff"></path><path d="M67.08,29.64v6.88a2.17,2.17,0,1,1-4.33,0V29.64H60.09v6.88a4.83,4.83,0,0,0,4.73,5.11,4,4,0,0,0,2.26-.73v.44h2.66V29.64Z" fill="#fff"></path><path d="M91.79,41.34V34.47a2.17,2.17,0,1,1,4.33,0v6.87h2.66V34.47A4.83,4.83,0,0,0,94,29.35a4,4,0,0,0-2.25.73v-.44H89.13v11.7Z" fill="#fff"></path><path d="M30.34,41.34V36.81h2l3.39,4.53h3.48l-4.09-5.47a5,5,0,0,0-2.9-9.12H27.59V41.37h2.75Zm0-11.84h1.81a2.25,2.25,0,1,1,0,4.5H30.34Z" fill="#fff"></path><path d="M76.87,38.56a1.39,1.39,0,0,1-.87.3,1.31,1.31,0,0,1-1.26-1.44v-5H77V29.64H74.74V26.72H72.08v2.92H70.67v2.78h1.41v5.06A4,4,0,0,0,76,41.66a5.48,5.48,0,0,0,2.61-.73Z" fill="#fff"></path><polygon points="55.05 35.11 59.62 29.64 55.9 29.64 52.72 33.71 52.72 25.75 49.97 25.75 49.97 41.34 52.72 41.34 52.72 36.52 56.6 41.34 60.35 41.34 55.05 35.11" fill="#fff"></polygon><path d="M83,29.35c-3.08,0-5.27,2.69-5.27,6.14a5.91,5.91,0,0,0,5.53,6.14A5.51,5.51,0,0,0,88,39l-2.34-1.34c-1.82,2.66-4.83,1.31-5.18-1.35H88.1C88.75,32.1,86,29.35,83,29.35ZM85.33,34H80.56A2.4,2.4,0,0,1,85.33,34Z" fill="#fff"></path><path d="M107.35,40.32l-4.27-10.65a2.28,2.28,0,0,1-.15-.44,2.42,2.42,0,0,1-.06-.46,1.55,1.55,0,0,1,.47-1.14,1.62,1.62,0,0,1,1.17-.44,1.15,1.15,0,0,1,.85.32,2.42,2.42,0,0,1,.61,1l2.9,7.84,2.81-7.72a2.79,2.79,0,0,1,.64-1.17,1.37,1.37,0,0,1,.94-.32,1.62,1.62,0,0,1,1.14.38,1.45,1.45,0,0,1,.41,1.08,3.7,3.7,0,0,1-.21,1.11L110.45,40.2a2.6,2.6,0,0,1-.64,1,1.52,1.52,0,0,1-1,.3,1.45,1.45,0,0,1-.91-.27A2.61,2.61,0,0,1,107.35,40.32Z" fill="#fff"></path><path d="M118.61,39.41a3,3,0,0,1-.35,1.61,1.25,1.25,0,0,1-1.08.53,1.27,1.27,0,0,1-1.12-.53,3,3,0,0,1-.35-1.61V33.53a3,3,0,0,1,.35-1.61,1.27,1.27,0,0,1,1.12-.52,1.21,1.21,0,0,1,1.08.52,3,3,0,0,1,.35,1.61Z" fill="#fff"></path><path d="M123.05,31.49a3.74,3.74,0,0,1,1.12-.68,4,4,0,0,1,1.31-.23,4.3,4.3,0,0,1,3.39,1.58,5.91,5.91,0,0,1,1.38,4,5.75,5.75,0,0,1-1.4,3.86,4.4,4.4,0,0,1-3.37,1.58,3.46,3.46,0,0,1-1.4-.27,2.9,2.9,0,0,1-1.11-.79,2.42,2.42,0,0,1-.68.76,1.44,1.44,0,0,1-2-.29,2.91,2.91,0,0,1-.39-1.7V29.47a3,3,0,0,1,.39-1.73,1.51,1.51,0,0,1,2.33,0,3,3,0,0,1,.39,1.73v2Zm-.26,4.62a3.14,3.14,0,0,0,.62,2,1.93,1.93,0,0,0,1.6.79,2,2,0,0,0,1.61-.79,3.2,3.2,0,0,0,.62-2,3.32,3.32,0,0,0-.62-2.08,2,2,0,0,0-3.21,0A3.52,3.52,0,0,0,122.79,36.11Z" fill="#fff"></path><path d="M133.76,37a2.23,2.23,0,0,0,.91,1.38,2.58,2.58,0,0,0,1.63.5,5,5,0,0,0,2-.5,5.68,5.68,0,0,1,1.32-.5,1.36,1.36,0,0,1,.91.32,1.22,1.22,0,0,1,.35.88c0,.67-.47,1.26-1.41,1.81a6.49,6.49,0,0,1-3.27.79,5.19,5.19,0,0,1-3.83-1.55,5.35,5.35,0,0,1-1.55-3.91,5.5,5.5,0,0,1,1.49-4A4.91,4.91,0,0,1,136,30.64a4.81,4.81,0,0,1,3.6,1.49,5,5,0,0,1,1.46,3.63,1.24,1.24,0,0,1-.32,1,2,2,0,0,1-1.23.29h-5.76Zm-.12-1.81h4.56a2.16,2.16,0,0,0-.7-1.55A2.18,2.18,0,0,0,136,33a2.25,2.25,0,0,0-1.55.55A2.83,2.83,0,0,0,133.64,35.14Z" fill="#fff"></path><path d="M141.89,39.24V33a3,3,0,0,1,.38-1.7,1.3,1.3,0,0,1,1.17-.55,1.67,1.67,0,0,1,.85.23,2.05,2.05,0,0,1,.64.76,3.65,3.65,0,0,1,1-.79,2.45,2.45,0,0,1,1.09-.26,1.47,1.47,0,0,1,1.11.46,1.45,1.45,0,0,1,.47,1.09c0,.61-.59,1.14-1.73,1.55a6,6,0,0,0-.94.38,1.69,1.69,0,0,0-.78.61A2.85,2.85,0,0,0,145,36v3.25a2.91,2.91,0,0,1-.38,1.69,1.5,1.5,0,0,1-2.34,0A3.44,3.44,0,0,1,141.89,39.24Z" fill="#fff"></path><path d="M115.6,28.79a1.57,1.57,0,0,1,.46-1.14,1.59,1.59,0,0,1,1.17-.46,1.61,1.61,0,1,1,0,3.21,1.59,1.59,0,0,1-1.17-.46A1.49,1.49,0,0,1,115.6,28.79Z" fill="#fff"></path><path d="M19.67,26.54c-.56-.49-2.78-2.13-7.75-2.13,0,0-5.85-.35-8.72,2.25C1.62,28.24,1.06,30.58,1,33.45s-.15,8.27,5.06,9.73h0v2.23s0,.9.55,1.08,1.14-.47,1.84-1.2c.38-.41.91-1,1.29-1.46a19.6,19.6,0,0,0,6.61-.5c.73-.23,4.8-.76,5.44-6.17S21.51,28.12,19.67,26.54Zm.61,10.27c-.56,4.5-3.86,4.8-4.47,5a19.19,19.19,0,0,1-5.71.5S7.85,45,7.15,45.73a.46.46,0,0,1-.32.15c-.12,0-.15-.18-.15-.38s0-3.72,0-3.72h0C2.29,40.55,2.56,36,2.61,33.56s.5-4.38,1.85-5.7c2.42-2.19,7.4-1.87,7.4-1.87,4.21,0,6.2,1.28,6.67,1.69C20.08,29,20.86,32.16,20.28,36.81Z" fill="#fff"></path><path d="M14,33.62a.32.32,0,0,1-.29-.26c-.06-1-.5-1.44-1.4-1.46a.28.28,0,1,1,0-.56,1.88,1.88,0,0,1,1.93,2c0,.14-.09.26-.27.29Z" fill="#fff"></path><path d="M15.42,34.09h0a.3.3,0,0,1-.29-.29,3.17,3.17,0,0,0-.85-2.37,3.34,3.34,0,0,0-2.45-1.06.29.29,0,0,1-.27-.29.3.3,0,0,1,.3-.26,3.94,3.94,0,0,1,2.8,1.26,3.77,3.77,0,0,1,1,2.77C15.69,34,15.57,34.09,15.42,34.09Z" fill="#fff"></path><path d="M16.89,34.67a.29.29,0,0,1-.3-.29,5.11,5.11,0,0,0-5.23-5.47.29.29,0,0,1-.29-.29.28.28,0,0,1,.29-.29h0A5.68,5.68,0,0,1,15.48,30a5.89,5.89,0,0,1,1.67,4.42.27.27,0,0,1-.26.29Z" fill="#fff"></path><path d="M12.35,37.1a.83.83,0,0,0,.62-.23l.41-.53a.89.89,0,0,1,1.14-.15c.26.15.73.44,1,.65s1,.76,1,.76a.79.79,0,0,1,.17,1h0a3.78,3.78,0,0,1-.85,1.05h0a1.58,1.58,0,0,1-.87.41h-.12a1.65,1.65,0,0,1-.38,0h0a12.54,12.54,0,0,1-2.4-1.12,12.2,12.2,0,0,1-2-1.34,7.43,7.43,0,0,1-.9-.82l0,0,0,0h0l0,0,0,0a10.65,10.65,0,0,1-.82-.9,14.44,14.44,0,0,1-1.34-2,12.54,12.54,0,0,1-1.12-2.4h0a1.46,1.46,0,0,1,0-.38v-.12a1.58,1.58,0,0,1,.41-.87h0a3.78,3.78,0,0,1,1.05-.85h0a.75.75,0,0,1,1,.17s.53.65.76,1,.5.76.65,1a.92.92,0,0,1-.15,1.14l-.53.41a.8.8,0,0,0-.23.62A5.53,5.53,0,0,0,12.35,37.1Z" fill="#fff"></path></svg> 