<svg xmlns="http://www.w3.org/2000/svg" width="240" height="172.29" viewBox="0 0 240 172.29"><defs><style>.a{fill:#fff;}</style></defs><title>Smirnoff Ice</title><path class="a" d="M86.64,75.07a2.18,2.18,0,1,0,2.17,2.17A2.18,2.18,0,0,0,86.64,75.07Zm0,3.26a1.09,1.09,0,1,1,1.09-1.09A1.09,1.09,0,0,1,86.64,78.33Z"/><rect class="a" x="66.26" y="84.26" width="11.33" height="69.87"/><path class="a" d="M124.53,84.26H96.66a6.65,6.65,0,0,0-6.31,6.64v56.58a6.72,6.72,0,0,0,6.58,6.65h27.86c2.86,0,5-2.93,5-6.8V134.78l-11.09,2V142a3,3,0,0,1-3,3.26H104.59A3.08,3.08,0,0,1,101.4,142V96.32a3.17,3.17,0,0,1,3.13-3.27h11.09a3.05,3.05,0,0,1,3.1,3.41v5.11l11.09,2V91C129.8,86.77,127.84,84.26,124.53,84.26Z"/><polygon class="a" points="174.66 93.83 174.66 84.26 142.56 84.26 142.56 154.13 174.66 154.13 174.66 144.54 153.72 144.54 153.72 124.71 166.34 124.71 170.04 114.05 153.72 114.05 153.72 93.83 174.66 93.83"/><polygon class="a" points="52.79 121.73 54.83 116.64 38.84 116.64 36.79 121.73 52.79 121.73"/><path class="a" d="M33.1,124.23H54.47l4.05-10.08H37.15Zm144.05-27.9V81.76H140.07v74.86h37.08V142.05H156.22V127.2h11.89l5.44-15.64H156.22V96.33ZM63.76,156.62H80.08V81.76H63.76ZM91.31,77.24a4.67,4.67,0,1,0-4.67,4.67A4.68,4.68,0,0,0,91.31,77.24Zm33.22,4.52H96.66c-4.69,0-8.81,4.27-8.81,9.14v56.58c0,3.84,3.15,9.14,9.08,9.14h27.86c4.27,0,7.51-4,7.51-9.29V131.8l-16.09,2.84V142c0,.76-.3.76-.51.76H104.59c-.33,0-.7-.08-.7-.68V96.32c0-.39.2-.77.63-.77h11.09c.32,0,.6,0,.6.91v7.2l16.09,2.85V91C132.3,85.39,129.25,81.76,124.53,81.76Zm16.32,74.08V82.54h35.52v13H155.44v16.79h17l-4.89,14.08H155.44v16.4h20.93v13Zm-43.92,0c-5.42,0-8.3-4.86-8.3-8.36V90.9a8.42,8.42,0,0,1,8-8.36h27.87c4.31,0,7,3.24,7,8.45v14.59L117,103V96.46c0-1.14-.45-1.69-1.38-1.69H104.52a1.45,1.45,0,0,0-1.42,1.55V142a1.37,1.37,0,0,0,1.48,1.47H115.7c.59,0,1.29-.28,1.29-1.55V135.3l14.53-2.57v14.6c0,4.85-2.89,8.51-6.73,8.51Zm-32.39,0V82.54H79.3v73.3ZM34.26,123.45l3.42-8.52H57.37L54,123.45ZM86.64,81.13a3.89,3.89,0,1,1,3.89-3.89A3.89,3.89,0,0,1,86.64,81.13Z"/><polygon class="a" points="52.79 121.73 54.83 116.64 38.84 116.64 36.79 121.73 52.79 121.73"/><path class="a" d="M218.17,72.09a437.36,437.36,0,0,0-196.34,0V26.84a437.07,437.07,0,0,1,196.34,0ZM78.79,26.78l-4.66.47-.21,0-2.8,16.51L68.39,27.89l-.27,0q-2.33.27-4.65.57l-.2,0,0,.2q-2.68,13.53-5.36,27.08l-.08.39.4-.05c1.54-.23,3.08-.44,4.63-.64l.22,0,2.78-16.71,2.73,16,.27,0,4.64-.52.22,0,2.79-16.66L79.2,53.67l.27,0,4.66-.41.32,0L79,26.76ZM90,25.86l-.26,0V52.81l.31,0c1.53-.11,3.07-.21,4.61-.3h.26V25.55l-.3,0C93.09,25.65,91.55,25.76,90,25.86Zm47-.7h-.29v16q-2.94-8-5.88-16L130.8,25h-.2c-1.73,0-3.46-.05-5.18-.07h-.29V51.8h.28c1.45,0,2.89,0,4.34.06H130V36q2.88,7.93,5.76,15.9l.07.18h.19c1.76.06,3.52.14,5.29.23h.29V25.37h-.27C139.93,25.29,138.48,25.21,137,25.16Zm33.86,2.63-.32,0V54.69l.25,0c1.53.18,3.05.36,4.57.56l.32,0V44c1.83.23,3.66.48,5.49.73l.32.05V40.1l-.24,0c-1.86-.26-3.71-.51-5.57-.75V33c2.41.31,4.86.64,7.29,1l.33,0V29.45l-.25,0C179,28.83,174.94,28.26,170.89,27.79Zm30.66,4.71c-4-.76-8.11-1.47-12.12-2.1l-.34-.06V57.27l.25,0,4.54.75.33.06V46.76q2.73.47,5.44,1l.34.06V43.15l-.23,0q-2.77-.51-5.55-1V35.82c2.48.42,4.91.86,7.23,1.29l.34.07V32.54ZM51.8,42A2.87,2.87,0,0,0,50,41.36l-.42,0-5.78,1-.19,0c-.29,0-.44-.11-.44-.69v-5a.69.69,0,0,1,.55-.63l3.63-.64h.09a.4.4,0,0,1,.43.4v2.36c1.68-.28,3.35-.56,5-.82V33.7a3.28,3.28,0,0,0-1-2.5,3,3,0,0,0-2-.72c-.17,0-.36,0-.56.05-2.54.42-5.08.87-7.58,1.33a4.26,4.26,0,0,0-2.54,1.5,4.33,4.33,0,0,0-1,2.73v8.63a3,3,0,0,0,.88,2.18,2.59,2.59,0,0,0,1.83.71,2.93,2.93,0,0,0,.58-.06l5.57-1,.19,0h0c.14,0,.57,0,.57.67v5c0,.77-.19.9-.61,1-.05,0-3.58.63-3.67.63-.31,0-.4-.12-.4-.77v-2l-5,.93h0v3.66a3.46,3.46,0,0,0,1,2.57,2.66,2.66,0,0,0,1.8.7,2.89,2.89,0,0,0,.5,0c3.31-.62,5-.91,8.25-1.44a3.57,3.57,0,0,0,2.19-1.38,4.53,4.53,0,0,0,1-2.8V44.52A3.1,3.1,0,0,0,51.8,42ZM160.41,26.69c-2.79-.26-5.63-.49-8.47-.69h-.09a3.28,3.28,0,0,0-3.43,3.49V49.1a3.69,3.69,0,0,0,3.6,3.83c3.2.23,4.85.36,8.11.66a3,3,0,0,0,.42,0,3.32,3.32,0,0,0,2.43-1,3.48,3.48,0,0,0,.92-2.48V30.58A3.77,3.77,0,0,0,160.41,26.69Zm-1.65,21.65a.39.39,0,0,1-.15.31.49.49,0,0,1-.33.14h-.06l-4.11-.34a.59.59,0,0,1-.55-.55V31.21a.48.48,0,0,1,.49-.46h0l4.1.34a.63.63,0,0,1,.56.57ZM114,39.49l2.09-2a3.76,3.76,0,0,0,1.25-3.25v-5.7a3.61,3.61,0,0,0-3.89-3.66c-3.92.05-7.11.16-11.12.33h-.27V52.13l.3,0L107,52h.27V45.82l3-2.71,3.4,8.52.08.18h.19c1.72,0,3.43-.05,5.15-.05h.43l-.18-.4C117.53,47.4,115.76,43.43,114,39.49Zm-1.81-5.73a2.72,2.72,0,0,1-.91,2.18l-4.07,4.13V29.6l4.07-.1h.08c.71,0,.83.23.83.74Z"/></svg>