<svg xmlns="http://www.w3.org/2000/svg" width="32.81mm" height="25.75mm" viewBox="0 0 93 73"><defs><style>.a{fill:#fff;}</style></defs><title>VISA logo</title><path class="a" d="M35.35,21.84l-12,28.6H15.54L9.64,27.61a3.12,3.12,0,0,0-1.75-2.5,30.74,30.74,0,0,0-7.3-2.44l.17-.83H13.35a3.44,3.44,0,0,1,3.41,2.92l3.12,16.55,7.7-19.47ZM66,41.1c0-7.54-10.44-8-10.37-11.34,0-1,1-2.11,3.15-2.39a14,14,0,0,1,7.29,1.28l1.3-6.06a19.78,19.78,0,0,0-6.92-1.27c-7.32,0-12.46,3.88-12.5,9.45,0,4.12,3.67,6.42,6.47,7.79s3.85,2.29,3.84,3.55c0,1.92-2.3,2.77-4.43,2.8a15.39,15.39,0,0,1-7.59-1.81l-1.35,6.27a22.41,22.41,0,0,0,8.23,1.52C60.88,50.89,66,47.05,66,41.1M85.3,50.44h6.84l-6-28.6H79.86a3.36,3.36,0,0,0-3.15,2.1l-11.1,26.5h7.76l1.55-4.27h9.49ZM77.05,40.3l3.89-10.73L83.18,40.3ZM45.92,21.84,39.8,50.44H32.4l6.12-28.6Z"/></svg>