<svg xmlns="http://www.w3.org/2000/svg" width="530" height="473.68" viewBox="0 0 530 473.68"><defs><style>.a{fill:#fff;}</style></defs><title>Artboard 1</title><path class="a" d="M55.48,1.18V25.85H31.8v31H54.49V81.5H31.8v33.15H55.87v24.66H4.17V1.18Z"/><path class="a" d="M116.25,67.88l17.37,71.43H104.81L96.52,96.69l-9.27,42.62H61L78.17,72.62,61.4,1.18H90.21L97.9,43.41,107,1.18h26.24Z"/><path class="a" d="M167.56,139.31H139.93V1.18h27.63Z"/><path class="a" d="M191.43,139.31V25.85H174.66V1.18h61.17V25.85H219.05V139.31Z"/><path class="a" d="M297.39,57c3.35-4.34,4.73-7.11,4.73-11.45v-17c0-3.35-1.58-4.93-4.93-4.93h-1.78c-3.35,0-4.93,1.58-4.93,4.93V51.5H264.43V25.65C264.43,8.49,272.92,0,290.09,0H303.7c17.17,0,25.65,8.49,25.65,25.65V46.37c0,9.87-2.56,17.17-11.05,27.82l-22.29,28c-3.36,4.34-4.74,7.1-4.74,11.44v1h38.08v24.66H264V112.87c0-10.26,2.56-17.17,11-27.82Z"/><path class="a" d="M379.87,140.5h-17c-17.17,0-25.65-8.49-25.65-25.66V25.65C337.25,8.49,345.73,0,362.9,0h17C397,0,405.52,8.49,405.52,25.65v89.19C405.52,132,397,140.5,379.87,140.5ZM373.16,23.68h-3.55c-3.36,0-4.94,1.58-4.94,4.93v83.27c0,3.36,1.58,4.94,4.94,4.94h3.55c3.35,0,4.93-1.58,4.93-4.94V28.61C378.09,25.26,376.51,23.68,373.16,23.68Z"/><path class="a" d="M451.1,139.31h-27V32.76H411V13.62l1.78-.2c7.7-.79,11.25-3.75,15.79-9.67L431,.59H451.1Z"/><path class="a" d="M500.23,111.88V84.65a38.23,38.23,0,0,1-16.18,3.55h-1c-14,0-22.29-9.27-22.29-22.89V25.65C460.77,8.49,469.25,0,486.42,0H502c17.17,0,25.65,8.49,25.65,25.65v89.19c0,17.17-8.48,25.66-25.65,25.66H486.62C469.45,140.5,461,132,461,114.84V97.48H487.6v14.4c0,3.36,1.58,4.94,4.94,4.94h2.76C498.65,116.82,500.23,115.24,500.23,111.88Zm0-83.27c0-3.35-1.58-4.93-4.93-4.93h-2.37c-3.35,0-4.93,1.58-4.93,4.93V59.79c0,3.16,1,4.54,4.93,4.54a22.19,22.19,0,0,0,7.3-1.19Z"/><path class="a" d="M35.86,269.66l-1.67-15.5H20.82l-1.52,15.5H0L14,163.29H43L57,269.66Zm-13.07-34h9.42L27.5,189.28Z"/><path class="a" d="M100.29,163.29v19H82.81v24.92H99.53v19H82.81v43.46H61.54V163.29Z"/><path class="a" d="M116.85,269.66V182.29H103.93v-19H151v19H138.12v87.37Z"/><path class="a" d="M195.86,163.29v19H177.63v23.86H195.1v19H177.63v25.53h18.54v19H156.35V163.29Z"/><path class="a" d="M254.67,233v36.62H233.39V233.19c0-2.58-1.21-3.8-3.79-3.8h-5.32v40.27H203V163.29h31.76c13.22,0,19.76,6.54,19.76,19.76v20.51c0,9.12-3.35,13.68-9.12,15.81C251.93,221.19,254.67,225.29,254.67,233Zm-25.23-51.21h-5.16v29.48h5.16c2.59,0,3.8-1.21,3.8-3.8V185.63C233.24,183.05,232,181.83,229.44,181.83Z"/><path class="a" d="M278.83,199.31v70.35h-17V163.29H292.5l6.08,64.43,6.53-64.43H336V269.66H315V200.07l-8.05,69.59H286.88Z"/><path class="a" d="M376.68,270.57H363c-13.22,0-19.76-6.53-19.76-19.75V182.14c0-13.22,6.54-19.76,19.76-19.76h13.67c13.22,0,19.76,6.54,19.76,19.76v68.68C396.44,264,389.9,270.57,376.68,270.57Zm-5.32-89.95h-3c-2.59,0-3.8,1.21-3.8,3.8v64.12c0,2.58,1.21,3.8,3.8,3.8h3c2.59,0,3.8-1.22,3.8-3.8V184.42C375.16,181.83,374,180.62,371.36,180.62Z"/><path class="a" d="M414.22,269.66,399.93,163.29h21.58L429,238.82l7.74-75.53h19.76L442.18,269.66Z"/><path class="a" d="M482.44,269.66H461.17V163.29h21.27Z"/><path class="a" d="M529.7,163.29v19H511.46v23.86h17.48v19H511.46v25.53H530v19H490.19V163.29Z"/><path class="a" d="M268.72,311.43a81.25,81.25,0,0,0-38.79,9.86,3.21,3.21,0,1,0,3.08,5.64,74.86,74.86,0,1,1-16.78,12.49,3.21,3.21,0,1,0-4.51-4.57,81.11,81.11,0,1,0,57-23.42Z"/><path class="a" d="M240.43,438.89a3.23,3.23,0,0,0,4.48.78l63.23-44.49a3.2,3.2,0,0,0,0-5.25l-63.23-44.49a3.21,3.21,0,0,0-5.06,2.63v60.81a3.22,3.22,0,1,0,6.43,0V354.26l54.43,38.29-59.5,41.86A3.22,3.22,0,0,0,240.43,438.89Z"/></svg>